<?xml version="1.0" encoding="UTF-8"?><svg id="AIrtwork" xmlns="http://www.w3.org/2000/svg" viewBox="0 0 1000 1000"><path d="m580.3166,682.0652c-2.2366.9062-7.3979,8.8088-9.8225,11.4595,3.062-12.1822.2276-24.1448,0-36.0157-.3907-20.3733,5.8181-5.6172,7.3668-8.5947-2.6461-11.4054-6.1546-19.2607.4093-11.8688,8.6945-9.9779,8.0452-5.0682,2.8649,4.502,2.1537,6.8263.5798,35.3147-.8185,40.5177Z" style="fill:#f5f5f4; stroke-width:0px;"/><path d="m496.8257,789.2937c-3.8923-9.3549-11.5947-20.4292-15.5522-30.2859.045-1.6127,1.367-3.5551-.4093-7.3668-25.398,5.202-46.5642-41.8441-45.4289-63.0275.5133,1.3862,3.3031,4.343,4.0927,5.7298,3.8517,6.7645,10.5118,16.301,17.1893,20.4635,2.8955,9.9609,35.4596,30.7691,43.3825,31.923l2.0463.8185c11.4856-22.8467,23.5795-9.6102,53.6143-37.6528,8.076-7.4932,21.5378-16.5995,24.5562-27.8303.3259-.132,4.0318-.9678,4.0927.4093-16.2325,35.8107-42.3143,46.8756-62.2089,69.5758-11.8021,13.4664-15.7066,23.2897-25.3747,37.2435Z" style="fill:#6b3d23; stroke-width:0px;"/><path d="m570.4942,657.509c.2276,11.8709,3.062,23.8335,0,36.0157-4.9134,5.3718-9.3903,11.3818-14.7337,16.3708-30.0348,28.0425-42.1287,14.806-53.6143,37.6528l-2.0463-.8185q4.502-7.5715,9.0039-15.143c-.5045-1.3936-24.3509-5.2242-27.0118-11.4595,1.1748-4.4524,17.7046,7.0615,45.0196-17.5986,12.964-11.7039,21.5543-27.0531,31.923-40.9269.9174-1.2275,4.2964-7.2664,5.3205-7.3668.3462-.034,4.5636,3.5711,6.139,3.2742Z" style="fill:#f2c390; stroke-width:0px;"/><path d="m527.1116,702.5286c-27.315,24.6601-43.8448,13.1462-45.0196,17.5986,2.6609,6.2353,26.5073,10.0659,27.0118,11.4595q-4.502,7.5715-9.0039,15.143c-7.9229-1.1539-40.4871-21.9621-43.3825-31.923,16.6867,10.4017-.6652-5.2636,7.3668-9.0039,1.4975,1.6701,7.5988,6.2109,9.8225,7.3668,13.6929,7.118,18.2775,4.5282,31.1045-1.6371,1.587-.7628,1.5342-1.584,1.6371-1.6371,5.6729-2.928,11.2801-5.8937,16.3708-9.8225q2.0463,1.2278,4.0927,2.4556Z" style="fill:#9b6841; stroke-width:0px;"/><path d="m462.4471,700.8915c-2.6696-1.0758-.3744,2.6679,1.6371,4.9112-.7285-.7219-4.1052,2.53-4.502,2.4556-1.3319-.2496-16.1656-20.0742-16.78-21.282-4.9018-9.6347-4.4836-19.3596-5.7298-29.4674,5.5018,4.8905,9.5383,5.6344,9.8225,6.139.9309,1.653-4.1264,3.6935,6.5483,12.2781-15.1036-2.5289,1.8512,8.1207,1.6371,9.0039-.1057.4359-3.8852,1.3711-4.0927,2.4556-.1676.8763,10.3254,12.8756,11.4595,13.5059Z" style="fill:#b07c53; stroke-width:0px;"/><path d="m559.0346,661.6017c-10.3687,13.8738-18.959,29.223-31.923,40.9269q-2.0463-1.2278-4.0927-2.4556c1.4458-1.1158,13.0686-10.194,13.0966-11.0503.0393-1.2034-7.3655-2.5017-7.3668-3.2742-.0042-2.5245,28.5243-6.7934,9.8225-19.6449h14.7337q-1.4324-5.9344-2.8649-11.8688c4.7893,3.8772,6.1972,9.4289,8.5947,7.3668Z" style="fill:#c19969; stroke-width:0px;"/><path d="m437.0724,657.509c1.2462,10.1078.828,19.8327,5.7298,29.4674q-1.6371,3.6834-3.2742,7.3668c-.7896-1.3868-3.5794-4.3435-4.0927-5.7298-4.2995-11.6121-4.4158-33.7827-.4093-45.8382-.1266,6.9993,1.6657,11.646,2.0463,14.7337Z" style="fill:#f6ddac; stroke-width:0px;"/><path d="m462.4471,700.8915c6.5906,3.6625,16.2278-.7523,11.4595,12.2781-2.2237-1.156-8.325-5.6967-9.8225-7.3668-2.0114-2.2433-4.3067-5.9871-1.6371-4.9112Z" style="fill:#915a32; stroke-width:0px;"/><path d="m464.0842,705.8028c-8.032,3.7403,9.3198,19.4057-7.3668,9.0039-6.6775-4.1624-13.3376-13.6989-17.1893-20.4635q1.6371-3.6834,3.2742-7.3668c.6145,1.2078,15.4482,21.0324,16.78,21.282.3967.0744,3.7735-3.1775,4.502-2.4556Z" style="fill:#f2c390; stroke-width:0px;"/><path d="m555.7605,709.8955c5.3434-4.989,9.8203-10.999,14.7337-16.3708,2.4245-2.6508,7.5859-10.5534,9.8225-11.4595-3.0183,11.2308-16.4801,20.3371-24.5562,27.8303Z" style="fill:#170908; stroke-width:0px;"/><path d="m743.2058,763.1005c-1.9947,2.2071-8.7626-4.3478-13.5059-5.7298-24.0247,2.0678-38.3913-22.2946-59.344-42.564-19.9441-19.2937,13.8493,5.4828,2.8649-4.0927-7.8844-6.8731-34.5589-15.3604-26.1932-16.3708,1.5472-.1868,24.3839,11.7546,28.6489,12.2781,11.1959,7.9149,22.3612,25.3054,31.923,32.7415,16.0662,12.4946,27.4161,7.765,25.784,17.5986,3.2901,2.1344,6.8072,3.5435,9.8225,6.139Z" style="fill:#050504; stroke-width:0px;"/><path d="m444.4392,798.2976c-3.0652-.0964-10.9365-14.5811-25.784-13.9152-5.3224,5.6015,9.1683,24.9887.4093,20.4635-1.2521-6.0281-8.6389-8.9505-13.9152-11.4595-3.965-3.676-8.1264-7.1554-11.4595-11.4595,4.0868-1.9882,20.8825-13.1654,22.5098-13.0966,3.9007,2.9222,33.1938,15.85,33.9694,17.5986,1.1056,2.4927-5.8395,8.7222-5.7298,11.8688Z" style="fill:#696317; stroke-width:0px;"/><path d="m627.7919,705.8028c-1.8228,6.5752-3.9099,13.0673-5.7298,19.6449-1.6265,5.8788-5.701,24.8601-6.5483,26.1932-.8323,1.3095-14.032,9.5273-17.1893,10.641,1.4994-3.324,3.7873-7.5641,5.7298-10.641.2099-.3324,3.0985.9716,5.7298-4.502,1.1829-2.4607,4.0931-20.4698,6.5483-28.2396,1.779-5.6297,5.0762-10.6289,6.5483-16.3708.2284.187,1.1125.0295,4.9112,3.2742Z" style="fill:#fbf7e7; stroke-width:0px;"/><path d="m581.9537,754.0966c.9335,1.039,5.2559,3.7176,4.9112,5.3205-12.5303,7.8106-26.5315,14.2982-41.7455,13.5059,10.7156-6.9493,20.1032-7.877,20.8727-13.0966l15.9615-5.7298Z" style="fill:#861c2a; stroke-width:0px;"/><path d="m556.579,733.6331c-9.4702,10.8016-24.3109,21.6987-33.5601,31.923l-3.2742-2.4556c10.2995-11.7483,22.6415-21.4489,34.7879-31.1045,1.6126-.1992,1.9273,1.5824,2.0463,1.6371Z" style="fill:#f5e6dd; stroke-width:0px;"/><path d="m523.0189,765.5561c-8.6537,9.566-15.5972,20.5482-22.9191,31.1045-.0387-.1091-1.0297-.0274-1.6371-1.6371,7.5018-13.3743,11.0437-20.2444,21.282-31.923l3.2742,2.4556Z" style="fill:#f2c390; stroke-width:0px;"/><path d="m622.0621,725.4477c1.8198-6.5776,3.9069-13.0697,5.7298-19.6449.174.1486,2.6713-.5697,4.0927,2.0463,1.7866,3.2884-7.3465,19.172-9.8225,17.5986Z" style="fill:#b52a3e; stroke-width:0px;"/><path d="m250.3598,828.9028c1.7186,3.7663,3.4521,7.5364,5.4834,11.1356.5785.5565,1.1662,1.1034,1.7634,1.6409,6.4371,4.3396,13.2273,8.1071,20.2444,11.435,9.3936,3.4971,19.0182,6.2206,28.869,8.0796,16.6236,1.2925,33.2326.0434,49.7857-1.9753,28.4475-4.089,57.4276-9.0851,86.1315-5.8849,18.7429,2.0896,36.3531,5.571,54.2359,11.3778,8.979,2.9157,17.9373,5.9099,27.0783,8.1977,3.0809-.086,6.1941-.1677,9.3408-.2455,6.9926-3.7701,13.7356-8.0065,20.7792-11.6961,17.0935-8.954,33.9396-14.944,52.8966-17.4914,14.3432-1.9273,27.7402-2.0887,42.0851-.1928,12.671,1.6747,25.2565,3.8161,37.8831,5.718,6.6169.6859,13.2396,1.0168,19.8718.7257,1.9382-.4532,3.8564-.9786,5.7598-1.5674,3.8133-2.0272,7.4993-4.288,11.0653-6.7303,5.5917-4.8436,10.7953-10.0904,15.6116-15.7023,4.3166-6.2281,8.1674-12.7432,11.5027-19.5424,1.8841-5.3283,3.433-10.753,4.5901-16.2793.2001-3.5132.2203-7.0255.0589-10.5378-.1557-.6809-.3373-1.3546-.5081-2.0312-33.3957,18.4089-88.9679,27.3989-127.5058,41.4247-38.0459,9.5069-75.8535,19.823-114.5955,26.1933-2.0597.4516-1.9788-.6936-2.8648-2.8649-1.7148-4.2024-4.8433-31.3939-9.8226-45.4289-.0386-.1091-1.0297-.0274-1.637-1.6371-1.181-3.1304-1.5226-5.4547-1.637-5.7298-3.8924-9.3549-11.5947-20.4292-15.5523-30.2859-.1374,4.9168-1.2092,9.6031-2.4556,14.3245,16.5825,25.2306,17.7442,28.4357,20.4635,56.8884.0681.7135,3.9421,8.9297.4092,13.9152-7.3365.757-15.0695-.8414-16.7801-.8185-6.6062.0882-12.1246.4958-18.8263,0-69.2524-5.1231-136.6051-24.9448-203.4068-42.564-12.15-7.1814,16.8528-52.6552,32.7415-63.0275,17.9386-11.7104,24.0801-1.7314,51.568-10.641,14.9181-4.8353,26.1969-14.2236,38.8806-22.919-.585-17.468-13.2473-.1679-21.6913,5.7298-16.9929,11.8686-36.4615,21.2475-57.707,18.8263-45.5378,15.5959-61.5855,49.8442-59.8473,89.1205,2.0661,3.4909,3.9327,7.1046,5.738,11.0605Z" style="fill:#fbf7e7; stroke-width:0px;"/><path d="m360.539,835.1319q67.1202,6.9576,134.2403,13.9152c17.2334,3.1599,4.4863,4.6073-16.3708,4.0927-12.9518-.3195-40.2231-2.6502-54.0235-4.0927-7.3903-.7725-61.5446-7.6235-63.4367-10.2317-.1088-.15-.175-2.8076-.4093-3.6834Z" style="fill:#050504; stroke-width:0px;"/><path d="m302.4228,849.8656q15.143,2.4556,30.2859,4.9112c56.6079-1.7301,36.4003,4.676-4.0927.8185-1.7914-.1707-29.0505-4.1378-26.1932-5.7298Z" style="fill:#e0bca3; stroke-width:0px;"/><path d="m737.0668,820.3982q.6139.6139,1.2278,1.2278c-9.4956,9.3677-24.3281,13.957-37.6528,14.7337,12.605-3.9278,27.2258-5.1982,36.425-15.9615Z" style="fill:#e0bca3; stroke-width:0px;"/><path d="m263.1329,809.7572c8.2576,12.8421,18.4923,2.3155,15.5522,13.0966-2.2598-6.062-6.5516.8946-16.78-11.8688q.6139-.6139,1.2278-1.2278Z" style="fill:#e0ab73; stroke-width:0px;"/><path d="m265.5294,846.6107c9.9834,1.7431,23.5057,3.8008,29.9359,3.2548v-.8186c-10.5683-.0248-21.2217-2.9246-31.8546-3.5643.6355.383,1.2776.7547,1.9187,1.1281Z" style="fill:#c7a282; stroke-width:0px;"/><path d="m553.5008,861.2738c.1908-.101.3795-.2061.5707-.3062,4.1881-2.1938,8.3616-4.207,12.5547-6.038-23.2293-2.7806-54.2954-5.9974-55.8854-3.8363-.0969.1319-.1121,3.052,0,3.2741.8886,1.7608,28.0147,5.2743,42.76,6.9063Z" style="fill:#e0ab73; stroke-width:0px;"/><path d="m295.4652,849.8656v-.8185c.3356.0008,1.4481-3.8732,5.7298-.4093-1.9639,1.5497-3.6422,1.0506-5.7298,1.2278Z" style="fill:#c24738; stroke-width:0px;"/><path d="m272.1369,820.3982c.2929,0,1.8005,1.1768.4093,2.0463-1.559.9744-1.8225-2.0463-.4093-2.0463Z" style="fill:#cf8a5f; stroke-width:0px;"/><path d="m512.7872,844.9543c38.742-6.3703,76.5496-16.6864,114.5955-26.1933,38.5379-14.0258,94.11-23.0158,127.5058-41.4247-.4459-1.767-.9254-3.5245-1.4793-5.2616-.0887-.167-.1846-.331-.2739-.4977-2.991-3.1731-6.6515-5.655-9.9293-8.4766-1.9948,2.2071-8.7627-4.3478-13.5059-5.7298-24.0247,2.0678-38.3912-22.2946-59.344-42.5639-14.1175-7.1932-24.9028-20.0193-41.7454-21.282,2.6024,7.3292,4.3673,19.7992,8.5945,23.7376,21.451,17.2575,44.2054,32.2295,68.3481,45.4289l-1.2278,1.2278c-6.3871-.1831-50.2828-22.4883-51.9772-20.0542,14.7995,11.8003-11.9036,2.949-17.5987-9.4132-11.6297,10.9996-8.9756,25.8076-9.0039,40.1084-9.257-32.4343,7.3937-41.4753,7.7761-43.7918.5809-3.5192-3.1441-7.4124-8.1854,1.6371-7.3675,13.2253-.7543,41.0457-9.8223,19.2357-.8323,1.3095-14.0321,9.5273-17.1893,10.641-4.8509,10.7538-2.8944,14.3614-.8186,26.6025h-1.6371q-2.6603-5.9344-5.3204-11.8688c-1.8076,28.5578-1.1558,25.0899-7.367-4.9112-9.252,17.3292-40.4263,21.642-58.9347,28.6488-23.4241,33.7585-12.7108,12.1299-8.5947-10.2317,1.8659-3.573,12.9482-3.147,19.2357-5.3205,1.4336-.4956,22.6413-9.1722,18.0078-10.641-5.7681-1.8285-15.0246,3.0638-7.7761-1.6371,10.7157-6.9493,20.1032-7.8771,20.8727-13.0966q7.9809-2.8649,15.9615-5.7298c-3.7325-4.1544-20.929-18.4218-25.3746-20.4634-9.4702,10.8016-24.3108,21.6986-33.5601,31.9229-8.6537,9.566-15.5972,20.5483-22.9192,31.1045,4.9793,14.035,8.1078,41.2265,9.8226,45.4289.886,2.1714.8051,3.3166,2.8648,2.8649Z" style="fill:#cf3747; stroke-width:0px;"/><path d="m575.8147,786.0196c6.9963,10.9952-6.1959,19.1123.4093,19.2357.3023,1.5383-13.1364,5.9746-15.143,6.139-25.8402,2.1172,4.0715-15.5282,5.7298-15.5522,3.1827-.0462,4.4819,10.4836,9.0039-9.8225Z" style="fill:#170908; stroke-width:0px;"/><path d="m553.7141,799.1162c2.8292-.1368-6.4797,8.8616-8.5947,10.2317,10.8951,4.9661-7.0784,3.9722-15.5522,2.4556,6.3821-3.5779,16.7656-4.8814,15.143-6.9576q-9.2086,1.4324-18.4171,2.8649c7.9366-6.2136,15.9598-4.7008,19.2357-5.3205,1.8963-.3587,7.7451-3.2529,8.1854-3.2742Z" style="fill:#220907; stroke-width:0px;"/><path d="m708.4179,763.1005c6.6898.1986,21.4101,1.1239,27.0118,2.4556,16.8898,4.0154-8.774,11.0848-27.0118-2.4556Z" style="fill:#050504; stroke-width:0px;"/><path d="m696.9584,787.6566c18.4664-1.6589-10.3591,7.3219-28.2396,6.9576,7.6736-2.4451,20.7406-6.2839,28.2396-6.9576Z" style="fill:#861c2a; stroke-width:0px;"/><path d="m683.8618,780.2898c8.4857.9549,17.1278-.9601,24.9654,2.0463-11.9213,3.563-29.1707.0488-24.9654-2.0463Z" style="fill:#b52a3e; stroke-width:0px;"/><path d="m657.6685,768.8303c2.3106.5699,9.7984,3.4755,10.641,4.0927,5.3452,3.9155-5.0059.6418-10.641-4.0927Z" style="fill:#9e1a28; stroke-width:0px;"/><path d="m490.2774,799.9347c.6156,1.4112,3.931,5.7708,4.0927,6.9576,1.1548,8.476-7.6187,25.2539,4.9112,23.3283.0682.7135,3.9422,8.9297.4093,13.9152-7.3364.757-15.0695-.8414-16.78-.8185.4625-18.1326-7.0921-34.501-13.9152-50.7494,12.0461,15.2741,8.5332,27.6882,21.282,7.3668Z" style="fill:#ebba3f; stroke-width:0px;"/><path d="m490.2774,799.9347c-12.7488,20.3213-9.2359,7.9073-21.282-7.3668-1.4005-3.3353-2.5066-6.604-4.9112-9.4132,10.7997-3.053,11.0564,6.7562,14.3244-6.9576,3.2257,8.2707,8.3288,15.6232,11.8688,23.7376Z" style="fill:#9d8725; stroke-width:0px;"/><path d="m378.9561,728.7219c-.2138.5386.8114,1.8699-2.0463,4.0927-6.7439,1.7584-12.1207,6.0442-17.1893,10.641q-.2046-4.502-.4093-9.0039c2.8867-3.1391,4.3636-.8174,6.139-1.6371,1.7554-.8105,3.6522-14.8624,13.5059-4.0927Z" style="fill:#b8952f; stroke-width:0px;"/><path d="m383.8674,704.1657c.0493,1.473-4.1835,22.7229-4.9112,24.5562-9.8537-10.7697-11.7505,3.2822-13.5059,4.0927-1.7754.8197-3.2523-1.502-6.139,1.6371-1.5973,1.7369-1.6595,6.9142-2.4556,9.4132-13.2191.601-3.8903.6987-2.8649,1.2278,1.2519.646,1.1994,2.5492,2.4556,3.2742,1.1802.2696,7.0504-10.8853,20.8727-10.2317-1.5246,10.2004-1.4654,39.5881,4.0927,47.066-6.8522,12.1057,6.5139,4.6395,10.2317.8185.6413-.6591.8754-2.3399-.4093-2.4556.1352-.0592-.2372-.327,2.4556-1.6371,3.3332,4.3041,7.4945,7.7835,11.4595,11.4595,4.3791,4.06,8.5154,8.6698,13.9152,11.4595,8.759,4.5252-5.7317-14.862-.4093-20.4635,14.8475-.6659,22.7188,13.8188,25.784,13.9152,1.6522.052,7.6254-7.2269,9.4132-6.5483,6.3729,12.2936,3.7652,42.9408,7.3668,11.4595,4.2454,5.2796,12.7328,34.4053,11.0503,38.062-1.2154,2.6415-6.6001-.0547-8.1854,2.0463-69.2524-5.1231-136.6051-24.9448-203.4068-42.564-12.1499-7.1814,16.8528-52.6552,32.7415-63.0275,17.9386-11.7104,24.08-1.7315,51.5679-10.641,14.9182-4.8354,26.1968-14.2236,38.8806-22.9191Z" style="fill:#ebba3f; stroke-width:0px;"/><path d="m391.2342,783.5639c1.2847.1158,1.0506,1.7965.4093,2.4556-3.7178,3.821-17.084,11.2871-10.2317-.8185,1.7336,2.3324,6.9599-.3829,9.8225-1.6371Z" style="fill:#f9ebce; stroke-width:0px;"/><path d="m430.1148,812.2128c13.0787,22.9526.9632,18.1536-14.3244,8.5947q7.1622-4.2973,14.3244-8.5947Z" style="fill:#b8952f; stroke-width:0px;"/><path d="m357.2649,754.0966c21.004-2.1975,4.9711,21.5403-11.4595,14.7337-4.9936-2.0687,6.4717-.6913,11.8688-3.6834q-3.8881-1.4324-7.7761-2.8649c18.3104-1.1712,17.8511-6.9361,0-4.0927-.4104-1.7974,6.6297-4.0156,7.3668-4.0927Z" style="fill:#050504; stroke-width:0px;"/><path d="m419.0645,804.8459c-5.3998-2.7897-9.536-7.3996-13.9152-11.4595,5.2763,2.5091,12.663,5.4315,13.9152,11.4595Z" style="fill:#241f02; stroke-width:0px;"/><path d="m288.5076,788.4752c16.3825,1.2225,11.815,6.715-1.2278,1.2278q.6139-.6139,1.2278-1.2278Z" style="fill:#584317; stroke-width:0px;"/><path d="m352.3536,803.2089c-8.59,13.3641-29.5791,22.3684-9.8225.8185,3.313-.6769-6.0649,7.0464-1.6371,7.3668.7023.0509,6.5713-6.4385,11.4595-8.1854Z" style="fill:#1b190d; stroke-width:0px;"/><path d="m339.257,802.3903q-3.6834,6.139-7.3668,12.2781c-2.8115-1.8416,3.5988-8.1117,7.3668-12.2781Z" style="fill:#2f1c01; stroke-width:0px;"/><path d="m353.1722,747.5482c.4643.0263,1.1174-.1558,1.2278.4093-14.2847,7.2768-8.274-.8078-1.2278-.4093Z" style="fill:#220907; stroke-width:0px;"/><path d="m353.1722,727.9033c3.5506-.172-3.8562,4.9174-4.502,2.8649-.0801-.2545,4.2355-2.852,4.502-2.8649Z" style="fill:#fff49b; stroke-width:0px;"/><path d="m616.3323,718.8994c-2.4552,7.7698-5.3654,25.7789-6.5483,28.2396-2.6312,5.4735-5.5199,4.1695-5.7298,4.502-8.0806-7.1118-17.3558-12.7539-26.1932-18.8264,2.8994-2.5282,6.7231-8.9037,9.0039-10.641.9287-.7074,2.5785-2.4861,3.6834-2.4556q6.9576,3.6834,13.9152,7.3668c.6796-.133,6.8338-9.9517,7.7761-11.4595,3.4932,1.5802-1.4682,3.9096,4.0927,3.2742Z" style="fill:#ebba3f; stroke-width:0px;"/><path d="m604.8728,691.8876q-9.0039,15.143-18.0078,30.2859c-2.2808,1.7373-6.1045,8.1128-9.0039,10.641-.2263-.1555-3.068-1.043-4.9112-2.4556,3.5823-5.9143,6.8742-12.2256,10.641-18.0078,2.0862-3.2025,20.2129-31.3508,21.282-20.4635Z" style="fill:#edd385; stroke-width:0px;"/><path d="m583.5908,712.3511c-3.7668,5.7822-7.0587,12.0936-10.641,18.0078-1.1223-.8601-4.3108-1.5998-4.0927-3.6834,5.5211-4.977,8.2162-15.8515,14.7337-14.3244Z" style="fill:#d3a42b; stroke-width:0px;"/><path d="m622.8806,702.5286c-1.4721,5.7419-4.7693,10.7411-6.5483,16.3708-5.5609.6355-.5995-1.694-4.0927-3.2742,1.0421-1.6676,4.3072-6.1637,2.4556-6.5483,1.8039-2.8213,2.953-6.2283,4.9112-9.0039.6456.5464,1.8168,1.2623,3.2742,2.4556Z" style="fill:#ebba3f; stroke-width:0px;"/><path d="m619.6065,700.073c-1.9583,2.7757-3.1073,6.1826-4.9112,9.0039-3.5034,5.4791-7.7258,10.7291-11.0503,16.3708q-6.3437-3.4788-12.6873-6.9576c1.9605-5.1002,14.2719-22.9698,13.9152-26.6025-1.0691-10.8873-19.1958,17.261-21.282,20.4635-5.9758-3.9003,10.859-18.315,12.6873-36.8342,7.485,8.3786,14.7182,17.2692,23.3283,24.5562Z" style="fill:#ebba3f; stroke-width:0px;"/><path d="m614.6953,709.0769c1.8516.3846-1.4135,4.8808-2.4556,6.5483-.9423,1.5078-7.0966,11.3265-7.7761,11.4595q-6.9576-3.6834-13.9152-7.3668c-1.1049-.0305-2.7547,1.7482-3.6834,2.4556q9.0039-15.143,18.0078-30.2859c.3567,3.6327-11.9547,21.5023-13.9152,26.6025q6.3437,3.4788,12.6873,6.9576c3.3245-5.6416,7.5469-10.8916,11.0503-16.3708Z" style="fill:#2f1c01; stroke-width:0px;"/><path d="m596.2781,715.6252c10.937,4.7513,10.4883,8.6909,2.4556,2.4556-.1805-.1401-3.1691-.9341-2.4556-2.4556Z" style="fill:#78560c; stroke-width:0px;"/><path d="m677.7227,423.407c1.2504-3.3192,1.8159-7.7436,4.0927-10.641,3.4948,1.4578,1.0542,12.669-4.0927,10.641Z" style="fill:#f0d9c2; stroke-width:0px;"/><path d="m653.9851,388.2098c-5.07,11.9694-4.8907-7.5331-8.5947-7.3668-3.9442.177,2.6684,12.3915,2.0463,30.2859-.7079,20.3632,2.3542-5.7045,18.4171-15.5522,1.9184-1.1761,4.6679-3.0798,6.9576-3.2742,1.7016-.1444,3.8104-.084,5.3205.8185,2.2019,1.316,6.0609,15.8618,4.502,2.8649-.8399-7.0029-8.1437-12.5188-15.5522-8.5947-.7932.4201-12.3999,11.3825-13.0966,12.2781-1.8074-3.1326.3592-8.9552,2.4556-11.4595,12.3847-14.7948,37.3823-1.0667,29.4674,23.3283-2.8711.9492-.562-3.2651-4.0927,1.2278-2.2768,2.8974-2.8423,7.3218-4.0927,10.641-2.8936,7.6808-4.1096,16.2376-9.8225,22.5098-.4378,1.5465,1.2023,2.4371.8185,4.0927-5.7217,24.6836,1.8833,39.8475-24.1469,36.425q-4.2973,5.5251-8.5947,11.0503c-.4161,1.9053,18.5964,9.5208,5.3205,34.7879-7.0114-15.4543-2.7242-9.3528-3.6834-.4093-.9046,8.4345-3.7497,12.0137-6.139,1.2278-.4624,9.0051,5.1068,9.5789-4.9112,15.5522-1.7318,1.0326-6.3274,2.1309-8.5947,2.8649,20.7449,7.2564,6.5793,39.6212,1.2278,30.6952-4.5099,17.7956-8.503-6.6426-8.1854,6.5483-15.0899-7.2025-2.398-.0904-.4093,6.9576,4.349,15.4128-5.3366,23.5048-18.0078,29.4674q.8185,16.3708,1.6371,32.7415,17.1893,17.8032,34.3786,35.6064c2.6024,7.3292,4.3674,19.7992,8.5947,23.7376,21.4508,17.2575,44.2054,32.2296,68.348,45.4289q-.6139.6139-1.2278,1.2278c-6.387-.1831-50.2828-22.4883-51.9772-20.0542,14.7994,11.8003-11.9036,2.949-17.5986-9.4132-11.6298,10.9996-8.9757,25.8076-9.0039,40.1084-9.257-32.4343,7.3938-41.4753,7.7761-43.7918.5808-3.5192-3.1441-7.4124-8.1854,1.6371-7.3675,13.2252-.7544,41.0457-9.8225,19.2357.8473-1.3332,4.9218-20.3144,6.5483-26.1932,2.4759,1.5734,11.6091-14.3102,9.8225-17.5986-1.4214-2.6161-3.9187-1.8978-4.0927-2.0463-3.7987-3.2446-4.6829-3.0872-4.9112-3.2742-1.4573-1.1933-2.6286-1.9093-3.2742-2.4556-8.6102-7.287-15.8434-16.1776-23.3283-24.5562-1.8283,18.5192-18.6632,32.9339-12.6873,36.8342-6.5175-1.5271-9.2126,9.3474-14.7337,14.3244-.2181,2.0837,2.9704,2.8233,4.0927,3.6834,1.8433,1.4126,4.685,2.3001,4.9112,2.4556,8.8375,6.0724,18.1127,11.7146,26.1932,18.8264-1.9425,3.0769-4.2304,7.317-5.7298,10.641-4.8508,10.7538-2.8943,14.3614-.8185,26.6025h-1.6371q-2.6603-5.9344-5.3205-11.8688c-1.8076,28.5579-1.1556,25.0899-7.3668-4.9112-9.2521,17.3292-40.4264,21.642-58.9348,28.6489-23.4242,33.7586-12.7108,12.1298-8.5947-10.2317,1.8659-3.573,12.9483-3.147,19.2357-5.3205,1.4337-.4956,22.6413-9.1722,18.0078-10.641-5.7682-1.8285-15.0247,3.0638-7.7761-1.6371,15.214.7924,29.2152-5.6952,41.7455-13.5059.3446-1.6029-3.9777-4.2815-4.9112-5.3205-3.7325-4.1544-20.929-18.4219-25.3747-20.4635-.1191-.0547-.4337-1.8363-2.0463-1.6371-12.1464,9.6556-24.4884,19.3562-34.7879,31.1045-10.2383,11.6786-13.7802,18.5487-21.282,31.923-1.1811-3.1304-1.5226-5.4547-1.6371-5.7298,9.6681-13.9538,13.5726-23.7771,25.3747-37.2435,19.8947-22.7002,45.9764-33.7651,62.2089-69.5758-.0609-1.3771-3.7668-.5413-4.0927-.4093,1.3983-5.2029,2.9722-33.6913.8185-40.5177,5.1803-9.5702,5.8296-14.4798-2.8649-4.502-6.5639-7.3919-3.0553.4634-.4093,11.8688-1.5487,2.9774-7.7575-11.7786-7.3668,8.5947-1.5755.297-5.7928-3.3081-6.139-3.2742-1.0241.1004-4.4031,6.1394-5.3205,7.3668-2.3974,2.062-3.8053-3.4896-8.5947-7.3668q1.4324,5.9344,2.8649,11.8688h-14.7337c18.7018,12.8515-9.8267,17.1205-9.8225,19.6449.0013.7724,7.4062,2.0708,7.3668,3.2742-.028.8563-11.6508,9.9345-13.0966,11.0503-5.0906,3.9288-10.6979,6.8945-16.3708,9.8225q-4.2973-4.502-8.5947-9.0039,3.4788,5.3205,6.9576,10.641c-12.827,6.1653-17.4115,8.7551-31.1045,1.6371,4.7683-13.0304-4.8689-8.6155-11.4595-12.2781-1.1341-.6303-11.6272-12.6296-11.4595-13.5059.2075-1.0845,3.987-2.0197,4.0927-2.4556.2142-.8832-16.7407-11.5328-1.6371-9.0039-10.6747-8.5846-5.6174-10.6251-6.5483-12.2781-.2842-.5046-4.3207-1.2485-9.8225-6.139-.3807-3.0877-2.1729-7.7344-2.0463-14.7337-4.0066,12.0555-3.8902,34.2261.4093,45.8382-1.1353,21.1834,20.0309,68.2295,45.4289,63.0275,1.7763,3.8118.4543,5.7541.4093,7.3668-.1373,4.9168-1.2092,9.6031-2.4556,14.3244,16.5826,25.2307,17.7442,28.4357,20.4635,56.8884-12.53,1.9256-3.7564-14.8524-4.9112-23.3283-.1617-1.1868-3.4771-5.5464-4.0927-6.9576-3.54-8.1144-8.6431-15.467-11.8688-23.7376-3.2681,13.7138-3.5248,3.9045-14.3244,6.9576,2.4046,2.8092,3.5107,6.0779,4.9112,9.4132,6.8231,16.2484,14.3777,32.6167,13.9152,50.7494-6.6062.0882-12.1246.4958-18.8264,0,1.5853-2.101,6.97.5952,8.1854-2.0463,1.6825-3.6567-6.8049-32.7825-11.0503-38.062-3.6016,31.4813-.994.8341-7.3668-11.4595-1.7878-.6786-7.761,6.6003-9.4132,6.5483-.1097-3.1467,6.8354-9.3761,5.7298-11.8688-.7755-1.7486-30.0686-14.6763-33.9694-17.5986-1.6273-.0687-18.423,11.1084-22.5098,13.0966-2.6928,1.31-2.3204,1.5779-2.4556,1.6371-2.8625,1.2542-8.0889,3.9695-9.8225,1.6371-5.5581-7.4779-5.6173-36.8656-4.0927-47.066-13.8223-.6536-19.6925,10.5013-20.8727,10.2317-1.2562-.725-1.2037-2.6282-2.4556-3.2742-1.0254-.5291-10.3542-.6268,2.8649-1.2278.7961-2.499.8583-7.6762,2.4556-9.4132q.2046,4.502.4093,9.0039c5.0686-4.5968,10.4455-8.8826,17.1893-10.641,2.8578-2.2228,1.8325-3.5541,2.0463-4.0927.7277-1.8333,4.9605-23.0832,4.9112-24.5562-.5849-17.468-13.2472-.168-21.6913,5.7298-16.9929,11.8687-36.4615,21.2475-57.707,18.8264-4.5817-4.7337,12.1473-4.1359,29.8767-11.4595,20.4229-8.4363,34.3188-26.3379,54.0235-21.282,11.0963-16.9716,14.8786-23.371,35.6064-29.0581-.3842-11.5413.2044-23.5074,8.1854-32.7415-13.4602,7.3229-20.6927-.3734-27.0118-12.2781-4.6146-4.7537-21.1659-8.319-9.8225-22.1005-20.8979-2.3581-22.5794-22.8945-8.1854-35.1972-9.7811,4.691-17.05-9.0792-18.4171-17.5986-1.8112,7.3342.7098,10.9528,4.502,16.78-1.3681,2.2884-7.3981-4.7752-8.1854-6.5483-7.5465-16.997,9.1499-29.6986,8.1854-31.1045-.5866-.8551-3.3903.2286-4.0927-1.6371-.0549-.1458,2.0818-2.4739,1.2278-2.8649-.8189-.3749-3.4217,3.5151-9.8225,0-17.6893-9.7145,4.769-45.4291-2.8649-20.0542,1.8157,13.6416.6068,2.8918,1.6371-.8185,1.0575-3.8087,6.6329-10.2807,9.8225-13.0966-24.008,5.9128-32.9917-11.7409-23.7376-32.7415-10.4209-16.8055-27.0985-31.4672-19.6449-53.205,4.5206-13.184,20.0178-17.5175,31.923-11.4595-11.5396-11.9829-3.7279-10.2091-3.2742-11.4595.4654-1.2828-3.5018-4.8684-3.2742-6.5483.0429-.3167,4.0244-4.3025,4.0927-4.9112.2718-2.4247-3.2748-5.3998-3.2742-5.7298.0019-1.0805,10.9358-15.5341,13.0966-17.1893-21.3917,5.0166-9.33-2.4771-9.8225-3.2742-.4411-.7139-7.3219.1704-7.3668-2.4556-.0112-.6564,12.3394-8.6717,2.0463-2.8649-12.2329-13.0239,6.6342-40.7268,1.6371-18.8264,2.335-7.3769,8.6652-13.6645,16.78-14.3244-27.3048-4.6424-3.0106-39.8948,15.9615-35.6064,16.1258-15.527-.1201-2.5554-1.2278-6.9576,12.6808-28.4232,25.1197-7.0896-4.502-26.6025-3.5585-.7937.8656,7.0127-4.0927,0,2.7966,18.5381-3.5503,4.3025-6.5483,5.7298-.9981.4752,7.1874,16.0744-12.2781,5.7298-14.576-7.7461-9.5969-20.5624-10.2317-21.6913-.4032-.717-2.9973,1.9599-3.2742-.8185-.4464-4.4798,12.2097-11.6442,16.3708-12.2781-.0177-2.3975.076-7.0222.8185-9.0039,7.3001-19.4834,6.1146,6.9521,10.2317-11.8688,9.1802,8.62,3.6831-1.3031,4.9112-1.6371,1.3538,6.8904,11.8229.3365,11.8688-.4093.0409-.6644-8.3638-3.3105,2.8649-9.4132,17.525-9.5247,53.4162,16.9298,67.1202,28.6489-10.3607-15.3336-22.8867-39.5566-43.7918-38.8806,22.7063-10.5752,41.8614,29.2483,53.6143,45.4289-5.7392-25.4821-49.0815-53.3194-9.0039-67.1202q6.9576-6.5483,13.9152-13.0966.6139.6139,1.2278,1.2278c-10.6473,20.4125-1.2598,2.8707,4.502-1.2278.1055-.075,1.2882,1.5571,2.4556.8185,10.7453-6.7976,10.1432-11.44,32.7415,2.4556,2.0148.1819,14.5518-10.2863,25.3747-.8185,18.1087-2.1486,29.9987,9.595,37.2435,24.9654,3.447,7.313-.6869,12.2794,10.2317,12.6873,2.9932-1.8762-2.5933-2.6173-.8185-5.7298,20.9903,17.4166-6.7023-13.3805,15.5522,4.9112-.6815-10.6823,4.7461-.4907,4.9112,4.0927,5.4933-15.5676,2.0644,11.897,7.3668-1.6371q5.3205,5.7298,10.641,11.4595c2.1479-.9866-8.387-15.8381,4.9112-4.0927-5.6317-12.4998-.3575-5.128.8185-4.9112.3766.0694.7297-2.2704,3.2742-.8185,4.7037,7.5089,24.272,22.3287,20.8727,31.5137-1.2777,3.4524-5.3274-6.3314-4.0927,4.9112,1.9347,17.6162,30.1063,9.0543,20.4635,37.6528,9.6732,6.0921-4.0923,24.5781-7.7761,24.9654-.8057.0847-5.3619-3.4053-7.3668-2.4556-.9429.4466,6.8467,12.6631-13.0966-1.6371,5.3383,12.9617,13.1467,6.6876-5.3205,10.2317,21.3967-1.7851,28.8865,14.5304,15.5522,29.4674,13.0282-3.2231,5.1314,1.0977,6.9576,2.0463,2.3113,1.2006,12.8145-5.0603,6.139,5.3205,11.6292-5.8419-.0271,18.4153,6.139,8.5947,2.1086,1.0365-1.7778,14.1265-13.5059,13.5059.0005.9628,9.273.7057,11.8688-2.0463,3.3038,1.9768-10.8243,17.757-7.3668,9.8225-11.567.9974-.814.9902-2.8649,24.1469-.3953,4.4633-2.328,11.7952-4.0927,15.9615Z" style="fill:#050504; stroke-width:0px;"/><path d="m411.2884,678.791c2.7187.8378-2.9967,15.6408-3.6834,21.6913-3.1017,27.3288,6.2718,31.9714,8.1854,37.6528,5.4142,16.075-7.9129,10.8985-26.6025,29.0581q1.0232-19.031,2.0463-38.062c3.5751,6.0654,3.2675,16.2822,6.9576,23.3283,2.9988.0795-2.2031-54.2714-2.8649-59.344,3.7818-7.6958,7.2519-12.2058,15.9615-14.3244Z" style="fill:#cf3747; stroke-width:0px;"/><path d="m426.0221,674.6983c2.6847.8897-1.2258,13.6776-.4093,24.1469,2.0668,26.4985,23.6761,48.6974,23.7376,51.5679.0923,4.3026-7.2475,2.574-12.2781-4.0927-1.0253-1.3589-15.0701-28.6533-15.5522-30.2859-2.383-8.0697-4.1827-36.7259,4.502-41.3362Z" style="fill:#ebba3f; stroke-width:0px;"/><path d="m456.7173,759.0078q-4.9112,2.0463-9.8225,4.0927c-10.2684-5.1065-20.7714-10.1618-15.143-18.8264,5.7286,8.17,15.3081,13.3968,24.9654,14.7337Z" style="fill:#e2daca; stroke-width:0px;"/><path d="m465.7212,768.8303q-2.0463-4.502-4.0927-9.0039c2.396.0607,14.3729-2.6984,14.7337-2.0463-1.9308,20.633-5.1499,11.8885-10.641,11.0503Z" style="fill:#ebc841; stroke-width:0px;"/><path d="m461.6285,759.8263q2.0463,4.502,4.0927,9.0039c-.467-.0713-5.5016.4591-9.4132-.8185-7.3087-2.3873-8.9379-4.6748-9.4132-4.9112q4.9112-2.0463,9.8225-4.0927c1.4522.201,4.6624.8122,4.9112.8185Z" style="fill:#9d8725; stroke-width:0px;"/><path d="m653.9851,388.2098h2.4556c-2.0964,2.5044-4.263,8.327-2.4556,11.4595-2.5982,3.34-3.8216,8.1515-6.5483,11.4595.6221-17.8945-5.9906-30.1089-2.0463-30.2859,3.7039-.1662,3.5247,19.3363,8.5947,7.3668Z" style="fill:#f9ebce; stroke-width:0px;"/><path d="m461.6285,502.8052c5.9262,11.8079,13.0518,4.3277,13.9152,4.0927.849-.2311,8.0516-2.4464,8.1854-2.0463-16.363,11.4365-7.9856,6.1481-7.3668,9.0039.5762,2.6596-28.5941,5.2594-45.0196,28.2396-8.8196-6.4631-16.9132-22.205-26.1932-24.5562-.6102-1.0856-.7906-.7678-.8185-.8185-7.0183-12.7383-13.5125-25.926-17.1893-40.1084,1.294-.1588,2.901.2373,4.0927,0,3.7154,28.5244,62.9765,24.5449,63.846-3.2742.9902-.3101,7.6867-3.9325,8.1854-2.8649-4.7354,8.921-6.0796,23.4805-1.6371,32.3323Z" style="fill:#f2c390; stroke-width:0px;"/><path d="m517.2892,454.5114c-4.243.1655,1.0182,6.2908-.8185,10.641-1.3695-1.6004-3.2351-3.0987-4.9112-4.9112-4.5728-4.9449-3.9173-11.3886-13.5059-8.1854-10.3436,3.4555,3.7746-.6513,11.0503,6.5483-3.9438.6899,4.6472,10.4574,9.8225,18.0078.5681.8289,1.8205,12.3764,13.0966,13.0966-4.8292,4.3335-10.6793-1.2182-15.9615,0-.697.1608-6.6468,6.3342-11.0503,9.0039.0197-3.3968-1.3199-2.7778-2.4556-4.0927-5.4038-6.2564-16.1924-13.1331-16.78-20.4635-1.2256-.6083-6.5002,3.2024-7.7761,4.0927-3.0778,2.1475-4.1704,4.4577-7.3668,5.7298,5.0696-12.7007,14.1168-23.2149,19.6449-35.6064,3.124-7.0025,7.0899-20.396,9.0039-28.2396,3.1604-.3492,4.5383-1.502,8.1854.4093.8426,10.1897,4.1479,25.6271,9.8225,33.9694Z" style="fill:#f2c390; stroke-width:0px;"/><path d="m466.5398,387.3913c.433.3231,4.4888,5.3408,8.5947,6.5483,9.2817,9.5145,7.4494,36.5964-.8185,43.3825-4.3488,3.5695-22.4785,9.0343-21.6913.4093.4604-5.0446,13.812-9.3581-.8185-22.1005.6939-2.0525,16.0251,7.189,16.78,9.4132,24.6793-19.0809-14.8198-38.5247-28.6489-39.2899-13.3138-.7366-31.1121,5.7932-42.1547,13.5059,2.7934-15.9328,13.9757-19.9669,28.6489-20.0542,11.1271-.0662,29.1554,4.4549,40.1084,8.1854Z" style="fill:#915a32; stroke-width:0px;"/><path d="m408.4235,445.5075c.0735.1419,2.9625,1.49,2.0463,2.4556-8.2201.5574-22.6549,2.5993-6.5483,4.9112,19.4093,2.7859,32.9811-.6953,51.1587-4.9112q.4093,6.139.8185,12.2781c-6.2797,3.9523-8.3579,4.4163-15.5522,5.7298-23.1335-3.1249-43.115.6622-54.0235-23.7376,9.7823-7.7372,12.702,1.5136,22.1005,3.2742Z" style="fill:#f2c390; stroke-width:0px;"/><path d="m566.4015,390.6654q-3.6834,2.6603-7.3668,5.3205c26.8538,5.5972-.1616.7956-9.0039,16.78-2.6991,1.0686-8.0198,5.5264-9.4132,5.7298-12.2274,1.7845-9.3305-25.8252-13.5059-14.7337-.0187-.0896-1.1243.293-.8185-1.6371.8493-3.0375-.2309-7.404,7.3668-12.2781,10.892-6.9874,37.2585-9.1572,49.9309-4.502-12.4673-2.4839-41.0302,6.6536-43.3825,20.4635-1.8121,10.6383,6.4414-10.6936,26.1932-15.143Z" style="fill:#915a32; stroke-width:0px;"/><path d="m609.784,411.1289c-1.1162-.54-2.1224-1.0921-3.2742-1.6371-1.7056-3.5086-4.1004-6.6071-3.2742-.8185.3596,2.5194,1.5375,5.5275,1.2278,5.7298-3.2103,2.0973-20.808-14.95-54.4328-1.6371,8.8424-15.9845,35.8577-11.1828,9.0039-16.78q3.6834-2.6603,7.3668-5.3205c20.9936-4.7292,34.2833.6155,43.3825,20.4635Z" style="fill:#e0ab73; stroke-width:0px;"/><path d="m603.2357,447.1446c.1572-.0938,1.322-1.7902,3.2742-1.6371-.3241,1.2147-.8517,2.4017-.8185,3.6834q1.2278-.6139,2.4556-1.2278c-7.645,11.8763-20.9104,15.6634-34.3786,17.1893.0035-.5687.2186-1.4185-.4093-1.6371-3.4947-1.2169-22.8674,5.3297-37.2435-18.8264,15.1155.2387,48.9919,13.2726,67.1202,2.4556Z" style="fill:#f2c390; stroke-width:0px;"/><path d="m499.2813,420.1328c-1.9141,7.8436-5.88,21.237-9.0039,28.2396-5.5281,12.3915-14.5753,22.9057-19.6449,35.6064-.7735,1.9378-1.279,3.9546-2.4556,5.7298-19.2494-8.9851,8.8417-31.0162,13.9152-40.5177,3.309-6.1971,8.8068-26.7599,9.8225-27.8303,1.2391-1.3059,5.6272-1.0356,7.3668-1.2278Z" style="fill:#915a32; stroke-width:0px;"/><path d="m392.0528,384.1171c-4.72,3.6663-8.2817,6.4976-10.641,12.2781-.5647-1.4582-.7122-3.99-1.6371-2.8649-1.0863,14.8115-.7155,26.0635,3.2742,40.5177.8437,3.0568,2.002,5.3399,3.2742,8.1854,10.9085,24.3998,30.8901,20.6127,54.0235,23.7376-15.4961,2.8292-47.3513,2.4316-56.4792-12.6873-6.7781-11.2269-13.0328-51.4278-5.7298-62.2089,2.2789-3.3643,22.1056-13.3197,13.9152-6.9576Z" style="fill:#f5f5f4; stroke-width:0px;"/><path d="m404.3308,516.7204c.0279.0507.2083-.267.8185.8185,6.2317,11.0859,12.075,22.8765,22.1005,31.1045-.4247.8653-.7425,2.3322,0,3.2742-.4178-.1203-1.1109.0603-1.6371,0-12.781-20.6429-.4775,14.0197-6.9576,13.9152-3.4006-.0549-20.4525-39.9853-22.5098-45.8382l8.1854-3.2742Z" style="fill:#6b3d23; stroke-width:0px;"/><path d="m554.9419,420.9514c1.2081,1.5858.6742,3.0033.8185,3.2742q-1.2278,1.2278-2.4556,2.4556c-6.5385-8.0398,1.8723,7.4458,1.6371,3.2742,3.1052,5.0679,6.5009,12.6272,13.0966,14.7337q-1.2278.8185-2.4556,1.6371c-13.9841-2.2778-30.9737-4.6042-36.8342-19.6449,5.869,3.2457,6.3311-2.8451,3.2742-8.1854,5.8215,6.0697,14.1916,5.0151,20.8727.8185,1.6705-.1622,1.9196,1.6036,2.0463,1.6371Z" style="fill:#f2c390; stroke-width:0px;"/><path d="m623.6992,468.4266c-3.3064-1.6461-2.3154-7.1085-4.9112-9.0039-.9584-.6999-4.7452,1.2089-5.7298,1.6371,15.5632-15.3343,12.7956-38.3634,13.0966-58.5255q6.3437-6.7529,12.6873-13.5059c-5.9845,26.3698-8.6951,53.0847-15.143,79.3982Z" style="fill:#f5f5f4; stroke-width:0px;"/><path d="m394.5084,411.1289l3.2742,4.9112c-6.3857,5.9129-5.1642,14.1854,1.6371,19.2357-8.1241-12.0827,3.3848-16.9179,4.0927-15.5522-2.006,14.1357-.7354,14.8849,4.9112,25.784-9.3986-1.7606-12.3182-11.0114-22.1005-3.2742-1.2721-2.8455-2.4304-5.1286-3.2742-8.1854-.7823-19.7771-7.24-34.8687,2.8649-18.0078,2.6009.8599,6.6431-3.4343,8.5947-4.9112Z" style="fill:#9b6841; stroke-width:0px;"/><path d="m606.5099,445.5075c-1.9521-.1532-3.117,1.5433-3.2742,1.6371-13.8995,3.5303-24.4649,1.3295-37.6528-.8185q1.2278-.8185,2.4556-1.6371c4.7555,1.5188,17.3095.3372,21.6913-2.4556,5.8698-3.7412,5.6446-9.8311,6.139-15.5522.0574-.6644,1.0091-5.1282,1.6371-5.7298,1.4607,1.9759,2.8646,6.6098,6.139,7.3668,1.0402-.375,2.0559-11.5195,2.0463-13.0966,7.5339,10.6934,3.5151,20.1816.8185,30.2859Z" style="fill:#f5f5f4; stroke-width:0px;"/><path d="m471.451,365.2907c9.0135,6.8678,18.6669,12.684,27.0118,20.4635,2.7356,2.5502,5.0814,5.2471,7.3668,8.1854-1.8963,1.1623-3.9423,3.3046-6.139,3.2742-2.5822-.1494-22.4673-15.6854-27.0118-18.0078-12.2282-6.2492-22.0044-6.5844-22.9191-7.3668-4.7701-4.0803,26.5019,4.2972,28.6489,5.7298-.6807-2.708-7.8087-11.1032-9.4132-12.2781,1.707-1.2428,1.3325-.2219,2.4556,0Z" style="fill:#915a32; stroke-width:0px;"/><path d="m533.6599,389.8469c-7.5977,4.874-6.5176,9.2406-7.3668,12.2781-2.7469,9.8244-2.5569,12.2745-.8185,22.1005,2.7119,15.3284,7.5027,15.8529,7.3668,16.78-.2254,1.5385-6.9428,1.5894-7.7761,1.2278-2.9011-1.2587-23.2517-47.2188,8.5947-52.3865Z" style="fill:#f5f5f4; stroke-width:0px;"/><path d="m618.788,459.4227c-8.586,4.1694-2.359,9.3642,0,24.5562-.4789,1.6027-.4973,8.8925-4.0927,14.7337-2.6649,2.2718-5.7156-3.5758-7.3668-6.5483-1.0767-1.9383-1.9789-4.3565-2.4556-6.5483,5.075-5.7074,6.7839-15.2876-1.6371-18.8264,3.6649-1.4106,6.4356-4.257,9.8225-5.7298.9846-.4282,4.7713-2.3369,5.7298-1.6371Z" style="fill:#e2daca; stroke-width:0px;"/><path d="m633.5216,372.6576c1.529-.1584.2796-.5575,0-1.6371-4.5389-17.5281-9.0477-47.0948-17.1893-62.2089,3.2799,1.5785,5.1632,3.4384,5.7298-.8185,12.0473,22.1812,12.1401,40.5352,13.0966,65.0738q-.8185-.2046-1.6371-.4093Z" style="fill:#6b3d23; stroke-width:0px;"/><path d="m441.9836,392.3025c-2.0428,8.8926-1.4887,5.728-9.0039,7.3668-10.565,2.3039-21.4575,2.8546-31.923,5.7298,8.7545-6.9655,13.6346-17.351,40.9269-13.0966Z" style="fill:#f2c390; stroke-width:0px;"/><path d="m439.528,438.9592c4.3473,4.9058,5.4441-.6502,9.0039-1.6371-6.0216,8.4401-15.7318,12.2959-25.3747,9.0039-.9466-2.2031-3.2301-2.4902-4.9112-4.502-6.3425-7.5898-10.4509-25.8721-5.7298-23.7376-.7938,2.5684,12.4191,20.2186,13.5059,20.8727,3.6099,2.1728,10.0914,2.1516,13.5059,0Z" style="fill:#9b6841; stroke-width:0px;"/><path d="m446.8948,407.8547c-12.8756-1.9174-39.2839-.9154-49.1123,8.1854l-3.2742-4.9112c.5102-.3862,3.4637-3.2755,6.5483-5.7298,10.4655-2.8752,21.358-3.4259,31.923-5.7298-1.9693,6.1822,11.0851,3.7579,13.9152,8.1854Z" style="fill:#c3864d; stroke-width:0px;"/><path d="m423.1572,446.326c9.6429,3.292,19.3531-.5638,25.3747-9.0039,1.3116-.3636,1.5622.6622,2.4556.8185-.0339,6.4618,6.2172,4.6485,1.2278,7.3668-6.0043,3.2713-28.6383,6.1942-35.1972,4.0927-9.5082-3.0465-14.5277-22.5034-9.0039-30.2859,1.6104.3702-.518,21.6652,15.143,27.0118Z" style="fill:#f5f5f4; stroke-width:0px;"/><path d="m608.1469,447.9631q-1.2278.6139-2.4556,1.2278c-.0331-1.2818.4944-2.4687.8185-3.6834,2.6965-10.1044,6.7154-19.5925-.8185-30.2859-.0193-3.1762-.9652-3.8855-1.6371-6.5483.1947-1.6513.9934.1267,2.4556.8185,1.1518.545,2.158,1.0971,3.2742,1.6371,1.1758.5688,1.8677,3.6668,1.6371-1.2278-.0434-.9209-2.1305-19.8057,2.4556-8.1854,1.7095,4.3316,3.1789,32.4081-5.7298,46.2474Z" style="fill:#c3864d; stroke-width:0px;"/><path d="m536.1156,444.689c14.3761,24.1561,33.7488,17.6095,37.2435,18.8264.6278.2186.4128,1.0684.4093,1.6371-23.8294,2.6997-31.5119-1.9857-47.4752-19.2357.2591-1.8452,8.0319-1.2561,9.8225-1.2278Z" style="fill:#f5f5f4; stroke-width:0px;"/><path d="m404.3308,516.7204l-8.1854,3.2742c-2.7154-7.7252-6.6705-18.8431-8.1854-26.6025-1.1342-5.8093-3.3493-16.751-.8185-16.78,3.6768,14.1824,10.171,27.3701,17.1893,40.1084Z" style="fill:#915a32; stroke-width:0px;"/><path d="m431.3426,542.0951c-.4653.6509-3.9226,6.2017-4.0927,6.5483-10.0255-8.228-15.8689-20.0186-22.1005-31.1045,9.2801,2.3512,17.3736,18.093,26.1932,24.5562Z" style="fill:#b07c53; stroke-width:0px;"/><path d="m452.6246,395.5767c.2424,2.495-6.3589,3.6768-6.5483,4.502-.2278.9922,15.8224,12.0563,16.3708,8.5947.5706,1.5365,2.6842,4.1094,1.2278,4.9112-5.0575-2.9452-11.0315-4.8737-16.78-5.7298-2.83-4.4275-15.8845-2.0032-13.9152-8.1854,7.5152-1.6388,6.9611,1.5257,9.0039-7.3668,3.75.5846,7.3589,1.2359,10.641,3.2742Z" style="fill:#f2c390; stroke-width:0px;"/><path d="m601.5986,528.9984c-1.5538,3.661-17.4703,46.4838-20.8727,45.0196-.5399-.8154-1.2793-6.2192-1.2278-6.5483.3431-2.1917,18.3375-34.0727,22.1005-38.4713Z" style="fill:#7b5136; stroke-width:0px;"/><path d="m517.2892,454.5114c3.3719,4.957,8.2933,8.108,13.0966,11.4595.0936.7394-.8896.8828-.8185,1.6371.1588,1.6864,3.0562,5.9481,2.4556,9.4132-1.5907,2.2101-6.6903-2.2969-8.1854-2.8649-2.3825-3.0621-4.8443-6.056-7.3668-9.0039,1.8368-4.3502-3.4245-10.4755.8185-10.641Z" style="fill:#9b6841; stroke-width:0px;"/><path d="m392.0528,384.1171c-4.2493,10.4473.8215,2.7971,9.8225.4093-21.6964,26.3508-14.9412,26.1275-20.4635,11.8688,2.3593-5.7805,5.921-8.6117,10.641-12.2781Z" style="fill:#6b3d23; stroke-width:0px;"/><path d="m502.5555,494.6198c1.1357,1.3149,2.4753.6959,2.4556,4.0927-.2193.1329-.9445,3.0628-4.502,2.4556-7.1134-7.3016-16.63-8.1603-25.784-10.641q4.0927-3.2742,8.1854-6.5483c2.4737,1.7482,19.1238,12.2133,19.6449,10.641Z" style="fill:#b07c53; stroke-width:0px;"/><path d="m606.5099,385.7542q-.8185,4.0927-1.6371,8.1854c-15.3516-10.3503-16.6132-9.9386-36.0157-12.6873,10.6551-.8287,28.5586-1.4384,37.6528,4.502Z" style="fill:#f0d9c2; stroke-width:0px;"/><path d="m527.1116,403.762c.301,1.4432-.3084,9.2916,4.9112,14.7337,3.0569,5.3403,2.5948,11.4311-3.2742,8.1854-2.2718-1.2564-1.294-2.8918-3.2742-2.4556-1.7384-9.826-1.9283-12.2761.8185-22.1005-.3058,1.9301.7999,1.5475.8185,1.6371Z" style="fill:#e0ab73; stroke-width:0px;"/><path d="m455.8988,460.2412q-.4093-6.139-.8185-12.2781c1.6607-.3852,16.825-4.4834,17.1893-3.6834-5.5033,5.5409-9.5672,11.6795-16.3708,15.9615Z" style="fill:#c3864d; stroke-width:0px;"/><path d="m475.5437,506.8979c-.8634.235-7.989,7.7152-13.9152-4.0927l-.4093-11.4595c6.0646,10.1618,13.1907,10.2106,13.5059,11.0503.376,1.0018-4.6119,4.7878.8185,4.502Z" style="fill:#6b3d23; stroke-width:0px;"/><path d="m623.6992,468.4266c-1.2919,5.2722-3.3645,10.3761-4.9112,15.5522-2.359-15.1919-8.586-20.3868,0-24.5562,2.5958,1.8955,1.6048,7.3579,4.9112,9.0039Z" style="fill:#f2c390; stroke-width:0px;"/><path d="m611.4211,293.2593c3.5843,2.6996,8.413,10.6316,10.641,14.7337-.5665,4.2569-2.4499,2.3971-5.7298.8185-1.2052-2.2374-8.774-12.1451-10.641-13.9152,1.781-.3284.0627-4.0696,1.2278-4.9112.2256-.163,3.9011,2.8216,4.502,3.2742Z" style="fill:#915a32; stroke-width:0px;"/><path d="m510.7409,389.8469c.1878-5.5525,6.5966-11.6356,11.4595-14.7337,23.5252.2645,16.318-2.6361.4093,6.5483-4.1175,2.3771-7.8656,5.6076-11.8688,8.1854Z" style="fill:#b07c53; stroke-width:0px;"/><path d="m545.938,481.5232c-5.7635-4.1266-5.3868-2.6775-12.2781-2.4556-.6969-2.2561.3341-10.3037-4.0927-11.4595-.071-.7543.9122-.8976.8185-1.6371,4.0602,2.833,8.8374,4.494,13.0966,6.9576-.9703,1.9171,1.1198,6.286,2.4556,8.5947Z" style="fill:#915a32; stroke-width:0px;"/><path d="m466.5398,387.3913c-10.9529-3.7305-28.9813-8.2516-40.1084-8.1854h24.1469c7.2379,1.3314,10.6617,4.2299,15.9615,8.1854Z" style="fill:#e2daca; stroke-width:0px;"/><path d="m462.4471,408.6733c-.5484,3.4616-16.5986-7.6024-16.3708-8.5947.1894-.8252,6.7907-2.0069,6.5483-4.502,4.0438,2.5113,8.1883,8.6964,9.8225,13.0966Z" style="fill:#9b6841; stroke-width:0px;"/><path d="m520.5633,475.7934c2.8968,3.1631,16.4189,9.4649,11.4595,13.9152-11.2761-.7202-12.5285-12.2677-13.0966-13.0966l1.6371-.8185Z" style="fill:#f5f5f4; stroke-width:0px;"/><path d="m477.9993,478.2491c.9309,2.5853,2.7388,4.1945,4.9112,5.7298q-4.0927,3.2742-8.1854,6.5483c-1.6352-.4431-3.4509.6272-6.5483-.8185,1.1766-1.7752,1.6821-3.792,2.4556-5.7298,3.1964-1.272,4.289-3.5823,7.3668-5.7298Z" style="fill:#fbf7e7; stroke-width:0px;"/><path d="m447.3041,417.6772c5.2294-1.0163,16.1971,12.2082-11.4595,13.0966,4.4527-2.5861,15.3715-5.1816,10.2317-11.8688.488-.3541.9622-1.1762,1.2278-1.2278Z" style="fill:#f5f5f4; stroke-width:0px;"/><path d="m511.5594,460.2412c1.6761,1.8125,3.5417,3.3108,4.9112,4.9112,2.5226,2.9479,4.9843,5.9418,7.3668,9.0039-1.3859-.5265-3.393-.4947-4.502-1.6371-1.1928.4669.8566,2.8688,1.2278,3.2742l-1.6371.8185c-5.1752-7.5504-13.7663-17.318-9.8225-18.0078.56.5542,1.7186,1.2313,2.4556,1.6371Z" style="fill:#e2daca; stroke-width:0px;"/><path d="m450.9875,438.1407c-.8934-.1564-1.144-1.1821-2.4556-.8185-3.5599.9868-4.6566,6.5429-9.0039,1.6371,1.5246-.9607,3.009-5.1281,4.502-6.5483,19.4173-6.5675,7.0143-5.0885,6.9576,5.7298Z" style="fill:#c3864d; stroke-width:0px;"/><path d="m421.9294,553.5546c10.4673,4.3449,8.7254,31.5875,1.2278,10.2317-.7086-2.0182-2.3243-8.5012-1.2278-10.2317Z" style="fill:#462a1f; stroke-width:0px;"/><path d="m376.9098,452.8744c4.9334,9.21,13.5072,13.7182,10.641,15.5522-8.0941,5.1794-9.6261-7.4876-10.641-15.5522Z" style="fill:#c3864d; stroke-width:0px;"/><path d="m604.8728,393.9396q.8185-4.0927,1.6371-8.1854c4.7575,3.1076,11.1123,16.1003,1.2278,11.4595-1.044-.4902-2.6845-3.1526-2.8649-3.2742Z" style="fill:#b07c53; stroke-width:0px;"/><path d="m460.4007,398.0323c7.0494,6.7761,15.0033,9.4679,9.0039,20.4635-1.3501-8.6009-5.0461-13.1803-9.0039-20.4635Z" style="fill:#9b6841; stroke-width:0px;"/><path d="m414.5626,417.6772c4.9507-2.0196,8.6779,5.1348,10.2317,9.4132-1.0305,1.6418-15.1178-7.4199-10.2317-9.4132Z" style="fill:#f5f5f4; stroke-width:0px;"/><path d="m502.9647,401.3064c2.7588-.9039,2.7784,3.1415.8185,4.0927-1.3405.6506-31.1153-1.2593-.8185-4.0927Z" style="fill:#f5f5f4; stroke-width:0px;"/><path d="m345.3961,398.8508c-.2989-.1476,1.0359-3.2478-5.3205-.8185q.2046-1.2278.4093-2.4556c11.5388-6.3581,23.6201,3.0904,24.5562,6.139.4265,1.3891-1.4308,23.1623-.4093,29.0581-5.3685-10.8806-7.5407-26.1497-19.2357-31.923Z" style="fill:#f06953; stroke-width:0px;"/><path d="m350.7166,409.4918c2.7018,5.2892,12.2722,27.4231,12.6873,29.0581,6.6185,26.0672-7.878-7.9487-12.6873-29.0581Z" style="fill:#cf8a5f; stroke-width:0px;"/><path d="m364.6317,470.8822c5.1918.2274-1.4255,8.9108-3.2742,9.8225-12.6808,6.2539-2.7955-10.0883,3.2742-9.8225Z" style="fill:#f2c390; stroke-width:0px;"/><path d="m349.0795,464.3339c4.5173-.8154,4.1311,12.1632,1.6371,14.7337-7.682-5.3952-3.3227-14.4294-1.6371-14.7337Z" style="fill:#f2c390; stroke-width:0px;"/><path d="m345.3961,398.8508c-22.0671.2718-5.6601,35.5222-7.7761,36.0157-5.2386-10.4134-9.238-32.6209,2.8649-39.2899q-.2046,1.2278-.4093,2.4556c6.3564-2.4292,5.0216.671,5.3205.8185Z" style="fill:#eca377; stroke-width:0px;"/><path d="m357.2649,462.6968c17.214-3.6993,4.8933,5.8769-1.6371,4.0927-2.4763-.6766-2.5265-3.1979,1.6371-4.0927Z" style="fill:#e0ab73; stroke-width:0px;"/><path d="m350.7166,442.2334c1.1644,2.6607,5.6601,8.2785,6.139,9.4132,2.878,6.8188-6.3146,3.4744-6.139-9.4132Z" style="fill:#e0ab73; stroke-width:0px;"/><path d="m636.3865,501.9867c5.3692,4.738,7.0276,12.7844,6.5483,19.6449l-6.5483-19.6449Z" style="fill:#f5f5f4; stroke-width:0px;"/><path d="m408.0143,617.4006c2.6987.4855,7.477,7.6903,7.7761,9.4132,1.7332,9.9828-6.7017-6.6362-7.7761-9.4132Z" style="fill:#e2daca; stroke-width:0px;"/><path d="m427.2499,551.9175c10.9709,3.1577,2.6894,3.1433,2.0463,9.8225-.7223-3.3346-1.8872-6.9213-3.6834-9.8225.5262.0603,1.2193-.1203,1.6371,0Z" style="fill:#ddcaa2; stroke-width:0px;"/><path d="m599.143,614.945c.1514-.4534,2.2219,1.7755,2.8649-8.1854,4.3049,6.4677-6.8029,19.9778-2.8649,8.1854Z" style="fill:#fbf7e7; stroke-width:0px;"/><path d="m614.286,376.7503q7.1622,1.4324,14.3244,2.8649c-4.6489.9275-9.9347-1.0891-14.3244-2.8649Z" style="fill:#f5f5f4; stroke-width:0px;"/><path d="m624.1085,566.6512c4.7667,3.7703,1.9402,10.5231-4.0927,11.4595,4.4813-4.6864,5.7526-4.4289,4.0927-11.4595Z" style="fill:#f5f5f4; stroke-width:0px;"/><path d="m422.748,429.1367q9.2086,1.8417,18.4171,3.6834c-.0199,1.2742-16.9878.2542-18.4171-3.6834Z" style="fill:#513d30; stroke-width:0px;"/><path d="m506.6482,709.8955c-.1029.0531-.0501.8743-1.6371,1.6371q-3.4788-5.3205-6.9576-10.641,4.2973,4.502,8.5947,9.0039Z" style="fill:#ada794; stroke-width:0px;"/><path d="m572.5405,566.6512c5.6645,12.1301.2914,7.5936-.4093,3.6834-.1239-.6913-.1702-3.5882.4093-3.6834Z" style="fill:#cec5b3; stroke-width:0px;"/><path d="m425.2036,418.4957c2.6122-1.7155,4.1407,2.6725,1.6371,3.2742-1.5984.3841-2.8913-2.4505-1.6371-3.2742Z" style="fill:#f5f5f4; stroke-width:0px;"/><path d="m672.8115,392.3025c-2.2897.1943-5.0392,2.098-6.9576,3.2742-16.0629,9.8477-19.125,35.9155-18.4171,15.5522,2.7267-3.308,3.9501-8.1195,6.5483-11.4595.6967-.8956,12.3034-11.8579,13.0966-12.2781q2.8649,2.4556,5.7298,4.9112Z" style="fill:#cf3747; stroke-width:0px;"/><path d="m658.0778,464.3339c-3.419,4.0015.2647,10.9638-7.3668,15.5522-4.5753-1.3589-7.9091-4.1611-5.7298-9.0039.5089-1.1309.7926-.7668.8185-.8185.0617-.1227,2.2765.1248,2.4556-1.2278-1.8217-17.4995,5.3149-5.3702,6.139-5.3205,3.0007.1811,1.4426-5.27,3.2742-4.0927.9449.6074.1199,3.7653.4093,4.9112Z" style="fill:#9b6841; stroke-width:0px;"/><path d="m650.711,479.8861c7.6316-4.5885,3.9478-11.5507,7.3668-15.5522,2.0608,8.1607,9.8062,20.6528-7.3668,15.5522Z" style="fill:#f9ebce; stroke-width:0px;"/><path d="m672.8115,392.3025q-2.8649-2.4556-5.7298-4.9112c7.4086-3.9242,14.7123,1.5918,15.5522,8.5947,1.5589,12.9969-2.3-1.5489-4.502-2.8649-1.5101-.9025-3.6189-.9629-5.3205-.8185Z" style="fill:#f5e6dd; stroke-width:0px;"/><path d="m657.6685,414.403q.6139.2046,1.2278.4093c-23.5014,39.2286-8.1364,1.0614-1.2278-.4093Z" style="fill:#b5584c; stroke-width:0px;"/><path d="m642.9348,446.326c.2734,2.4079,3.2255,13.4649,1.6371,14.7337-5.1083,4.0805-2.6959-12.7062-1.6371-14.7337Z" style="fill:#f2c390; stroke-width:0px;"/><path d="m661.7612,423.407c3.7824,1.1304-4.9328,5.9922-4.9112,13.9152-3.5655-4.5551,1.1018-10.8338,4.9112-13.9152Z" style="fill:#e0ab73; stroke-width:0px;"/><path d="m662.5798,430.7738c1.0488-.1018-2.0765,10.4362-2.4556,13.0966-.4781-4.6134-1.8841-10.2355,2.4556-13.0966Z" style="fill:#f2c390; stroke-width:0px;"/><path d="m645.7997,470.0637c-.026.0517-.3096-.3124-.8185.8185-9.8446-5.0853,2.2279-8.0842.8185-.8185Z" style="fill:#f0d9c2; stroke-width:0px;"/><path d="m647.8461,440.5963q-1.2278,3.2742-2.4556,6.5483c-1.2949-2.4406.6189-4.9296,2.4556-6.5483Z" style="fill:#c7a282; stroke-width:0px;"/><path d="m568.0386,213.8611c-.0174.1216-1.7835-.1478,0,2.4556-.5642-.25-2.1169.4383-2.4556-.4093-.8963-2.2426,1.9293-41.3029.8185-48.2938-5.8527-23.0383-39.308-15.6233-20.8727-22.5098.1242-3.7166-11.1258.2476-11.0503-2.8649,13.8591-6.6576,29.6174,6.0976,34.3786,18.8264,5.4997,14.7028,1.468,36.7918-.8185,52.7957Z" style="fill:#e2daca; stroke-width:0px;"/><path d="m621.2436,237.5987c-2.183,1.3777-2.8427,3.299-4.9112,4.0927-.1946-.1202-1.5118-.1693-4.0927-2.0463,5.0633-26.1194-12.2177-26.2098-18.4171-29.0581-.5271-.2422,1.5699-6.0452-9.0039-4.0927-10.492,1.9374-6.6224,14.3228-16.78,9.8225-1.7835-2.6034-.0174-2.3341,0-2.4556,21.3406-25.1136,42.0739-1.3093,44.6104-1.6371,5.3955-.6973-8.2288-12.075,15.9615,3.6834-10.6063,3.1163-4.01,10.769-7.3668,21.6913Z" style="fill:#026a65; stroke-width:0px;"/><path d="m616.3323,241.6914c2.0686-.7937,2.7282-2.715,4.9112-4.0927,16.2765-10.2721,16.2846,6.2161,40.5177-1.6371-13.211,18.087-23.8811,8.9998-25.3747,9.0039-2.223.0061,1.0893,3.7349-1.6371,4.0927-.9834.129-16.5339-6.2035-18.4171-7.3668Z" style="fill:#027973; stroke-width:0px;"/><path d="m399.8289,199.9459c12.5949-2.0836,40.7512,17.1932,47.8845,27.421,8.997,12.9001-5.7112-3.3941-14.3244-9.4132-10.0175-7.0004-25.8426-15.398-37.2435-16.78,2.0462-.1397,3.4919-1.1961,3.6834-1.2278Z" style="fill:#5fb6bf; stroke-width:0px;"/><path d="m373.6356,210.5869c10.939-1.5781,25.1753,5.7725,32.3323,14.3244q-.6139.6139-1.2278,1.2278c-34.1358-24.0549-42.0126-2.9738-44.2011-4.0927-.4492-5.1764,8.9493-10.8612,13.0966-11.4595Z" style="fill:#088a8e; stroke-width:0px;"/><path d="m512.3779,160.6561c-2.8419,2.9084,11.1314,1.0543,13.9152,6.5483-8.1387-3.3997-18.6971-5.8789-27.421-4.9112-24.4494,2.7119-12.1308,22.5979-31.5137-1.2278,26.2507-21.639,25.4219-7.2169,31.5137-3.6834,4.2513,2.4659,8.8912,2.4153,13.5059,3.2742Z" style="fill:#025251; stroke-width:0px;"/><path d="m526.2931,167.2044c-2.7838-5.494-16.757-3.6399-13.9152-6.5483,7.9206,1.474,28.3541-1.4336,29.0581,17.1893-4.1361-4.9582-9.2076-8.1617-15.143-10.641Z" style="fill:#026a65; stroke-width:0px;"/><path d="m533.6599,191.7605c-.5588.1295-2.4132.9485-2.4556,1.6371-8.3069-8.8188-20.0449-9.7327-31.1045-5.7298q-1.6371-2.0463-3.2742-4.0927c14.6403-6.8778,31.5118-2.6632,43.3825,7.7761-.7448.9686-3.7402-.2415-6.5483.4093Z" style="fill:#088a8e; stroke-width:0px;"/><path d="m500.0999,187.6679c-13.8759,5.0223-19.6497,17.453-19.6449,31.5137-7.1795-12.8341,4.5617-30.0587,16.3708-35.6064q1.6371,2.0463,3.2742,4.0927Z" style="fill:#5fb6bf; stroke-width:0px;"/><path d="m531.2043,193.3976c.0424-.6886,1.8968-1.5076,2.4556-1.6371,2.3908,1.74,11.3578,21.0756,9.4132,22.1005-7.4116,3.9064-1.4044-9.3543-11.8688-20.4635Z" style="fill:#5fb6bf; stroke-width:0px;"/><path d="m373.6356,272.7959c.4597-.0212,1.0225-.1549,1.2278.4093-4.8499,4.606-9.2761,8.8331-11.8688,15.143-2.859-6.1625,7.0523-15.387,10.641-15.5522Z" style="fill:#f5f5f4; stroke-width:0px;"/><path d="m464.4934,221.2279c2.6471-.3504,5.09.4052,7.3668,1.6371,8.8515,4.7892,5.4256,7.0356-7.3668-1.6371Z" style="fill:#a2a7a3; stroke-width:0px;"/><path d="m649.4831,288.3481c4.8497.8639,5.2111,10.5696,4.0927,10.641q-2.0463-5.3205-4.0927-10.641Z" style="fill:#f5f5f4; stroke-width:0px;"/><path d="m395.7362,249.8768c.6055-.0829,1.7757-.203,2.0463.4093-10.4802,9.4836-5.7551.0986-2.0463-.4093Z" style="fill:#d4d3d4; stroke-width:0px;"/><path d="m367.9059,380.843c1.2081-.0127,6.1727,7.4425-1.2278,1.2278.4988-.3852,1.0371-1.2258,1.2278-1.2278Z" style="fill:#f5f5f4; stroke-width:0px;"/><path d="m495.5979,706.6213c6.1353,1.4068,7.5697,1.59,0,1.6371v-1.6371Z" style="fill:#817a79; stroke-width:0px;"/><path d="m599.143,614.945c-.2987.278-2.0291-1.1524-1.6371-2.0463.4953-1.1295,2.2618,1.4649,1.6371,2.0463Z" style="fill:#a2a7a3; stroke-width:0px;"/><path d="m455.0802,473.3378c-.8695,27.8191-60.1306,31.7985-63.846,3.2742.2609-.0519.5518.0397.8185,0,17.5332,5.2482,42.98,19.9889,55.6606-.8185.3801-.0791,5.4192-1.8457,7.3668-2.4556Z" style="fill:#cf3747; stroke-width:0px;"/><path d="m447.7134,475.7934c-12.6806,20.8075-38.1274,6.0667-55.6606.8185,2.7812-.4141,4.304-.7907,7.3668-.8185.1581-.0014,2.9036,2.1771.8185-.8185,2.0468-3.4133,17.7788,2.0118,25.784,2.4556,7.1689.3975,14.6515-.1722,21.6913-1.6371Z" style="fill:#f5806b; stroke-width:0px;"/><path d="m399.4196,475.7934c.9984.0856.7363-.6813.8185-.8185,2.0851,2.9956-.6604.8171-.8185.8185Z" style="fill:#832b1c; stroke-width:0px;"/><path d="m413.3348,276.8886l1.6371,3.2742c-13.5337,9.829-18.1098,61.8406-20.4635,78.989-9.3889-35.5192-7.5435-19.0366-15.5522,11.0503-3.2888-.2736-6.1199.8131-5.7298-1.2278,22.3895-40.5419,6.3465-69.2382,40.1084-92.0856Z" style="fill:#b07c53; stroke-width:0px;"/><path d="m611.4211,293.2593c-.6008-.4525-4.2763-3.4371-4.502-3.2742-1.1651.8416.5532,4.5829-1.2278,4.9112-2.4563-2.3286-17.9179-12.5638-21.6913-14.7337-10.8229-6.2238-34.6384-13.7981-37.2435-20.4635,19.9834.7671,52.426,17.2947,64.6645,33.5601Z" style="fill:#c19969; stroke-width:0px;"/><path d="m441.1651,264.6105c-4.1183,5.5931-19.053,12.9975-26.1932,15.5522l-1.6371-3.2742c16.8944-11.4329,20.9873-9.6534,27.8303-12.2781Z" style="fill:#e0ab73; stroke-width:0px;"/><path d="m546.7566,259.6992c2.6051,6.6654,26.4206,14.2397,37.2435,20.4635,3.7734,2.1699,19.235,12.4051,21.6913,14.7337,1.867,1.77,9.4358,11.6777,10.641,13.9152,8.1416,15.1141,12.6504,44.6808,17.1893,62.2089-6.0208-3.3508-28.5579-8.3578-31.923-1.6371-15.7571-.5801-35.0088-.6036-50.3401,2.4556,15.0681-6.5355-1.8235-5.115-9.0039-4.0927-5.8968.8396-14.9943,4.1434-20.0542,7.3668-4.863,3.098-11.2717,9.1812-11.4595,14.7337-1.8607,1.1982-3.0305,2.9399-4.9112,4.0927-2.2854-2.9383-4.6313-5.6351-7.3668-8.1854-6.3179-9.6953-15.3287-18.1546-27.0118-20.4635-1.1231-.2219-.7486-1.2428-2.4556,0-3.3453-2.4495-6.86-3.936-11.0503-4.0927,8.6212,7.5468-1.4724,2.3404-18.8264,3.2742-16.7887.9033-44.8621,7.0024-60.1626,5.7298,8.0087-30.0869,6.1633-46.5694,15.5522-11.0503,2.3537-17.1484,6.9298-69.16,20.4635-78.989,7.1402-2.5547,22.0749-9.9591,26.1932-15.5522,1.8892-.7246,7.9082-4.1715,8.5947-6.5483,18.9166,6.8943,38.56-2.3152,57.2977,4.0927,14.7809.2071,31.0496-2.7876,39.6991-2.4556Z" style="fill:#f2c390; stroke-width:0px;"/><path d="m633.5216,371.0205c.2796,1.0796,1.529,1.4787,0,1.6371-10.616-1.4234-21.199-2.8793-31.923-3.2742,3.3651-6.7207,25.9022-1.7137,31.923,1.6371Z" style="fill:#fbf7e7; stroke-width:0px;"/><path d="m498.4628,385.7542c-8.3449-7.7795-17.9983-13.5956-27.0118-20.4635,11.6831,2.3088,20.6939,10.7681,27.0118,20.4635Z" style="fill:#2b1104; stroke-width:0px;"/><path d="m566.8108,366.9278c8.7619-.9073,5.3476,2.4069-4.0927,1.6371.023-.6557,3.8735-1.6144,4.0927-1.6371Z" style="fill:#513d30; stroke-width:0px;"/><path d="m545.938,481.5232c2.0086,3.4715,2.4625,4.1282,5.7298,6.5483,12.149,8.9991,39.7238,8.8056,51.5679-.8185q.8185,5.9344,1.6371,11.8688,1.2278-3.4788,2.4556-6.9576c1.6512,2.9725,4.7019,8.8201,7.3668,6.5483-2.7656,10.7628-8.7951,20.151-13.0966,30.2859-3.763,4.3986-21.7575,36.2796-22.1005,38.4713-10.1876-17.6869-.7736-12.5454-.8185-15.143-.0158-.9131-6.3247-3.3239-7.3668-4.0927.2947-.6251,6.3996-.2865,6.5483-1.6371.2074-1.8844-29.4744-27.6838-29.0581-20.8727-4.171-4.1214-29.6579-17.4931-32.7415-18.0078-9.8846-1.65-20.0693,3.7251-20.0542,1.2278,9.9988-11.9429,24.4111-4.137,33.9694-8.5947,12.9765-6.0517,4.7944-17.6857,3.6834-21.282,6.8913-.2219,6.5146-1.671,12.2781,2.4556Z" style="fill:#f2c390; stroke-width:0px;"/><path d="m601.1894,507.7164q-11.0503,25.784-22.1005,51.5679c-7.1026.3772,20.553-47.317,22.1005-51.5679Z" style="fill:#c19969; stroke-width:0px;"/><path d="m607.3284,492.1642q-1.2278,3.4788-2.4556,6.9576-.8185-5.9344-1.6371-11.8688c.0898-.073,1.4589-1.4367,1.6371-1.6371.4767,2.1918,1.3789,4.61,2.4556,6.5483Z" style="fill:#e0ab73; stroke-width:0px;"/><path d="m603.645,501.9867c.6961.0661-.3905,3.5886-.8185,4.0927-2.2722,2.6762-.1812-4.1877.8185-4.0927Z" style="fill:#b07c53; stroke-width:0px;"/><path d="m502.5555,494.6198c-.5212,1.5723-17.1712-8.8928-19.6449-10.641-2.1724-1.5353-3.9803-3.1445-4.9112-5.7298,1.2759-.8903,6.5505-4.701,7.7761-4.0927.5877,7.3303,11.3763,14.207,16.78,20.4635Z" style="fill:#050504; stroke-width:0px;"/><path d="m511.5594,460.2412c-.737-.4058-1.8956-1.0829-2.4556-1.6371-7.2757-7.1997-21.3939-3.0928-11.0503-6.5483,9.5886-3.2033,8.9331,3.2405,13.5059,8.1854Z" style="fill:#2f1c01; stroke-width:0px;"/><path d="m606.5099,409.4918c-1.4622-.6918-2.2609-2.4699-2.4556-.8185h-.8185c-.8263-5.7885,1.5685-2.6901,3.2742.8185Z" style="fill:#6b3d23; stroke-width:0px;"/><path d="m604.8728,485.6159c-.1782.2004-1.5472,1.5641-1.6371,1.6371-11.8441,9.6242-39.4189,9.8176-51.5679.8185l-5.7298-12.6873c.9316-1.4027,5.2826,1.2041,10.641,1.2278,4.1596,4.1821,17.2451,6.0344,23.7376,6.5483,26.2534,2.0779,21.7257-13.4594,13.0966-11.4595v-1.6371c3.3157-1.06,6.5633-2.0197,9.8225-3.2742,8.4209,3.5387,6.7121,13.1189,1.6371,18.8264Z" style="fill:#cf3747; stroke-width:0px;"/><path d="m593.4133,470.0637v1.6371c-.8477.1964-10.5778,10.2395-13.0966,11.4595-6.4926-.5139-19.578-2.3662-23.7376-6.5483,12.5387.0556,24.9058-2.7349,36.8342-6.5483Z" style="fill:#f5806b; stroke-width:0px;"/><path d="m580.3166,483.1603c2.5188-1.2201,12.249-11.2631,13.0966-11.4595,8.6291-1.9999,13.1568,13.5375-13.0966,11.4595Z" style="fill:#f3b3a1; stroke-width:0px;"/><path d="m595.8689,426.6811c-.4945,5.7211-.2692,11.8111-6.139,15.5522-4.3818,2.7928-16.9358,3.9744-21.6913,2.4556-6.5957-2.1065-9.9914-9.6658-13.0966-14.7337-.6114-.9977-.9214-2.3942-1.6371-3.2742q1.2278-1.2278,2.4556-2.4556c2.1628,4.0588,12.085,14.9767,16.78,15.5522,9.9752,1.2228,6.8575-5.4482,7.3668-5.7298.9783-.5408,10.3235,2.5158,15.9615-7.3668Z" style="fill:#a9722d; stroke-width:0px;"/><path d="m597.5059,420.9514c-.628.6016-1.5797,5.0654-1.6371,5.7298-5.638,9.8827-14.9832,6.826-15.9615,7.3668-.5093.2816,2.6084,6.9525-7.3668,5.7298-4.695-.5755-14.6173-11.4934-16.78-15.5522-.1443-.2709.3895-1.6883-.8185-3.2742.5818.1536.8554-.5182,1.2278-.8185.5056,1.4838.7622,1.6737,2.0463,2.4556,3.4799,2.1188,6.7339,5.7586,10.641,7.3668,1.5421.6347,2.4624,1.8633,7.3668,1.6371,6.0388,4.7776,20.5741-3.4149,18.0078-11.4595.2946-.2011,1.4185.7861,2.0463-1.6371,1.6415,1.1061,1.1462,2.3452,1.2278,2.4556Z" style="fill:#050504; stroke-width:0px;"/><path d="m553.3049,426.6811c.7157.88,1.0257,2.2764,1.6371,3.2742.2353,4.1717-8.1755-11.314-1.6371-3.2742Z" style="fill:#3a1a07; stroke-width:0px;"/><path d="m558.2161,561.74c-5.0717,6.8248-8.5641,14.6323-13.9152,21.282-2.2636,2.8129-6.1472,8.1775-9.0039,9.8225-3.2761,1.8865-18.6453,5.3606-21.6913,4.0927-1.6122-3.2451-2.3692-5.1139-4.502-8.1854-.1361-.196.1126-2.5686-2.4556-4.0927,1.4895-.9152,2.2964-2.3863,2.4556-2.4556,4.0464-1.7617,36.7694-6.4261,14.7337-9.8225,6.1008-3.1006,11.5229-7.7256,18.0078-10.2317-.3772-.779-10.696-1.5778-12.2781-2.0463-2.8949-.8574-8.394-2.8485-12.2781-4.0927-.1405-.045-2.1547-1.4903-1.6371-2.4556,18.1071.1168,29.9737,3.6457,31.5137,3.2742,1.9593-.4726.1408-2.3325.4093-3.2742.0317-.1113,1.8784-.716,1.6371-1.6371,2.2333,1.8354,7.9954,8.1112,9.0039,9.8225Z" style="fill:#f2c390; stroke-width:0px;"/><path d="m452.6246,554.3731c-.7174,2.7153-.6369,1.4137.8185,0,1.354-1.3152,1.9471-3.6679,4.502-3.2742,15.5084,9.9332,27.5259.2754,6.9576,11.0503-.5382,1.3933,1.6456,3.5566,2.4556,4.502-9.8496-1.389-10.5233,3.7351-13.9152,11.4595-4.4559-4.0042-3.8158-10.9532-6.5483-10.641-.9293-10.2999.1794-13.0991,7.7761-19.6449q.6139.6139,1.2278,1.2278c-2.0098,1.567-2.6352,2.9023-3.2742,5.3205Z" style="fill:#f2c390; stroke-width:0px;"/><path d="m453.4432,578.1108c3.9175,3.5204,2.8352,1.7609,7.3668,0,2.3435,1.772,3.8304,4.3452,5.7298,6.5483,1.9788,2.2951,8.7775,8.4709,9.0039,10.641.0665.6375-2.643,12.3256-3.6834,12.2781-7.455-14.2807-23.3234-21.9095-24.9654-40.1084,2.7325-.3122,2.0924,6.6368,6.5483,10.641Z" style="fill:#7b5136; stroke-width:0px;"/><path d="m493.5515,535.5468l.8185.8185c-13.2371,6.7348.2144,1.4958,18.0078,2.4556.597.3148,4.4604.5593,5.7298,4.502-.4304,1.2003-6.5431,1.7344-8.1854,2.0463-10.2846,1.9532-24.0358,2.0382-34.7879,3.2742,3.0806-4.5647,12.7744-14.3448,18.4171-13.0966Z" style="fill:#dd645f; stroke-width:0px;"/><path d="m497.6442,583.8405c-1.328,1.5145-3.0595,1.4371-3.2742,4.0927-.1819,2.2509,2.6773,2.6732,1.2278,4.0927-.7259.7109-17.1979,3.8912-20.0542,3.2742-.2265-2.1701-7.0252-8.3459-9.0039-10.641,10.3385.8191,20.8602-.9061,31.1045-.8185Z" style="fill:#e0ab73; stroke-width:0px;"/><path d="m471.451,576.4737c.0755.0377-1.6064.8506.4093,1.6371,7.5897,2.9614,26.7029,3.2517,34.7879,1.6371l2.4556,2.4556c-.1592.0693-.9661,1.5404-2.4556,2.4556-3.61-2.1423-6.103-.7938-9.0039-.8185-10.2443-.0876-20.7659,1.6376-31.1045.8185-1.8994-2.2031-3.3863-4.7763-5.7298-6.5483.3762-.1462,4.3725-3.2031,6.9576-4.0927,4.4484,1.4144,3.4854,2.3568,3.6834,2.4556Z" style="fill:#9b6841; stroke-width:0px;"/><path d="m467.3583,566.6512c9.2742,10.8244,49.9372,12.4022,4.0927,9.8225-.1981-.0988.765-1.0413-3.6834-2.4556-2.585.8896-6.5814,3.9465-6.9576,4.0927-4.5316,1.7609-3.4494,3.5204-7.3668,0,3.3918-7.7245,4.0655-12.8485,13.9152-11.4595Z" style="fill:#b07c53; stroke-width:0px;"/><path d="m515.6521,553.5546c-.5176.9653,1.4965,2.4106,1.6371,2.4556-11.34,18.7336-23.6987-10.7849-41.7455,5.7298-.5033-.2181-3.649.3606-2.8649-1.6371,16.4695-11.645,27.7918-1.1864,42.9733-6.5483Z" style="fill:#fac0b9; stroke-width:0px;"/><path d="m549.2122,586.2961c-5.1489,9.0617-11.0999,17.2667-17.5986,25.3747-2.8437.6083,3.7026-16.4696,3.6834-18.8264,2.8567-1.645,6.7404-7.0096,9.0039-9.8225q2.4556,1.6371,4.9112,3.2742Z" style="fill:#6b3d23; stroke-width:0px;"/><path d="m549.2122,551.9175c.2413.9211-1.6054,1.5258-1.6371,1.6371-11.0014-7.2654-24.9308-8.0174-37.6528-8.1854,1.6423-.3119,7.755-.846,8.1854-2.0463-1.2693-3.9426-5.1328-4.1871-5.7298-4.502-.1602-.0845-1.8445-.3515-2.8649-.8185v-1.6371c13.7623,3.4663,28.3599,6.2337,39.6991,15.5522Z" style="fill:#ea988a; stroke-width:0px;"/><path d="m549.2122,586.2961q-2.4556-1.6371-4.9112-3.2742c5.3511-6.6497,8.8435-14.4572,13.9152-21.282,3.1961,5.4232-5.7141,18.7663-9.0039,24.5562Z" style="fill:#6b3d23; stroke-width:0px;"/><path d="m509.1038,582.2035l-2.4556-2.4556c4.6854-.9357,12.5841-5.0263,17.1893-7.3668,22.0357,3.3964-10.6873,8.0608-14.7337,9.8225Z" style="fill:#c19969; stroke-width:0px;"/><path d="m506.6482,584.6591c2.5682,1.5241,2.3195,3.8967,2.4556,4.0927-6.5131,3.4816-8.3288,1.6323-14.7337-.8185.2147-2.6556,1.9461-2.5782,3.2742-4.0927,2.9009.0248,5.3939-1.3238,9.0039.8185Z" style="fill:#f0d9c2; stroke-width:0px;"/><path d="m494.3701,536.3653l-.8185-.8185c.513-2.0035,2.9613-.0246.8185.8185Z" style="fill:#614e4a; stroke-width:0px;"/><path d="m453.4432,554.3731c-1.4554,1.4137-1.5359,2.7153-.8185,0h.8185Z" style="fill:#593810; stroke-width:0px;"/><path d="m517.2892,556.0102c3.8841,1.2441,9.3832,3.2353,12.2781,4.0927-14.7737,5.7815-39.4631,7.9473-54.0235,1.6371,18.0467-16.5147,30.4054,13.0038,41.7455-5.7298Z" style="fill:#b63856; stroke-width:0px;"/><path d="m494.7794,558.4658c2.9082-.3275,14.7757,11.3217-1.2278,1.2278.4988-.3749.9997-1.2021,1.2278-1.2278Z" style="fill:#ef7c91; stroke-width:0px;"/><path d="m594.2318,420.1328c2.5662,8.0447-11.9691,16.2371-18.0078,11.4595,15.0841-.6958,13.9746-8.7059,18.0078-11.4595Z" style="fill:#f5f5f4; stroke-width:0px;"/><path d="m550.0307,412.766c33.6248-13.3129,51.2226,3.7344,54.4328,1.6371.3097-.2023-.8682-3.2104-1.2278-5.7298h.8185c.6719,2.6628,1.6178,3.3721,1.6371,6.5483.0096,1.5771-1.0062,12.7216-2.0463,13.0966-3.2744-.7571-4.6783-5.3909-6.139-7.3668-.0816-.1104.4137-1.3495-1.2278-2.4556-.6278,2.4232-1.7518,1.436-2.0463,1.6371-4.0333,2.7536-2.9238,10.7637-18.0078,11.4595-4.9045.2262-5.8247-1.0023-7.3668-1.6371,2.4859-.7816-3.1544-5.1909-4.0927-6.9576-1.0121-1.9055-.4837-6.4536-1.2278-6.9576-.4784-.324-9.6344,1.4712-5.3205,6.5483-1.2842-.7819-1.5408-.9718-2.0463-2.4556-.3724.3003-.646.9722-1.2278.8185-.1267-.0334-.3759-1.7993-2.0463-1.6371-6.6812,4.1966-15.0512,5.2512-20.8727-.8185-5.2196-5.4421-4.6103-13.2905-4.9112-14.7337,4.1754-11.0915,1.2785,16.5182,13.5059,14.7337,1.3934-.2034,6.7141-4.6611,9.4132-5.7298Z" style="fill:#050504; stroke-width:0px;"/><path d="m568.8571,429.9553c-3.9071-1.6082-7.1611-5.248-10.641-7.3668-4.3139-5.0771,4.8421-6.8723,5.3205-6.5483.7441.5039.2157,5.0521,1.2278,6.9576.9383,1.7667,6.5786,6.176,4.0927,6.9576Z" style="fill:#f5f5f4; stroke-width:0px;"/><path d="m569.2664,416.0401c1.7268-.2806,5.8516,5.789,2.4556,7.3668-4.1724,1.9385-6.7283-6.6726-2.4556-7.3668Z" style="fill:#f5f5f4; stroke-width:0px;"/><path d="m432.1191,419.1589c1.7268-.2806,5.8516,5.789,2.4556,7.3668-4.1724,1.9385-6.7283-6.6726-2.4556-7.3668Z" style="fill:#f5f5f4; stroke-width:0px;"/><path d="m583.1815,412.766q3.0695,1.4324,6.139,2.8649c-1.282,1.1079-6.5955-1.3888-6.139-2.8649Z" style="fill:#f5f5f4; stroke-width:0px;"/><path d="m583.1815,423.407c4.142-1.1561,2.156,3.6059,0,3.2742-1.3036-.2006-1.6641-2.8097,0-3.2742Z" style="fill:#f5f5f4; stroke-width:0px;"/></svg>
