<?xml version="1.0" encoding="UTF-8"?><svg xmlns="http://www.w3.org/2000/svg" viewBox="0 0 1000 1000"><g id="AIrtwork"><path d="m516.1457,473.1547c3.4883-.0522,6.9808.028,10.4698,0-1.6653,4.1752-9.4004,13.1639-12.5637,15.7046-9.2959,7.4664-18.4306,4.2165-27.2214-3.1409-1.4567-1.2192-4.1977-8.6446-11.5167-10.4698-.1258-.6403.0596-1.4159,0-2.094,13.6603.6294,27.173.2043,40.8321,0Z" style="fill:#011617; stroke-width:0px;"/><path d="m477.4076,464.7789c6.7999,1.9848,33.597,6.5799,38.7381,6.2819v2.094c-13.6591.2043-27.1718.6294-40.8321,0-2.1882-1.7637-2.3085.2507-3.1409,0-6.0889-11.0907-2.8936-9.9386-3.1409-10.4698,2.6597,1.0088,5.7317,1.3221,8.3758,2.094Z" style="fill:#12a4b6; stroke-width:0px;"/><path d="m539.1791,474.2016c-6.8354,6.3763-15.4331,16.1475-25.1274,14.6577,3.1634-2.5408,10.8984-11.5295,12.5637-15.7046,4.0442-.0324,9.0074-.6915,12.5637,1.047Z" style="fill:#23c5d5; stroke-width:0px;"/><path d="m541.2731,464.7789q-.5235,4.1879-1.047,8.3758c-.3695.3761-.636.6636-1.047,1.047-3.5564-1.7384-8.5195-1.0794-12.5637-1.047-3.489.028-6.9815-.0522-10.4698,0v-2.094c1.2929-.075,23.9264-5.7974,25.1274-6.2819Z" style="fill:#c4ecf9; stroke-width:0px;"/><path d="m413.542,444.8863c2.8172.4471,17.9516,4.662,17.7986,6.2819-19.1466-.3355-37.9469-9.4793-17.7986-6.2819Z" style="fill:#18190a; stroke-width:0px;"/><path d="m363.2872,807.14c.957,5.0664,3.3009,20.2521,4.7114,6.2819,15.3914,36.3121,14.9079-5.1344,16.2281,16.2281,7.3867,3.6006,3.2727,4.9894-2.094,7.8523-1.3997-2.0058,2.1046-2.4092.5235-3.1409-2.0424-.9452-7.7031,2.6497-12.5637,0-6.852-3.7353-23.3853-33.2807-6.8053-27.2214Z" style="fill:#bbb6a4; stroke-width:0px;"/><path d="m620.8432,881.4752c-7.8985,8.8312-13.4497,30.8238-20.9395,24.0804,4.7167-11.4825,7.6728-17.4391,6.2819-30.8858,2.3573-6.6167,14.7184,24.1108,12.0402-7.8523,5.5969,4.5006,3.1706,8.6144,2.6174,14.6577Z" style="fill:#d4cab7; stroke-width:0px;"/><path d="m681.5678,715.0061c14.3125-15.5411,21.024-63.5671-15.7046-60.7246-.6908.0535-1.3989-.0247-2.094,0,1.8836-3.9413,6.786-11.9112,7.3288-13.6107,12.9541,5.686,24.3756,11.639,27.2214,26.6979,3.297,17.4466-5.5532,54.0286-16.7516,47.6374Z" style="fill:#d4cab7; stroke-width:0px;"/><path d="m681.5678,715.0061c-1.9029,2.0663-3.0952,2.6625-5.2349,4.1879-19.5474-9.3627,5.4011-6.4601,5.2349-19.8925,1.5406-1.9865,6.926-9.5986,4.1879-10.4698h-1.047c15.2619-13.3323-.0539-35.1131-18.8456-34.5502,36.7286-2.8425,30.0172,45.1835,15.7046,60.7246Z" style="fill:#260b05; stroke-width:0px;"/><path d="m676.333,719.194c-7.2619,5.177-12.5066,4.9097-13.6107,7.3288-.6179-5.9689-3.447-7.9498-2.094-14.6577,8.1652-.9288,15.8614-6.0158,20.9395-12.5637.1662,13.4324-24.7823,10.5299-5.2349,19.8925Z" style="fill:#c43f44; stroke-width:0px;"/><path d="m665.8632,654.2815c18.7917-.5629,34.1074,21.2179,18.8456,34.5502-24.6579,10.7305,1.6818-3.1914-10.4698-9.9463,19.7516-4.2929-5.6118-17.3926-14.6577-3.6644q-2.094-2.6174-4.1879-5.2349c3.2255-7.5751,5.8567-10.4337,8.3758-15.7046.6951-.0247,1.4031.0535,2.094,0Z" style="fill:#e86d62; stroke-width:0px;"/><path d="m681.5678,699.3014c-5.0781,6.5479-12.7743,11.6349-20.9395,12.5637,1.1509-5.7055,8.7536-8.5853,2.6174-14.6577,8.0379,2.1386,18.9847.333,22.51-8.3758,2.7381.8712-2.6473,8.4832-4.1879,10.4698Z" style="fill:#e8a290; stroke-width:0px;"/><path d="m571.6354,930.6831c-.0249,4.8856.0345,9.7723,0,14.6577-.1055,14.9331,5.9395,16.7082-35.0737,24.0804-24.0353,4.3204-66.9984,11.7517-80.0937-14.6577-6.0471-12.1952-2.9781-17.1438-5.2349-29.3153,2.0667-2.0539,14.2967-4.0589,6.8053,7.3288,13.0793-4.0143,9.5043,4.3766,15.1811,10.9932,35.1357,40.9523,68.6802-5.9027,98.4157-13.0872Z" style="fill:#7c131e; stroke-width:0px;"/><path d="m572.6824,961.801c-6.3415,15.6303-115.4662,18.6659-119.3552,2.094,1.4027-17.8098-3.3286-17.7635,3.1409-9.1314,13.0953,26.4094,56.0584,18.978,80.0937,14.6577,41.0132-7.3722,34.9682-9.1474,35.0737-24.0804q1.047-5.4966,2.094-10.9932c-1.2821,12.7949,2.1377,19.6039-1.047,27.4535Z" style="fill:#e15158; stroke-width:0px;"/><path d="m362.2402,662.6573c-1.1651,2.9539-3.5597,5.783-6.2819,7.3288-.1835.1042-.1653,2.3853-3.6644,2.094-.5144-.0428-7.2783-4.3243-8.8993-5.2349-.4204-.2362,2.1753-1.556-.5235-3.1409-3.1098-1.8263-7.3614.1848-9.9463-3.1409,7.1589-9.1323,21.8569-4.6176,29.3153,2.094Z" style="fill:#f3b093; stroke-width:0px;"/><path d="m343.3946,666.8452c-13.927,4.7915,8.4877,12.9664,8.3758,14.1342-.2716,2.8329-7.2944-2.5167-8.3758,7.8523-4.9211.5423.8625-5.9961-2.6174-7.3288-5.1986-1.991-6.9486.7324-7.8523,5.2349-1.6189-7.8567-5.1982-19.5433,0-26.1744,2.5849,3.3257,6.8365,1.3147,9.9463,3.1409,2.6988,1.5849.103,2.9047.5235,3.1409Z" style="fill:#e86d62; stroke-width:0px;"/><path d="m589.434,461.6379c30.0594-16.0994,38.1964,5.3785,40.3086,6.2819,1.7095.7311,3.9494-6.2246,13.6107-5.2349,9.8599,1.01,9.068,4.6206,3.1409,10.4698q6.5436.2617,13.0872.5235c-12.4967,1.3261-.9507,1.6147-2.094,4.1879-.3427.7714-8.1403,2.3171-14.6577,8.3758,4.9688-2.8122,26.8982-4.7166,13.6107-1.047,10.4039,7.1479-3.1092-.1402-13.6107,7.3288,21.9595-4.2506,48.8988,19.2315,45.02,41.879-1.3091,7.6435-9.3218,12.9023-12.5637,19.3691-3.0715,6.1266-4.4144,11.6973-3.1409,18.8456,1.4115,7.9233,16.7915,13.2971,13.6107,31.9328-2.8805,16.8762-27.898,15.8848-12.5637,30.3623-5.7789,3.2768-1.8252,4.9168-2.094,5.7584-.5428,1.6995-5.4452,9.6694-7.3288,13.6107-2.5191,5.2709-5.1503,8.1295-8.3758,15.7046-.8625,2.0256-6.3773,14.3652-6.2819,15.1811.15,1.2831,9.3729,6.9907,9.9463,6.8053,5.3757-1.7374-2.7746-11.7463.5235-16.7516,9.0458-13.7281,34.4093-.6285,14.6577,3.6644,12.1515,6.7549-14.1881,20.6768,10.4698,9.9463h1.047c-3.5252,8.7088-14.4721,10.5144-22.51,8.3758,6.1362,6.0724-1.4666,8.9522-2.6174,14.6577-1.3531,6.7078,1.4761,8.6887,2.094,14.6577,2.6285,25.3934-2.3773,30.0181-2.094,31.9328.5263,3.5565,17.4883,10.0382-7.3288,38.7381,10.3147,17.8445,2.8809,42.8089-16.7516,51.3018,6.5152,15.7513-.9666,18.9165-9.4228,27.7449-2.274-1.7875,3.94-6.6499-2.6174-13.6107l.5235,14.6577c-3.6951,4.0743-3.9905,3.9672-4.1879,4.1879.5531-6.0433,2.9794-10.1571-2.6174-14.6577,2.6781,31.9631-9.6829,1.2356-12.0402,7.8523,1.3909,13.4467-1.5652,19.4033-6.2819,30.8858-.6137,1.4938-3.8598,4.203-5.2349,5.7584-.555,1.0139,2.0632,7.5728-5.2349,13.0872-4.7366,3.579-9.0045,2.9706-9.4228,3.6644,0,36.6442,0-1.3383,0,35.3058-3.7931,4.1385-3.939-1.3565-4.1879-1.5705,0-34.8119,0,3.1706,0-31.6414-2.9065-3.7283-3.9124.4569-4.1879.5235-29.7355,7.1845-63.2801,54.0395-98.4157,13.0872-5.6768-6.6166-2.1018-15.0076-15.1811-10.9932,7.4913-11.3877-4.7386-9.3828-6.8053-7.3288-2.9587,2.9405.0296,29.1117,1.047,38.4467q-1.5705,1.047-3.1409,2.094c-2.5795-8.5124-1.6387,12.0971-2.094,2.3853-.659-14.0597-.4008-28.3225-1.047-42.4025-22.3678-4.706-49.449-21.9187-36.6442-47.1139-16.3814-10.5581-6.7448-26.6421-13.6107-18.3221-5.5953,1.1316-1.651-1.5914-10.4698-4.7114,7.2944-12.8379,1.2147-3.0892-2.094-9.4228,12.2883-8.7459,2.1053-4.382-1.047-8.8993,5.3666-2.8629,9.4807-4.2517,2.094-7.8523-1.3203-21.3625-.8368,20.084-16.2281-16.2281-1.4105,13.9702-3.7544-1.2155-4.7114-6.2819-.4255-2.2529-2.372-16.4506-2.094-17.2751l1.5705-1.5705c11.4808,17.9444-4.2227-6.0163,10.9932-.5235-10.607-6.7312-15.1444-17.5962-11.5167-30.3623-16.1985,11.2115,1.2207-10.847-1.5705-12.0402-14.9738,21.5498-2.3256-1.2874-.5235-17.7986.1473-1.3497,2.9932-2.21,2.094-5.7584-13.2369-2.7783-20.1111-20.8455-18.8456-32.9797,1.0814-10.369,8.1043-5.0194,8.3758-7.8523.1119-1.1678-22.3028-9.3427-8.3758-14.1342,1.621.9105,8.3848,5.1921,8.8993,5.2349,3.4991.2914,3.4809-1.9897,3.6644-2.094,7.7766,9.5961,18.1001,3.306,6.2819-7.3288-7.4584-6.7115-22.1564-11.2262-29.3153-2.094-5.1982,6.6311-1.6189,18.3177,0,26.1744,3.9039,18.946,9.1914,29.6295,25.1274,40.8321-16.0718-4.7588-22.7818-18.7243-26.1744-33.5032-.7036-3.0649-3.0697-17.8512-3.1409-19.8925-.4444-12.7318,1.3214-20.8285,16.2281-21.9865,13.8763-1.0779,20.5857,10.0843,13.0872-16.2281-15.4975-2.6284-7.01-1.4538-8.3758-13.0872-1.8903-16.0997-20.3978-26.1497-9.4228-45.5434-3.749-10.274-2.1449-25.5213,5.2349-33.5032-10.4675-1.6964-6.7235,20.6069-10.4698,31.4093-4.238,2.4011-8.5777-36.351-8.3758-10.9932-10.152-16.5143.2817-37.2364,20.9395-31.4093.1968.0555,1.7018,2.866,2.6174,3.1409,1.9544-.2404,9.2798-24.6074,27.7449-10.9932-20.0158,3.6049-32.2183,37.6617-28.7918,39.2616,8.4657-19.143,17.5714-38.5176,41.3555-37.1676-27.361-14.0977-26.6686-11.2373-40.8321,2.6174.3874-2.4324-.9839-1.9954-1.047-2.094l1.047-13.0872q-1.5705,4.9731-3.1409,9.9463c-10.7238-18.4853,1.2832-47.7775,31.4093-46.5904-2.263,8.2289-25.5829,8.9633-6.2819,10.4698-9.822,17.1706,13.9266-15.9786,20.416-20.416,12.5368-8.5726,33.2091-6.7283,14.6577,1.047,22.8626-3.3491,22.7872,4.0523,24.0804,4.1879,1.9112.2005,3.6181-3.256,5.7584-4.1879,23.8932-10.4039,29.006,2.203,35.5972,4.1879.8324.2507.9527-1.7637,3.1409,0,.0596.6781-.1258,1.4536,0,2.094.6403,3.2606,10.8628,13.6451,11.5167,10.4698,8.7908,7.3575,17.9255,10.6073,27.2214,3.1409,9.6944,1.4898,18.292-8.2813,25.1274-14.6577.411-.3834.6775-.6708,1.047-1.047,4.5041-4.5853,4.3455-6.1396,4.7114-6.2819,2.0162-.7839,1.4473,2.0498,1.5705,2.094s.6756,1.9025,1.5705,2.094c6.4454,1.3794,29.8493-17.7415,25.1274,0q5.7584-7.8523,11.5167-15.7046c-4.9684,21.5774-4.5629,11.249,4.7114,6.2819Z" style="fill:#080807; stroke-width:0px;"/><path d="m486.8303,485.7184c-.6539,3.1753-10.8764-7.2092-11.5167-10.4698,7.319,1.8252,10.06,9.2506,11.5167,10.4698Z" style="fill:#9cd2e0; stroke-width:0px;"/><path d="m447.0453,968.3742c-5.1888-4.4765-.7277-34.2-3.1409-38.2146-18.751-2.8263-55.1714-32.3701-40.8321-52.3488-8.3574-11.1186-4.8365-6.9964-7.3288-17.2751,6.8659-8.32-2.7707,7.7639,13.6107,18.3221-12.8049,25.1952,14.2763,42.4079,36.6442,47.1139.6462,14.08.388,28.3428,1.047,42.4025Z" style="fill:#d4cab7; stroke-width:0px;"/><path d="m627.1251,876.2404c-1.4811,1.5462-2.0153.9603-2.094,1.047l-.5235-14.6577c6.5574,6.9608.3435,11.8232,2.6174,13.6107Z" style="fill:#fdfdfc; stroke-width:0px;"/><path d="m456.468,954.7636c-6.4695-8.6321-1.7382-8.6784-3.1409,9.1314h-1.047c-1.0174-9.335-4.0057-35.5063-1.047-38.4467,2.2567,12.1715-.8122,17.1201,5.2349,29.3153Z" style="fill:#fa9678; stroke-width:0px;"/><path d="m575.8233,961.801c-.1812-.1557-1.8806.0936-3.1409,0,3.1847-7.8496-.2351-14.6586,1.047-27.4535q-1.047,5.4966-2.094,10.9932c.0345-4.8854-.0249-9.7721,0-14.6577.2755-.0666,1.2814-4.2518,4.1879-.5235,0,34.8119,0-3.1706,0,31.6414Z" style="fill:#f3b093; stroke-width:0px;"/><path d="m659.5813,675.221c-3.2981,5.0053,4.8522,15.0142-.5235,16.7516-.5734.1853-9.7962-5.5222-9.9463-6.8053-.0954-.8159,5.4194-13.1556,6.2819-15.1811q2.094,2.6174,4.1879,5.2349Z" style="fill:#8b2924; stroke-width:0px;"/><path d="m347.5825,532.8323c.4333-1.2892,1.103-2.1716,2.094-3.1409,14.1634-13.8547,13.471-16.7151,40.8321-2.6174-23.7841-1.35-32.8899,18.0247-41.3555,37.1676-3.4265-1.5999,8.7761-35.6567,28.7918-39.2616-18.4651-13.6142-25.7905,10.7528-27.7449,10.9932-.9156-.2749-2.4207-3.0855-2.6174-3.1409Z" style="fill:#fdfdfc; stroke-width:0px;"/><path d="m348.6295,527.5974c-.6208-.9714-1.525-2.1601-2.094-3.1409q1.5705-4.9731,3.1409-9.9463l-1.047,13.0872Z" style="fill:#fdfdfc; stroke-width:0px;"/><path d="m604.6151,501.423c12.7375-1.6803,24.127.2984,30.8858,12.0402-28.9054-16.3707-75.4366-.9387-51.3018,37.6911-.0007,6.1757-15.8713-12.6767-10.4698-29.3153,3.0616-9.4306,21.8193-19.22,30.8858-20.416Z" style="fill:#fdfdfc; stroke-width:0px;"/><path d="m643.3532,517.1277c2.4207-.3196,14.7718-.3535,16.7516,0,20.6006,3.6784-5.3581,2.8507-7.3288,3.1409-10.2952,1.5162-41.4315,14.7299-45.5434,26.6979-.3045-14.5754,23.8729-28.2216,36.1207-29.8388Z" style="fill:#e3e5e4; stroke-width:0px;"/><path d="m473.2196,538.0672q-.5235-.5235-1.047-1.047c3.0883-3.88,14.6651-14.6487,18.3221-16.7516,29.196-16.7884,51.8417,3.7701,47.1139,6.2819-25.9224-15.0566-44.4986-6.8932-64.389,11.5167Z" style="fill:#72b9ca; stroke-width:0px;"/><path d="m441.2869,524.4565c10.8387,17.874-30.8009,33.4887-52.8723,26.6979,17.6259-1.4662,51.4308-5.9111,52.8723-26.6979Z" style="fill:#e3e5e4; stroke-width:0px;"/><path d="m428.7232,506.6579c30.9317-1.5319,44.483,20.2769,17.7986,41.879-4.1337,3.3464-21.5405,12.7077-15.7046,7.3288,7.189-6.6261,59.3566-32.8431-2.094-49.2079Z" style="fill:#caceca; stroke-width:0px;"/><path d="m470.0787,562.1476c13.9812-16.0048,47.0924-30.4989,67.0065-18.3221-29.4437-8.5174-49.0108,10.5444-67.0065,18.3221Z" style="fill:#b4b9b8; stroke-width:0px;"/><path d="m420.3474,500.376c25.4111-3.2238-13.8426,5.8232-20.416,19.3691-.5234,1.0786-4.5282,19.3123-3.1409,4.1879.8823-9.6192,14.0563-22.3517,23.557-23.557Z" style="fill:#e3e5e4; stroke-width:0px;"/><path d="m615.0849,555.8658c3.9185,21.3569,17.0031,23.6831,33.5032,33.5032,15.2913,16.1482,3.6505,4.2269-8.3758-3.1409-5.3656-3.2872-26.4168-7.1376-25.1274-30.3623Z" style="fill:#b4b9b8; stroke-width:0px;"/><path d="m597.2863,486.7654c10.3257-1.0632,14.6162,3.3331,1.047,2.094-13.3893,4.7947-24.967,12.6467-28.2683,27.2214-.6882-12.9847,14.6966-28.0257,27.2214-29.3153Z" style="fill:#e3e5e4; stroke-width:0px;"/><path d="m596.2393,467.9198c6.1866-.9789,23.9164.2382,27.7449,5.7584,8.4048,12.1186-5.5571-2.3222-16.2281-3.6644-13.9889-1.7596-31.2996,8.6096-21.9865,2.094.5919-.4141,9.9128-4.0998,10.4698-4.1879Z" style="fill:#e3e5e4; stroke-width:0px;"/><path d="m432.9111,564.2416c15.7601-3.6099-12.9286,8.476-18.8456,9.4228-30.5699,4.8914-47.3388-1.217-2.094-1.047,3.5041-2.6181,11.4242-3.3606,17.7986-5.2349,2.1049-.619,2.9244-3.0913,3.1409-3.1409Z" style="fill:#181f22; stroke-width:0px;"/><path d="m388.9381,592.5099c4.5162-.5576-6.3222,10.056-11.5167,13.6107-23.2561,15.9146-9.4237,2.8955,11.5167-13.6107Z" style="fill:#caceca; stroke-width:0px;"/><path d="m631.8365,850.066c1.7771-1.0948,6.1466,13.9669-2.094,21.9865q1.047-10.9932,2.094-21.9865Z" style="fill:#fdfdfc; stroke-width:0px;"/><path d="m393.126,475.2486c1.5273-.3757,3.3689.1427,2.094,1.047-36.1704,31.2217-13.0608,1.6507-2.094-1.047Z" style="fill:#fdfdfc; stroke-width:0px;"/><path d="m445.4748,467.9198c5.8004-1.261,13.9596.4872,14.1342,7.8523-7.0752-7.7981-12.6879-7.0202-20.416-.5235-1.6849-2.9143,4.2125-6.879,6.2819-7.3288Z" style="fill:#fdfdfc; stroke-width:0px;"/><path d="m442.3339,484.6714c13.1232-1.6277,33.0495,20.2236,5.2349,2.094-18.8395,4.6428-11.619-1.3021-5.2349-2.094Z" style="fill:#b4b9b8; stroke-width:0px;"/><path d="m540.7496,509.7988c19.5567,4.7311,7.3088,10.6297,6.2819,10.4698-1.0602-.1652-5.006-9.0566-6.2819-10.4698Z" style="fill:#fdfdfc; stroke-width:0px;"/><path d="m650.6821,496.1881q5.2349,1.047,10.4698,2.094c21.4963,19.6838,1.5158,3.5812-10.4698-2.094Z" style="fill:#fdfdfc; stroke-width:0px;"/><path d="m454.8976,570.5234q7.8523,9.4228,15.7046,18.8456c-5.3781-1.0091-15.3011-13.4405-15.7046-18.8456Z" style="fill:#395d68; stroke-width:0px;"/><path d="m371.1395,540.1611c10.3984-1.4138-9.5706,3.7584-13.6107,14.6577-1.3548-6.3391,8.4295-13.9533,13.6107-14.6577Z" style="fill:#e3e5e4; stroke-width:0px;"/><path d="m562.7361,473.1547c1.7024,2.4496-.5964,3.6524-2.094,5.2349-14.7423,15.5782-23.6498,15.8999,2.094-5.2349Z" style="fill:#41484c; stroke-width:0px;"/><path d="m382.6562,585.1811c3.7797,1.1319-11.4061,15.6075-16.2281,12.0402,6.7825-2.5467,11.4517-6.7173,16.2281-12.0402Z" style="fill:#b4b9b8; stroke-width:0px;"/><path d="m425.5822,476.2956q-5.2349,7.8523-10.4698,15.7046c-.7582-6.0552,5.4216-12.8133,10.4698-15.7046Z" style="fill:#949699; stroke-width:0px;"/><path d="m511.4343,572.6174c10.0268-2.3346-3.1897,6.2571-16.2281,8.8993,2.7579-.9585,15.3268-8.6894,16.2281-8.8993Z" style="fill:#181f22; stroke-width:0px;"/><path d="m358.5758,487.8123c4.4683-.1574-6.4222,5.0775-9.4228,16.7516-1.6339-4.058,6.124-16.6354,9.4228-16.7516Z" style="fill:#b4b9b8; stroke-width:0px;"/><path d="m653.823,546.443c1.2833,2.0467-2.611,6.3332-4.1879,7.3288-13.0482,8.2383-8.541,3.5162,4.1879-7.3288Z" style="fill:#6a6c6e; stroke-width:0px;"/><path d="m363.8107,576.8053l1.5705.5235c-12.3543,11.1932-15.5506,8.2516-1.5705-.5235Z" style="fill:#949699; stroke-width:0px;"/><path d="m371.1395,582.0402c4.7499-.6097-3.5394,6.4552-7.8523,5.7584,1.4444-.7379,7.3694-5.6964,7.8523-5.7584Z" style="fill:#7a8288; stroke-width:0px;"/><path d="m631.8365,825.9855c1.6875,1.2178,1.537,1.858,1.5705,3.6644.1039,5.6153-5.6894,9.9347-1.5705-3.6644Z" style="fill:#e7e0d4; stroke-width:0px;"/><path d="m626.6016,755.8381c.5051-.2059,4.5744,4.2361,1.047,5.2349-3.1882.9027-1.9626-4.8616-1.047-5.2349Z" style="fill:#ebd298; stroke-width:0px;"/><path d="m473.2196,538.0672c-6.7009,6.2021-7.558,7.1333-1.047-1.047q.5235.5235,1.047,1.047Z" style="fill:#181f22; stroke-width:0px;"/><path d="m633.9304,741.1805q2.3557.7852,4.7114,1.5705c-2.5875,1.5174-5.7854-.1065-4.7114-1.5705Z" style="fill:#b89f75; stroke-width:0px;"/><path d="m470.0787,562.1476c-.1201.052-.9483,2.7897-2.094,1.5705-.3904-2.2826,1.9372-1.3911,2.094-1.5705Z" style="fill:#b4b9b8; stroke-width:0px;"/><path d="m380.0388,697.2075c.2708,2.032,2.3302,8.631,3.1409,11.5167.5106,1.8176.2915,4.8092,1.047,6.8053,12.335,32.5904,61.5943,34.8629,84.805,20.416,8.1135.0686.0129,10.9918,2.094,20.416,1.2253,5.549,7.2167,9.8858,10.4698,10.9932,7.0494,2.3997,16.2393,1.2518,13.6107,6.8053-1.6143,3.4105-19.4567,7.794-26.6979,14.1342-4.0909,3.5819-22.3507,28.3868-26.1744,35.5972-24.4937-27.3152,9.2676-19.6652-16.2281-24.6039,12.9122-13.9938,11.8291-15.7064-2.6174-2.6174-20.6233-25.3702-5.0772.7316,4.7114,9.9463-.7334,1.1028-12.2626-1.9861-13.6107-2.6174-2.1835-1.0226-3.0026-.956-3.1409-1.047-7.9452-5.228-13.2207-28.3468-16.2281-37.6911,31.7306,43.2092,8.6958-.4531-9.9463-13.0872.5853-18.1325-12.5303-67.5085-5.2349-54.9662Z" style="fill:#de5a48; stroke-width:0px;"/><path d="m481.5955,767.3549c-3.2531-1.1074-9.2445-5.4443-10.4698-10.9932-2.081-9.4243,6.0195-20.3474-2.094-20.416,23.1799-14.4277,11.707-44.7953,29.3153-54.9662-4.1267,16.8636-1.3733,35.8238-5.2349,53.3958-2.0754,3.3411-3.6864-2.5413-9.9463.5235-8.0609,3.9465-9.3503,27.2968-1.5705,32.4563Z" style="fill:#e86d62; stroke-width:0px;"/><path d="m598.3333,822.8446c5.2415,26.3352-21.4605,37.4613-21.463,28.7918-.0009-3.0828,32.7929-19.9088,1.047-23.0335q10.208-2.8792,20.416-5.7584Z" style="fill:#e8dd73; stroke-width:0px;"/><path d="m405.6897,836.4553c34.6313,8.0852,19.2336,60.6559,12.0402,16.2281-4.8176-7.6884-14.3073-12.4255-12.0402-16.2281Z" style="fill:#f0d179; stroke-width:0px;"/><path d="m500.441,758.9791c-.948-1.4077-1.9723-3.4904-2.094-5.2349,1.1227-.5163,2.4268-2.5512,3.1409-3.1409.1724-.1424-.7123-2.8592,1.5705-4.1879,9.0675,4.0915,9.2029-1.096,12.0402-2.094,3.083-1.0844,15.6564-5.9837,11.5167,2.6174-.7963,1.6545-10.1715,2.4753-12.0402,3.6644-7.2079,4.5865-.878,17.2078-14.1342,8.3758Z" style="fill:#c43f44; stroke-width:0px;"/><path d="m619.7963,615.5434c.0821.7236-.1545,1.6981,0,2.094-4.8336-2.2766-8.6838,2.6922-11.5167.5235-8.9431-6.8462,9.4887-33.0589-7.3288-36.1207,19.0371,4.3825,7.8793,14.9649,10.4698,23.557.1877.6225,4.1144,3.9471,8.3758,9.9463Z" style="fill:#e86d62; stroke-width:0px;"/><path d="m499.394,731.7577c-.8041,2.7769-3.2339,3.6527-5.2349,5.2349,4.9844-17.5768.9319-44.5232,5.2349-55.4897,3.9921,6.585,1.852,43.8589,0,50.2548Z" style="fill:#f3b093; stroke-width:0px;"/><path d="m486.8303,741.1805c4.8807,3.155,10.0219,5.8719,14.6577,9.4228-.7141.5897-2.0182,2.6246-3.1409,3.1409-14.231,6.5442-26.631-4.9528-14.6577-14.6577.7163,2.6168,2.9565,1.9747,3.1409,2.094Z" style="fill:#fa9678; stroke-width:0px;"/><path d="m463.7969,596.6978c-14.7592-4.9096-37.221-3.0592-39.7851-4.1879,14.0527-11.3361,30.716-3.5666,45.02,3.6644-.5476,1.1153-3.5862.2246-5.2349.5235Z" style="fill:#7c131e; stroke-width:0px;"/><path d="m515.0987,744.3214c-2.8373.998-2.9727,6.1854-12.0402,2.094-2.2828,1.3287-1.398,4.0455-1.5705,4.1879-4.6358-3.5509-9.777-6.2678-14.6577-9.4228,2.9383.5725,4.6226-2.0482,7.3288-4.1879,2.001-1.5822,4.4308-2.4579,5.2349-5.2349,5.455,19.3795,13.8762,6.3499,15.7046,12.5637Z" style="fill:#e86d62; stroke-width:0px;"/><path d="m424.0118,592.5099c2.564,1.1287,25.0259-.7217,39.7851,4.1879-13.9951,2.5368-37.5157-5.6486-48.1609,6.2819-5.1203-4.0065,2.8859-7.339,4.1879-11.5167.1621-.0967.7887-.2569,2.094-1.047,1.5439.0926.4072,1.3514,2.094,2.094Z" style="fill:#260b05; stroke-width:0px;"/><path d="m421.9178,590.416c-1.3052.7901-1.9318.9502-2.094,1.047-2.5766,1.5374-7.4226,5.4299-7.8523,5.2349-.7691-.349-1.7884-9.6457-5.7584-10.4698q14.3959-2.6174,28.7918-5.2349c-4.1652,3.0614-8.7066,6.771-13.0872,9.4228Z" style="fill:#7c131e; stroke-width:0px;"/><path d="m611.4205,777.8246c-2.5672,4.4047-6.3524,8.0095-8.3758,12.5637-.1276.2872.1171.739,0,1.047-6.7796,5.723-19.4193,24.8964-12.5637,4.1879,1.5374-2.0523,24.3175-27.0787,20.9395-17.7986Z" style="fill:#9f3337; stroke-width:0px;"/><path d="m413.0185,883.5692c4.1337-1.9911,15.9427,19.111,16.2281,20.416,2.5386,11.6091-24.6005-16.3832-16.2281-20.416Z" style="fill:#fdfdfc; stroke-width:0px;"/><path d="m429.2467,829.1265l1.047-2.094c13.9931.2516,16.4486,6.6415,18.8456,19.3691-5.7334-1.275-4.662-8.0171-19.8925-17.2751Z" style="fill:#c9d36c; stroke-width:0px;"/><path d="m420.3474,808.1869c8.3552-2.2529,14.6854,12.6268,19.3691,17.2751-1.9171,4.1249-25.3496-15.6625-19.3691-17.2751Z" style="fill:#e8dd73; stroke-width:0px;"/><path d="m490.4948,866.8176c6.6184-1.7114,16.443,7.8429,16.2281,9.9463-1.2015,11.763-14.9119-6.1517-18.8456-8.3758.8123-.1026,2.219-1.4675,2.6174-1.5705Z" style="fill:#c9d36c; stroke-width:0px;"/><path d="m637.5949,720.241c-3.5815,1.345-5.1859,7.3086-12.5637,13.6107v-4.1879c2.0871-2.6952,3.7175-4.7145,5.2349-7.8523,2.2166-4.5837,7.8483-27.8557,7.3288-1.5705Z" style="fill:#9f3337; stroke-width:0px;"/><path d="m343.3946,688.8317c-1.2655,12.1343,5.6087,30.2014,18.8456,32.9797.8993,3.5484-1.9466,4.4086-2.094,5.7584-.6812-.0771-1.5782.1527-2.094,0-15.9361-11.2026-21.2235-21.8861-25.1274-40.8321.9037-4.5025,2.6538-7.2259,7.8523-5.2349,3.4799,1.3327-2.3037,7.8712,2.6174,7.3288Z" style="fill:#de5a48; stroke-width:0px;"/><path d="m378.9918,672.0801c-16.8908,22.6575-11.6366,46.9217-20.416,46.0669-9.5455-.9293-17.1886-30.6699-12.5637-31.4093,5.0408,4.1512.4657,10.1131,5.7584,17.2751,12.3143,16.6636,9.6275-12.421,25.1274-31.9328h2.094Z" style="fill:#f3b093; stroke-width:0px;"/><path d="m355.9584,669.9861c2.7222-1.5458,5.1168-4.3749,6.2819-7.3288,11.8183,10.6348,1.4947,16.9249-6.2819,7.3288Z" style="fill:#e86d62; stroke-width:0px;"/><path d="m556.9777,865.7706q1.5705,9.4228,3.1409,18.8456c-3.557,2.4137-24.3814,15.5869-18.8456,2.6174.2964-.6944,12.0848-7.0397,12.5637-8.3758,3.8277-10.6796-13.2709-8.3716-19.3691-9.9463-20.1376-5.1999,11.137-9.2339,22.51-3.1409Z" style="fill:#c9d36c; stroke-width:0px;"/><path d="m560.1186,884.6162q-1.5705-9.4228-3.1409-18.8456c.2816.1509,2.9355.0753,5.2349,3.6644,8.4924,13.2556-1.2875,14.6339-2.094,15.1811Z" style="fill:#956c41; stroke-width:0px;"/><path d="m387.8911,755.8381c2.2673,1.5546,8.4296,20.3587,7.3288,20.9395-6.625,3.4956-9.0699-16.7399-7.3288-20.9395Z" style="fill:#fa9678; stroke-width:0px;"/><path d="m605.6621,799.8111c3.8499.1128-8.5969,12.2048-9.4228,12.5637-17.6075,7.6513,4.008-12.7223,9.4228-12.5637Z" style="fill:#faf59b; stroke-width:0px;"/><path d="m496.7766,899.2738c8.1742,26.0497-6.711,18.7749-3.6644,4.7114.1534-.7082,3.2527-4.7906,3.6644-4.7114Z" style="fill:#e8dd73; stroke-width:0px;"/><path d="m414.589,803.999q-3.9262,6.2819-7.8523,12.5637c-.3988-5.4891-4.9139-1.9552-8.8993-3.6644l13.6107-9.9463c.1383.091.9574.0244,3.1409,1.047Z" style="fill:#c9e580; stroke-width:0px;"/><path d="m475.8371,897.1799c15.5934.744,16.6395,8.3544,12.5637,9.4228-.7596.1991-12.0466-7.2236-12.5637-9.4228Z" style="fill:#c9d36c; stroke-width:0px;"/><path d="m589.9575,913.9315c4.1004-.2701-2.2124,12.2895-9.4228,11.5167l9.4228-11.5167Z" style="fill:#e7e0d4; stroke-width:0px;"/><path d="m518.7631,889.8511c4.6444.3442,5.2752,10.0729-1.047,8.3758-2.5113-.6741-4.6772-8.8001,1.047-8.3758Z" style="fill:#c9d36c; stroke-width:0px;"/><path d="m392.079,779.9186c7.3783-2.2881,9.105,10.2385,8.3758,10.4698q-4.1879-5.2349-8.3758-10.4698Z" style="fill:#f0d179; stroke-width:0px;"/><path d="m621.3667,769.4488c2.6047-.4349,5.1445,2.456,4.7114,3.6644-17.3624,9.6154-6.8558-3.3064-4.7114-3.6644Z" style="fill:#faf59b; stroke-width:0px;"/><path d="m603.0447,791.4353c.1171-.308-.1276-.7597,0-1.047q4.7114-.2617,9.4228-.5235-5.4966,3.9262-10.9932,7.8523c2.604-5.4017,1.4554-5.9792,1.5705-6.2819Z" style="fill:#dbcd7d; stroke-width:0px;"/><path d="m498.3471,788.2944c2.6576-.0104,4.6775.7406,4.1879-2.094,10.7355,10.2145,5.1211-2.6388,8.8993-4.1879.8783-.3601,6.1021,1.8159,6.2819,2.094,3.1764,4.9136-8.4687,4.3657-3.1409,6.2819,1.6765.6029,32.8109,4.129,26.6979,16.2281-5.7045,11.2906-19.2928-13.2008-35.0737,3.6644-13.3278-8.9169-28.8005,4.0104-28.7918,5.7584.0559,11.2646,22.7031-9.4926,29.8388.5235.6039-.9077,3.9262-3.1392,4.1879-3.1409,23.2288-.1545,7.4159,15.4556,35.5972-5.2349,22.1219,45.0035-31.2252,54.1606-32.9797,50.7783-4.0012-7.7134,29.521-36.6645,7.8523-34.0267-.9059.1103-11.5169,6.1749-13.6107,8.3758-22.4013-16.3319-15.7616-8.4836-19.3691,8.8993,30.8018,20.2054-10.7139,23.7536-18.8456,2.094-4.1253-10.9882-2.9736-27.7721,3.1409-37.6911,9.8507-15.9799,25.3655-11.1869,25.1274-18.3221Z" style="fill:#de5a48; stroke-width:0px;"/><path d="m502.535,786.2004c.4896,2.8346-1.5303,2.0836-4.1879,2.094-.0056-.1675-3.2475.6092-2.094-2.6174,2.3412-6.5489,5.9272.1861,6.2819.5235Z" style="fill:#f3b093; stroke-width:0px;"/><path d="m447.5687,819.7037c2.5422-.6305,9.3804,8.7944,7.3288,9.4228l-7.3288-9.4228Z" style="fill:#e3e5e4; stroke-width:0px;"/><path d="m454.3741,855.3009c3.2035,5.2809-3.1826,7.5718-3.6644,7.3288-2.2959-1.1577,4.0055-6.9804,3.6644-7.3288Z" style="fill:#faf59b; stroke-width:0px;"/><path d="m574.2528,806.093c5.0354-.248-8.338,9.9068-6.8053,3.6644.0921-.3753,6.4194-3.6454,6.8053-3.6644Z" style="fill:#ebd298; stroke-width:0px;"/><path d="m454.3741,855.3009c-1.1942-1.2198-4.132,3.6469-5.2349,1.5705-.3667-.6905,1.1412-8.3187,5.2349-1.5705Z" style="fill:#c9d36c; stroke-width:0px;"/><path d="m573.2058,919.1664c4.7823,3.3162-5.6357,6.042-6.8053,3.6644-.1706-.3468,6.4877-3.8846,6.8053-3.6644Z" style="fill:#caceca; stroke-width:0px;"/><path d="m622.4137,763.167c1.5953-.5553,5.1045,3.3853,2.094,4.1879-5.5686,1.4846-2.9759-3.8809-2.094-4.1879Z" style="fill:#fdd8b3; stroke-width:0px;"/><path d="m575.2998,810.2809c1.2874,3.5125.8485,7.7082-2.094,6.2819-1.7305-.8388.8778-5.5385,2.094-6.2819Z" style="fill:#ebd298; stroke-width:0px;"/><path d="m544.9375,793.5293c5.4691-1.4039,4.1347,3.9476,0,3.1409-1.5729-.3069-1.7173-2.7001,0-3.1409Z" style="fill:#caceca; stroke-width:0px;"/><path d="m458.0385,903.4617c1.3041.2269-2.2673,12.7779-2.6174,4.7114-.058-1.3357,2.1726-4.7888,2.6174-4.7114Z" style="fill:#c2bcb8; stroke-width:0px;"/><path d="m577.3937,882.5222c2.5715.0923,1.9933,6.4883-2.094,4.1879-.8234-.4634,1.5253-4.2083,2.094-4.1879Z" style="fill:#fdfdfc; stroke-width:0px;"/><path d="m483.6894,739.0865c.4625-.3749,1.0741-3.6674,6.2819-1.5705q-3.1409.7852-6.2819,1.5705Z" style="fill:#eed7c7; stroke-width:0px;"/><path d="m430.2936,827.0325l-1.047,2.094c-.9281-.5642-3.2224-1.4046-3.1409-1.5705.7508-.8581,2.5333-.5533,4.1879-.5235Z" style="fill:#88855e; stroke-width:0px;"/><path d="m600.9507,582.0402c16.8175,3.0618-1.6142,29.2744,7.3288,36.1207,2.833,2.1687,6.6831-2.8001,11.5167-.5235,4.0158,10.2951,8.9008,20.2746,11.5167,31.4093v1.047c-4.9124.7827-6.5734-8.3861-15.7046-1.047-28.0055-.6457-56.2656-.9486-83.7581,5.2349-8.9747-8.132-48.1044,3.2095-55.4897,1.047-.844-.2472-9.9175-9.7655-14.1342-10.4698-10.3395-1.727-47.3085,11.2436-62.8186,3.1409-3.7864-.6166-5.1942,1.0301-5.7584,1.047-1.4459.0431-4.976-.0388-5.2349,0-9.0901-22.2853.2773-13.6388,9.4228-25.6509,7.5551-9.9231,8.8644-25.1544,8.3758-37.1676,3.97.8241,4.9893,10.1207,5.7584,10.4698.4297.195,5.2757-3.6975,7.8523-5.2349-1.302,4.1777-9.3082,7.5102-4.1879,11.5167,39.8475-15.7301,47.6879,13.2275,106.268-20.9395,4.1799,5.2876,13.4527.4659,23.0335-1.047,8.8313-1.3945,17.7502,3.7465,19.8925-5.2349,13.6463,4.2183,28.3774,4.4993,36.1207,6.2819Z" style="fill:#e86d62; stroke-width:0px;"/><path d="m631.313,649.0466c-2.6159-11.1347-7.501-21.1142-11.5167-31.4093-.1545-.3959.0821-1.3703,0-2.094,3.7899,5.3353,14.1128,7.6542,11.5167,33.5032Z" style="fill:#9f3337; stroke-width:0px;"/><path d="m554.3603,618.6843c19.7129-1.1932,17.8428,3.0452,18.8456,3.1409,1.9943.1904,28.7045-3.8947,35.0737,13.0872,1.4274,3.8059,2.1338,7.4797-1.5705,9.9463-15.4026-4.3988-59.0038,3.613-69.1004,0-8.2492-2.9519-20.5849-23.9144,16.7516-26.1744Z" style="fill:#080807; stroke-width:0px;"/><path d="m453.8506,614.4964c10.2969-.0027,29.6684,1.9293,22.51,16.2281-5.9692,11.9233-24.902,9.1473-36.1207,10.9932-10.8765,1.7896-50.5231,15.6372-31.9328-9.9463,5.6588-7.7875,15.5712-12.6392,24.6039-15.1811,14.8922,1.4063,19.8678-2.0937,20.9395-2.094Z" style="fill:#080807; stroke-width:0px;"/><path d="m531.8503,654.2815v1.047c-1.8137.3106-3.4512.6298-5.2349,1.047h-50.2548v-1.047c7.3853,2.1625,46.515-9.1789,55.4897-1.047Z" style="fill:#e2ede9; stroke-width:0px;"/><path d="m502.535,678.3619c25.116,57.3614,51.2885,77.1641,115.6908,61.7716,2.4659-1.018,5.1489-4.8669,6.8053-6.2819,7.3778-6.3021,8.9822-12.2657,12.5637-13.6107-.1814,9.1812-7.1118,13.2912-6.2819,21.463-5.5053,12.7663-12.9305,24.1757-19.8925,36.1207,3.3779-9.2802-19.4021,15.7463-20.9395,17.7986-4.4419,5.9294-5.4468,13.5964-10.9932,18.8456-3.8664-21.1576-7.5177-4.9016-14.6577-7.3288-1.7205-.5849-19.7011-24.3248-24.0804-27.2214-6.5428-4.3275-22.8032-5.7386-23.557-7.8523-2.59-7.2637,14.9438-5.7232,16.7516-10.4698,3.3552-8.8093-9.4142-27.3667-9.9463-37.1676-8.6453,3.8671-3.6169,19.6211-2.6174,4.7114,17.6036,27.335-.8296,18.5813-6.8053,23.557-2.0561,1.7121-4.3187,20.857-14.1342,6.2819,13.2562,8.832,6.9263-3.7893,14.1342-8.3758,1.8688-1.1892,11.2439-2.0099,12.0402-3.6644,4.1397-8.6011-8.4338-3.7018-11.5167-2.6174-1.8284-6.2138-10.2496,6.8158-15.7046-12.5637,1.852-6.3959,3.9921-43.6698,0-50.2548.166-.423.2165-2.3659,1.5705-4.1879q.7852.5235,1.5705,1.047Z" style="fill:#de5a48; stroke-width:0px;"/><path d="m503.5819,666.8452c.2857.5694.9996-.2371,2.094,4.1879.5226,2.1131-.5697,6.4632,1.047,10.9932,4.5905,12.863,18.4443,34.2618,29.3153,43.4495,3.9176,3.311,7.5855,7.4978,12.5637,9.4228q-1.047.2617-2.094.5235c20.9788,8.9714,62.8918,14.4278,78.5232-5.7584v4.1879c-1.6564,1.4149-4.3394,5.2639-6.8053,6.2819-64.4023,15.3925-90.5748-4.4102-115.6908-61.7716,3.9333-3.7178,2.7421-12.0042-3.1409-10.4698.1582-.2589-.1678-.8412,0-1.047,1.3697-1.679.9685-2.0071,1.047-2.094q1.5705,1.047,3.1409,2.094Z" style="fill:#260b05; stroke-width:0px;"/><path d="m619.2728,755.8381c1.608,26.0298-34.7968,5.023-6.2819,10.4698,5.7396-9.6942-8.6329-5.0537,6.2819-10.4698Z" style="fill:#260b05; stroke-width:0px;"/><path d="m588.9105,769.4488c17.9524-.6737,26.5531,5.5601,10.4698,4.1879-.5618-.0479-11.3828-2.2517-10.4698-4.1879Z" style="fill:#260b05; stroke-width:0px;"/><path d="m526.6154,656.3754c-6.8403,1.5997-22.7714,6.9349-17.7986,14.6577h-3.1409c-1.0944-4.425-1.8083-3.6185-2.094-4.1879-.3123-.6225.7657-2.7881-1.5705-4.1879-1.4954,1.0979-1.4827,1.9969-1.5705,2.094-.0785.0868.3227.4149-1.047,2.094-10.0543,2.9756-28.1716,4.4072-23.0335-10.4698h50.2548Z" style="fill:#68d8e8; stroke-width:0px;"/><path d="m395.7434,720.241c11.9119,17.6471,49.228,18.7086,67.5299,11.5167,3.367-1.3231,6.7468-4.4958,9.9463-6.2819-20.6628,26.3835-78.8838,17.7107-90.0399-16.7516-.8107-2.8858-2.8702-9.4848-3.1409-11.5167-1.2964-9.7293-1.1752-11.3248,1.047-19.8925q1.047-.7852,2.094-1.5705c.2721,15.2751.4781,33.1934,12.5637,44.4965Z" style="fill:#68d8e8; stroke-width:0px;"/><path d="m388.4146,649.0466c.2588-.0388,3.789.0431,5.2349,0,1.3481,2.8023,4.2102,4.2115,6.2819,6.2819-2.6894,2.8561-13.8256,3.6659-16.2281,5.2349-1.0761.7027-.2601,2.9313-.5235,3.1409-2.3429,1.8644-4.3354,4.5517-7.3288,5.2349-.8622-4.4683-6.7871-13.0857-6.2819-14.1342,5.6853-1.5436,13.3544-4.9352,18.8456-5.7584Z" style="fill:#91e9f2; stroke-width:0px;"/><path d="m383.1797,663.7043c.0776.6809-.1535,1.5814,0,2.094,1.0657,3.7535-2.7814,4.3951-4.1879,6.2819h-2.094c.2947-1.8641-.8302-2.0173-1.047-3.1409,2.9934-.6832,4.9859-3.3705,7.3288-5.2349Z" style="fill:#c8a05d; stroke-width:0px;"/><path d="m476.3606,655.3285v1.047c-5.1382,14.8769,12.9792,13.4454,23.0335,10.4698-.1678.2058.1582.788,0,1.047-2.5429,4.163-5.463,3.0347-2.094,7.8523-19.396,15.3745-8.7281,30.1285-24.0804,49.7314-3.1995,1.786-6.5792,4.9588-9.9463,6.2819-18.302,7.1919-55.618,6.1304-67.5299-11.5167-11.0155-16.3191-9.3288-38.4602-9.4228-57.0602,11.2037-8.0935,26.487,5.0154,13.6107-7.8523-2.0716-2.0703-4.9337-3.4795-6.2819-6.2819.5642-.0169,1.972-1.6636,5.7584-1.047,15.5101,8.1026,52.479-4.8679,62.8186-3.1409,4.2166.7043,13.2902,10.2226,14.1342,10.4698Z" style="fill:#ebc05f; stroke-width:0px;"/><path d="m395.7434,720.241c-12.0856-11.303-12.2916-29.2214-12.5637-44.4965q-1.047.7852-2.094,1.5705c1.4237-5.4891,4.6401-3.0122,2.094-11.5167-.1535-.5126.0776-1.413,0-2.094.2634-.2096-.5526-2.4382.5235-3.1409,2.4026-1.5689,13.5387-2.3788,16.2281-5.2349,12.8763,12.8677-2.407-.2412-13.6107,7.8523.094,18.6-1.5927,40.7411,9.4228,57.0602Z" style="fill:#091a0c; stroke-width:0px;"/><path d="m451.2332,684.6438c-2.0538-1.2591-11.9719-12.8476-13.6107-6.8053-.2153.7937,11.4054,9.5907-.5235,12.0402-12.5925,2.5858-12.5976-17.1708-17.2751-5.2349.1626-13.1842,14.3358-22.0905,26.6979-13.6107,4.9909,3.4235,7.6988,9.0609,4.7114,13.6107Z" style="fill:#080807; stroke-width:0px;"/><path d="m451.2332,684.6438c-4.203,6.401-31.6466,19.2438-31.4093,0,4.6775-11.9359,4.6826,7.8207,17.2751,5.2349,11.9288-2.4495.3082-11.2466.5235-12.0402,1.6388-6.0423,11.5569,5.5463,13.6107,6.8053Z" style="fill:#fdfdfc; stroke-width:0px;"/><path d="m463.7969,659.5164c5.2764,4.8358,5.2898,3.6739,7.3288,5.2349,4.089,3.1304,8.2482,5.8566,11.5167,9.9463,12.7117,22.6856-3.2379-3.2188-9.9463-6.8053-13.2731-7.0962,9.3436,23.2361-8.3758,51.3018,3.5029-12.598,7.2849-20.0926,5.7584-34.0267-1.6351-14.9254-16.4896-35.0063-6.2819-25.6509Z" style="fill:#1b1611; stroke-width:0px;"/><path d="m471.1257,664.7512c-2.0391-1.561-2.0524-.3991-7.3288-5.2349,2.468-.3199,7.8575,2.3205,7.3288,5.2349Z" style="fill:#daf3df; stroke-width:0px;"/><path d="m503.5819,666.8452q-1.5705-1.047-3.1409-2.094c.0877-.0971.0751-.996,1.5705-2.094,2.3362,1.3998,1.2581,3.5654,1.5705,4.1879Z" style="fill:#b15026; stroke-width:0px;"/><path d="m531.8503,655.3285c.3386-.058.706.0527,1.047,0-.4991,3.6253,1.0424,2.9754,1.047,3.1409.0849,3.0384-1.1843,3.8919-2.094,6.2819-6.2686.1506-14.3132,2.2444-17.7986,7.3288h-3.1409c-.3594-.275-2.0306-.9486-2.094-1.047-4.9728-7.7227,10.9583-13.0579,17.7986-14.6577,1.7837-.4172,3.4212-.7364,5.2349-1.047Z" style="fill:#23c5d5; stroke-width:0px;"/><path d="m632.36,688.8317c-1.0291,9.3679-1.3863,20.0225-5.2349,28.7918-11.2432,25.6187-49.7371,24.3945-72.2413,18.3221q-.5235-1.5705-1.047-3.1409c20.005,6.1386,43.9463,4.394,61.7716-6.8053,6.5986-9.7287,7.3762-12.353,10.4698-22.51,2.507-2.5634,1.9706-6.3026,2.094-9.4228,1.0175-2.816.5053-6.1224,4.1879-5.2349Z" style="fill:#68d8e8; stroke-width:0px;"/><path d="m631.313,676.268c-.5802.1788-2.0091.9663-2.094,1.047-8.3233-5.4035,8.0402-21.0951,7.3288-31.4093,10.463-1.1943,13.284,6.2236,10.4698,15.1811-1.1763,3.7442-16.3568,8.4152-15.7046,15.1811Z" style="fill:#68d8e8; stroke-width:0px;"/><path d="m636.5479,645.9057c.7114,10.3142-15.6522,26.0058-7.3288,31.4093-.1074.102-.5093,1.9399-2.094,2.094-.0478-.9206-5.863-4.3464,2.094-17.2751-3.939-3.2192-9.0699-1.8496-12.5637-2.6174-2.1327-.4687-4.1845-.6664-6.2819-1.047-.027-1.5041,4.8148-9.0851,5.2349-9.4228,9.1312-7.3391,10.7923,1.8297,15.7046,1.047,3.7005-.5896,1.5567-3.7681,5.2349-4.1879Z" style="fill:#68d8e8; stroke-width:0px;"/><path d="m632.36,688.8317c-3.6826-.8875-3.1704,2.4189-4.1879,5.2349.2033-5.1429-.79-9.7094-1.047-14.6577,1.5847-.1541,1.9866-1.992,2.094-2.094.0849-.0806,1.5138-.8682,2.094-1.047,1.4584.888,1.451,8.8866,1.047,12.5637Z" style="fill:#e2ede9; stroke-width:0px;"/><path d="m615.6084,649.0466c-.4201.3377-5.2618,7.9186-5.2349,9.4228-11.6525-2.1143-20.4322-3.7196-32.4563-4.1879-8.0616-.314-17.0672-.3196-25.1274,0-3.7381.1483-18.9083.8948-19.8925,1.047-.341.0527-.7084-.058-1.047,0v-1.047c27.4925-6.1835,55.7526-5.8805,83.7581-5.2349Z" style="fill:#f0d179; stroke-width:0px;"/><path d="m508.8168,671.0331c.0634.0984,1.7346.772,2.094,1.047.1176.09.1124,1.1501,2.094,2.094,4.5926,2.1876,9.2079-.235,10.4698,2.6174-.3156,12.7963,5.6085,35.8523,13.6107,45.5434l-1.047,3.1409c-10.8711-9.1877-24.7248-30.5865-29.3153-43.4495-1.6167-4.53-.5244-8.8802-1.047-10.9932h3.1409Z" style="fill:#f0d179; stroke-width:0px;"/><path d="m577.9172,654.2815c15.4035,1.9485,44.5805,10.9647,38.7381,5.2349,3.4938.7679,8.6247-.6018,12.5637,2.6174-7.957,12.9287-2.1418,16.3545-2.094,17.2751.257,4.9482,1.2502,9.5147,1.047,14.6577-1.1865,3.2834-1.1612,6.3603-2.094,9.4228-3.0936,10.157-3.8711,12.7813-10.4698,22.51-17.8252,11.1993-41.7666,12.944-61.7716,6.8053-5.6288-1.7272-8.1886-3.5968-12.5637-7.3288-2.5946-5.8819-8.4117-13.5624-10.4698-19.3691-10.2085-28.8023-2.4036-32.2898,1.047-41.3555.9096-2.3899,2.1788-3.2434,2.094-6.2819,6.4812-4.173,18.9303.2892,18.8456-4.1879,8.0602-.3196,17.0658-.314,25.1274,0Z" style="fill:#ebc05f; stroke-width:0px;"/><path d="m541.2731,725.4758c4.3751,3.732,6.9349,5.6016,12.5637,7.3288q.5235,1.5705,1.047,3.1409c-1.6185-.4367-5.2777-.6587-6.2819-1.047-4.9782-1.925-8.6461-6.1118-12.5637-9.4228l1.047-3.1409c3.2187,3.898,3.9888,2.9711,4.1879,3.1409Z" style="fill:#e9f9d7; stroke-width:0px;"/><path d="m626.0781,703.4894c.9327-3.0625.9075-6.1394,2.094-9.4228-.1233,3.1202.413,6.8594-2.094,9.4228Z" style="fill:#c1dcaf; stroke-width:0px;"/><path d="m610.3735,658.4694c2.0973.3805,4.1492.5783,6.2819,1.047,5.8424,5.7298-23.3346-3.2864-38.7381-5.2349,12.0241.4683,20.8037,2.0736,32.4563,4.1879Z" style="fill:#272407; stroke-width:0px;"/><path d="m531.8503,664.7512c-3.4506,9.0658-11.2554,12.5533-1.047,41.3555,2.058,5.8066,7.8751,13.4872,10.4698,19.3691-.1991-.1699-.9692.7571-4.1879-3.1409-8.0022-9.6911-13.9263-32.7472-13.6107-45.5434-1.2619-2.8524-5.8772-.4298-10.4698-2.6174.1706-.6854.6686-1.542,1.047-2.094,3.4854-5.0845,11.53-7.1783,17.7986-7.3288Z" style="fill:#080807; stroke-width:0px;"/><path d="m552.7898,654.2815c.0847,4.4771-12.3644.0149-18.8456,4.1879-.0046-.1655-1.5461.4844-1.047-3.1409.9843-.1522,16.1544-.8987,19.8925-1.047Z" style="fill:#c8a05d; stroke-width:0px;"/><path d="m582.1051,682.5498c-6.4217-15.9746-1.8953,8.2587-14.1342,6.2819-6.3098-1.0192-3.7756-13.4357-12.0402-6.2819-.6226-4.7418.0152-8.2341,4.7114-11.5167,18.7203-13.0857,38.1542,19.8489,21.463,11.5167Z" style="fill:#080807; stroke-width:0px;"/><path d="m582.1051,682.5498c-5.9313,13.4847-23.9237,17.1416-26.1744,0,8.2646-7.1538,5.7304,5.2627,12.0402,6.2819,12.2388,1.9769,7.7125-22.2564,14.1342-6.2819Z" style="fill:#fdfdfc; stroke-width:0px;"/><path d="m514.0517,672.0801c-.3784.5519-.8764,1.4086-1.047,2.094-1.9815-.9439-1.9764-2.004-2.094-2.094h3.1409Z" style="fill:#216a54; stroke-width:0px;"/><path d="m383.1797,146.4982c-1.5613,1.7831-3.6008,3.473-4.1879,4.1879-8.6786,4.3138-11.991,14.5533-18.8456,20.9395-.3504-7.3874-3.1047-17.9671-13.0872-15.7046-9.1119,2.0652-23.9222,43.9062,8.8993,23.557-5.1603,6.9751-12.2699,10.5092-16.7516,18.3221-5.5344,9.648-4.8607,9.8074-2.094,21.463-2.2238-.5972-3.1689.0444-5.2349.5235.8074-4.5928-6.9811.5786-8.3758-2.6174-.8625-1.9765,2.9644-38.2711,4.1879-42.926,4.4226-16.8257,17.7979-26.163,15.7046-32.4563,1.5208-1.6387,2.4108,1.1746,3.1409,0,4.5996-7.3995,5.1135-12.425,11.5167-19.3691.6906,1.7434,20.276,21.2893,25.1274,24.0804Z" style="fill:#b5bb96; stroke-width:0px;"/><path d="m651.2055,123.4647c6.0528-4.2555,14.1937-15.9847,22.51-11.5167,11.5919,6.2277-8.9969,23.1299-14.1342,28.2683-3.4866,3.4875-6.9793,6.9885-10.4698,10.4698-1.4655,1.4616-3.5555,2.9173-5.2349,4.1879-8.4194-13.8355-10.4259-5.2706,0-25.1274-18.9952-24.2614-18.4606-23.3283,3.6644-3.1409,2.0668.2801,3.467-3.0021,3.6644-3.1409Z" style="fill:#080807; stroke-width:0px;"/><path d="m385.2737,122.4178c3.4344,3.7308,6.7088,7.5715,10.4698,10.9932-3.0116,5.4198-8.6593,8.6281-12.5637,13.0872-4.8515-2.7912-24.4368-22.337-25.1274-24.0804-4.5883-11.5828,1.6456-27.7827,27.2214,0Z" style="fill:#080807; stroke-width:0px;"/><path d="m677.3799,275.2762c-3.1313.8442-14.2634,4.4-15.7046,4.1879-.9058-.1333-2.7596-1.3842-4.1879-1.5705-1.2975-2.8411,4.5359-12.4494,5.2349-18.3221,5.978-1.1455,7.908-4.172,14.6577-6.2819,30.0674-9.3989,24.9362,10.2838,16.2281,16.7516-3.9661,2.9457-11.5617,3.9768-16.2281,5.2349Z" style="fill:#080807; stroke-width:0px;"/><path d="m636.5479,326.578c3.1747.4192,2.8994,1.9356,3.1409,2.094.7126.4673,11.0676,11.7043,11.5167,12.5637,4.5226,8.6525-.4552,15.998-7.8523,14.6577-.5349-.0969-4.885-3.6412-7.8523-5.2349-3.1861-1.7112-10.9848-10.1806-13.6107,1.047-10.6479,2.3198-1.1015-1.8168,1.047-5.7584,4.7963-8.7992,3.5038-20.7037,13.6107-19.3691Z" style="fill:#080807; stroke-width:0px;"/><path d="m433.4346,67.975c1.8526,2.2082,3.3115,7.494,4.1879,10.4698,1.2732,4.3226,3.1,8.4636,3.1409,13.0872-11.4579,5.7166-14.9265,3.3576-15.7046,3.6644.2061-1.8226-1.5012-3.8405-2.094-5.2349-2.7941-6.573-8.4328-14.9625-5.2349-21.9865,2.7567-6.055,10.6536-6.0206,15.7046,0Z" style="fill:#080807; stroke-width:0px;"/><path d="m680.5209,231.3032c.0933.1395-.2294,1.1603,1.047,1.047.4674,9.0849.271,12.5092-4.1879,20.9395-6.7496,2.1099-8.6797,5.1364-14.6577,6.2819.8417-7.0721-1.015-20.3957,0-25.1274,10.6749,6.7849,5.8634,3.0986,6.2819,1.047.9946-4.876.8157-5.7044,0-10.4698q5.7584,3.1409,11.5167,6.2819Z" style="fill:#7e9268; stroke-width:0px;"/><path d="m669.0041,310.8734c-1.9722-3.2307-3.7288-7.0251-5.2349-10.4698-1.423-3.2546-2.0102-6.6379-4.1879-9.4228,1.5137-3.8076,3.667-7.6957,2.094-11.5167,1.4412.2121,12.5734-3.3437,15.7046-4.1879q-4.1879,17.7986-8.3758,35.5972Z" style="fill:#7e9268; stroke-width:0px;"/><path d="m340.2537,244.9139c1.8274,1.4514,1.9549,3.9996,2.094,4.1879q2.6174,9.6845,5.2349,19.3691-5.7584-5.4966-11.5167-10.9932c-.8131-1.1121,3.8368-3.295-6.2819-2.094-.4329-4.8534-.8741-9.7842-1.047-14.6577,2.4723.7221,10.7044,3.5427,11.5167,4.1879Z" style="fill:#9ba980; stroke-width:0px;"/><path d="m515.0987,27.143c-7.0905,11.0061-3.8774,31.1296-6.2819,32.4563-.289-.4941.7617-2.8038-1.5705-4.1879-3.0137,11.6175-1.8513-29.3722,6.2819-30.3623,2.2616-.4294,1.44,2.105,1.5705,2.094Z" style="fill:#18190a; stroke-width:0px;"/><path d="m501.488,58.5522c-1.3942,8.2384-6.6249,13.6563-14.6577,15.7046-13.9545,1.1475-1.099-.7431,2.6174-3.1409,13.3902-8.6394,8.421-15.3401,9.9463-24.0804,2.8271-16.2002,10.7889-16.1048,2.094-3.6644-.4908,4.5873.6786,11.1714,0,15.1811Z" style="fill:#18190a; stroke-width:0px;"/><path d="m552.7898,457.45c-1.8307,3.9316-4.6343,7.45-6.2819,11.5167-.1232-.0442.4457-2.8779-1.5705-2.094-.3659.1423-.2073,1.6965-4.7114,6.2819q.5235-4.1879,1.047-8.3758c8.4366-3.4031,5.6979-7.1134,11.5167-7.3288Z" style="fill:#198288; stroke-width:0px;"/><path d="m547.5549,456.4031c-.2929.3625.2285,2.3282-5.7584,7.3288-7.8138-.3061-22.8501,5.1685-24.0804,5.2349-1.8436.0994-34.9758-3.3973-36.6442-4.1879-.805-.3815-.1144-8.7348-3.6644,0-2.6442-.7718-5.7161-1.0851-8.3758-2.094-.5883-1.2633-1.6474-1.85-2.094-3.1409-.6131-1.1135-1.9826-3.3978-.5235-4.1879,3.5754-1.9359,58.2957,7.6633,81.1406,1.047Z" style="fill:#1b1611; stroke-width:0px;"/><path d="m393.6495,343.3297c-7.1248,5.2227,1.4234,11.0917-7.8523,10.4698-3.3209-.2227-23.0284-18.2593-17.2751-21.9865,3.2556-3.2918,6.2671-7.0644,9.4228-10.4698,4.6517,7.5196,10.9885,14.3367,15.7046,21.9865Z" style="fill:#9ba980; stroke-width:0px;"/><path d="m657.4874,159.0619c10.5898,20.4737,4.4257,32.2452,4.1879,43.973-4.7794-23.8887-5.6088-28.1295-17.7986-48.1609,1.6794-1.2706,3.7694-2.7263,5.2349-4.1879,4.749-.573,6.5189,4.7857,8.3758,8.3758Z" style="fill:#9ba980; stroke-width:0px;"/><path d="m601.9977,93.1024c-.8166-.7976-1.3016-1.1093-2.094-2.094.313-9.2345,3.3847-24.3333-10.4698-24.0804-3.3094.0604-21.3532,12.3411-64.9125,3.1409.3297-.1672-3.7824-2.92,4.7114-2.094,39.9093,10.7747,64.1092-13.7231,72.7648,2.6174,4.0883,7.7181.5992,14.4549,0,22.51Z" style="fill:#2d3417; stroke-width:0px;"/><path d="m663.7693,300.4037c-.9989,4.8552-6.2498,9.0231-7.3288,10.4698-1.3653-2.0618-9.3163,9.0142-10.4698,13.6107-.264.2699-.5597,4.0397-6.2819,4.1879-.2416-.1584.0337-1.6747-3.1409-2.094,9.0869-10.3515,17.9189-22.7314,23.0335-35.5972,2.1777,2.7849,2.7649,6.1682,4.1879,9.4228Z" style="fill:#9ba980; stroke-width:0px;"/><path d="m662.7223,210.3637c-1.5258.1972-1.1251-3.4739-1.047-7.3288.2378-11.7277,6.4019-23.4993-4.1879-43.973,2.8989,2.9738,4.3438,6.9083,6.2819,10.4698.3304.6071-.5751,2.4517.5235,3.1409,1.6926-3.101-.5045-2.9828-.5235-3.1409-1.4163-11.8045-12.5626-29.6402-4.1879-18.3221,9.5487,16.2229,6.4805,33.3595,5.2349,51.3018,19.1223,22.2052,2.8525,3.8751,1.5705,3.6644-2.2399-.3681-1.8665,3.8085-3.6644,4.1879Z" style="fill:#18190a; stroke-width:0px;"/><path d="m368.5221,331.8129c-5.7533,3.7272,13.9542,21.7638,17.2751,21.9865,9.2757.6219.7275-5.247,7.8523-10.4698,1.9352,3.1389,6.4905,9.5577,7.3288,11.5167-22.4424,1.9867-23.7579-3.2811-37.6911-17.7986.2827-.239,4.2892-4.2787,5.2349-5.2349Z" style="fill:#2f3b29; stroke-width:0px;"/><path d="m346.5356,215.5986c-11.4442,2.1441-7.4994-5.0928-7.3288-8.3758,15.2137-7.4415,7.2073-5.3606,7.3288,8.3758Z" style="fill:#a5b073; stroke-width:0px;"/><path d="m425.0588,95.1964c-7.429,2.929-12.2385,8.4861-16.7516,9.4228q7.3288-7.3288,14.6577-14.6577c.5928,1.3944,2.3001,3.4122,2.094,5.2349Z" style="fill:#465034; stroke-width:0px;"/><path d="m680.5209,231.3032q-5.7584-3.1409-11.5167-6.2819c-.1109-.6476.1369-1.4763,0-2.094,4.3274-.422,9.1654,4.8587,11.5167,8.3758Z" style="fill:#2d3417; stroke-width:0px;"/><path d="m534.9912,99.3843c3.7698.0662,7.7489.6007,11.5167,0v1.047c-6.2563,1.3024,5.9098,2.6555,13.0872,6.2819,9.9857,5.0453,18.6456,12.9642,28.7918,17.7986,25.4017,25.8709-11.6552-5.1842-22.51-10.4698-3.8625-1.8808-39.5778-11.5572-39.2616-13.6107,1.7496.2018,2.9173-1.1908,4.1879-2.094,1.2003,3.2386,1.8559,1.006,4.1879,1.047Z" style="fill:#e3e5e4; stroke-width:0px;"/><path d="m368.5221,305.6385h-3.1409c-8.3765-16.9223-18.1617-32.9049-29.3153-48.1609q5.7584,5.4966,11.5167,10.9932-2.6174-9.6845-5.2349-19.3691c5.5164,7.4682,10.7147,29.5823,26.1744,56.5367Z" style="fill:#18190a; stroke-width:0px;"/><path d="m566.4005,97.2903c.7848.0256,9.6023,10.0179,12.5637,9.4228,11.6862,11.4492,3.3073,4.1262,2.6174,4.1879-1.3701.1226-1.1855,3.9798-3.6644,3.1409-6.219-5.1992-18.1164-5.5776-13.6107-16.2281.5137-.8296,1.3067-.5492,2.094-.5235Z" style="fill:#e7e0d4; stroke-width:0px;"/><path d="m566.4005,97.2903c-.7872-.0257-1.5802-.3061-2.094.5235-4.5057,10.6505,7.3917,11.0289,13.6107,16.2281,1.6275,1.3606,7.9923,7.9465,10.4698,10.4698-10.1462-4.8344-18.8061-12.7533-28.7918-17.7986-7.1774-3.6264-19.3435-4.9794-13.0872-6.2819,22.8965,7.0988,12.7607.1653,16.7516-4.7114,1.6607-2.0293,2.9784,1.5042,3.1409,1.5705Z" style="fill:#1b1611; stroke-width:0px;"/><path d="m420.8709,433.3696c-10.7896-8.1691-25.0909-22.0321-16.7516-35.5972,2.7603,20.5472,2.4713,20.2987,16.7516,35.5972Z" style="fill:#2d3417; stroke-width:0px;"/><path d="m604.0916,430.2287c6.7428-12.3454,9.4625-21.6538,8.3758-36.1207,1.1444-1.5622,2.027-1.458,2.094-1.5705.6302,20.6012,1.5515,22.4799-10.4698,37.6911Z" style="fill:#18190a; stroke-width:0px;"/><path d="m599.9037,91.0085c-.1101-.1368-2.7381.1089-3.1409-1.5705-.9551-3.9813,6.2881-8.6709-7.3288-22.51,13.8544-.2528,10.7828,14.846,10.4698,24.0804Z" style="fill:#d0d8bc; stroke-width:0px;"/><path d="m378.9918,150.6861c-7.524,9.1614-16.6352,20.6373-19.8925,31.9328-2.9231.5868,1.1852-8.0796,1.047-10.9932,6.8545-6.3863,10.1669-16.6257,18.8456-20.9395Z" style="fill:#2d3417; stroke-width:0px;"/><path d="m546.508,99.3843c-3.7679.6007-7.7469.0662-11.5167,0,16.4224-3.0151,32.508-13.299,18.3221,0-2.1698.2301-4.7243-.3318-6.8053,0Z" style="fill:#1b1611; stroke-width:0px;"/><path d="m618.7493,362.1752c-20.3138,27.6656-9.181,1.4308,3.1409-8.3758-.2052.5213,3.4517-.6028-3.1409,8.3758Z" style="fill:#080807; stroke-width:0px;"/><path d="m445.9983,450.1212c-2.5273.6835-3.4275-1.1404-5.2349-2.094-5.4328-2.8662-10.8243-5.6338-15.7046-9.4228.3478.001.7005-.0184,1.047,0,4.8053.2548,19.1869,7.378,19.8925,11.5167Z" style="fill:#18190a; stroke-width:0px;"/><path d="m530.8033,98.3373c-1.2706.9031-2.4383,2.2957-4.1879,2.094,20.8938-21.0732,27.4268-18.6113,4.1879-2.094Z" style="fill:#2f2b2a; stroke-width:0px;"/><path d="m601.9977,437.5575c-5.9112,3.6299-8.057,7.4224-10.4698,7.3288,2.7316-5.5692,5.9434-6.5557,9.4228-10.4698q.5235,1.5705,1.047,3.1409Z" style="fill:#232a19; stroke-width:0px;"/><path d="m619.7963,388.3496c2.7152-1.9054,5.6766-3.3097,8.3758-5.2349-.633,6.1894-8.655,11.0249-8.3758,5.2349Z" style="fill:#2d3417; stroke-width:0px;"/><path d="m603.0447,367.4101c-1.3305,1.1575-3.0073.9492-3.1409,1.047q5.4966-5.7584,10.9932-11.5167c.7785,2.8668-4.8248,7.8359-7.8523,10.4698Z" style="fill:#1b1611; stroke-width:0px;"/><path d="m578.9642,106.7131c-2.9614.5951-11.7789-9.3971-12.5637-9.4228,5.6464,2.3022,8.3828,5.3267,12.5637,9.4228Z" style="fill:#1b1611; stroke-width:0px;"/><path d="m669.0041,235.4912c-.4185,2.0516,4.393,5.738-6.2819-1.047,1.2961-6.0423,2.9035-.6632,6.2819,1.047Z" style="fill:#18190a; stroke-width:0px;"/><path d="m425.0588,438.6045c4.8804,3.789,10.2718,6.5566,15.7046,9.4228,1.1276,4.1856-2.5251,3.2618-9.4228,3.1409.153-1.6199-14.9814-5.8348-17.7986-6.2819-.5197-3.1883,8.617-6.2904,11.5167-6.2819Z" style="fill:#9ba980; stroke-width:0px;"/><path d="m368.5221,305.6385c3.0105,5.2488,6.2395,10.5588,9.4228,15.7046-3.1557,3.4053-6.1672,7.178-9.4228,10.4698-.9457.9562-4.9522,4.9959-5.2349,5.2349-1.5385,1.3005-2.9635,3.0073-3.1409,3.1409-23.8044,17.9336-32.4895,2.6458-2.094-26.1744,2.7553-2.6503,5.7404-4.6838,7.3288-8.3758h3.1409Z" style="fill:#080807; stroke-width:0px;"/><path d="m339.2067,207.2228c-.1705,3.283-4.1154,10.5199,7.3288,8.3758.1926,21.7757,7.3065,26.8381-6.2819,29.3153-.8124-.6452-9.0444-3.4658-11.5167-4.1879-4.0857-1.1934-20.676.6836-19.8925-8.8993.5967-7.2985,18.1639-10.9111,23.0335-12.0402,2.066-.479,3.0111-1.1206,5.2349-.5235-2.7667-11.6556-3.4404-11.815,2.094-21.463-.1146,3.1306.1623,6.2974,0,9.4228Z" style="fill:#080807; stroke-width:0px;"/><path d="m329.784,228.1623q-.5235-.5235-1.047-1.047c5.8678-1.6825,7.2127-.726,1.047,1.047Z" style="fill:#6a6c6e; stroke-width:0px;"/><path d="m328.737,227.1153q.5235.5235,1.047,1.047c-4.5228,1.3005-8.2297,1.0126-1.047-1.047Z" style="fill:#a8a8a9; stroke-width:0px;"/><path d="m656.4404,310.8734c-3.59,4.8133-6.1687,9.2136-10.4698,13.6107,1.1535-4.5965,9.1045-15.6725,10.4698-13.6107Z" style="fill:#465034; stroke-width:0px;"/><path d="m663.7693,169.5317c.019.1581,2.2161.0399.5235,3.1409-1.0986-.6893-.1931-2.5338-.5235-3.1409Z" style="fill:#626c61; stroke-width:0px;"/><path d="m633.407,239.6791c-8.1428,55.1524-57.8364,88.3198-64.9125,124.5901-1.447,7.4169-5.2854,43.4946,0,45.02-3.3292,4.3324-4.0308,2.9316-4.1879,3.1409q.7852-1.5705,1.5705-3.1409c-1.8217.2147-4.0556-.3136-5.7584,0-1.4853-34.5176-3.7507-43.8296,13.6107-73.2883,18.7881-31.8794,43.0244-48.8273,50.2548-90.0399,4.0117-22.8661,3.4521-37.5169-6.2819-58.6306-6.0089-13.0339-15.637-24.968-25.1274-35.5972-11.3767-12.7418-19.3976-21.1307-35.5972-28.2683-1.209-4.344-13.6614-6.899-19.3691-7.3288q1.3087-1.047,2.6174-2.094c29.0285,4.2078,52.6593,26.6614,69.1004,49.7314,19.0451,26.7237,24.8889,42.8807,24.0804,75.9057Z" style="fill:#18190a; stroke-width:0px;"/><path d="m540.2261,114.042q-1.3087,1.047-2.6174,2.094c5.7077.4298,18.1601,2.9848,19.3691,7.3288-5.2453-2.3111-10.0483-4.1142-15.7046-5.2349-29.895-5.9227-66.6277,2.8576-93.1808,17.7986-28.3534,15.954-49.3034,49.7694-56.5367,81.1406-17.6061,76.3586,48.5419,98.091,54.4427,151.8115,1.9279,17.5515-7.0684,34.4657,7.3288,44.4965q-1.047.5235-2.094,1.047c-1.2549-1.5457-3.9504-2.8287-6.2819-7.3288-1.5169-2.9279-2.7751-5.9288-4.1879-8.8993-1.4628-11.13,6.8798-26.3972-9.4228-59.1541-17.2208-34.6019-69.9567-64.9999-33.5032-149.1941,6.9343-16.0157,19.6561-36.3114,32.9797-47.6374,24.5779-20.893,77.9948-32.8219,109.409-28.2683Z" style="fill:#080807; stroke-width:0px;"/><path d="m575.8233,354.8464c-.3774.5392-3.3866-2.0076-5.2349,10.9932q-1.047-.7852-2.094-1.5705c7.0761-36.2703,56.7697-69.4377,64.9125-124.5901-1.1839,48.3592-31.4407,77.8162-57.5837,115.1673Z" style="fill:#877113; stroke-width:0px;"/><path d="m547.5549,445.9333c.4212,5.3743-12.8573,3.6856-17.2751,4.1879-.2115.0241-2.9529,2.078-3.1409,2.094-21.8352,1.8523-44.6467-1.2992-66.483-2.094-.4255-.3308-5.071-8.8284-5.2349-9.4228,32.0436,4.4456,64.775,8.2792,94.7513-4.1879-1.8673,5.6776-36.09,9.8661-15.7046,11.5167,1.8845.1526,10.684-1.3628,13.0872-2.094Z" style="fill:#02211f; stroke-width:0px;"/><path d="m547.5549,456.4031c-22.8449,6.6164-77.5652-2.9829-81.1406-1.047-1.4591.7901-.0896,3.0744.5235,4.1879-.167-.4827-5.6859.1585-1.047-8.3758,18.6042,4.5711,67.1946,4.737,86.3755-3.1409,2.9179,1.6291-3.6641,7.0796-4.7114,8.3758Z" style="fill:#e2ede9; stroke-width:0px;"/><path d="m575.8233,354.8464c-6.905,11.3372-.9082,42.2594-3.1409,50.7783-.2663,1.016-3.9149,3.3092-4.1879,3.6644-5.2854-1.5253-1.447-37.6031,0-45.02q1.047.7852,2.094,1.5705c1.8482-13.0009,4.8575-10.454,5.2349-10.9932Z" style="fill:#a78613; stroke-width:0px;"/><path d="m573.7293,336.0008c-17.3614,29.4587-15.096,38.7707-13.6107,73.2883-.9331.1718-4.8106,2.6916-10.4698,4.1879q-6.8053-5.2349-13.6107-10.4698c1.6069-8.9226,6.3203-22.6147,7.3288-39.2616-2.8477-6.8359-4.3137,26.2947-5.2349,28.2683-.5807,1.2441-1.6566-1.0726-2.094-.5235,2.6792-60.39-5.52-34.3462,34.5502-67.0065.8887,3.2105,4.0777,5.3082,4.1879,5.7584.3976,1.6252-3.8717,5.1417-1.047,5.7584Z" style="fill:#a78613; stroke-width:0px;"/><path d="m617.7023,187.3303c9.734,21.1138,10.2936,35.7645,6.2819,58.6306-3.624,6.205-11.3733,7.2594-18.8456,6.2819,4.2783-15.7803,4.0896-28.1732,1.047-43.973-.8553-4.4415-3.5436-13.7089-5.2349-17.7986,5.463,4.5742,10.6383-2.882,16.7516-3.1409Z" style="fill:#877113; stroke-width:0px;"/><path d="m592.5749,151.7331c9.4904,10.6292,19.1185,22.5633,25.1274,35.5972-6.1133.2589-11.2886,7.7151-16.7516,3.1409-3.0966-7.488-7.9312-13.3999-12.5637-19.8925-18.5844-26.0463-22.3992-14.7739,4.1879-18.8456Z" style="fill:#a78613; stroke-width:0px;"/><path d="m536.0382,403.0073c-.7562,4.1988-.1081,9.309-1.047,13.6107-9.6478,1.5807-26.4506,6.1526-9.4228-3.6644q-.7852-.7852-1.5705-1.5705c-2.2326,1.0065-7.6478,2.0808-9.9463,2.094,5.214-3.9238,15.1745-5.7225,21.9865-10.4698Z" style="fill:#bfa74c; stroke-width:0px;"/><path d="m549.6489,413.477c-5.5214,1.4599-9.0086,2.2154-14.6577,3.1409.9389-4.3017.2908-9.4119,1.047-13.6107q6.8053,5.2349,13.6107,10.4698Z" style="fill:#e8dd73; stroke-width:0px;"/><path d="m564.3065,412.4301c-.9879,1.3165-1.8104,2.6419-3.1409,3.6644-.7519,2.6856,4.3229,14.0846-8.3758,41.3555-5.8189.2154-3.0801,3.9258-11.5167,7.3288-1.201.4844-23.8345,6.2069-25.1274,6.2819-5.1411.298-31.9382-4.297-38.7381-6.2819,3.5501-8.7348,2.8594-.3815,3.6644,0,1.6684.7906,34.8006,4.2873,36.6442,4.1879,1.2304-.0663,16.2667-5.541,24.0804-5.2349,5.9869-5.0006,5.4655-6.9663,5.7584-7.3288,1.0473-1.2962,7.6293-6.7467,4.7114-8.3758-19.1809,7.8779-67.7713,7.7121-86.3755,3.1409-1.9675-.4834-2.8538.8041-5.2349-1.047,21.8363.7947,44.6477,3.9463,66.483,2.094.1881-.0159,2.9295-2.0699,3.1409-2.094,4.4178-.5023,17.6963,1.1863,17.2751-4.1879,2.729-.8303,5.8733-.6866,7.3288-2.6174,2.1412-8.8337,6.7804-17.2759,4.7114-26.6979-14.764,6.454-3.2602,10.6001-10.4698,17.7986-3.4787,3.4733-38.1687,14.241-25.1274,1.047.2819-.2852,9.3709-2.4718,3.1409-4.1879-4.074-1.1223-49.5219,7.7293-69.6239-8.3758-.4085-.3273-5.1304-6.9574-6.2819-8.3758q1.047-.5235,2.094-1.047c6.3927,4.4539,22.5903,7.2177,30.3623,7.3288,3.1776.0455,1.4384-1.9604,3.1409-2.094,3.3646-.2639,4.4264,2.0485,10.4698,0,.1109-.0376-.7094-.2255,2.094-1.047,1.4999-1.0189,5.342,2.8455,6.2819,0,.5412-1.6385-1.5101-2.46-1.047-4.1879.3466-.0285.7029.0378,1.047,0,5.8356-.6417,6.4346-3.1954,6.8053-3.1409,1.0617.1559-.268,3.1515,1.5705,3.1409,2.2985-.0132,7.7137-1.0875,9.9463-2.094q.7852.7852,1.5705,1.5705c-17.0279,9.817-.225,5.2451,9.4228,3.6644,5.649-.9255,9.1362-1.681,14.6577-3.1409,5.6591-1.4963,9.5367-4.0161,10.4698-4.1879,1.7028-.3136,3.9367.2147,5.7584,0q-.7852,1.5705-1.5705,3.1409Z" style="fill:#080807; stroke-width:0px;"/><path d="m541.7966,430.2287c19.0991-.5765-.3453,8.9006-12.0402,1.5705,4.6808.015,11.4334-1.5522,12.0402-1.5705Z" style="fill:#2db0ce; stroke-width:0px;"/><path d="m541.2731,118.2299c-11.1032,3.8065-28.8834,2.2101-41.3555,4.1879-17.4948,2.7743-34.3318,10.756-51.8253,13.6107,26.5531-14.941,63.2858-23.7213,93.1808-17.7986Z" style="fill:#fdfdfc; stroke-width:0px;"/><path d="m547.5549,445.9333c-2.4032.7311-11.2027,2.2466-13.0872,2.094-20.3854-1.6506,13.8373-5.8392,15.7046-11.5167-29.9763,12.4671-62.7077,8.6335-94.7513,4.1879-1.7827-6.4672-1.1839-11.9472,2.094-17.7986,20.102,16.1051,65.5499,7.2536,69.6239,8.3758,6.23,1.7161-2.8591,3.9027-3.1409,4.1879-13.0413,13.194,21.6488,2.4263,25.1274-1.047,7.2096-7.1985-4.2942-11.3446,10.4698-17.7986,2.069,9.422-2.5702,17.8642-4.7114,26.6979-1.4555,1.9309-4.5998,1.7872-7.3288,2.6174Z" style="fill:#12a4b6; stroke-width:0px;"/><path d="m476.8841,433.3696c9.6257-2.7383,7.5922,8.9974,13.6107,1.047,12.1259,5.8884,21.9846-4.3525,19.3691,4.7114-.9485,3.2868-35.6695,2.4563-36.6442-1.047-.8796-3.1617.9188-3.9303,3.6644-4.7114Z" style="fill:#011617; stroke-width:0px;"/><path d="m588.387,170.5786c4.6325,6.4926,9.4671,12.4045,12.5637,19.8925,1.6912,4.0897,4.3795,13.3571,5.2349,17.7986-3.6025,8.3404,2.7015,15.2689-4.1879,20.9395-.2509.2065-1.8945-.1981-2.094,0-2.9162-1.5769-.608-9.3576-3.1409-19.3691-9.7477-38.5285-58.7887-67.2685-96.8453-65.436-32.37,1.5587-55.7646,13.6836-69.6239,43.4495-25.006,53.706,5.7468,69.9405,9.4228,84.805,5.3765,21.741-18.1993,18.8706-29.3153-12.5637-14.1184-39.9244,5.9784-98.6133,46.5904-115.6908,49.5463-20.8343,93.8198-11.2009,131.3955,26.1744Z" style="fill:#f9ecc4; stroke-width:0px;"/><path d="m586.293,266.9004c5.2909-13.0327,10.1901-34.2816,12.5637-36.6442.6153,12.8154-3.4743,41.171-12.5637,36.6442Z" style="fill:#a78613; stroke-width:0px;"/><path d="m605.1386,252.2428c-4.4202,16.304,1.7784-6.7956-3.1409-23.0335,6.8894-5.6706.5854-12.5991,4.1879-20.9395,3.0426,15.7997,3.2313,28.1926-1.047,43.973Z" style="fill:#ebc05f; stroke-width:0px;"/><path d="m601.9977,229.2093c4.9193,16.2379-1.2793,39.3374,3.1409,23.0335,7.4722.9776,15.2216-.0769,18.8456-6.2819-7.2305,41.2126-31.4668,58.1605-50.2548,90.0399-2.8247-.6167,1.4446-4.1331,1.047-5.7584-.1102-.4502-3.2992-2.5479-4.1879-5.7584q3.1409-20.9395,6.2819-41.879c3.6188.1836,2.9802-2.8773,3.1409-3.1409,2.6133-4.2856,4.3964-7.9194,6.2819-12.5637,9.0894,4.5269,13.179-23.8288,12.5637-36.6442.3479-.3464.6932-.6956,1.047-1.047.1994-.1981,1.843.2065,2.094,0Z" style="fill:#877113; stroke-width:0px;"/><path d="m588.9105,286.793l-11.5167,21.9865c-.0225-7.262,7.219-16.1886,11.5167-21.9865Z" style="fill:#362b00; stroke-width:0px;"/><path d="m536.0382,391.4906c.4373-.5491,1.5133,1.7676,2.094.5235.9212-1.9736,2.3871-35.1043,5.2349-28.2683-1.0085,16.6469-5.7219,30.339-7.3288,39.2616-6.812,4.7473-16.7724,6.546-21.9865,10.4698-1.8385.0106-.5088-2.985-1.5705-3.1409-.3708-.0544-.9697,2.4992-6.8053,3.1409h-1.047c-.4632,1.728,1.5882,2.5494,1.047,4.1879-10.4838-4.0238-5.8366-.1305-6.2819,0-2.8034.8215-1.9831,1.0094-2.094,1.047-5.487-5.2488,1.1469-8.3804,1.047-8.8993-14.2686-8.823-17.2001-8.4336-11.5167,8.8993-1.7025.1335.0367,2.1394-3.1409,2.094-2.2086-9.1411-5.2087-11.2599,0-21.463-14.2024-15.6001-21.4517-41.4496-31.4093-58.6306-8.0086-13.8182-19.7254-24.8553-26.6979-39.2616,30.9631,25.9947,37.476,64.5323,58.6306,96.3218,3.2952-4.1812,11.3334-10.3357,16.7516-9.4228,11.9828,2.0191-5.2508,3.272-7.3288,4.1879-12.0272,5.3009,2.9425,15.0611,10.4698,13.6107-1.5286-17.7108,4.0645-8.2822,4.7114-9.9463.4715-1.2132-.8865-21.5431,9.4228-19.8925-14.4858,17.6311.5634,3.1975,8.8993,10.9932,2.4901,2.3288-.2327,15.653,8.8993,4.1879Z" style="fill:#231706; stroke-width:0px;"/><path d="m497.3001,418.7119c-6.0433,2.0485-7.1052-.2639-10.4698,0-5.6833-17.3329-2.7519-17.7223,11.5167-8.8993.0999.5189-6.5339,3.6505-1.047,8.8993Z" style="fill:#ebc05f; stroke-width:0px;"/><path d="m505.6759,417.6649c-.9398,2.8455-4.782-1.0189-6.2819,0,.4452-.1305-4.2019-4.0238,6.2819,0Z" style="fill:#aeaa7e; stroke-width:0px;"/><path d="m505.6759,413.477c-.3441.0378-.7004-.0285-1.047,0h1.047Z" style="fill:#ebd298; stroke-width:0px;"/><path d="m512.4812,392.5375c11.4563.6235,11.8757,7.6676,12.5637,7.3288.643-.3166-.4004-13.2857,2.6174-1.5705-20.9072,16.4404-9.999,2.7461-16.7516-4.1879l1.5705-1.5705Z" style="fill:#ebc05f; stroke-width:0px;"/><path d="m516.6691,386.2557c4.0558-.5708,6.5873.7065,9.9463,2.6174-14.495.1461-20.7156-1.1017-9.9463-2.6174Z" style="fill:#b89f75; stroke-width:0px;"/><path d="m556.9777,123.4647c16.1996,7.1377,24.2205,15.5265,35.5972,28.2683-26.5871,4.0716-22.7723-7.2007-4.1879,18.8456-37.5757-37.3753-81.8492-47.0087-131.3955-26.1744-40.6121,17.0775-60.7088,75.7665-46.5904,115.6908,11.1161,31.4344,34.6918,34.3047,29.3153,12.5637-3.676-14.8645-34.4288-31.099-9.4228-84.805,13.8593-29.7659,37.2538-41.8908,69.6239-43.4495,38.0565-1.8325,87.0976,26.9075,96.8453,65.436,2.5329,10.0115.2247,17.7921,3.1409,19.3691-.3538.3514-.699.7006-1.047,1.047-2.3737,2.3626-7.2728,23.6114-12.5637,36.6442-1.8854,4.6443-3.6685,8.2781-6.2819,12.5637-1.9145-8.9661,1.8518-17.9505,2.094-26.6979.8259-29.8328-18.9148,17.0518-5.2349,29.8388q-3.1409,20.9395-6.2819,41.879c-40.0702,32.6603-31.871,6.6164-34.5502,67.0065-9.132,11.4651-6.4091-1.8591-8.8993-4.1879-8.3359-7.7957-23.3851,6.6379-8.8993-10.9932-10.3093-1.6506-8.9512,18.6794-9.4228,19.8925-.6469,1.6641-6.24-7.7645-4.7114,9.9463-7.5273,1.4505-22.497-8.3098-10.4698-13.6107,2.078-.9159,19.3117-2.1688,7.3288-4.1879-5.4182-.9129-13.4564,5.2416-16.7516,9.4228-21.1546-31.7895-27.6675-70.3271-58.6306-96.3218,6.9725,14.4063,18.6893,25.4434,26.6979,39.2616,9.9575,17.181,17.2069,43.0305,31.4093,58.6306-5.2087,10.2031-2.2086,12.3219,0,21.463-7.772-.1112-23.9696-2.8749-30.3623-7.3288-14.3972-10.0307-5.4009-26.9449-7.3288-44.4965-5.9009-53.7205-72.0489-75.4529-54.4427-151.8115,7.2333-31.3712,28.1833-65.1866,56.5367-81.1406,17.4935-2.8547,34.3305-10.8364,51.8253-13.6107,12.4721-1.9778,30.2524-.3814,41.3555-4.1879,5.6564,1.1206,10.4593,2.9237,15.7046,5.2349Z" style="fill:#ebc05f; stroke-width:0px;"/><path d="m580.0112,279.4641c-.1607.2636.4779,3.3245-3.1409,3.1409-13.6799-12.787,6.0608-59.6716,5.2349-29.8388-.2422,8.7474-4.0085,17.7318-2.094,26.6979Z" style="fill:#18190a; stroke-width:0px;"/><path d="m497.8236,376.8329c5.8012-.5946,9.1564,12.1267,8.3758,12.5637-19.5127-11.07,6.2992,2.9493-8.3758-12.5637Z" style="fill:#231706; stroke-width:0px;"/><path d="m468.5083,216.6456h1.047l.5235.5235-.5235.5235q-.2617.2617-.5235.5235l-.5235.5235-.5235-.5235v-1.047l.5235-.5235Z" style="fill:#4a2600; stroke-width:0px;"/><path d="m491.0182,355.8934c7.5555-.7738,19.0424-5.8183,37.6911-2.094.6269,2.4592,2.1761-1.0636,3.1409-3.1409l-1.047,21.9865c-1.5633,2.0976-3.0483,3.27-5.7584,3.1409-3.1409-2.3088,8.677-13.4406-10.4698-15.7046-20.1842-2.3867-43.3707,18.5552-26.6979-13.6107,3.9937,4.4965.8268,3.4985,1.047,9.9463,1.8947,1.6461,1.9866-.5125,2.094-.5235Z" style="fill:#080807; stroke-width:0px;"/><path d="m528.7094,353.7994c-18.6487-3.7244-30.1357,1.3202-37.6911,2.094,5.956-21.4961-13.22-8.256-6.2819-19.8925,2.4329,6.34,14.5155-9.1242,34.0267-2.094,10.2558,3.6954,14.2774,9.7077,9.9463,19.8925Z" style="fill:#ebcf4f; stroke-width:0px;"/><path d="m531.8503,350.6585c-.9648,2.0773-2.514,5.6001-3.1409,3.1409,4.3311-10.1848.3095-16.1972-9.9463-19.8925-19.5112-7.0302-31.5938,8.434-34.0267,2.094,10.5675-17.7237,59.6228-12.2757,47.1139,14.6577Z" style="fill:#e8dd73; stroke-width:0px;"/><path d="m530.8033,372.645l1.047-21.9865c12.5089-26.9334-36.5464-32.3813-47.1139-14.6577-6.9382,11.6366,12.2378-1.6035,6.2819,19.8925-.1074.011-.1992,2.1696-2.094.5235-.2202-6.4478,2.9467-5.4498-1.047-9.9463-3.4787-3.9166-6.6518-2.1902-8.3758-4.7114-6.7467-9.8666,12.6712-6.6066,8.3758-32.4563-1.0042-6.0434-16.734-43.6052-20.9395-54.4427-1.3829-3.5637-3.594-15.6254-4.1879-16.7516-3.199-6.0656-8.5771-5.43-9.4228-9.4228-4.1256-19.4773,46.1904.4392,66.483-2.6174,10.7052-1.6125,21.0177-18.9329,17.2751,3.6644,14.2861,3.1643,28.0436-26.4744,23.0335-1.047-2.4083,12.2224-35.1725,81.3079-31.4093,96.3218.7394,2.95,9.5806,6.069,12.5637,12.5637-10.9748,14.3584-4.8377,27.5167-10.4698,35.0737Z" style="fill:#080807; stroke-width:0px;"/><path d="m504.6289,257.4776c-1.3973.1063-.973,1.0446-1.047,1.047-16.0979-4.1135-21.1401-14.6537-29.8388-27.2214-16.0999.6436-22.671-8.9613-3.1409-8.3758,13.1765.395,39.7062,9.7204,55.4897,4.1879,1.7243.8023-5.8505,29.6773-15.1811,25.6509q.7852-9.6845,1.5705-19.3691-10.4698,5.2349-20.9395,10.4698c-19.4786-28.088-2.0652,11.9958,13.0872,13.6107Z" style="fill:#24b1ba; stroke-width:0px;"/><path d="m509.3403,236.5381c2.1623.6989,1.7953,7.0853,1.5705,8.8993-2.0151,16.2568-16.6715,2.2801-16.7516,1.047-.1344-2.0686,14.3177-10.2254,15.1811-9.9463Z" style="fill:#ba9527; stroke-width:0px;"/><path d="m554.3603,226.0684c9.3556-2.3731-8.297,11.8939-21.9865,17.7986-2.624-13.0038,7.0836-9.2901,15.7046-12.5637,3.0279-1.1498,5.6353-5.0709,6.2819-5.2349Z" style="fill:#12a4b6; stroke-width:0px;"/><path d="m503.5819,258.5246c.074-.0023-.3503-.9407,1.047-1.047,3.4505-.2624,7.0266.2988,10.4698,0,2.6649-.2313,4.8171.4153,7.3288-1.5705q-2.6174-.2617-5.2349-.5235c9.3749-8.2341,9.5383-21.0733,15.1811-31.4093q-3.6644,15.1811-7.3288,30.3623c7.2857-10.4009,19.5881-13.4787,29.8388-20.416-10.8998,30.2165-25.7203,59.4941-29.8388,91.6104-1.5451.6545-13.9034-6.8338-32.9797-.5235,4.8278-14.3231-30.543-85.022-28.2683-91.0869,4.4175-11.7784,17.2026,23.5252,39.2616,26.6979,2.451-1.1966.4156-2.0905.5235-2.094Z" style="fill:#ebc05f; stroke-width:0px;"/><path d="m515.0987,257.4776c.1575-1.5762,1.9827-1.9962,2.094-2.094q2.6174.2617,5.2349.5235c-2.5117,1.9858-4.664,1.3392-7.3288,1.5705Z" style="fill:#886305; stroke-width:0px;"/><path d="m511.9578,279.4641c.1244,3.0631.9279,17.6643-1.5705,18.8456-8.8689,4.1933-5.727-15.7633-5.7584-17.7986q3.6644-.5235,7.3288-1.047Z" style="fill:#080807; stroke-width:0px;"/><path d="m507.7699,266.9004c5.7785,8.4245,5.1266,5.3846,5.2349,5.7584,1.1809,4.0782-1.0609,6.4614-1.047,6.8053q-3.6644.5235-7.3288,1.047c-.0112-.7307-5.2011-3.6543,1.047-13.6107h2.094Z" style="fill:#56c0ed; stroke-width:0px;"/><path d="m507.7699,266.9004h-2.094c2.6856-4.2796,1.611-.704,2.094,0Z" style="fill:#375738; stroke-width:0px;"/></g><g id="Layer_3"><path d="m614.5437,667.74c-5.5807,7.5391-11.4783,14.8457-17.7273,21.8421-2.8946,3.2408-5.883,6.396-8.9185,9.5048-2.9486,3.0199-5.9385,6.0028-8.7577,9.1456-1.6425,1.831-3.2124,3.7215-4.7024,5.6788-.7123.9357-1.4005,1.8899-2.0583,2.8648-.319.4728-.6031.9729-.8515,1.487-.3582.7415-.4045,1.5373-.4909,2.3445-.1183,1.1053,1.3942,1.9493,2.2841,1.3107.442-.3172.9434-.6026,1.3434-.9714.467-.4305.8718-1.0921,1.2329-1.6191.5839-.8523,1.1382-1.7223,1.7405-2.5627.2899-.4044.5844-.8055.8832-1.2034.1493-.1989.2996-.397.451-.5943-.186.2424.0322-.0412.0588-.0751.0878-.1121.1756-.2242.2638-.336.6621-.8385,1.3411-1.6635,2.0328-2.4777,2.7334-3.2172,5.6617-6.2606,8.5666-9.3214,2.9763-3.136,5.8338-6.3419,8.5648-9.6949,3.0091-3.6945,5.9243-7.4665,8.7557-11.2989,3.1421-4.2529,6.1834-8.5794,9.1203-12.9764.3113-.466.0908-1.1484-.3721-1.4192-.5278-.3087-1.0849-.0795-1.4192.3721h0Z" style="fill:#fff; stroke-width:0px;"/><path d="m623.2883,676.8883c-2.0758,3.3897-4.2373,6.7232-6.5237,9.9747-2.2674,3.2245-4.6455,6.3655-6.9829,9.5386-4.6701,6.3397-9.598,12.4855-14.6715,18.5062-1.4351,1.703-2.858,3.4161-4.2972,5.1157-.6938.8192-1.3897,1.6365-2.0877,2.4521-.7666.8958-1.73,1.7334-2.0104,2.9081-.161.6745.4864,1.5514,1.2449,1.2449.4841-.1957.8794-.374,1.2431-.7591.3665-.3881.7006-.8145,1.0481-1.22.6485-.7567,1.2953-1.5149,1.9403-2.2747,1.2669-1.4926,2.5322-2.9873,3.7777-4.4978,2.5623-3.1074,5.0469-6.2827,7.5025-9.4748,4.8394-6.2908,9.4602-12.7147,13.6428-19.4629,2.3735-3.8294,4.6828-7.7051,6.8731-11.6424.2538-.4562-.4268-.8533-.6991-.4086h0Z" style="fill:#fff; stroke-width:0px;"/><path d="m559.9913,716.2421c.9097-.7712,1.795-1.5709,2.6515-2.401.4163-.4034.8304-.8059,1.2027-1.2506.3933-.4697.778-.9466,1.1552-1.4294.2926-.3746.3926-.9276,0-1.2881-.36-.3305-.9324-.3642-1.2881,0-.4148.4247-.8359.843-1.2646,1.2537-.4294.4115-.83.8487-1.2439,1.2757-.8292.8555-1.6882,1.6816-2.5725,2.48-.3743.338-.3693,1.0206,0,1.3596.4098.3762.9489.3482,1.3596,0h0Z" style="fill:#fff; stroke-width:0px;"/><path d="m419.969,724.4227c1.7365-1.3912,3.4505-2.8119,5.1941-4.194,1.726-1.3682,3.5073-2.6707,5.251-4.0167,3.592-2.7725,7.1582-5.5783,10.686-8.4321,1.747-1.4132,3.5192-2.8087,5.2165-4.2815,1.6912-1.4675,3.3253-3.0079,4.9676-4.5295,3.275-3.0343,6.544-6.0886,9.6312-9.315,1.6983-1.7749,3.3779-3.5677,5.0364-5.3797.9138-.9983,1.6896-2.1448,2.4967-3.231.7569-1.0187,1.3691-2.0811,1.9688-3.1971.6596-1.2275-.7446-2.9398-2.0423-2.0423-.9786.6769-1.9363,1.3507-2.8446,2.122-.8295.7043-1.6352,1.4376-2.4558,2.1524-.8468.7377-1.595,1.6021-2.3796,2.4056-.7626.781-1.5291,1.5581-2.2993,2.3316-3.1488,3.162-6.2726,6.3504-9.4551,9.4789-3.194,3.1398-6.4205,6.2393-9.5867,9.4073-3.16,3.1617-6.3621,6.2813-9.5969,9.3664-1.7804,1.698-3.5706,3.3855-5.3694,5.064-1.848,1.7244-3.8175,3.3294-5.7425,4.967-.3881.3302-.3333.9831,0,1.3238.3856.3942.9315.3143,1.3238,0h0Z" style="fill:#fff; stroke-width:0px;"/><path d="m444.9267,727.9383c1.9274-1.6927,3.7821-3.4744,5.5952-5.2884,1.8613-1.8623,3.5748-3.8516,5.3084-5.832,3.4286-3.9164,6.8826-7.8339,10.6938-11.3873,2.0954-1.9536,4.3979-3.6045,6.5984-5.4244,1.0831-.8957-.2971-2.462-1.441-1.8676-2.2835,1.1867-4.2921,2.9844-6.1883,4.7092-1.8948,1.7235-3.6776,3.5589-5.3867,5.4657-1.7873,1.9941-3.5098,4.045-5.2224,6.1033-1.667,2.0035-3.3752,3.9794-4.9886,6.026-1.8268,2.3172-3.7106,4.5797-5.7559,6.7083-.5009.5213.252,1.2571.7871.7871h0Z" style="fill:#fff; stroke-width:0px;"/><path d="m478.8521,693.1227c.4776-.544.9732-1.0988,1.346-1.72.0811-.1352.1672-.2696.2391-.4099.1165-.2272.2013-.4781.2925-.7175.1099-.2885.2149-.5788.3153-.8707.0965-.2807.0348-.7074-.125-.9553-.1484-.2302-.3394-.4003-.5928-.5072-.2463-.104-.5456-.1471-.8072-.0625-.3242.1049-.5412.295-.7409.5697-.1695.2332-.3425.4638-.5186.6922l.2138-.2768c-.3549.4587-.7173.9186-.9786,1.4401-.2138.4266-.4101.8613-.6305,1.2849-.2933.5638-.1861,1.2364.3258,1.6318.4695.3628,1.2436.3765,1.661-.0989h0Z" style="fill:#fff; stroke-width:0px;"/><path d="m395.7538,692.0091c2.9414-3.6055,6.2687-6.8816,9.7162-9.9994,3.602-3.2575,7.3138-6.4058,11.0507-9.507.9787-.8122,1.9605-1.6207,2.9433-2.4278.9898-.8128,1.8985-1.7294,2.8307-2.6075.5322-.5013-.1779-1.4714-.7971-1.0331-1.8897,1.3377-3.7049,2.7221-5.4949,4.191-1.8861,1.5478-3.7628,3.1072-5.6174,4.6927-3.6802,3.1462-7.2047,6.4963-10.505,10.0403-1.772,1.9029-3.4648,3.8768-5.0404,5.9457-.3968.521.4964,1.217.9139.7052h0Z" style="fill:#fff; stroke-width:0px;"/></g></svg>
