<?xml version="1.0" encoding="UTF-8"?><svg xmlns="http://www.w3.org/2000/svg" viewBox="0 0 1000 1000"><g id="AIrtwork"><path d="m552.0086,910.5177c4.8624-1.0745,6.952,7.3063,3.3188,8.8501-3.3941,1.4422-9.8724-7.4019-3.3188-8.8501Z" style="fill:#87887e; stroke-width:0px;"/><path d="m582.9838,897.2427c4.9397-1.3616,6.5596,6.6685,0,4.425-2.1345-.73-1.9727-3.8813,0-4.425Z" style="fill:#494333; stroke-width:0px;"/><path d="m564.1775,933.7491c1.0497-.1279,5.9118,3.8549,2.2125,4.425-2.3879.368-5.1106-4.072-2.2125-4.425Z" style="fill:#080909; stroke-width:0px;"/><path d="m648.8061,514.4779c-.9491,2.6048,3.2036,6.4509,2.2125,8.2969-.1945.3622-5.9382-1.6764-7.7438-2.7656.5959-.4534,3.788-3.9114,5.5313-5.5313Z" style="fill:#c45569; stroke-width:0px;"/><path d="m616.7246,778.8732c-1.547,1.0491-6.4871,8.4025-9.9563,9.9563-2.5661,2.354-13.7788-13.4435-14.3813-17.7001-.5775-4.08-.1045-5.6825,2.2125-8.8501.073-.0998,1.5139.3522,1.1063-2.2125,6.3275-1.7526,19.2614-10.898,26.5502-14.3813,20.9264,15.723-12.7219,7.7865-15.4876,19.3595-1.732,7.2475,2.7426,12.7717,9.9563,13.8282Z" style="fill:#7e3120; stroke-width:0px;"/><path d="m592.387,771.1294c.6026,4.2566,11.8152,20.0541,14.3813,17.7001.8961,4.785,5.3731,7.3174,7.7438,11.0626-15.4464,10.8953-36.3703,13.229-37.6127-10.5094-.5527-10.5611,4.2488-26.2616,15.4876-18.2532Z" style="fill:#13abb3; stroke-width:0px;"/><path d="m558.0931,745.6855c9.6915,1.3295,19.5093,2.428,29.3158,1.1063.9805.4992.3778,1.5087.5531,2.2125-14.253,11.8985-12.4028,24.4177-3.3188,8.8501-.191,1.3924.2965,3.1373,0,4.425-.3383,1.4692-4.0623,5.8296-2.7656,7.7438q6.361-3.8719,12.7219-7.7438c-2.317,3.1676-2.79,4.7701-2.2125,8.8501-11.2388-8.0084-16.0403,7.6921-15.4876,18.2532,1.2424,23.7384,22.1663,21.4048,37.6127,10.5094,7.2233,11.4111,8.6586,13.8768-2.2125,24.8908.3693,3.7916.4412,6.7142,0,10.5094-1.3509,11.6206-.5317,23.3613-2.2125,34.8471-6.1967,42.3444-45.5325,117.7719-82.9692,49.7815,7.9773,4.1227,11.9596,14.7461,19.3595,19.3595,41.2667,25.7276,68.1369-84.9462,60.291-100.1162-.5958-1.1519-3.4367,2.3028-6.6375,1.6594.4746-1.205-1.4495-.8628-2.2125-1.6594,3.0315-.4701,14.8984-9.0664,9.4032-10.5094-2.2033-.5786-10.8098,12.0897-15.4876,6.6375-3.4409.8762,2.5514,4.8356-.5531,11.6157-3.4277,7.4859-22.5508,10.87-22.1251,4.425.2413-3.6531,13.9823-2.1087,15.4876-7.7438,3.4136-12.7793-4.1718-.2199-6.0844.5531-1.9645.794-5.8766-.9085-8.2969.5531-2.7224,1.6441-26.1364,51.124-27.6564,56.9722-.0749.2883-1.4864-.3568-2.2125,5.5313-53.3958,3.3034-34.2295-78.5223-18.8064-110.0725.4984-19.0698,5.288-37.4775,9.9563-55.866,9.0417.6786,17.4709,3.1795,26.5502,4.425Z" style="fill:#080909; stroke-width:0px;"/><path d="m592.387,827.5485c-3.2521.3496-6.7477.821-9.9563,1.1063-1.9029.1691-4.0407,1.75-4.425.5531,6.3842-28.3499,19.7323-1.8571,38.1658-22.6783,2.8968,8.7807-8.5517,17.9713-15.4876,22.1251-3.5142.6861-5.6023-1.3959-8.2969-1.1063Z" style="fill:#811525; stroke-width:0px;"/><path d="m595.7058,760.0669c.4076,2.5647-1.0333,2.1127-1.1063,2.2125q-6.361,3.8719-12.7219,7.7438c-1.2967-1.9142,2.4274-6.2746,2.7656-7.7438,7.1939-5.4998,8.5283-1.5106,11.0626-2.2125Z" style="fill:#0f858c; stroke-width:0px;"/><path d="m570.2619,753.4293c1.0096,13.9637,2.5966,28.0717,3.3188,42.0377-4.0156-.518-2.7969,10.319-9.4032,13.2751-12.1067,5.4174-12.4862-12.7326-15.4876-19.9126-1.8174-.1498-7.926,21.7979-17.147,30.9752-.0876.0872-1.6441.9449-2.2125,1.1063-.1042-.8279-.1471-1.2263-1.1063-1.1063,2.547-9.8705,8.8049-22.8104,9.9563-28.2095,2.6688-12.5152,1.5737-31.7871,3.3188-35.9533,10.9332-4.2382,17.3566-3.6149,28.7627-2.2125Z" style="fill:#cd4a54; stroke-width:0px;"/><path d="m531.5429,901.6677c.0425-9.4478-6.6061-20.1383-7.7438-30.4221-2.5771-23.2938,3.6859-36.8878,5.5313-48.1222,8.135,17.072,17.5626,30.4625,36.5065,17.147-8.2509,16.4837-5.4579,19.9237-26.5502,17.7001q7.7438,2.2125,15.4876,4.425c-13.557,7.1568-18.9314,11.3693-3.8719,6.0844,2.3268,1.5423-11.3601,36.228-15.4876,36.5065-1.7666-.9047-2.5822-1.8286-3.8719-3.3188Z" style="fill:#cd4a54; stroke-width:0px;"/><path d="m573.5806,795.4671c.4167,8.0596,7.4896,20.5273-10.5094,37.6127-3.9839-21.3553-2.1902,6.53-8.8501,8.8501-11.081,3.8602-19.0837-14.426-22.6783-22.1251,9.2209-9.1773,15.3296-31.1249,17.147-30.9752,3.0014,7.18,3.3809,25.3301,15.4876,19.9126,6.6063-2.9561,5.3875-13.793,9.4032-13.2751Z" style="fill:#a5293b; stroke-width:0px;"/><path d="m529.3304,820.911c.0862.6852.1109,1.5371,0,2.2125-1.8453,11.2343-8.1084,24.8284-5.5313,48.1222,1.1377,10.2838,7.7863,20.9742,7.7438,30.4221-16.2914-18.823-8.9273-60.128-3.3188-81.863.9591-.1201,1.0021.2783,1.1063,1.1063Z" style="fill:#de9d9d; stroke-width:0px;"/><path d="m570.2619,753.4293c-11.406-1.4024-17.8295-2.0257-28.7627,2.2125,3.6313-8.6696,26.1232-6.3043,28.7627-2.2125Z" style="fill:#ebbfba; stroke-width:0px;"/><path d="m584.6432,757.8544c-9.0841,15.5677-10.9343,3.0485,3.3188-8.8501.5405,2.1697-2.126,6.8059-3.3188,8.8501Z" style="fill:#a5293b; stroke-width:0px;"/><path d="m592.387,827.5485c3.3199,3.8156-16.5816,7.5621-9.9563,1.1063,3.2086-.2852,6.7042-.7567,9.9563-1.1063Z" style="fill:#fdf9fa; stroke-width:0px;"/><path d="m582.4307,279.9516c25.9012,23.2556,36.7848,42.3421,42.0377,76.8848,1.7811,11.7122.9109,31.3153,4.425,32.6346.3388,5.4909-.2352,11.0896,0,16.5938-4.2078-1.0237-1.3179,8.0184-2.2125,17.147-1.6289,16.6212-6.1849,33.4947-14.3813,48.1222q-1.1063-.2766-2.2125-.5531c13.9187-23.5775,16.6437-63.1605,14.3813-90.1599-1.9443-23.2038-13.7258-60.766-26.5502-80.2036-7.3766-11.1805-11.5886-12.06-12.1688-12.7219-2.1729-2.4791-4.3368-4.3489-6.6375-6.6375,5.2168,1.5609,2.797-.8506,3.3188-1.1063Z" style="fill:#080909; stroke-width:0px;"/><path d="m579.1119,281.0578c2.3008,2.2886,4.4647,4.1585,6.6375,6.6375-23.9368-6.9065-21.8599-.868-40.9315,3.3188-.1319-5.2422-2.4412-17.3628-2.2125-18.2532.2743-1.0682,11.5126-14.2772,14.9345-.5531-6.2178-20.6866,2.3122-7.3482,6.6375,2.2125-2.401-18.2027,1.8258-6.402,14.9345,6.6375Z" style="fill:#cdb562; stroke-width:0px;"/><path d="m543.7117,398.321c-.9659,12.0129-9.0617,42.7838-13.2751,55.3128-2.7778,8.2603-6.2529,16.4299-9.9563,24.3376q-.5531-1.6594-1.1063-3.3188c1.2197-2.1313,6.5684-14.5534,7.7438-17.7001,5.007-13.4043,7.8534-26.9413,9.9563-40.9315,5.3396-1.1697,2.2781-17.7648,6.6375-17.7001Z" style="fill:#190904; stroke-width:0px;"/><path d="m624.4684,380.6209c2.2623,26.9994-.4627,66.5824-14.3813,90.1599q1.1063.2766,2.2125.5531-1.3828,2.2125-2.7656,4.425c-48.4808,9.4771-27.5958,5.1142-40.3784-15.4876,2.0221.0827,4.06-.0565,6.0844,0v-2.2125q-10.2329-4.7016-20.4657-9.4032c-1.1845-2.7292,17.7663-21.8657,15.4876-56.4191-.1573-2.386-3.0282-8.5472-3.3188-10.5094-.187-1.2632,2.0625-.3142-1.1063-3.8719,42.1696-15.278,33.7599,9.4142,47.569,24.3376,15.9039,17.1874,5.1166-16.3831,11.0626-21.572Z" style="fill:#f2e6a9; stroke-width:0px;"/><path d="m563.6243,382.8334c3.5454,8.073,2.6838,21.4907,1.1063,30.4221-2.4053,13.6174-11.4369,25.2455-15.4876,38.1658-3.4074,4.192-8.2874,4.0342-13.2751,3.3188,4.4133-8.0029,9.2313-28.2227,9.9563-38.1658-2.6035,12.1736-8.0938,23.9767-11.0626,35.9533q-2.2125.5531-4.425,1.1063c4.2133-12.529,12.3091-43.2999,13.2751-55.3128.3733-4.6431-.0174-9.6814,0-14.3813,16.5982,4.8484,11.5798-.2016,16.0407-2.2125,1.2032-.5424,1.7829,1.551,3.8719,1.1063Z" style="fill:#f2e6a9; stroke-width:0px;"/><path d="m566.9431,381.7272c.2906,1.9622,3.1614,8.1235,3.3188,10.5094,2.2787,34.5533-16.6721,53.6899-15.4876,56.4191q10.2329,4.7016,20.4657,9.4032v2.2125c-2.0244-.0565-4.0623.0827-6.0844,0-8.3057-.3397-12.7219-6.6834-19.9126-8.8501,4.0507-12.9204,13.0823-24.5484,15.4876-38.1658,1.5775-8.9313,2.4391-22.349-1.1063-30.4221.2572-.0548-.9805-3.998,3.3188-1.1063Z" style="fill:#080909; stroke-width:0px;"/><path d="m585.7495,287.6954c.5802.662,4.7922,1.5414,12.1688,12.7219,12.8244,19.4376,24.6059,56.9998,26.5502,80.2036-5.946,5.1889,4.8414,38.7594-11.0626,21.572-13.8091-14.9235-5.3994-39.6157-47.569-24.3376,3.1688,3.5577.9192,2.6087,1.1063,3.8719-4.2992-2.8917-3.0616,1.0515-3.3188,1.1063-2.089.4448-2.6687-1.6486-3.8719-1.1063-4.4609,2.0109.5574,7.0609-16.0407,2.2125.0392-10.5849-2.394-24.4429-2.2125-32.0814.0271-1.1399-2.2962-1.4496,0-4.425.681-1.8876,2.2049-6.2878,2.2125-6.6375.0275-1.26,1.748-9.4548,2.2125-22.1251.3404-9.2842-.874-18.4233-1.1063-27.6564,19.0716-4.1868,16.9947-10.2253,40.9315-3.3188Z" style="fill:#f2e6a9; stroke-width:0px;"/><path d="m543.7117,340.7957c-3.5868-.9003-.5863-18.4746,2.2125-22.1251-.4645,12.6703-2.185,20.8652-2.2125,22.1251Z" style="fill:#954046; stroke-width:0px;"/><path d="m556.9868,362.9208q.2766-7.1907.5531-14.3813c-.7924-.1242-2.4347,10.748-2.7656,12.1688-4.351,18.6804-3.1966-5.206,4.425-21.572q-1.1063,11.8923-2.2125,23.7845Z" style="fill:#2d1c06; stroke-width:0px;"/><path d="m556.9868,362.9208q-1.1063-1.1063-2.2125-2.2125c.3309-1.4209,1.9732-12.293,2.7656-12.1688q-.2766,7.1907-.5531,14.3813Z" style="fill:#ecdab6; stroke-width:0px;"/><path d="m535.9679,454.7401c-2.896,5.2515-2.5844,3.7507-1.1063-2.2125,2.9688-11.9766,8.459-23.7798,11.0626-35.9533-.725,9.9431-5.543,30.163-9.9563,38.1658Z" style="fill:#080909; stroke-width:0px;"/><path d="m628.8935,406.0648c.8353,19.5517,5.0457,39.1201,0,58.6316-3.5252,9.3965,3.2235,24.2281,11.0626,29.8689.7797,3.9114,4.2535,8.3752,3.3188,12.7219-1.7005,7.9083-16.9444,4.0477-22.6783,4.9782-13.4431,2.1815-27.1905,6.9696-40.9315,7.7438-9.8908.5573-78.9683-3.6387-85.1817-5.5313-.5474-.1667-2.2217-1.8951-1.1063-2.2125,15.0016-5.0842,20.9191-21.0892,27.1033-34.294,3.7034-7.9077,7.1785-16.0773,9.9563-24.3376q2.2125-.5531,4.425-1.1063c-1.4782,5.9632-1.7897,7.464,1.1063,2.2125,4.9877.7154,9.8677.8733,13.2751-3.3188,7.1907,2.1667,11.6069,8.5104,19.9126,8.8501,12.7825,20.6018-8.1024,24.9647,40.3784,15.4876q1.3828-2.2125,2.7656-4.425c8.1965-14.6274,12.7524-31.501,14.3813-48.1222.8946-9.1286-1.9953-18.1707,2.2125-17.147Z" style="fill:#f2e6a9; stroke-width:0px;"/><path d="m639.956,494.5653c-7.8391-5.6408-14.5877-20.4725-11.0626-29.8689,8.5778,5.2238,7.6196,12.5971,11.0626,29.8689Z" style="fill:#d87640; stroke-width:0px;"/><path d="m592.9401,486.8215c13.2265-.6263,32.8659.7632,37.0596,16.0407-7.7094-5.9501-13.4156-12.4589-23.7845-13.8282-17.2164-2.2736-7.6358,3.424-11.0626,4.425-8.951,2.6147-32.6388-8.9368-7.7438-3.3188.9937-.6108,5.2091-3.3035,5.5313-3.3188Z" style="fill:#190904; stroke-width:0px;"/><path d="m605.109,507.8404c14.1529-.3706-.8499,7.061-25.4439,5.5313-46.0838-7.7773-6.8011-2.8427,14.3813-3.3188,1.0434-.0235,9.9835-2.1843,11.0626-2.2125Z" style="fill:#080909; stroke-width:0px;"/><path d="m544.2648,483.5027c4.5329-.1545-7.5865,8.2606-8.8501,8.8501-6.7403,3.1446-14.5976,1.5638-18.2532,8.2969-2.1284-8.3442,15.4057-5.5834,27.1033-17.147Z" style="fill:#442a02; stroke-width:0px;"/><path d="m526.5647,504.5216c14.0651-2.4656,14.7077,3.6523-6.0844,2.7656,3.2223-.4909,5.7552-2.7079,6.0844-2.7656Z" style="fill:#442a02; stroke-width:0px;"/><path d="m799.257,632.8474c1.9584,1.6291,7.9187,6.7036,8.8501,7.7438,1.6152,1.8042,4.5315,5.6952,5.5313,7.7438q-4.9782-.5531-9.9563-1.1063c-20.6399-11.4931-45.9671-38.5302-59.7378-39.8252-.2147-.271-2.4609.5751-3.3188-.5531-.3529-1.1624,1.9812-3.0461,2.2125-6.0844.4862-6.3856-2.0551-4.9705-12.1688-13.2751,14.9674,9.3355,57.8366,36.413,68.5879,45.3565Z" style="fill:#080909; stroke-width:0px;"/><path d="m668.7187,744.5793q-18.8064-6.361-37.6127-12.7219c8.9905-4.6104,16.3408-11.1561,24.3376-17.147,7.3548-5.5099,14.5775-10.3122,22.1251-15.4876,1.2469-.8549,1.0417-1.062,1.1063-1.1063,15.7348.0631-17.9143,12.9683-29.8689,24.8908,1.4842.6623,3.6789,1.8877,4.425,3.3188,9.3209,17.879,11.5233,4.7868,15.4876,18.2532Z" style="fill:#086868; stroke-width:0px;"/><path d="m686.4188,758.9606c-2.2037,1.3444-3.1708,1.013-3.3188,1.1063-4.8508-7.8063-3.7125-4.2722-4.425,2.2125-1.3515-.1249-1.0413,1.0626-1.1063,1.1063-3.1839,1.3075-6.8944,1.8917-9.9563,3.3188-10.8104-4.8859.341-11.1898-13.2751-17.7001,5.9391.2409,13.2087,1.6846,15.4876,1.1063,4.7474-1.2047,5.3716-8.3631,7.1907-7.7438-3.5473,19.9528,2.3144,1.7468,9.4032,16.5938Z" style="fill:#086868; stroke-width:0px;"/><path d="m683.1,760.0669c-1.3777.8678-2.9938,1.4153-4.425,2.2125.7125-6.4847-.4258-10.0188,4.425-2.2125Z" style="fill:#001b1d; stroke-width:0px;"/><path d="m677.5687,557.6219c3.7373,2.6093,10.0445,6.1407,14.3813,8.8501,14.4451,13.2296,34.3394,22.6188,50.8878,34.294-.2313,3.0383-2.5654,4.922-2.2125,6.0844.8578,1.1283,3.1041.2822,3.3188.5531,8.585,10.8341,30.1273,20.8328,41.4846,30.9752,14.9583,13.3582,20.5896,18.8893,16.0407,38.719.037-1.3764-1.2013-1.3137-2.2125-1.1063-1.3694-4.6769-4.2571-9.3945-8.2969-12.1688-20.5243-14.0947-5.3808,4.6545-10.5094,8.8501-8.5859-2.7538-16.8757-5.9179-24.3376-11.0626-1.7487-1.2056,1.3749-9.4666-35.4002-21.0189,4.0468-8.0079,7.0279-3.762,13.8282-7.7438-25.4563-5.9078-24.1718,8.3979-26.5502,8.8501-5.7127,1.0861-75.3055-49.1656-105.0944-47.569-.5362.0288-4.5438,1.3529-10.5094,2.2125,4.3381-17.0682,54.2663-22.1705,45.3565-42.0377,4.6035-1.7951,9.5472-1.8472,14.3813-2.2125,14.8302-1.1208,12.149.5283,25.4439,5.5313Z" style="fill:#014749; stroke-width:0px;"/><path d="m384.4108,694.7977c-1.637-.1412-6.4875,7.2564-6.6375,7.7438-2.1003-.5874-4.6894-1.3257-6.6375-2.2125-6.7727-3.083-11.1033-4.902-18.8064-4.9782,12.5276-21.0181,7.5908-10.4699-4.425-4.9782-.3342-9.2653,8.2804-13.7067,14.3813-18.8064,7.6089,1.134,19.607,16.4689,22.1251,23.2314Z" style="fill:#086868; stroke-width:0px;"/><path d="m633.3185,527.753c13.9945,9.4258,4.8014,19.189,11.6157,22.1251,2.1042.9067,7.9025-1.9023,7.1907,2.2125-4.8341.3654-9.7779.4174-14.3813,2.2125-3.9655-8.8423-11.2735-8.7177-19.9126-7.7438q-.5531-.5531-1.1063-1.1063c14.0357-6.2203,1.4678-9.0647-13.2751,1.1063-1.9786-3.3621-.2051-5.851-2.2125-8.8501h1.1063c2.8433.3224,27.5638-8.0482,30.9752-9.9563Z" style="fill:#086868; stroke-width:0px;"/><path d="m803.682,647.2287c18.4713,23.7738-5.2678,43.1876-2.2125,29.8689,4.5489-19.8297-1.0824-25.3608-16.0407-38.719-11.3573-10.1424-32.8997-20.141-41.4846-30.9752,13.7707,1.295,39.0979,28.3321,59.7378,39.8252Z" style="fill:#0f858c; stroke-width:0px;"/><path d="m655.4436,714.7103c-7.9968,5.9909-15.3471,12.5365-24.3376,17.147q18.8064,6.361,37.6127,12.7219c.3496,1.1876.4072,3.7394,1.1063,5.5313-2.2789.5783-9.5485-.8653-15.4876-1.1063-15.5804-.6319-2.0759.7639-7.7438,8.8501-6.1398-7.7304-13.8687-18.5494-23.2314-21.0189,4.2077-5.9575,24.21-18.8502,32.0814-22.1251Z" style="fill:#023231; stroke-width:0px;"/><path d="m659.8686,539.9218c-3.5379,1.7263,10.8204,12.8968,17.7001,17.7001-13.2949-5.0029-10.6137-6.6521-25.4439-5.5313.7119-4.1148-5.0865-1.3058-7.1907-2.2125-6.8143-2.9361,2.3788-12.6994-11.6157-22.1251.377-.2109,2.6216-2.8451,6.6375-5.5313,6.7984,5.6427,12.9122,12.303,19.9126,17.7001Z" style="fill:#069796; stroke-width:0px;"/><path d="m371.1357,700.329c-9.4406,4.2884-1.3307,35.5606-11.6157,2.2125-20.7576,25.8222-.9246-8.396-25.4439-3.3188-3.1318-2.2527-.5553-2.8974-.5531-5.5313,5.1646.1344,9.7182-1.1875,14.3813-3.3188,12.0159-5.4918,16.9526-16.0399,4.425,4.9782,7.703.0762,12.0336,1.8952,18.8064,4.9782Z" style="fill:#014749; stroke-width:0px;"/><path d="m601.2371,537.7093c2.0075,2.9991.234,5.488,2.2125,8.8501,1.9742,3.3547,9.9007.3892,13.2751-1.1063q.5531.5531,1.1063,1.1063c-10.4959,1.1833-17.1812,12.4045-43.144,1.1063,9.2639-12.1587,13.2157-4.3129,24.3376-11.0626.0635.1062,1.741.9843,2.2125,1.1063Z" style="fill:#069796; stroke-width:0px;"/><path d="m756.113,661.61c-18.7377,6.4347-23.6006,11.2549-8.8501-2.7656-4.9301-.4547-27.8844-10.4236-28.7627-13.2751-.3072-.9974,1.7012-3.9663,2.2125-4.9782,36.7751,11.5522,33.6515,19.8132,35.4002,21.0189Z" style="fill:#086868; stroke-width:0px;"/><path d="m362.2857,671.5663c-6.1009,5.0997-14.7155,9.5411-14.3813,18.8064-4.6632,2.1313-9.2167,3.4531-14.3813,3.3188.012-14.6482,15.2454-24.1397,28.7627-22.1251Z" style="fill:#069796; stroke-width:0px;"/><path d="m799.257,675.9914c-8.9203,1.8297-10.7451-.7333-18.8064-3.3188,5.1287-4.1955-10.0148-22.9448,10.5094-8.8501,4.0398,2.7743,6.9275,7.4919,8.2969,12.1688Z" style="fill:#0f858c; stroke-width:0px;"/><path d="m730.6691,587.4909c-12.2752-7.6563-26.377-13.3084-38.719-21.0189-4.3368-2.7094-10.6441-6.2407-14.3813-8.8501-6.8797-4.8033-21.238-15.9738-17.7001-17.7001,22.4492,17.3076,48.6601,29.3892,70.8004,47.569Z" style="fill:#001b1d; stroke-width:0px;"/><path d="m646.5936,757.8544c3.7666,4.7424,6.8349,9.9801,11.0626,14.3813-.3417.1573-3.3936,2.9875-6.0844,4.425-5.2479-7.1059-28.3247-2.2109-34.8471,2.2125-7.2137-1.0565-11.6883-6.5807-9.9563-13.8282,2.7657-11.573,36.414-3.6365,15.4876-19.3595-4.3166-4.5182-.1702-7.0428,1.1063-8.8501,9.3627,2.4695,17.0915,13.2884,23.2314,21.0189Z" style="fill:#080909; stroke-width:0px;"/><path d="m654.3374,749.0043c13.6161,6.5103,2.4647,12.8142,13.2751,17.7001-3.3061,1.541-6.5253,3.9514-9.9563,5.5313-4.2277-4.4013-7.2959-9.6389-11.0626-14.3813,5.6679-8.0861-7.8366-9.482,7.7438-8.8501Z" style="fill:#001b1d; stroke-width:0px;"/><path d="m730.6691,587.4909c10.1137,8.3046,12.655,6.8895,12.1688,13.2751-16.5484-11.6751-36.4427-21.0643-50.8878-34.294,12.342,7.7105,26.4437,13.3626,38.719,21.0189Z" style="fill:#0e6a75; stroke-width:0px;"/><path d="m583.5369,588.5971c.8067,1.2435,4.7572,1.3892,5.5313,9.9563.0912,1.0099,1.6408,1.6167,1.1063,3.8719-20.8276-6.1074-58.6824-9.0441-76.8848,4.9782-27.783,21.4027-51.8918,155.3819-117.2632,146.0259-3.9137-1.5853,4.2261-10.4851,2.2125-14.3813-3.6516-2.121-15.97,29.1822-6.0844-18.2532h-2.2125c-11.1558,29.6532-8.663,22.3598-13.2751-10.5094,1.5871-.1273,7.5039-8.3132,7.7438-8.8501,6.4875,13.5921,21.8858,18.5847,35.4002,23.7845-11.0821-20.71-35.664-51.5968.5531-14.9345q-6.361-13.5516-12.7219-27.1033c.719-5.4087,17.1195,8.0281,18.8064,8.8501-31.2842-37.8189-15.8468-28.9163-9.9563-37.6127,5.5557-8.2021,21.5299-52.0084,29.3158-52.5472,1.2322-.0853,7.302,3.4122,7.7438,3.3188,1.5916-.3368,14.2127-24.5271,18.8064-26.5502,39.9902,4.0777,58.4702-16.9108,94.0318-18.8064,5.1314,2.3606-4.2418,22.6867,17.147,28.7627Z" style="fill:#014749; stroke-width:0px;"/><path d="m404.8765,729.0917c2.6044.4585,7.8038,9.9481,8.2969,11.6157,4.5679,15.4477-4.2214.6353-8.2969-11.6157Z" style="fill:#001b1d; stroke-width:0px;"/><path d="m574.6869,547.6656c25.9628,11.2983,32.6481.077,43.144-1.1063,8.6391-.9739,15.9471-1.0985,19.9126,7.7438,8.9098,19.8672-41.0185,24.9695-45.3565,42.0377-3.2138.4631-1.3494,1.1763-3.3188,2.2125-.7741-8.5671-4.7246-8.7128-5.5313-9.9563-.159-.2452.7203-1.525-3.3188-3.8719,1.1202-.5083,2.1888-1.2007,3.3188-1.6594,16.726-6.7894,15.8588-7.2352,30.9752-19.3595-10.3435.604-20.1481,3.6838-29.3158,8.2969-2.5378-20.0259-11.8278-30.6498-11.6157-11.0626-3.5842,2.2702-1.4148-13.1092-1.1063-13.8282.5697-1.3273,1.7717,1.1317,2.2125.5531Z" style="fill:#080909; stroke-width:0px;"/><path d="m583.5369,583.0658c-5.9455-5.8823-9.8643-13.6345-9.9563-22.1251-.2121-19.5872,9.0779-8.9633,11.6157,11.0626,9.1677-4.6131,18.9723-7.693,29.3158-8.2969-15.1164,12.1243-14.2492,12.5701-30.9752,19.3595Z" style="fill:#047879; stroke-width:0px;"/><path d="m616.7246,545.4531c-3.3743,1.4954-11.3008,4.461-13.2751,1.1063,14.7429-10.1709,27.3108-7.3265,13.2751-1.1063Z" style="fill:#080909; stroke-width:0px;"/><path d="m250.5538,211.3637c.0472.0624.3577.1701,1.1063,1.1063,8.1625,10.2076,19.5518,21.9307,32.0814,25.4439q8.0204,1.6594,16.0407,3.3188,13.2751,7.1907,26.5502,14.3813c-7.276,2.0691-14.0513.5432-21.572,2.2125-8.0187,1.7799-3.4363.401,4.425,2.2125-4.6771,2.937,15.1311,13.7569,15.4876,10.5094-1.6021-1.1161-2.0775-2.6511-2.2125-2.7656-3.8443-5.293,17.9767-1.7562,24.8908,1.1063,10.5196,4.3551,34.8465,30.2016,44.2503,36.5065,24.8055,16.6311,49.9361,8.1496,72.4598-8.8501,5.8594,7.5744,4.3205,4.69,7.7438,3.3188-39.1733,72.6696-101.8862,1.5122-120.0288-4.425-8.3902-2.7457-17.4534-.603-22.1251-3.3188-8.8698-5.1562,1.4359-5.7255-.5531-10.5094-3.8967-9.3723-34.4686-11.3531-43.144-11.6157.1077-1.0015-1.14-1.1578-1.1063-2.2125.0032-.0997,1.8399-.1188,1.1063-1.6594-1.1726-2.4623-18.1234-13.1205-26.5502-26.5502-2.419-3.8551-16.3336-32.126-8.8501-28.2095Z" style="fill:#811525; stroke-width:0px;"/><path d="m260.5101,156.0508c1.834,2.5495.1875,4.9263,2.7656,6.6375,1.2813,1.1352,4.7942.9297,4.9782,1.1063,3.049,2.9261,27.0476,23.1404,26.5502,24.8908-1.1673,4.1068-15.9877-4.3974-4.425,9.4032,8.3425,21.9037-2.5319,31.062-21.0189,16.5938-6.8517-5.3623-17.2816-21.3431-14.3813-30.4221-1.2145-2.1851-2.4935-.5634-6.6375-.5531,1.8807-7.7183,1.4827-14.1458-1.6594-21.0189-1.3108.6795-3.6178,4.2771-3.8719,4.425-19.2793,11.2251-19.3325-3.2793-3.3188-11.6157l-17.7001-2.7656c4.9233-2.8145,8.8665-2.2356,15.4876-9.9563,15.0966,2.4719,12.4628,4.6294,23.2314,13.2751Z" style="fill:#ee8773; stroke-width:0px;"/><path d="m752.7942,247.8701c-.6122,3.7144,3.2392,7.3301,3.3188,7.7438.8761,4.5529.1575,17.216-2.2125,21.572-1.0817,1.9881-30.7882,23.7303-35.4002,28.2095-6.7631,2.8777-12.5824,7.3349-18.8064,11.0626-18.2963,10.9582-15.0792,14.352-38.719,17.7001-1.4528-6.5142-5.4652-17.8715-8.8501-23.2314,1.7101-.2684,3.0556.1392,4.425,1.1063,7.3831,5.214,11.3416,7.7068,19.9126,1.1063,1.653-1.273.9048-2.6969,3.3188-2.2125,4.6951,1.8291,5.0728,4.81,8.2969,4.425,7.6439-4.8835,28.153-18.3724,27.1033-28.2095-.2201-2.0627-6.5026-7.739-3.3188-8.2969,1.8028,1.6402,10.2874,10.0817,11.6157,9.9563,2.0594-.1943,13.1328-19.3517,13.2751-23.2314,10.9183,18.7427,14.921-.9578,13.8282-18.2532q1.1063.2766,2.2125.5531Z" style="fill:#080909; stroke-width:0px;"/><path d="m768.2818,224.6387c2.6355,16.9722-11.014,45.1081-11.0626,30.9752-.0063-1.8512,10.5008-21.5658,8.8501-35.4002,2.9077,1.5901,1.8148,1.8639,2.2125,4.425Z" style="fill:#080909; stroke-width:0px;"/><path d="m481.7614,240.1263c-.1197,1.3486.9588,1.0077,1.1063,1.1063,1.8427,11.7971,1.4366,23.6021,0,35.4002-5.1234-9.123-.4021-17.6253-8.8501-17.7001-1.129-.01-8.3733,6.8222-10.5094,7.7438-14.5685-5.2814-23.8278,5.8845-29.3158-1.1063.7645-1.9147,1.676-7.8795.5531-9.9563-.8989-.5506-5.7915,12.9945-11.0626,15.4876-1.1538.5457-19.717,1.4081-6.6375,4.425.9782.2256,5.0167.2133,6.0844,0,.9772-.6731.2297,2.7411,0,7.7438-31.4308-.9033-44.7752-44.0525-64.1629-17.7001-1.2117-.4876-4.9925-1.6934-6.6375-2.2125,2.436-15.4282-.7568-36.4172-6.6375-50.8878,9.0612,2.7924,14.9445,19.7603,19.3595,21.0189,7.3321,2.0901,7.2595-5.5471,14.3813-4.425,1.7228.2714,16.4696,12.5962,28.7627,12.1688,3.05-.106,13.2719-4.6063,15.4876-4.425,7.2704.5948-4.3784,10.6364,58.0785,3.3188Z" style="fill:#ee8773; stroke-width:0px;"/><path d="m522.6928,367.3458c-1.216,2.1875-2.5176,5.1312-5.5313,5.5313-6.0506.8033-19.6506-13.5951-18.8064-9.4032,4.0601,6.5744,10.7838,12.0249,18.8064,12.7219-.3442,5.0304-3.7814,32.3808-4.425,35.4002-3.6673.5068-1.0799-2.8077-3.3188-6.6375-4.634-7.927-4.1227-2.98-8.8501-3.3188,1.9004-15.8515-13.1338-33.8493-24.3376-44.2503,9.8994-7.4884,22.9802,7.4748,7.7438-10.5094,16.8035-8.1107,18.673,2.1023,29.8689-13.8282.372-.5293.788-1.5799,1.1063-2.2125.1321-.2626,3.8851-2.6729,4.425-3.8719-5.9515-27.4958.5986-30.5643,2.2125-44.2503,1.3647-11.5732,2.3808-33.7514-9.9563-38.1658-2.7137-6.318-14.7923-14.208-2.7656-16.5938,26.1013-5.1781,43.8074,85.9871,18.2532,116.7101.0654,6.2189-1.4954,17.4083-4.425,22.6783Z" style="fill:#dd5f61; stroke-width:0px;"/><path d="m675.3562,418.2336c-.145,11.6507-7.919,45.6243,1.1063,51.9941-.8965,1.0895-1.5104,2.4931-2.7656,3.3188-1.0074-1.5597-3.715-3.1178-3.8719-3.3188-1.789-2.2924-1.896-7.3143-6.6375-15.4876-14.546-25.0736-34.1415-15.409-27.6564-38.1658.1669-.5857,4.0662-3.3455,7.7438-9.4032,4.4581-7.3433,20.3852-21.6631-2.2125-36.5065-.6379-3.5516-5.3717-9.2527-3.3188-13.2751,1.4268,2.4333,11.1275,15.186,12.7219,15.4876,7.4805,1.4147,6.767-18.2758,11.6157-14.9345,8.1486,22.7282,13.5814,35.6834,13.2751,60.291Z" style="fill:#a5293b; stroke-width:0px;"/><path d="m482.8676,276.6328c-.4477,3.6765-1.4163,7.4413-2.2125,11.0626-4.7758-9.1437-12.0353,5.4095-16.5938,8.8501-22.5237,16.9997-47.6543,25.4811-72.4598,8.8501-9.4038-6.3048-33.7307-32.1513-44.2503-36.5065-6.9141-2.8624-28.7351-6.3992-24.8908-1.1063-2.69-2.2828-15.9289-3.6769-9.9563-6.6375,8.5449,1.4185,17.5679,1.2985,25.997,3.3188,33.3472,7.9925,52.5981,32.7485,84.0755,28.7627,3.5959-.4553,16.8335-6.2336,22.1251-7.7438,7.6031-2.1699,28.7523,2.171,29.3158-22.1251.0342-1.4737-.022-2.9508,0-4.425,8.448.0748,3.7267,8.5771,8.8501,17.7001Z" style="fill:#cd4a54; stroke-width:0px;"/><path d="m345.6918,212.4699c5.8808,14.4706,9.0735,35.4596,6.6375,50.8878-6.0474-1.9083-12.5148-3.6462-18.8064-4.425,3.8979-18.461-19.2461-15.8179-29.8689-29.8689,3.1071-2.9094,8.3385-13.8032,15.4876-17.147q-.8297-.8297-1.6594-1.6594c-9.2228,4.6805-13.1417,14.2956-21.572,19.9126-10.5421-2.2164-19.6626-6.551-28.7627-12.1688q1.1063-1.6594,2.2125-3.3188c18.487,14.4682,29.3614,5.3099,21.0189-16.5938,4.5627,5.4458,15.4121,11.7893,22.1251,7.1907-17.1628-3.0526,2.6771-8.4439,13.8282,7.1907,6.7884-.7585,12.4589-2.1266,19.3595,0Z" style="fill:#dd5f61; stroke-width:0px;"/><path d="m708.5439,190.3448c.2768,1.3486,2.8602,1.098,4.425,4.425.2824.6003-3.2088,1.2589,4.9782,11.0626,14.5169-2.1746,26.283,4.2268,40.3784,4.425,3.9258,9.2221,7.3507,39.6941-5.5313,37.6127q-1.1063-.2766-2.2125-.5531c1.0928,17.2954-2.9099,36.9959-13.8282,18.2532-.1423,3.8797-11.2157,23.037-13.2751,23.2314-1.3283.1254-9.8129-8.3161-11.6157-9.9563-.5263-.4788-11.8714-3.3388,1.1063-7.7438,10.6054,7.7589,13.8672,6.2265,6.6375-4.425q.5531-1.6594,1.1063-3.3188c13.7546,7.0953,1.3268-5.7897,6.0844-7.7438,25.5301,3.2506,1.4514-6.5659,17.147-23.2314,15.7236,8.9322,17.7568,1.3493-4.425-5.5313-12.1644-10.2847-10.7389-13.1795-11.6157-13.2751-3.64-.3966,5.8836,12.0167-14.9345,9.9563,21.3192-10.7475,6.0166-9.5238.5531-14.3813-8.7091-7.7433-14.4793-15.3381-4.9782-18.8064Z" style="fill:#bc3f50; stroke-width:0px;"/><path d="m537.0742,416.0211c-2.1029,13.9902-4.9493,27.5272-9.9563,40.9315-3.0053-2.9499-9.1494,11.2424-15.4876,19.3595-5.1328,6.5735-14.9532,11.132-13.2751,18.2532-2.6393,1.7786-9.0672,9.7053-14.3813,7.7438,8.1392-11.2903,6.225-29.3795,7.7438-38.719,1.5226-9.3626,3.5777.243,11.6157,4.425.3066-.1656-1.2815-5.8915-1.6594-6.6375,4.7637-5.6978,9.6186-11.7885,13.2751-18.2532,20.0091-35.3765,15.4288-47.0241,18.8064-69.141,11.7889-2.5259,5.0387,30.596,3.3188,42.0377Z" style="fill:#dd5f61; stroke-width:0px;"/><path d="m541.4992,347.4332c-2.2962,2.9754.0271,3.2851,0,4.425-4.0294,7.1476-6.53,14.1769-7.7438,22.1251-3.3776,22.1169,1.2027,33.7645-18.8064,69.141-3.6564,6.4647-8.5114,12.5555-13.2751,18.2532-.3363-.6639-8.7667-9.9893-9.9563-11.0626,12.2417-11.0178,17.6983-23.1403,21.0189-38.719.6436-3.0195,4.0808-30.3698,4.425-35.4002.0113-.1656,2.4162.2113,0-3.3188,3.0137-.4001,4.3152-3.3438,5.5313-5.5313,8.801-4.5555,3.9845-31.5672,18.8064-19.9126Z" style="fill:#bc3f50; stroke-width:0px;"/><path d="m739.5191,226.8513c.8208.694,4.0428,5.3142,4.425,5.5313-15.6956,16.6655,8.3831,26.482-17.147,23.2314-4.7576,1.9541,7.6702,14.8391-6.0844,7.7438-6.0838-3.1383-11.2854-9.6629-14.3813-8.2969,2.7534,3.2596,11.4651,8.9491,13.2751,11.6157,7.2297,10.6515,3.9678,12.1839-6.6375,4.425-8.628-6.3122-8.8115-11.5239-29.8689-19.9126-2.9103-1.1594-6.3624-2.4096-8.8501-4.425,13.4894-5.9615,27.2003,6.8814,34.294-1.6594.2573-.3098.6538-6.3788,2.7656-7.1907,4.3321-1.6654,27.5064,12.1615,12.1688-2.2125-1.5228-1.4271-16.5295-9.6845-16.0407-10.5094,2.068-.693,3.3602-.5649,5.5313-1.6594,20.8181,2.0604,11.2944-10.3529,14.9345-9.9563.8768.0955-.5487,2.9904,11.6157,13.2751Z" style="fill:#ee8773; stroke-width:0px;"/><path d="m492.8239,237.9138q3.8719,9.6797,7.7438,19.3595c.9225,11.9088,1.3985,35.243,5.5313,38.1658-.5392,2.6622-2.8288,8.0071-4.425,10.5094v3.3188c1.534,2.2757,3.2213,1.5015,3.3188,1.6594,3.8703,6.2731,12.0486,13.7203,8.8501,19.9126-13.7613,5.7229-23.933-3.2867-8.2969-2.2125,5.0572-2.2413-3.033-19.5485-11.6157-18.8064-4.6977.4062-5.4642,2.801-6.6375,3.3188-2.1472-6.684,1.5045-13.4913,2.2125-19.9126,1.7475-15.848,8.9303-41.5877-6.6375-51.9941-.1475-.0986-1.226.2424-1.1063-1.1063,2.9263-.3429,6.5543-1.6248,11.0626-2.2125Z" style="fill:#e7ee70; stroke-width:0px;"/><path d="m476.2301,357.3895c11.2039,10.401,26.238,28.3988,24.3376,44.2503-11.2676-.8074-23.454-3.6349-33.1877-10.5094,5.9762-17.2195,2.8644-28.0396,4.425-35.9533,1.6144-.1838,3.3857,1.2477,4.425,2.2125Z" style="fill:#a5293b; stroke-width:0px;"/><path d="m683.1,251.1889c-4.024-1.375-5.782,8.2722-3.3188,9.9563-2.707-.6804-9.3805-2.1609-11.0626.5531,33.5391,11.4046,14.2123,5.9163-3.8719,9.4032-5.3426,1.0301-18.5365,7.1111-22.6783,6.6375-2.6143-.2989-4.6312-2.7758-6.6375-4.425-2.137-1.7567-3.6712-5.5243-6.6375-6.6375,19.4932-15.3779,32.3028,2.2023,45.3565-19.9126,2.4877,2.0154,5.9397,3.2656,8.8501,4.425Z" style="fill:#dd5f61; stroke-width:0px;"/><path d="m714.0752,184.8135c17.6713,4.7559,18.2973,7.097,34.294,14.3813,1.3478,2.3016,5.9769,1.7146,9.9563,11.0626-14.0954-.1983-25.8614-6.5996-40.3784-4.425-8.1869-9.8036-4.6958-10.4623-4.9782-11.0626,6.0932.3723,2.0355-1.5577-3.3188-5.5313-.7304-.5421-3.0976-3.2401-3.3188-3.3188v-1.1063c2.0118.5209,5.776-.5296,7.7438,0Z" style="fill:#ee8773; stroke-width:0px;"/><path d="m663.1874,454.7401c4.7416,8.1733,4.8485,13.1952,6.6375,15.4876-22.7288,43.4033-6.3081-5.5448-23.7845-14.3813-2.4047-1.2159-12.7384-1.9476-13.8282-3.8719-9.027-15.9387,27.1392-2.2419,30.9752,2.7656Z" style="fill:#811525; stroke-width:0px;"/><path d="m514.949,330.8394h-1.1063c3.1985-6.1923-4.9797-13.6396-8.8501-19.9126,10.9785-22.5542,17.0612-42.1068,6.6375-66.3754,12.3371,4.4144,11.321,26.5927,9.9563,38.1658-1.6139,13.686-8.164,16.7544-2.2125,44.2503-.54,1.199-4.2929,3.6093-4.425,3.8719Z" style="fill:#bc3f50; stroke-width:0px;"/><path d="m506.099,295.4392c-4.1328-2.9228-4.6088-26.2571-5.5313-38.1658q-3.8719-9.6797-7.7438-19.3595c.4258-.0555,5.4886-2.9393,8.2969-2.2125,15.3476,12.7203,8.6183,41.7657,4.9782,59.7378Z" style="fill:#f2e6a9; stroke-width:0px;"/><path d="m680.8875,419.3399c-.2151,1.0055-.2657,2.2514,1.1063,2.2125-2.8122,6.2455.0204,7.3571,0,7.7438-.4714,8.9395-.5668,18.8026,1.1063,27.6564-.3346,1.2003-5.9842,12.4811-6.6375,13.2751-9.0253-6.3698-1.2513-40.3434-1.1063-51.9941q2.7656.5531,5.5313,1.1063Z" style="fill:#a5293b; stroke-width:0px;"/><path d="m635.531,275.5265c4.1487,1.3133,16.536,21.3077,21.0189,25.4439v11.0626c-1.3694-.9671-2.7149-1.3747-4.425-1.1063-1.9893-3.15-7.1774-6.4839-8.8501-8.8501-3.5879-5.0752-11.5715-16.6327-14.3813-19.9126h1.1063c4.6225-1.7637-.4531-8.532,5.5313-6.6375Z" style="fill:#cd4a54; stroke-width:0px;"/><path d="m628.8935,282.1641c2.8099,3.2799,10.7934,14.8374,14.3813,19.9126q-1.1063.5531-2.2125,1.1063c-6.4999-8.7608-15.4854-12.98-23.2314-19.9126-4.6429-4.1553-8.8303-6.9639-12.1688-9.9563-.0993-.089-.9989-2.1142-1.1063-2.2125-5.3411-24.2723,8.1245-7.8625,24.3376,11.0626Z" style="fill:#ee8773; stroke-width:0px;"/><path d="m513.8428,333.0519c-11.1959,15.9305-13.0654,5.7175-29.8689,13.8282,15.2364,17.9842,2.1556,3.0211-7.7438,10.5094-1.0393-.9648-2.8106-2.3963-4.425-2.2125q5.2547-11.6157,10.5094-23.2314c8.6979,7.1715,22.6962,8.1855,31.5283,1.1063Z" style="fill:#a5293b; stroke-width:0px;"/><path d="m643.2748,407.1711c-2.4941-12.0712-.0273-24.3392-2.2125-36.5065,22.5977,14.8434,6.6706,29.1632,2.2125,36.5065Z" style="fill:#811525; stroke-width:0px;"/><path d="m617.8309,283.2703c-15.1174,1.4008,10.9387,17.5384,7.7438,29.8689-4.1685-7.3284-17.9649-23.6289-24.3376-29.8689q2.2125-4.9782,4.425-9.9563c3.3386,2.9924,7.5259,5.801,12.1688,9.9563Z" style="fill:#bc3f50; stroke-width:0px;"/><path d="m527.1179,456.9526c-1.1754,3.1467-6.5241,15.5688-7.7438,17.7001-2.7026,4.7226-5.3397,9.5228-9.4032,13.2751-4.2303,1.4398-7.9686,4.1798-11.6157,6.6375-1.6782-7.1213,8.1422-11.6798,13.2751-18.2532,6.3382-8.1171,12.4823-22.3094,15.4876-19.3595Z" style="fill:#a5293b; stroke-width:0px;"/><path d="m480.6551,287.6954c-.8413,3.8262-2.1659,6.4067-3.3188,9.9563h-1.1063c-2.1709-.4108-2.7004,1.5217-4.425,2.2125-3.4233,1.3712-1.8844,4.2556-7.7438-3.3188,4.5586-3.4406,11.818-17.9938,16.5938-8.8501Z" style="fill:#a5293b; stroke-width:0px;"/><path d="m628.8935,266.6765c2.9663,1.1132,4.5005,4.8809,6.6375,6.6375v2.2125c-5.9844-1.8945-.9088,4.8739-5.5313,6.6375-4.6593-10.4072-10.6278-7.9762-1.1063-15.4876Z" style="fill:#dd5f61; stroke-width:0px;"/><path d="m712.969,194.7698c-1.5649-3.327-4.1483-3.0764-4.425-4.425.3968-.1448,1.2181.1937,1.1063-1.1063,5.3543,3.9736,9.412,5.9036,3.3188,5.5313Z" style="fill:#811525; stroke-width:0px;"/><path d="m304.7603,257.8264c9.3303,1.2542,19.5416-.0352,28.7627,1.1063,6.2916.7788,12.759,2.5167,18.8064,4.425,1.645.5191,5.4258,1.7249,6.6375,2.2125,15.8298,6.3699,32.9815,23.2708,50.8878,24.3376,12.6836.7557,20.3873-4.5769,31.5283-7.7438,14.1994-4.0363,22.6529,2.4387,32.6346-18.8064-.5635,24.2961-21.7127,19.9552-29.3158,22.1251-5.2916,1.5102-18.5292,7.2885-22.1251,7.7438-31.4774,3.9858-50.7282-20.7701-84.0755-28.7627-8.4291-2.0202-17.4521-1.9003-25.997-3.3188-2.1918-.3639-2.5015-.9179-3.3188-1.1063-7.8613-1.8115-12.4438-.4326-4.425-2.2125Z" style="fill:#190904; stroke-width:0px;"/><path d="m221.7911,152.7321l17.7001,2.7656c-16.0137,8.3364-15.9606,22.8408,3.3188,11.6157,1.5046,4.6292-12.2172,15.4257-2.2125,18.8064,11.0878,7.4978,2.3967,12.5352,17.7001,26.5502q-1.6594.5531-3.3188,1.1063c-.9211-.6747-2.0754-1.3247-3.3188-1.1063-.7486-.9362-1.0591-1.0439-1.1063-1.1063-16.9697-22.4483-2.4795-16.7241-23.2314-19.3595-1.3289-18.5554-18.2331-30.485-9.9563-38.1658,1.5839-1.4698,3.8168-.7586,4.425-1.1063Z" style="fill:#a5293b; stroke-width:0px;"/><path d="m333.523,258.9327c-9.221-1.1415-19.4323.1479-28.7627-1.1063,7.5207-1.6694,14.296-.1434,21.572-2.2125q-13.2751-7.1907-26.5502-14.3813-8.0204-1.6594-16.0407-3.3188c8.811,1.1431,13.8997-3.2198,19.9126-8.8501,10.6228,14.051,33.7669,11.4079,29.8689,29.8689Z" style="fill:#cd4a54; stroke-width:0px;"/><path d="m303.6541,229.0638c-6.0129,5.6302-11.1016,9.9932-19.9126,8.8501-12.5296-3.5132-23.9189-15.2363-32.0814-25.4439,1.2434-.2184,2.3976.4316,3.3188,1.1063,16.851,12.3421,25.1558,27.1051,40.9315,16.5938,8.4303-5.6171,12.3492-15.2321,21.572-19.9126q.8297.8297,1.6594,1.6594c-7.1491,3.3438-12.3805,14.2376-15.4876,17.147Z" style="fill:#1f0505; stroke-width:0px;"/><path d="m312.5041,261.1452c-5.9726,2.9607,7.2663,4.3547,9.9563,6.6375.135.1146.6105,1.6496,2.2125,2.7656-.3565,3.2475-20.1647-7.5725-15.4876-10.5094.8173.1883,1.127.7424,3.3188,1.1063Z" style="fill:#4c060c; stroke-width:0px;"/><path d="m681.9938,429.2962c.0204-.3867-2.8122-1.4983,0-7.7438,12.5825-9.2267.825-45.4602-6.6375-57.5253-2.4538-3.9673-7.3384-12.9963-12.7219-12.1688-3.6679,8.6615-1.3036-1.1213-2.7656-7.7438,22.2223,8.6884,42.9323,70.1956,22.1251,85.1817Z" style="fill:#080909; stroke-width:0px;"/><path d="m269.3601,214.6824q-1.1063,1.6594-2.2125,3.3188c-2.7038-1.6692-6.5547-3.4291-8.8501-5.5313-15.3034-14.015-6.6123-19.0524-17.7001-26.5502.6739-1.8088,5.385-2.2067,7.7438-2.2125,4.144-.0103,5.4231-1.6319,6.6375.5531-2.9003,9.079,7.5296,25.0598,14.3813,30.4221Z" style="fill:#bc3f50; stroke-width:0px;"/><path d="m248.3412,183.7072c-2.3588.0059-7.0699.4037-7.7438,2.2125-10.0047-3.3807,3.7171-14.1772,2.2125-18.8064.2541-.1479,2.5611-3.7455,3.8719-4.425,3.1421,6.8731,3.5401,13.3006,1.6594,21.0189Z" style="fill:#dd5f61; stroke-width:0px;"/><path d="m683.1,251.1889c21.0574,8.3887,21.2409,13.6004,29.8689,19.9126-12.9776,4.405-1.6325,7.265-1.1063,7.7438-3.1839.5579,3.0987,6.2342,3.3188,8.2969,1.0497,9.8372-19.4594,23.326-27.1033,28.2095-3.2241.3849-3.6018-2.596-8.2969-4.425-6.8721-2.6771-15.1884-5.0549-18.8064-12.1688,28.9367,18.5404,46.4858-1.1019,27.6564-26.5502,1.5759-.2378,3.365.16,4.9782,0,2.9638-2.0759-10.068-10.1174-13.8282-11.0626-2.4632-1.6841-.7053-11.3313,3.3188-9.9563Z" style="fill:#cd4a54; stroke-width:0px;"/><path d="m676.4625,313.1393c-8.5711,6.6006-12.5295,4.1077-19.9126-1.1063v-11.0626c5.9596,5.4987,12.7408,8.7002,19.9126,12.1688Z" style="fill:#a5293b; stroke-width:0px;"/><path d="m642.1685,277.739v1.1063c4.5207,7.8713,11.1175,14.9862,18.8064,19.9126,3.618,7.1139,11.9343,9.4917,18.8064,12.1688-2.4139-.4844-1.6657.9395-3.3188,2.2125-7.1718-3.4687-13.9531-6.6701-19.9126-12.1688-4.4829-4.1362-16.8701-24.1306-21.0189-25.4439v-2.2125c2.0064,1.6493,4.0232,4.1261,6.6375,4.425Z" style="fill:#4c060c; stroke-width:0px;"/><path d="m726.244,169.3259c1.0538-.1829,2.2385.1085,3.3188,0,1.1668,1.7918,10.4705,9.7308,15.4876,17.7001.3562.5658-2.6199,2.0274,3.3188,12.1688-15.9966-7.2844-16.6227-9.6254-34.294-14.3813l4.425-2.2125c6.2375,2.3551,11.859,5.803,18.2532,7.7438-2.2299-20.1715-19.085-14.0561-29.3158-17.7001-13.2607-4.7231,5.1724-.9528,18.8064-3.3188Z" style="fill:#080909; stroke-width:0px;"/><path d="m718.5002,182.601c-4.8153-1.8181-9.7382-3.2898-14.3813-5.5313q1.6594-2.2125,3.3188-4.425c10.2308,3.644,27.0859-2.4714,29.3158,17.7001-6.3942-1.9408-12.0158-5.3887-18.2532-7.7438Z" style="fill:#d2715e; stroke-width:0px;"/><path d="m724.0315,152.7321c.3622.796.5123,8.8865,5.5313,16.5938-1.0803.1085-2.265-.1829-3.3188,0-12.2383-44.0763-10.4975-9.1549-37.0596-33.1877-1.8883,24.6411,24.8083,13.4508,25.997,14.9345.2645.3302-.4393,7.7318-1.6594,8.2969-6.7674,3.1344-33.1148,1.5461-34.8471-8.2969-.6404-3.6392,4.5089-5.2345,2.7656-6.0844-5.4151-2.6401-18.8565,12.0302,22.6783,32.0814,4.6431,2.2415,9.566,3.7132,14.3813,5.5313l-4.425,2.2125c-1.9678-.5296-5.732.5209-7.7438,0-7.5838-1.9634-17.6954-6.2617-23.7845-11.0626-33.4612-26.3823-.4906-33.1642,1.6594-34.294,2.16-1.135,2.6513-14.9943,17.147,2.2125,4.1653.356-5.6896-7.8143,5.5313-5.5313,11.277,2.2944,12.9633,7.3991,17.147,16.5938Z" style="fill:#080909; stroke-width:0px;"/><path d="m726.244,169.3259c-13.6339,2.366-32.0671-1.4044-18.8064,3.3188q-1.6594,2.2125-3.3188,4.425c-41.5347-20.0513-28.0934-34.7215-22.6783-32.0814,1.7432.8499-3.4061,2.4452-2.7656,6.0844,1.7322,9.843,28.0797,11.4313,34.8471,8.2969,1.2201-.5651,1.9239-7.9668,1.6594-8.2969-1.1888-1.4837-27.8854,9.7067-25.997-14.9345,26.5621,24.0328,24.8213-10.8886,37.0596,33.1877Z" style="fill:#ba6c4c; stroke-width:0px;"/><path d="m705.7783,138.3507c3.0549-.7707,3.8747,5.9031.5531,1.6594-.6095-.7787-1.7858-1.3484-.5531-1.6594Z" style="fill:#bb9d92; stroke-width:0px;"/><path d="m206.3035,78.6129c-.8961,3.9969,2.1635,3.0141,4.425,5.5313-46.5581-7.9625-4.4602,3.2808-14.9345,8.8501-4.1379,2.2002-9.9162.6566-14.3813,1.1063-2.1595,6.5335-9.8852,4.7553-14.3813,8.8501,2.5078-19.9474-6.7878,6.7591-12.7219-1.1063.3244-6.8837,4.6114-8.3025,9.9563-11.0626-1.4546,3.8081,10.7489,1.0216,12.7219,0,9.6672-5.0054,2.9207-19.223,11.0626-19.9126,4.2009-.3558,6.8194,5.8732,8.8501,6.6375,4.0732,1.5331,8.6416.8185,9.4032,1.1063Z" style="fill:#9b5a3b; stroke-width:0px;"/><path d="m237.2787,142.7758c-6.6211,7.7207-10.5643,7.1418-15.4876,9.9563-.6082.3477-2.8412-.3636-4.425,1.1063-6.5665.1505.6072-8.0695,0-9.4032-.6496-1.4269.5871,10.8928-20.4657-19.3595-26.5861,3.5338-15.9218-15.7486-.5531-21.0189-6.132,18.1244,23.9664,2.1349,17.7001,38.1658,11.7311,2.2492.9882-34.5813-4.425-38.1658q2.7656-4.7016,5.5313-9.4032c.8483-5.327-1.1027-6.8115-4.425-10.5094-2.2616-2.5172-5.3211-1.5344-4.425-5.5313,22.7137,8.5821,18.9407,13.8399,17.7001,49.2284-.0697,1.9897,6.9531,5.6694-4.425,14.3813,6.8956-.8071,10.9072-.5591,17.7001.5531Z" style="fill:#904830; stroke-width:0px;"/><path d="m209.6223,104.0568c5.4133,3.5846,16.1561,40.4151,4.425,38.1658,6.2663-36.0309-23.8321-20.0415-17.7001-38.1658,3.5444-1.2154,10.2533-2.001,13.2751,0Z" style="fill:#ba6c4c; stroke-width:0px;"/><path d="m210.7285,84.1442c3.3223,3.6979,5.2733,5.1824,4.425,10.5094q-2.7656,4.7016-5.5313,9.4032c-3.0218-2.001-9.7307-1.2154-13.2751,0-15.3687,5.2703-26.033,24.5526.5531,21.0189,21.0528,30.2522,19.8161,17.9326,20.4657,19.3595.6072,1.3337-6.5665,9.5536,0,9.4032-8.2768,7.6808,8.6274,19.6104,9.9563,38.1658,20.7519,2.6354,6.2617-3.0888,23.2314,19.3595-7.4836-3.9165,6.4311,24.3545,8.8501,28.2095,8.4267,13.4296,25.3775,24.0878,26.5502,26.5502.7336,1.5405-1.103,1.5597-1.1063,1.6594-3.106-1.2053-7.8323-1.4552-9.9563-2.2125-16.72-5.962-35.2932-34.4337-44.2503-49.7815-14.9591-25.6325-13.1416-34.4175-15.4876-38.1658-3.1012-4.9548-10.7836-7.1289-11.0626-7.7438-1.141-2.5152,2.037-7.2964,2.2125-11.6157.3596-8.8482-11.6647-13.5856-17.7001-20.4657-10.9796-12.5163-12.5396-19.4544-13.2751-20.4657-9.8588-13.5577-21.7468-.04-21.0189-15.4876,5.9341,7.8653,15.2298-18.8411,12.7219,1.1063,4.4961-4.0947,12.2218-2.3165,14.3813-8.8501,4.4651-.4497,10.2434,1.0939,14.3813-1.1063,10.4742-5.5693-31.6236-16.8125,14.9345-8.8501Z" style="fill:#080909; stroke-width:0px;"/><path d="m233.4068,199.1948c4.8935.8232,7.5683,20.7697,9.9563,25.4439-1.5971.7565-25.258-28.0181-9.9563-25.4439Z" style="fill:#a5293b; stroke-width:0px;"/><path d="m195.2409,70.8691c1.7043,9.6104,21.6435,2.1774,28.7627,14.9345,5.1385,9.2078,4.693,33.2122,2.2125,44.2503,23.9259-12.6931,18.3295,2.4837,28.7627,16.0407,1.1412,2.9935,3.6936,7.4017,5.5313,9.9563-10.7686-8.6457-8.1347-10.8032-23.2314-13.2751-6.7929-1.1123-10.8045-1.3602-17.7001-.5531,11.3781-8.712,4.3553-12.3916,4.425-14.3813,1.2406-35.3886,5.0136-40.6464-17.7001-49.2284-.7616-.2878-5.3299.4269-9.4032-1.1063-2.0306-.7643-4.6491-6.9934-8.8501-6.6375-8.1419.6896-1.3954,14.9073-11.0626,19.9126-1.973,1.0216-14.1765,3.8081-12.7219,0,6.5785-3.3971,15.9021.2993,14.3813-14.9345,8.8262-9.8238,15.6577-4.8973,16.5938-4.9782Z" style="fill:#190904; stroke-width:0px;"/><path d="m236.7256,129.5007c9.7819-1.1079,17.9494,18.5686-1.6594,9.4032,12.1323-13.6665-5.7414,4.4204-8.8501,0,2.601-2.6043,6.6163-8.9623,10.5094-9.4032Z" style="fill:#fdbfa9; stroke-width:0px;"/><path d="m479.5488,490.1403c5.8864,9.8589,1.9448,11.2074,1.1063,13.2751q-10.5094,2.4891-21.0189,4.9782c6.515,4.5627,13.8071-2.0796,14.3813,3.8719-3.2786,3.7696-7.0606,7.0362-9.9563,11.0626-8.6663-.6345-52.6379-12.026-53.1003-16.0407-.3199-2.7774,8.6213-2.9803,3.8719-6.0844-11.2013-.3103-43.6411-20.2226-14.3813-18.8064,12.3894.5997,66.1267,30.5694,79.0973,7.7438Z" style="fill:#894d20; stroke-width:0px;"/><path d="m488.3989,404.9585v23.7845q-2.2125,1.3828-4.425,2.7656-9.4032.8297-18.8064,1.6594c26.0946-15.3298,7.4184-2.1668-13.8282-2.7656,23.8141-11.5185-3.0033-2.7884-13.2751-2.2125-6.5311-2.008,10.8406-28.2976,28.7627-19.9126,2.1226-17.8129,1.374-7.3737,21.572-3.3188Z" style="fill:#d87640; stroke-width:0px;"/><path d="m491.7177,450.3151c1.1896,1.0733,9.6201,10.3987,9.9563,11.0626.3779.7461,1.966,6.4719,1.6594,6.6375-8.038-4.182-10.0931-13.7876-11.6157-4.425-2.5495-8.0931-10.5603-22.8025,0-13.2751Z" style="fill:#080909; stroke-width:0px;"/><path d="m480.6551,503.4154c-1.4774,3.6429-4.1501,5.9901-6.6375,8.8501-.5743-5.9515-7.8663.6908-14.3813-3.8719q10.5094-2.4891,21.0189-4.9782Z" style="fill:#2f1204; stroke-width:0px;"/><path d="m465.1675,359.602c-8.9228,20.7054-6.179,28.4152-29.8689,40.3784q-4.9782,14.3813-9.9563,28.7627c11.4177,8.346,26.2731,6.0281,31.5283,7.1907,3.8025.8412,15.2606,15.0543,34.294,0-22.1532,2.5886-30.216,4.7515-7.1907-4.425q2.2125-1.3828,4.425-2.7656v-23.7845c9.9803,2.0037,15.4056-.4898,16.0407,0,.8434.6505-1.3268,22.8166,4.9782,0,2.2388,3.8298-.3485,7.1443,3.3188,6.6375-3.3205,15.5787-8.7772,27.7012-21.0189,38.719-10.5603-9.5274-2.5495,5.1819,0,13.2751-1.5188,9.3395.3954,27.4287-7.7438,38.719-8.8611,21.0917-9.32,21.7943-19.9126,21.0189,2.8958-4.0264,6.6777-7.293,9.9563-11.0626,2.4874-2.86,5.1601-5.2071,6.6375-8.8501.8386-2.0676,4.7802-3.4162-1.1063-13.2751.6863-5.4089-6.836,5.0818-7.7438.5531,3.9692-8.0801-4.1886-17.2082-5.5313-14.3813,9.2567,29.3139-47.6418,1.0556-59.1847-2.7656-17.1155-5.6661-29.5822,5.0932-21.572-22.6783,2.0481-7.1007,15.0321-37.2639,20.4657-40.3784,8.4053-4.8179,22.8033-.155,3.8719-7.1907,20.5156-18.6614,30.3411-2.559,53.1003-43.6971h2.2125Z" style="fill:#ee8550; stroke-width:0px;"/><path d="m399.3452,445.89q11.3391,5.2547,22.6783,10.5094c-8.3046-1.1208-17.236-3.5675-22.6783-10.5094Z" style="fill:#904830; stroke-width:0px;"/><path d="m543.7117,383.9397c-.0174,4.6999.3733,9.7382,0,14.3813-4.3594-.0647-1.2979,16.5304-6.6375,17.7001,1.7199-11.4418,8.4701-44.5636-3.3188-42.0377,1.2138-7.9482,3.7144-14.9775,7.7438-22.1251-.1815,7.6386,2.2517,21.4965,2.2125,32.0814Z" style="fill:#080909; stroke-width:0px;"/><path d="m423.1298,283.2703c-.0063.1381,2.826-.641,2.2125,1.6594-1.4269,5.3505-18.3771-.3516-15.4876,4.9782-17.9063-1.0669-35.058-17.9678-50.8878-24.3376,19.3877-26.3524,32.7321,16.7968,64.1629,17.7001Z" style="fill:#dd5f61; stroke-width:0px;"/><path d="m474.0176,258.9327c-.022,1.4742.0342,2.9514,0,4.425-9.9817,21.2451-18.4351,14.77-32.6346,18.8064-11.141,3.1669-18.8447,8.4995-31.5283,7.7438-2.8895-5.3297,14.0606.3724,15.4876-4.9782.6135-2.3004-2.2189-1.5213-2.2125-1.6594.2297-5.0027.9772-8.4169,0-7.7438,1.9553-.3907,10.2354-7.8845,11.0626-9.9563,5.488,6.9907,14.7473-4.1751,29.3158,1.1063,2.1361-.9216,9.3804-7.7538,10.5094-7.7438Z" style="fill:#dd5f61; stroke-width:0px;"/><path d="m434.1923,265.5702c-.8272,2.0718-9.1072,9.5656-11.0626,9.9563-1.0677.2133-5.1062.2256-6.0844,0-13.0795-3.0169,5.4837-3.8793,6.6375-4.425,5.2711-2.4931,10.1636-16.0382,11.0626-15.4876,1.1228,2.0768.2113,8.0416-.5531,9.9563Z" style="fill:#190904; stroke-width:0px;"/><path d="m517.1616,372.8771c2.4162,3.5301.0113,3.1532,0,3.3188-8.0226-.6971-14.7462-6.1475-18.8064-12.7219-.8443-4.1919,12.7558,10.2064,18.8064,9.4032Z" style="fill:#190904; stroke-width:0px;"/><path d="m267.1476,218.0012c9.1,5.6178,18.2206,9.9524,28.7627,12.1688-15.7757,10.5113-24.0805-4.2517-40.9315-16.5938q1.6594-.5531,3.3188-1.1063c2.2954,2.1021,6.1463,3.8621,8.8501,5.5313Z" style="fill:#bc3f50; stroke-width:0px;"/><path d="m681.9938,421.5524c-1.3719.0389-1.3214-1.207-1.1063-2.2125,1.6617-7.7683,2.2931-21.5708,1.1063-29.3158-2.3419-15.2816-12.9421-9.9793-6.6375-25.997,7.4625,12.0652,19.2201,48.2987,6.6375,57.5253Z" style="fill:#f7dfd3; stroke-width:0px;"/><path d="m617.8309,283.2703c7.746,6.9326,16.7315,11.1518,23.2314,19.9126,1.1206,1.5103,17.1138,31.4008,17.7001,33.1877.1856.5658.4193,4.6322,1.1063,7.7438,1.4621,6.6225-.9022,16.4053,2.7656,7.7438,5.3835-.8275,10.2681,8.2015,12.7219,12.1688-6.3046,16.0178,4.2957,10.7154,6.6375,25.997,1.1869,7.745.5554,21.5475-1.1063,29.3158q-2.7656-.5531-5.5313-1.1063c.3063-24.6076-5.1264-37.5628-13.2751-60.291-4.8487-3.3413-4.1352,16.3492-11.6157,14.9345-1.5945-.3015-11.2952-13.0543-12.7219-15.4876-1.272-2.1693-3.2923-3.7822-4.425-6.0844,6.6724-9.1502-2.0718-28.1942-7.7438-38.1658,3.1949-12.3305-22.8612-28.4681-7.7438-29.8689Z" style="fill:#cd4a54; stroke-width:0px;"/><path d="m643.2748,302.0767c1.6727,2.3661,6.8608,5.7001,8.8501,8.8501,3.3849,5.3598,7.3973,16.7172,8.8501,23.2314-1.0031.1421-2.1131,1.1657-2.2125,2.2125-.5863-1.7869-16.5795-31.6774-17.7001-33.1877q1.1063-.5531,2.2125-1.1063Z" style="fill:#f0b893; stroke-width:0px;"/><path d="m633.8716,309.8205c4.2832-2.2642,19.4909,27.6813,16.5938,28.7627-7.7672-8.3073-13.028-17.9661-16.5938-28.7627Z" style="fill:#f7dfd3; stroke-width:0px;"/><path d="m743.9441,232.3825c-.3822-.2171-3.6042-4.8373-4.425-5.5313,22.1818,6.8806,20.1487,14.4635,4.425,5.5313Z" style="fill:#190904; stroke-width:0px;"/><path d="m720.7128,263.3577q-.5531,1.6594-1.1063,3.3188c-1.81-2.6666-10.5217-8.3561-13.2751-11.6157,3.0959-1.366,8.2975,5.1586,14.3813,8.2969Z" style="fill:#4c060c; stroke-width:0px;"/><path d="m679.7813,261.1452c3.7602.9452,16.792,8.9866,13.8282,11.0626-1.6131.16-3.4023-.2378-4.9782,0-15.4567,2.3327-30.8615,5.3302-46.4628,6.6375v-1.1063c4.1417.4735,17.3356-5.6074,22.6783-6.6375,18.0842-3.4869,37.411,2.0014,3.8719-9.4032,1.6821-2.714,8.3556-1.2335,11.0626-.5531Z" style="fill:#190904; stroke-width:0px;"/><path d="m597.9183,188.1323c-1.0936,9.7596-12.2475-.6614,4.425,17.147.2261,15.7382,15.5553,27.1726,4.425,28.7627,2.543,7.9511,10.9922,24.1315,20.4657,25.997,2.9943.5897,5.6438-1.5482,8.2969-2.2125,3.4614-.8667,10.4978-6.0425,24.8908-4.425,9.4261-22.0396,42.2349-2.957,43.6971-22.6783.283-3.8179-2.8118-7.023-6.6375-7.1907.1593-.6864-1.8902-1.964-1.1063-3.8719,1.2506-3.0434,9.1715-2.942,7.7438-12.1688-.2468-1.595-18.3873-28.8999,2.2125-21.572.2211.0786,2.5883,2.7767,3.3188,3.3188.1118,1.3-.7094.9614-1.1063,1.1063-9.5012,3.4683-3.731,11.0631,4.9782,18.8064,5.4635,4.8576,20.7661,3.6338-.5531,14.3813-2.1711,1.0945-3.4633.9663-5.5313,1.6594-.4888.8249,14.5179,9.0823,16.0407,10.5094,15.3376,14.3741-7.8368.5471-12.1688,2.2125-2.1118.8119-2.5084,6.8809-2.7656,7.1907-7.0936,8.5407-20.8046-4.3022-34.294,1.6594-13.0537,22.115-25.8633,4.5348-45.3565,19.9126-9.5215,7.5114-3.553,5.0804,1.1063,15.4876h-1.1063c-16.2132-18.925-29.6788-35.3348-24.3376-11.0626-5.7858-5.2998-5.6537-13.749-16.0407-7.7438-12.6517,7.3144,6.8275,14.1409,12.7219,19.9126,6.3728,6.24,20.1691,22.5405,24.3376,29.8689,5.672,9.9717,14.4162,29.0157,7.7438,38.1658,1.1327,2.3022,3.1531,3.9151,4.425,6.0844-2.053,4.0224,2.6809,9.7235,3.3188,13.2751,2.1852,12.1672-.2816,24.4352,2.2125,36.5065-3.6776,6.0577-7.5769,8.8174-7.7438,9.4032-6.4851,22.7569,13.1104,13.0922,27.6564,38.1658-3.836-5.0075-40.0021-18.7044-30.9752-2.7656,1.0898,1.9243,11.4235,2.656,13.8282,3.8719,17.4764,8.8366,1.0558,57.7847,23.7845,14.3813.1569.201,2.8645,1.7591,3.8719,3.3188,1.2553-.8257,1.8692-2.2293,2.7656-3.3188.6533-.794,6.3029-12.0748,6.6375-13.2751,1.7227-6.179.5405-13.9555,2.2125-20.4657,3.5306-1.5604,3.0303,2.0457,3.3188,3.8719,1.7225,10.9019-6.6945,25.5481-7.7438,29.3158-.2452.8802,1.5698,16.2268-3.8719,17.147-6.2787,1.0617,3.7859-13.7587-17.147,7.1907,1.4812,7.5154-.2194,12.0383-5.5313,17.147-.2325.2236-1.1289-.7719-5.5313,3.3188-1.7433,1.6199-4.9353,5.0779-5.5313,5.5313-1.2054.9171-3.3848.9438-3.3188,2.2125-4.016,2.6862-6.2605,5.3204-6.6375,5.5313-3.4114,1.9081-28.1319,10.2788-30.9752,9.9563q-1.9359-7.7438-3.8719-15.4876c-1.2869,2.4859.0633,13.5618.5531,14.3813-11.1219,6.7497-15.0738-1.0961-24.3376,11.0626-.4408.5786-1.6428-1.8804-2.2125-.5531-.3086.719-2.4779,16.0984,1.1063,13.8282.092,8.4907,4.0108,16.2429,9.9563,22.1251-1.13.4587-2.1986,1.1511-3.3188,1.6594,4.0391,2.3469,3.1598,3.6267,3.3188,3.8719-21.3888-6.0759-12.0155-26.402-17.147-28.7627-35.5616,1.8956-54.0416,22.8841-94.0318,18.8064-4.5937,2.0231-17.2148,26.2134-18.8064,26.5502-.4418.0934-6.5116-3.404-7.7438-3.3188-7.7859.5388-23.7601,44.3451-29.3158,52.5472-5.8905,8.6964-21.3279-.2061,9.9563,37.6127-1.6868-.8219-18.0873-14.2588-18.8064-8.8501q6.361,13.5516,12.7219,27.1033c-36.2171-36.6623-11.6352-5.7755-.5531,14.9345-13.5144-5.1998-28.9127-10.1924-35.4002-23.7845,1.0258-2.2955,2.2096-3.6489,2.2125-3.8719.0031-.2445-1.6234-1.1837-2.2125-2.7656-2.5182-6.7625-14.5163-22.0974-22.1251-23.2314-13.5173-2.0146-28.7506,7.4769-28.7627,22.1251-.0022,2.6338-2.5787,3.2786.5531,5.5313,24.5193-5.0773,4.6863,29.141,25.4439,3.3188,10.285,33.3481,2.1751,2.0759,11.6157-2.2125,1.9481.8868,4.5373,1.6251,6.6375,2.2125-.6286,2.0422-1.0559,5.5257-1.1063,7.7438,4.6121,32.8692,2.1193,40.1626,13.2751,10.5094h2.2125c-9.8856,47.4354,2.4328,16.1322,6.0844,18.2532,2.0136,3.8963-6.1262,12.796-2.2125,14.3813,65.3714,9.3561,89.4802-124.6231,117.2632-146.0259,18.2024-14.0223,56.0572-11.0855,76.8848-4.9782.5346-2.2552-1.015-2.862-1.1063-3.8719,1.9694-1.0362.105-1.7494,3.3188-2.2125,5.9656-.8596,9.9732-2.1837,10.5094-2.2125,29.7889-1.5966,99.3817,48.6552,105.0944,47.569,2.3783-.4522,1.0939-14.7579,26.5502-8.8501-6.8003,3.9818-9.7814-.2641-13.8282,7.7438-.5113,1.0119-2.5197,3.9807-2.2125,4.9782.8782,2.8515,23.8325,12.8204,28.7627,13.2751-14.7505,14.0205-9.8876,9.2003,8.8501,2.7656,7.4619,5.1447,15.7517,8.3088,24.3376,11.0626,8.0613,2.5855,9.8861,5.1484,18.8064,3.3188,1.0112-.2074,2.2495-.2701,2.2125,1.1063-3.0553,13.3186,20.6838-6.0951,2.2125-29.8689q4.9782.5531,9.9563,1.1063c2.8947,5.9311,4.7973,14.4757,4.425,21.0189-1.6752,29.446-38.3837,37.9958-41.4846,39.8252-8.3776,4.9424-16.2467,11.823-24.8908,16.5938-4.8123,2.6561-23.9166,12.0848-25.997,9.9563-3.2248,5.3937-9.7507,8.199-14.9345,11.0626-7.65,4.226-17.1563,7.7879-24.3376,12.1688-7.0888-14.8471-12.9504,3.3589-9.4032-16.5938-1.8191-.6193-2.4433,6.5391-7.1907,7.7438-.699-1.7919-.7566-4.3437-1.1063-5.5313-3.9643-13.4664-6.1667-.3743-15.4876-18.2532-.7461-1.4311-2.9408-2.6565-4.425-3.3188,11.9546-11.9224,45.6037-24.8276,29.8689-24.8908,8.7958-6.0292,17.5145-12.0372,26.5502-17.7001,6.8862-4.3158,14.7909-7.2574,21.0189-12.7219-.1045-2.2239-16.4631-4.2273-18.8064-4.9782-9.6605-3.0955-19.25-7.457-28.7627-11.0626-43.7699-16.5901-77.0523-39.8387-123.9007-17.7001-6.1726-.0803-23.1987.6263-15.4876,8.8501-2.118.5392-29.9973,22.5313-34.294,27.1033-7.843,8.3457-24.1121,33.2618-34.294,45.9096-9.5089,11.8119-28.7139,38.2587-36.5065,45.3565-1.0473.9539-2.0913,2.1135-2.2125,2.2125-22.2115,18.1397-33.4606,8.5482-54.2066-1.1063-6.6973-3.1167-21.3613-9.5038-26.5502-13.2751-13.9729-10.1554-22.0382-27.56-33.7408-39.8252-22.811,30.1279-25.7519,100.4797-63.0566,70.8004-15.3064-12.1777-14.0458-36.515-10.5094-53.6534,2.1909-10.6181,28.7769-69.5886,35.4002-77.438,8.4041-9.9599,19.0289-15.0632,32.0814-11.6157,1.1817.3121,2.9834,1.5678,4.425,2.2125,2.3229,1.0389,4.9575,5.4705,10.5094,6.6375,2.2518,2.1672,3.7855,3.5905,4.9782,6.6375.3603.9204-1.0927,6.7142,3.3188,13.8282-6.6998,6.8564-14.7797,16.0228-12.1688,26.5502,2.1628-8.4357,7.5495-25.0476,17.7001-27.1033,16.1763-3.276,35.0862,7.7942,47.0159,17.7001.6685.5551,9.5987,14.6443,10.5094,1.6594.0347-.4947-2.2053-2.5887-2.2125-2.7656-.0553-1.3514-1.7476-4.895-1.1063-12.1688.0154-.1743.2374.9587,1.1063-3.3188.3343-1.6457,3.7918-13.5036,4.9782-13.2751.9351,40.7351,3.9347,2.6692,12.7219-19.3595,4.6536-11.6661,16.0418-27.4213,19.9126-35.4002.723-1.4903-1.8947-2.5638,0-6.6375,2.4968-5.3684,20.0769-25.1197,1.1063-16.0407-2.6981-3.8265.0973-6.0342,0-6.6375,31.6174-15.8858,33.5843,5.0959,18.8064-17.147q6.6375-7.1907,13.2751-14.3813c-.978-1.4536-26.7466-4.7981-34.294-7.1907-6.2727-1.9885-14.2434-5.4607-19.9126-8.8501-7.2037-4.3068-10.7135-6.5257-14.9345-14.3813-9.2653-2.9031-25.7033-12.7456-25.997-23.2314,3.9155.6951,7.7129-19.6511,5.5313-23.2314,7.6941-37.3127,15.4943-46.791,39.8252-76.8848-15.3345,12.1525-32.2607,23.9874-45.3565,38.1658q-1.9359,1.6594-3.8719,3.3188c-.9325-1.4807-1.7623-.9379-2.7656-1.1063.6859-18.3271,10.7787-29.8662,25.4439-39.8252,3.9081-2.654,22.8788-10.6771,30.9752-17.7001h1.1063c2.9695-2.1413.1462-7.6455,0-8.8501-3.0042-24.7513-6.4171-17.0892-9.9563-18.8064-8.7858-4.2627-24.2177-9.0594-30.9752-13.2751-7.0905-4.4234-33.571-36.0012-24.8908-12.1688-17.0068-10.9892-27.5297-9.5448-42.5909-26.5502-6.6618-9.4819-17.7878-9.5589-18.8064-9.9563-6.1995-2.4191-29.1411-8.3579-8.8501-7.7438,8.6754.2626,39.2473,2.2434,43.144,11.6157,1.989,4.784-8.3167,5.3532.5531,10.5094,4.6717,2.7158,13.7349.5731,22.1251,3.3188,18.1427,5.9372,80.8555,77.0946,120.0288,4.425,1.7246-.6908,2.2541-2.6233,4.425-2.2125-1.4508,4.2508-3.5336,8.1683-5.5313,12.1688-4.6083,9.2282-16.5662,30.6801-18.8064,37.0596-8.7154,24.8194,9.811-9.9922,19.9126-35.9533,1.7703-4.5497,3.9699-8.4677,5.5313-13.2751,1.1529-3.5497,2.4775-6.1301,3.3188-9.9563.7962-3.6213,1.7649-7.3861,2.2125-11.0626,1.4366-11.7981,1.8427-23.6031,0-35.4002,15.5678,10.4063,8.385,36.1461,6.6375,51.9941-.235-11.0685-8.6805,17.9898-8.8501,19.3595-.5708,4.6112-.455,3.6831,6.6375.5531,3.4499,10.7392,25.2387,16.2425,6.6375-3.3188,8.5827-.7422,16.6728,16.5651,11.6157,18.8064-15.6361-1.0742-5.4644,7.9355,8.2969,2.2125h1.1063c-.3182.6326-.7342,1.6832-1.1063,2.2125-8.8321,7.0793-22.8304,6.0652-31.5283-1.1063q-5.2547,11.6157-10.5094,23.2314c-1.5606,7.9137,1.5511,18.7338-4.425,35.9533,9.7337,6.8746,21.9201,9.702,33.1877,10.5094,4.7273.3388,4.216-4.6083,8.8501,3.3188-6.305,22.8166-4.1347.6505-4.9782,0-.6351-.4898-6.0604,2.0037-16.0407,0-20.198-4.0549-19.4494-14.4941-21.572,3.3188-17.922-8.385-35.2938,17.9046-28.7627,19.9126,10.2718-.5758,37.0892-9.306,13.2751,2.2125,21.2466.5989,39.9228-12.5641,13.8282,2.7656q9.4032-.8297,18.8064-1.6594c-23.0254,9.1765-14.9625,7.0136,7.1907,4.425-19.0333,15.0543-30.4915.8412-34.294,0-5.2553-1.1626-20.1106,1.1553-31.5283-7.1907q4.9782-14.3813,9.9563-28.7627c23.69-11.9631,20.9461-19.673,29.8689-40.3784,12.5775-29.1861,18.8204-45.4401-2.2125-5.5313,7.9337-25.4891-8.5103,9.8403-23.7845,28.7627,10.6769-3.7868,20.5704-18.4364,23.7845-28.7627-.4821.9148.4805,4.6628,0,5.5313-22.7592,41.1381-32.5847,25.0357-53.1003,43.6971,18.9314,7.0357,4.5334,2.3728-3.8719,7.1907-5.4336,3.1145-18.4176,33.2776-20.4657,40.3784-8.0102,27.7715,4.4565,17.0121,21.572,22.6783,11.5429,3.8213,68.4414,32.0795,59.1847,2.7656,1.3427-2.8268,9.5005,6.3012,5.5313,14.3813.9078,4.5286,8.4301-5.9621,7.7438-.5531-12.9706,22.8256-66.7079-7.1441-79.0973-7.7438-29.2597-1.4162,3.18,18.4961,14.3813,18.8064,4.7494,3.1041-4.1918,3.307-3.8719,6.0844.4624,4.0147,44.434,15.4063,53.1003,16.0407,10.5926.7755,11.0515.0729,19.9126-21.0189,5.3142,1.9615,11.7421-5.9652,14.3813-7.7438,3.6471-2.4577,7.3854-5.1977,11.6157-6.6375,4.0635-3.7523,6.7005-8.5525,9.4032-13.2751q.5531,1.6594,1.1063,3.3188c-6.1841,13.2048-12.1017,29.2098-27.1033,34.294-1.1154.3174.5589,2.0458,1.1063,2.2125,6.2135,1.8926,75.2909,6.0886,85.1817,5.5313,13.741-.7742,27.4884-5.5623,40.9315-7.7438,5.7338-.9305,20.9778,2.9302,22.6783-4.9782.9347-4.3468-2.539-8.8106-3.3188-12.7219-3.443-17.2719-2.4848-24.6451-11.0626-29.8689,5.0457-19.5115.8353-39.0799,0-58.6316-.2352-5.5043.3388-11.1029,0-16.5938-.5797-9.3964-2.928-47.8429-3.3188-50.3347-4.858-30.982-37.7044-61.0781-41.4846-61.3972-2.5184-.2126-1.4913,2.1301-1.6594,2.2125-.5218.2557,1.898,2.6672-3.3188,1.1063-13.1087-13.0396-17.3355-24.8403-14.9345-6.6375-4.3254-9.5607-12.8553-22.8992-6.6375-2.2125-3.4219-13.7241-14.6601-.515-14.9345.5531-.2287.8904,2.0806,13.0111,2.2125,18.2532.2323,9.2331,1.4466,18.3722,1.1063,27.6564-2.7989,3.6505-5.7993,21.2249-2.2125,22.1251-.0076.3498-1.5315,4.7499-2.2125,6.6375-14.8218-11.6546-10.0054,15.3571-18.8064,19.9126,2.9296-5.27,4.4905-16.4594,4.425-22.6783,25.5542-30.7229,7.848-121.8881-18.2532-116.7101-12.0266,2.3859.052,10.2758,2.7656,16.5938,10.4236,24.2686,4.341,43.8212-6.6375,66.3754-.0974-.1579-1.7847.6164-3.3188-1.6594v-3.3188c1.5962-2.5023,3.8858-7.8472,4.425-10.5094,3.6401-17.9722,10.3695-47.0176-4.9782-59.7378-2.8083-.7267-7.8712,2.157-8.2969,2.2125-4.5083.5877-8.1362,1.8697-11.0626,2.2125-62.4568,7.3176-50.8081-2.724-58.0785-3.3188-2.2157-.1813-12.4376,4.319-15.4876,4.425-12.2931.4274-27.0398-11.8974-28.7627-12.1688-7.1218-1.1221-7.0492,6.5151-14.3813,4.425-4.415-1.2585-10.2983-18.2264-19.3595-21.0189-6.9006-2.1266-12.5711-.7585-19.3595,0-11.1511-15.6346-30.991-10.2433-13.8282-7.1907-6.713,4.5986-17.5625-1.7449-22.1251-7.1907-11.5627-13.8005,3.2577-5.2964,4.425-9.4032.4975-1.7503-23.5012-21.9647-26.5502-24.8908-4.1355-12.4488-13.69-24.5045,2.2125-6.6375,3.9364,4.4226,7.2935,10.2067,11.6157,14.3813,3.617,3.4935,8.9075,5.8116,12.7219,8.8501,3.0433,2.4242,6.4893,6.6747,9.9563,8.8501-20.0127,6.8556,3.7187,5.1879,10.5094,7.7438,9.0539,3.4077,7.9423,14.8994,29.3158,9.9563.2633.1011,2.4192.2203,5.5313,1.1063,2.387,1.9723,12.8189,15.2447,13.8282,15.4876.7339.1766,9.3553-3.1128,14.9345-2.2125,21.4951,24.6056,41.9458,10.4632,47.0159,11.0626,4.9585.5861,6.0955,7.0102,22.6783,6.6375,9.0424-.2032,18.201-1.4842,25.4439-7.1907-13.8546-6.0191-11.9296-12.8854-21.0189-19.3595.1261-1.3755-8.1759-8.3687,6.6375-24.8908-.6199-4.9859-5.0835,3.7437-6.6375,1.1063-2.8527-4.8414,9.8403-6.8924,1.1063-22.1251q3.8719,2.7656,7.7438,5.5313l-.5531-18.2532q4.1485,6.361,8.2969,12.7219.2766-10.786.5531-21.572c13.3807,25.6007,3.5325,13.4439,6.0844-.5531,3.0439-16.6954,9.1668,3.2876,9.9563-10.5094,6.5123,6.0103,2.9259-4.9645,6.0844-11.0626,2.4065,5.0676,2.2523,6.3151,6.0844,11.0626,7.9327,9.8276,13.3043,7.8532,1.1063-1.1063-9.4861-20.529,16.0325,2.5391,3.3188-14.9345,11.7159,2.0024,3.764-14.6855,15.4876,5.5313,1.1934-28.8892,2.3313-12.6037,10.5094,1.6594v-15.4876c13.7641,19.7257,5.908-2.703,3.3188-4.425-2.6823-1.7839-5.5736-.354-8.2969,0,8.3885-7.944,15.0744,4.6615,16.0407,4.425.5996-.1468,4.2583-10.0729,5.5313-9.9563,4.6183.4229-6.5405,11.2387,13.2751,0q-3.0422,5.8078-6.0844,11.6157,6.361-1.3828,12.7219-2.7656c-12.8561,24.0456,13.054-4.8055,7.7438,7.7438,15.7101-5.2406-1.0634,6.0486-.5531,7.1907.5168,1.1566,26.2728,6.8892,3.3188,9.9563,10.5194,12.4734-4.4259,6.1092-5.5313,7.7438-.778,1.1505,9.0349,6.8665,16.0407,22.6783,18.0694-3.2188,23.2369,15.2789,14.3813,21.0189-1.5069.9767-4.4848-1.3317-4.9782-.5531-1.4709,2.3211,2.2374,3.6503,2.2125,3.8719Z" style="fill:#080909; stroke-width:0px;"/><path d="m371.1357,484.609c-.1014-3.621,4.4011-17.7505,5.5313-23.2314,2.1816,3.5802-1.6157,23.9264-5.5313,23.2314Z" style="fill:#562c14; stroke-width:0px;"/><path d="m538.1804,526.6468c.6218,2.1441-.7865,9.4005,1.6594,14.3813q15.211-.5531,30.4221-1.1063v2.2125c-8.2472,11.3267-16.6391,5.2214-31.5283,6.6375q-1.3828-.8297-2.7656-1.6594c-7.7035-25.7124-1.8268-34.3939,2.2125-20.4657Z" style="fill:#069796; stroke-width:0px;"/><path d="m559.1993,526.6468c-.6853,3.7876,3.7773,8.9946-1.1063,10.5094q6.0844.2766,12.1688.5531v2.2125q-15.211.5531-30.4221,1.1063c-2.4459-4.9808-1.0376-12.2373-1.6594-14.3813,6.4245-.1185,14.8526-.8461,21.0189,0Z" style="fill:#662724; stroke-width:0px;"/><path d="m579.6651,525.5405c5.786.5794,14.637-2.6176,16.0407,4.9782,2.0006,10.8253-26.5069,16.1203-16.0407-4.9782Z" style="fill:#662724; stroke-width:0px;"/><path d="m512.1834,522.2217q7.7438.5531,15.4876,1.1063c10.7199,23.2794-14.0292,18.0952-15.4876-1.1063Z" style="fill:#662724; stroke-width:0px;"/><path d="m500.5677,533.2843c-1.8117-.7622-10.7264-4.0259-11.0626-4.9782-1.2757-3.6134,6.4125-13.2789,14.3813-4.425,5.6999,6.333,3.9096,9.0767-3.3188,9.4032Z" style="fill:#662724; stroke-width:0px;"/><path d="m608.4277,524.4342c1.2171-.2374,19.3621.5635,19.3595,1.6594-26.701,15.0218-29.905.3973-19.3595-1.6594Z" style="fill:#690f10; stroke-width:0px;"/><path d="m570.2619,534.3905c.0774,1.0973-.046,2.2169,0,3.3188q-6.0844-.2766-12.1688-.5531c4.8836-1.5148.421-6.7218,1.1063-10.5094,15.1116,2.0736,5.1687,4.8116,11.0626,7.7438Z" style="fill:#811525; stroke-width:0px;"/><path d="m570.2619,542.1343v-4.425c-.046-1.1018.0774-2.2215,0-3.3188-1.7734-25.1483,6.698-3.7124,3.3188,6.0844-.6606,1.9151-3.2096,1.5094-3.3188,1.6594Z" style="fill:#afd9ef; stroke-width:0px;"/><path d="m602.3433,537.7093h-1.1063c-.4715-.1219-2.149-1.0001-2.2125-1.1063-.4898-.8195-1.8401-11.8955-.5531-14.3813q1.9359,7.7438,3.8719,15.4876Z" style="fill:#afd9ef; stroke-width:0px;"/><path d="m679.2281,473.5464c3.0292.8163-6.7938,17.6971-.5531.5531.2248-.3344.4275-.587.5531-.5531Z" style="fill:#cdc4b2; stroke-width:0px;"/><path d="m252.7663,755.6418c-.3447-2.904-.0113-6.8365,0-9.9563q8.8501,4.7016,17.7001,9.4032c-1.0654-4.6749,4.6812-27.3304,4.425-28.7627-.6821-3.8133-3.8813-.051-4.425-1.1063-.5327-1.0337,2.0398-24.3458-4.425-1.1063-1.6144,5.8036-1.0844,28.2942-6.6375,21.572.0138-8.1636,1.6868-25.9199,4.425-32.6346,3.9969-9.8011,22.96-18.3997-2.7656-12.7219-3.1839-1.6385,12.2944-26.4953,29.8689,11.0626-3.4303-6.9629-10.7099-.0384-11.6157,3.8719-3.7831,16.3317,8.9278-16.9861,9.4032,7.1907,5.0148-12.7049,3.0973,1.2996,24.8908-13.8282-10.7042,10.399-11.1569,31.966-18.2532,13.8282-2.0407,3.3091-11.788,17.6035-15.4876,16.5938-1.013-.2765-8.161-13.8262-3.3188,9.9563,27.345-21.317.8174,7.705,2.7656,19.3595-4.7335,9.6127-14.3958-8.5169-26.5502-12.7219Z" style="fill:#a5293b; stroke-width:0px;"/><path d="m298.6759,640.5912c18.8169-1.8944,11.3538,11.6742,7.1907,13.8282-1.8571.9609-15.9203-1.5003-34.8471,20.4657,2.9717-11.8515,14.6364-32.9832,27.6564-34.294Z" style="fill:#cd4a54; stroke-width:0px;"/><path d="m318.5885,647.2287c9.9057-1.4262,24.3718,11.5779-13.2751,27.6564-2.7614-2.2585,3.7906-26.2909,13.2751-27.6564Z" style="fill:#dd8e72; stroke-width:0px;"/><path d="m252.7663,745.6855c.0148-4.0672,3.637-8.3583-2.2125-8.8501.1782-.9984.8505-1.1732,1.1063-2.2125,3.3258,1.3129,3.7051.6065,4.425-3.3188,4.9878.4568.0689,10.4474,3.3188,14.3813,5.5532,6.7222,5.0231-15.7684,6.6375-21.572,6.4648-23.2396,3.8924.0725,4.425,1.1063.5437,1.0553,3.7429-2.707,4.425,1.1063.2562,1.4323-5.4904,24.0878-4.425,28.7627q-8.8501-4.7016-17.7001-9.4032Z" style="fill:#190904; stroke-width:0px;"/><path d="m252.7663,745.6855c-.0113,3.1198-.3447,7.0523,0,9.9563,2.0439,17.2212,8.1836,26.893,27.1033,19.9126,18.3279-43.4473,8.7748,7.2641-7.7438,6.6375-22.6515-.8591-24.4882-29.0207-21.572-45.3565,5.8495.4918,2.2273,4.7828,2.2125,8.8501Z" style="fill:#d68883; stroke-width:0px;"/><path d="m291.4852,687.0539c-5.7389,10.5707,18.9209,22.215,6.0844,23.2314-16.4399-24.4997-23.3598-20.204-11.6157-36.5065q2.7656,6.6375,5.5313,13.2751Z" style="fill:#13abb3; stroke-width:0px;"/><path d="m291.4852,687.0539q-2.7656-6.6375-5.5313-13.2751c8.6039-11.9434,17.9538-16.5462,13.2751,3.8719-.7705,3.3625-7.2665,8.5239-7.7438,9.4032Z" style="fill:#faf7ec; stroke-width:0px;"/><path d="m314.1635,680.4164c14.518-1.0951-2.3105,18.4396-12.1688,14.3813-5.9411-2.4457,5.2092-13.8564,12.1688-14.3813Z" style="fill:#7e3120; stroke-width:0px;"/><path d="m256.085,731.3042c-.72,3.9253-1.0992,4.6316-4.425,3.3188,3.8518-15.6509,6.4946-14.602,4.425-3.3188Z" style="fill:#faeee5; stroke-width:0px;"/><path d="m298.6759,732.4105c2.2203,1.0484-2.9076,8.5037-3.3188,9.9563-3.6934-3.6843,2.7729-10.2141,3.3188-9.9563Z" style="fill:#ebbfba; stroke-width:0px;"/><path d="m303.1009,658.2913c1.6688.2789,2.4292,4.9218,1.1063,5.5313-.3226.1486-3.9133-6.0004-1.1063-5.5313Z" style="fill:#f7dfd3; stroke-width:0px;"/><path d="m554.7743,633.9536c-4.9096,2.3201-9.5791,6.2237-14.3813,8.8501-.3558.0652-.7634-.0873-1.1063,0-7.7111-8.2237,9.315-8.9303,15.4876-8.8501Z" style="fill:#0f858c; stroke-width:0px;"/><path d="m500.5677,533.2843c13.8495,5.8267,37.4626,7.1992,32.0814,13.8282-2.1351,2.6303-38.4727-8.1036-44.8034-6.0844,3.8987-11.953,6.5596-7.4654,12.7219-7.7438Z" style="fill:#0f858c; stroke-width:0px;"/><path d="m340.1605,666.0351c-10.1506,2.0557-15.5373,18.6675-17.7001,27.1033-2.6109-10.5274,5.469-19.6938,12.1688-26.5502-4.4114-7.114-2.9585-12.9078-3.3188-13.8282,4.2185-3.0745,5.2112,8.3518,8.8501,13.2751Z" style="fill:#7dd7cf; stroke-width:0px;"/><path d="m764.4099,677.0976c28.4606,4.2143,16.0515,2.9166,8.8501,5.5313-1.7227.6254-5.197,2.9323-6.6375,4.425-3.054.5504-4.0393-2.2608-4.425-2.2125-30.9967,3.8767-1.6482-.0437,1.1063-1.1063,4.3957-1.6957-2.4704-4.8788,1.1063-6.6375Z" style="fill:#075a5e; stroke-width:0px;"/><path d="m462.4019,577.5345q.8297.8297,1.6594,1.6594c-18.258,26.609-22.6953,18.5555-1.6594-1.6594Z" style="fill:#014749; stroke-width:0px;"/><path d="m384.4108,694.7977c.5891,1.5819,2.2157,2.5211,2.2125,2.7656-.0029.223-1.1867,1.5764-2.2125,3.8719-.2399.5369-6.1567,8.7228-7.7438,8.8501.0504-2.2181.4777-5.7016,1.1063-7.7438.15-.4874,5.0005-7.885,6.6375-7.7438Z" style="fill:#8ea886; stroke-width:0px;"/><path d="m472.3582,564.2595c1.2853-.2112,21.3034,2.0143,25.997,1.6594.0001,1.5688-26.6303,3.1176-27.6564,0,.6599-.4814,1.3163-1.603,1.6594-1.6594Z" style="fill:#014749; stroke-width:0px;"/><path d="m327.4386,715.8166q8.2969,8.8501,16.5938,17.7001c-4.9288-3.4149-15.7012-12.6378-16.5938-17.7001Z" style="fill:#35646f; stroke-width:0px;"/><path d="m395.4734,682.6289c.7027.7489-.6363,4.5222-1.6594,4.425-1.482-.1408,1.026-5.1002,1.6594-4.425Z" style="fill:#333028; stroke-width:0px;"/><path d="m544.2648,144.9883c14.1626-1.0449,36.7858,3.431,35.9533,21.572-1.1985,2.2988-20.0483-17.4873-49.2284-1.6594-2.9887,1.6211-13.8356,13.7113,1.6594-9.4032-12.8525,1.0962,16.9413-7.5516-3.3188-4.425,9.7425-10.2347,25.5904,3.4065,14.9345-6.0844Z" style="fill:#dd8e72; stroke-width:0px;"/><path d="m628.8935,389.471c-3.5142-1.3192-2.6439-20.9224-4.425-32.6346-5.253-34.5428-16.1365-53.6292-42.0377-76.8848.1681-.0824-.859-2.4251,1.6594-2.2125,3.7802.3191,36.6266,30.4152,41.4846,61.3972.3907,2.4917,2.7391,40.9383,3.3188,50.3347Z" style="fill:#da9b5b; stroke-width:0px;"/><path d="m560.3056,180.3885c.1951.2301-.2126,1.5694,0,2.2125.0695.2101.0417,4.2077,0,4.425-3.0402,15.8355-12.987,6.5131-22.1251,0-1.607-4.0058-4.0963-7.489-3.3188-12.1688,1.3397-.5808,6.8159-2.2455,7.1907-2.2125,18.7033,1.6466,2.5691,22.2726,18.2532,7.7438Z" style="fill:#ee8773; stroke-width:0px;"/><path d="m519.9272,218.0012c2.6832-.3673,31.8317,41.006,31.5283,43.6971-.064.5677-7.1985,8.2479-8.8501,5.5313-.85-22.1543-33.5522-47.7399-22.6783-49.2284Z" style="fill:#ee8773; stroke-width:0px;"/><path d="m560.3056,182.601c-.2126-.6431.1951-1.9824,0-2.2125-1.9204-2.2651-4.3476-.253-5.5313-1.6594-.566-.6725,6.5729-4.0078-11.0626-9.9563,12.5373-11.1536,49.9603,7.9366,16.5938,13.8282Z" style="fill:#e7a68b; stroke-width:0px;"/><path d="m604.5558,271.1015c.1074.0983,1.0069,2.1235,1.1063,2.2125q-2.2125,4.9782-4.425,9.9563c-5.8945-5.7717-25.3736-12.5982-12.7219-19.9126,10.387-6.0052,10.255,2.444,16.0407,7.7438Z" style="fill:#a5293b; stroke-width:0px;"/><path d="m516.0553,194.7698c9.1392-1.1326,6.702,5.7202,8.2969,22.1251-5.1624-4.9901-10.0557-10.2231-14.9345-15.4876,1.2979-.0975,1.7279-1.2147,2.2125-2.2125.0764-.1573,1.5218.5865,1.1063-3.3188,2.506-3.6129,1.8561-.925,3.3188-1.1063Z" style="fill:#904830; stroke-width:0px;"/><path d="m462.955,354.0707c-3.2141,10.3263-13.1076,24.9759-23.7845,28.7627,15.2742-18.9223,31.7182-54.2518,23.7845-28.7627Z" style="fill:#117c58; stroke-width:0px;"/><path d="m430.8736,372.8771c.4597-.5852,10.4387-9.5507,11.0626-9.9563,12.0642-7.8435-2.5058,12.3672-9.4032,17.7001-11.7983,9.1221-6.3463-1.778-1.6594-7.7438Z" style="fill:#e9e795; stroke-width:0px;"/><path d="m471.805,310.9267c-10.1016,25.9611-28.628,60.7727-19.9126,35.9533,2.2402-6.3795,14.1981-27.8314,18.8064-37.0596q.5531.5531,1.1063,1.1063Z" style="fill:#e3f8cb; stroke-width:0px;"/><path d="m516.0553,194.7698c-1.4627.1813-.8128-2.5067-3.3188,1.1063-.3513-3.3011-1.9988-3.0038-2.2125-3.3188-.5622-1.4067-.3719-4.484-3.3188-2.7656.2028,3.3493,3.1975,2.5869,3.3188,2.7656.3631.9084.8255,4.9003,1.1063,6.6375-.4847.9979-.9146,2.115-2.2125,2.2125-2.7904-3.011-8.2223-8.029-11.6157-12.1688,10.4163,4.2633-.7359-9.0175,12.1688-2.2125,1.0805.5698,6.3359,5.7251,6.0844,7.7438Z" style="fill:#ba6c4c; stroke-width:0px;"/><path d="m534.8617,174.8572c-.7776,4.6798,1.7118,8.163,3.3188,12.1688.3157.787.0904,2.1442,1.1063,3.3188-18.2862,2.9119-13.6252-11.4994-4.425-15.4876Z" style="fill:#7e3120; stroke-width:0px;"/><path d="m441.9361,362.9208c-.6239.4056-10.6029,9.3711-11.0626,9.9563q-.2766-9.4032-.5531-18.8064,5.8078,4.425,11.6157,8.8501Z" style="fill:#0d8c5d; stroke-width:0px;"/><path d="m422.0235,358.4958c-6.3217,1.176-8.7191-13.3734-9.9563-18.8064,3.5392,1.7171,6.9522-5.9449,9.9563,18.8064Z" style="fill:#dd8e72; stroke-width:0px;"/><path d="m493.9302,309.8205c18.6012,19.5612-3.1876,14.058-6.6375,3.3188,1.1734-.5178,1.9398-2.9126,6.6375-3.3188Z" style="fill:#d87640; stroke-width:0px;"/><path d="m465.1675,359.602h-2.2125c.4805-.8684-.4821-4.6165,0-5.5313,21.033-39.9089,14.79-23.6548,2.2125,5.5313Z" style="fill:#5ec576; stroke-width:0px;"/><path d="m489.5052,293.2266c-.7081,6.4213-4.3597,13.2286-2.2125,19.9126-7.0926,3.13-7.2083,4.0581-6.6375-.5531.1695-1.3697,8.615-30.428,8.8501-19.3595Z" style="fill:#124322; stroke-width:0px;"/><path d="m609.534,251.1889c2.2817-.7474,12.591,9.6948,12.7219,10.5094,1.7192,10.6924-18.1486-8.7319-12.7219-10.5094Z" style="fill:#faf7ec; stroke-width:0px;"/><path d="m444.7018,334.1581c3.3982.3277-.5914,6.6639-2.2125,6.6375-4.431-.072-.8985-6.9376,2.2125-6.6375Z" style="fill:#13abb3; stroke-width:0px;"/><path d="m471.805,310.9267q-.5531-.5531-1.1063-1.1063c1.9977-4.0005,4.0805-7.918,5.5313-12.1688h1.1063c-1.5613,4.8074-3.761,8.7253-5.5313,13.2751Z" style="fill:#b49676; stroke-width:0px;"/><path d="m539.2867,190.3448c-1.0158-1.1746-.7905-2.5318-1.1063-3.3188,9.1382,6.5131,19.0849,15.8355,22.1251,0,23.7317-3.0928,15.5594-13.5924,22.6783-13.2751,8.1279.3623,14.0637,17.8749,5.5313,17.7001-.5446-.0112-6.0097-3.9573-9.9563-4.425-24.2365-2.8724-15.4421,22.4784-39.2721,3.3188Z" style="fill:#e7a68b; stroke-width:0px;"/><path d="m589.6214,169.3259c8.4583-5.1456,14.2443,10.6135,8.8501,11.0626-.7654.0637-11.2223-9.6194-8.8501-11.0626Z" style="fill:#f7dfd3; stroke-width:0px;"/><path d="m586.8557,211.3637c1.4044,13.8397-11.3547,4.406-14.3813-1.1063,3.7182-21.4302,6.9683,2.5782,14.3813,1.1063Z" style="fill:#cd4a54; stroke-width:0px;"/><path d="m561.9649,219.1075c42.1685,17.2237,3.6809,14.3532-.5531,3.8719-.7022-1.7383-1.4605-2.5444.5531-3.8719Z" style="fill:#202c2b; stroke-width:0px;"/><path d="m586.8557,211.3637c-7.413,1.4719-10.6631-22.5364-14.3813-1.1063-7.0371-12.8163,12.5115-17.3203,14.3813,1.1063Z" style="fill:#fdf9fa; stroke-width:0px;"/><path d="m543.1586,204.7261c1.8268,3.6168,7.9877,9.3903,9.4032,12.7219,6.2005,14.5939-16.8513-13.3445-9.4032-12.7219Z" style="fill:#202c2b; stroke-width:0px;"/><path d="m555.3274,204.7261c5.2239-3.2764,2.4893,12.3708-.5531,2.7656-.2248-.7098-.2078-2.2884.5531-2.7656Z" style="fill:#fdf9fa; stroke-width:0px;"/><path d="m538.7336,196.9823c1.5455-.484,6.5053,4.7642,4.425,5.5313-.6726.248-5.7202-5.1256-4.425-5.5313Z" style="fill:#b1becd; stroke-width:0px;"/><path d="m592.9401,202.5136q2.4891,1.3828,4.9782,2.7656c-1.6841,1.7262-5.3892-.5811-4.9782-2.7656Z" style="fill:#c6bcbf; stroke-width:0px;"/><path d="m480.102,210.2574c20.5614-2.8683-2.2476,10.1576-11.6157,4.9782,6.8846-.3117,10.9643-4.8873,11.6157-4.9782Z" style="fill:#202c2b; stroke-width:0px;"/><path d="m477.8895,202.5136c7.8701-.798-13.1132,13.4481-13.8282,10.5094,4.0267-1.6381,9.8815-10.1093,13.8282-10.5094Z" style="fill:#434644; stroke-width:0px;"/><path d="m482.3145,184.8135c11.119-.6851,3.1118,4.2498-8.2969,7.1907-.1715-.5215,7.313-7.13,8.2969-7.1907Z" style="fill:#1e1d1b; stroke-width:0px;"/><path d="m481.2082,144.9883c19.7226,10.848,7.6924,8.7191,1.1063,3.3188-1.1456-.9393-2.5308-2.0946-1.1063-3.3188Z" style="fill:#6f7477; stroke-width:0px;"/><path d="m498.3552,133.9257l1.1063-1.1063c12.1981,8.9594,6.8265,10.9338-1.1063,1.1063Z" style="fill:#5e6366; stroke-width:0px;"/><path d="m516.6084,171.5384c.7799.4138.746,2.0267.5531,2.7656-.8431,3.23-10.4213,5.3689-.5531-2.7656Z" style="fill:#dd8e72; stroke-width:0px;"/><path d="m517.7147,164.9009c2.5409.921-2.2243,6.7764-2.7656,4.9782-.3043-1.0109,2.3697-5.1217,2.7656-4.9782Z" style="fill:#d3a994; stroke-width:0px;"/><path d="m517.7147,144.9883c4.7279-3.0483,3.7342,4.7224,0,2.2125-.9312-.6259-.9393-1.6069,0-2.2125Z" style="fill:#868787; stroke-width:0px;"/><path d="m512.7365,195.8761c.4156,3.9053-1.0298,3.1614-1.1063,3.3188-.2808-1.7373-.7432-5.7291-1.1063-6.6375.2137.3149,1.8612.0176,2.2125,3.3188Z" style="fill:#4c060c; stroke-width:0px;"/><path d="m510.524,192.5573c-.1213-.1787-3.1159.5837-3.3188-2.7656,2.9469-1.7184,2.7565,1.3589,3.3188,2.7656Z" style="fill:#4c060c; stroke-width:0px;"/><path d="m688.6313,272.2078c18.8294,25.4483,1.2803,45.0906-27.6564,26.5502-7.6888-4.9264-14.2857-12.0413-18.8064-19.9126,15.6012-1.3073,31.006-4.3048,46.4628-6.6375Z" style="fill:#dd5f61; stroke-width:0px;"/></g><g id="Layer_3"><path d="m559.8708,366.9773c3.641-4.995,7.6783-9.7532,11.8492-14.3121,4.3288-4.7314,8.9661-9.17,13.7136-13.4774,2.5708-2.3325,5.2036-4.596,7.7706-6.9322.6833-.6219-.3016-1.5368-.9925-.9925-4.969,3.9144-9.7906,8.0565-14.4738,12.3077-4.7291,4.2929-9.4772,8.7487-13.4222,13.788-1.1099,1.4178-2.1895,2.8592-3.2199,4.3359-.9869,1.4144-1.8363,2.9296-2.6615,4.4429-.5229.959.8163,1.6903,1.4364.8396h0Z" style="fill:#fff; stroke-width:0px;"/><path d="m604.4012,342.9304c-4.7032,2.7828-8.7012,6.7448-12.2768,10.8339-3.928,4.492-7.469,9.351-10.5925,14.4341-1.5438,2.5123-2.9927,5.1173-4.0737,7.8661-.2944.7486.2619,1.6558.9481,1.9318.731.294,1.648.0595,2.0449-.67,2.5167-4.6266,5.0548-9.2082,8.0403-13.5566,3.2292-4.7032,6.761-9.1518,10.8988-13.1496,2.0732-2.0031,4.0639-3.6902,6.4802-5.1761,1.5926-.9794.1501-3.4719-1.4693-2.5137h0Z" style="fill:#fff; stroke-width:0px;"/><path d="m579.2533,414.6363c5.2067-6.7593,9.4829-14.2033,14.1708-21.3188,1.2671-1.9232,2.5179-3.8553,3.8301-5.7485.6693-.9657,1.3496-1.9238,2.0436-2.8718.3029-.4138.6084-.8257.9168-1.2354.1707-.2268.3423-.4529.5147-.6784.0194-.0254.3625-.4699.1245-.1628-.2283.2945.1896-.2425.2292-.293,2.6826-3.4226,5.5984-6.6924,8.9092-9.522.4347-.3715.8762-.7351,1.3248-1.0897.0775-.0613.1707-.1227.2437-.1912-.5376.5042-.1175.0918.0321-.0206.2244-.1687.4505-.3352.6785-.4991.9405-.6762,1.9116-1.3103,2.9138-1.8913.9421-.5462,1.8941-1.0702,2.8698-1.554.4802-.2381.9432-.5096,1.4223-.7503.2596-.1304.5214-.2566.7852-.3784.1757-.0811,1.0319-.4474.3882-.1785,1.0871-.4541,1.9886-1.5173,1.5794-2.7817-.3959-1.2234-1.54-1.8423-2.7817-1.5794-2.155.4563-4.1966,1.1923-6.1318,2.2507-1.9579,1.0708-3.775,2.4481-5.4949,3.8607-3.372,2.7695-6.3129,6.0366-8.9913,9.4711-5.7837,7.4165-10.4136,15.5603-15.1192,23.6771-2.3235,4.0079-4.6744,8.0111-7.3754,11.7799-.5318.7421-.1297,1.8812.6061,2.3116.8719.51,1.7529.1191,2.3116-.6061h0Z" style="fill:#fff; stroke-width:0px;"/><path d="m555.0025,173.4141c.0282-.0227.3177-.2541.165-.1334-.1323.1046.0858-.0652.1088-.0825.2368-.1783.4831-.3485.71-.5393.3145-.2646.6081-.556.9208-.8235.3143-.269.6342-.5314.9581-.7888.0902-.0717.1814-.1421.2715-.2138.2039-.1621-.3238.2456.0315-.0242.1645-.125.3292-.2497.4949-.3731.6628-.4937,1.3362-.973,2.0117-1.4492.7763-.5473,1.5084-1.1564,2.2444-1.7566.6705-.5469.6194-1.6611.1362-2.2866-.4962-.6422-1.5281-.9429-2.2466-.4485-1.5056,1.0358-2.9629,2.1155-4.376,3.276-.6557.5384-1.2993,1.092-1.9185,1.6722-.7075.663-1.2974,1.3711-1.8388,2.1761-.4123.613-.1678,1.4868.3816,1.9113.6239.482,1.3608.3535,1.9453-.1158h0Z" style="fill:#fff; stroke-width:0px;"/><path d="m557.0646,179.8405c2.6575-1.4569,5.0746-3.2579,7.3347-5.2692,2.2378-1.9915,4.6115-4.0552,6.4052-6.4696.3551-.478.1255-1.2349-.3118-1.5617-.4985-.3725-1.1282-.3167-1.5896.0946-1.031.9192-1.9431,1.9741-2.897,2.9709-1.047,1.0941-2.1172,2.1664-3.2144,3.2103-2.0783,1.9772-4.174,4.0208-6.488,5.723-.766.5635-.1098,1.779.7609,1.3017h0Z" style="fill:#fff; stroke-width:0px;"/><path d="m595.196,175.3493c.0298-.0428.2323-.3748.2662-.3688-.1194.153-.1467.1882-.0819.1055.0186-.0239.0374-.0476.0564-.0712.0472-.0592.0949-.1181.1431-.1765.1934-.2343.3945-.4622.5998-.6861.4114-.4485.8404-.8803,1.2648-1.3164.4077-.419.8122-.842,1.1903-1.2882.2514-.2966.5143-.5944.6934-.9405.1805-.3487.3339-.7091.4828-1.0722.2114-.5153-.1371-1.2476-.6092-1.497-.4838-.2556-1.2305-.2571-1.6064.2073-.1799.2222-.3698.4355-.5697.6398-.1713.175-.3082.3703-.4616.5624.0783-.0981.1816-.2311.0411-.0542-.0461.0581-.0927.1158-.1397.1732-.3813.4656-.7889.9088-1.1979,1.35-.8878.9578-1.7755,1.9218-2.4955,3.0163-.4044.6147-.1424,1.5791.5035,1.9204.7169.3788,1.4717.1417,1.9204-.5035h0Z" style="fill:#fff; stroke-width:0px;"/><path d="m598.9785,179.1804l.8661-.979c.1977-.2235.3938-.443.5415-.7042l.3193-.5646c.1043-.1844.1391-.388.111-.5967-.0264-.1963-.107-.3993-.2574-.5373-.1195-.1097-.2585-.1907-.4129-.2406-.2282-.0738-.517-.0211-.721.0943l-.5493.3107c-.1707.0966-.3253.203-.4747.3336-.082.0717-.1632.1444-.2448.2165-.3263.2887-.6527.5774-.979.8661-.1242.1154-.212.252-.2633.4099-.0797.1518-.1163.3154-.1097.4907,0,.3124.1388.6855.373.9006.2427.2228.5614.3882.9006.373.3257-.0146.6772-.1205.9006-.373h0Z" style="fill:#fff; stroke-width:0px;"/></g></svg>