<?xml version="1.0" encoding="UTF-8"?><svg xmlns="http://www.w3.org/2000/svg" viewBox="0 0 1000 1000"><g id="AIrtwork"><path d="m645.3367,452.8308c.6887,1.544,7.466,31.0456,7.5341,32.9617.0334.9398-.0198,1.8845,0,2.8253-6.6597,4.7764-10.7044,11.9103-16.0099,17.8935-3.7334,4.2102-8.5429,6.5085-11.3011,12.2429.5243-2.0691-1.6126-3.8729-.9418-6.1214,8.3778-18.0111,24.6213-42.0909,10.8303-24.9567-23.0333-6.1775-14.9624-25.3993-15.5391-41.9084-2.1275-60.9044-8.2011-74.6851,11.3011-14.1264,5.1139,11.5255,13.6077,20.0267,14.1264,21.1896Z" style="fill:#f2c35d; stroke-width:0px;"/><path d="m447.5668,895.4587c.8706,1.7432,25.2476,27.1302,26.8402,28.2528,3.4211,2.4116,15.6725,6.5799,20.7188,10.3594,8.7433,6.5485,24.6074,24.3315,1.4126,18.8352.6677-15.5271-14.7813-24.3436-28.7237-24.4858-7.5434-.0769-24.216,12.5686-5.1797-3.2962.2457-1.8874-2.7208-3.1059-2.8253-3.2962-6.2546-11.3953-21.4142-26.0254-12.2429-26.3693Z" style="fill:#fdfdfb; stroke-width:0px;"/><path d="m612.3751,901.1093c-6.1753,9.8683-8.2352-4.419-8.9467-4.7088-.4441-.1809-7.6136,5.6057-8.005,2.3544,7.5539-11.6072-5.0246-3.1468-6.5923-7.5341-.7536-2.1091,6.938-5.0674,3.2962-7.0632-10.3778,5.7909-12.3759-4.9574-19.3061-6.5923.1556-1.0659.9572-12.5239.9418-13.1847,3.3984.2345,15.0288-3.5559,16.9517-4.7088" style="fill:#fdfdfb; stroke-width:0px;"/><path d="m647.2203,510.2783c.1019,1.1481-.8159.8577-.9418.9418-2.6316,1.7575-18.0738,38.0392-17.8935,41.4375.1085,2.0448.299,3.7169.9418,5.6506-.6889-.1932-6.0885,3.0754-8.4759-8.4759,1.0501-15.2424,7.1859-29.8749,16.0099-42.3793.2277-.3227,3.5256-2.4885,3.767-2.8253,2.8049,2.7278,4.7366,1.3297,6.5923,5.6506Z" style="fill:#dd4951; stroke-width:0px;"/><path d="m553.9859,53.5239c22.7222,11.2142,26.8888,22.1302,33.9034,46.1463-.7185.073-10.3006,6.2198-13.6555,4.7088-.5716-.2574-2.614-6.357-7.0632-10.3594-.3772-.3393-.6576-.6841-.9418-.9418.4859-.9961,3.4111-3.1318,3.767-3.767q3.2962,2.119,6.5923,4.2379c-1.2924-6.0408-.7659-13.8874-.9418-14.5973-.247-.997.3599-2.1475-.9418-3.767-10.0727-13.081-19.8595-19.776-35.7869-24.4858l15.0682,2.8253Z" style="fill:#fdfdfb; stroke-width:0px;"/><path d="m593.5399,851.1959c-6.5066,3.5644-12.8472,8.4832-20.7188,7.5341-.5318-3.8893-.3962-8.9397-3.767-11.3011-12.5142-11.4057-4.553-22.158-8.4759-24.4858-.1615-.0958-1.0402.2067-.9418-.9418,11.9215-7.3434,5.5178-8.5663,5.6506-9.4176,2.2416-14.3738,5.4297-19.668,5.6506-20.7188,6.7889,2.3607-4.0066,26.851-4.7088,34.3743-2.2897,24.529,22.1354,20.2198,27.3111,24.9567Z" style="fill:#fdfdfb; stroke-width:0px;"/><path d="m491.8296,724.0581c-.0456.1085,2.093.9104,1.8835,1.4126-7.5195,18.0292-14.9207,37.0818-24.4858,54.1513,2.0171-9.1566,3.7842-18.8556,2.8253-28.2528,2.2384-5.7633,4.9969-11.8415,8.4759-16.9517,2.4978-3.669,6.5348-6.2006,8.4759-10.3594h2.8253Z" style="fill:#fdfdfb; stroke-width:0px;"/><path d="m553.9859,53.5239l-15.0682-2.8253c-21.6745-6.4092-47.112-5.8749-69.6904-6.5923.2671-.2263.6584-2.7419,5.1797-4.7088,27.2554-.5161,54.8354,1.9147,79.5788,14.1264Z" style="fill:#ede4ce; stroke-width:0px;"/><path d="m585.064,705.2229c.7796,1.5448,2.128,5.3668,1.8835,7.0632-8.2162,12.3837-2.2978,38.7667-11.3011,50.3842,1.0821-13.3417.4449-26.2707.9418-39.554.1557-4.1618-1.4711-6.7679-.9418-8.9467.6144-2.5289,9.8492-4.6235,4.7088-12.7138v-.9418c1.5347.7755,4.0198,3.3434,4.7088,4.7088Z" style="fill:#fdfdfb; stroke-width:0px;"/><path d="m651.9291,466.0155c2.619,6.5843,11.9089,19.2693.9418,19.777-.0681-1.9161-6.8454-31.4177-7.5341-32.9617h.9418c2.1255,4.4209,3.8418,8.6375,5.6506,13.1847Z" style="fill:#ede4ce; stroke-width:0px;"/><path d="m590.7146,859.6718c-1.9229,1.1529-13.5533,4.9433-16.9517,4.7088-.0022-.097-1.8354.3063-1.8835-.4709-.249-4.0162.9803-4.8977.9418-5.1797,7.8716.9491,14.2121-3.9697,20.7188-7.5341,4.5308,4.1467.6814,6.3734-2.8253,8.4759Z" style="fill:#090807; stroke-width:0px;"/><path d="m650.0455,439.6461c1.7295,7.6514,3.5259,18.8912,1.8835,26.3693-1.8087-4.5472-3.5251-8.7637-5.6506-13.1847-.3096-.6439-.6327-1.2393-.9418-1.8835.1916-3.9036,2.4118-8.7477,1.8835-12.2429l.9418-.9418c.0312.1295,1.8542,1.7536,1.8835,1.8835Z" style="fill:#d88c9e; stroke-width:0px;"/><path d="m640.6279,504.6277c-.2415.3368-3.5393,2.5026-3.767,2.8253v-.9418c5.3056-5.9832,9.3502-13.1171,16.0099-17.8935-.4454,3.813-9.5641,12.2737-12.2429,16.0099Z" style="fill:#361c06; stroke-width:0px;"/><path d="m530.4418,272.0126c5.2824,12.3639,10.9775,24.8454,16.0099,37.6705,2.27,9.2873,5.8782,18.1113,8.4759,27.3111,2.863,10.1397,4.8909,20.4187,7.5341,30.6072,5.1002,8.7813,8.082,18.6038,12.2429,27.782-10.854-15.0096-18.2708-38.1763-27.3111-53.2095-3.0727-5.1097-31.7179-42.9541-34.3743-43.7919-3.9357-1.2413-18.9593-.1345-16.4808,7.0632.4623,1.3425,22.8206,10.0813-7.0632,9.8885,3.5761-9.9871.3441-43.691-2.3544-35.3161-1.7493,5.429,4.3281,23.3128-1.8835,38.6122,1.1028,3.0623,18.5859,1.3895,21.6605,1.4126.3315,3.4511-14.4174,2.1159-22.1314,0-2.6489.8277-13.5599,44.9064-16.4808,24.4858,5.5184-31.4441,13.5092-52.3185,4.7088-87.1129,18.0585,8.9107,37.6985,11.9358,57.4475,14.5973Z" style="fill:#f2c35d; stroke-width:0px;"/><path d="m618.0257,342.6447c-3.3177,8.5893.1955,19.9431-4.7088,27.3111-14.2462-37.8045-24.3457-76.9532-39.554-114.424,19.5104-7.767,19.3927,9.7233,33.9034,25.4276,1.5733,20.8934,2.9317,41.9203,10.3594,61.6854Z" style="fill:#f2c35d; stroke-width:0px;"/><path d="m639.6862,406.6845c-.5425-.1581-9.7515-.3906-11.3011,0-5.3672-5.3418-11.9207-28.3764-15.0682-36.7287,4.9044-7.368,1.3911-18.7218,4.7088-27.3111,4.1591,4.5214,11.529,11.9664,14.1264,8.9467-23.421-15.0981-14.9584-40.9731-14.1264-73.9283.0454-1.7982-.2588-4.0383,0-5.6506.0167-.104,1.2942.3404.9418-1.8835,2.0586,2.9431,4.0745,5.6985,5.6506,8.9467-9.5302,11.4893,3.7773,23.9096-2.8253,37.6705,14.7888,16.7186,5.825,20.0113,7.5341,23.544,1.3181,2.7245,6.504.5056,7.5341,1.8835.4984.6667-5.9349-.8806-.4709,14.5973-16.3537-7.0211-18.5709,4.3729-2.3544,5.1797-3.3887.1446-16.7498,5.8629-8.9467,8.005,7.6419,2.0979,24.9517-14.772,2.3544,20.2479l12.2429,16.4808Z" style="fill:#dd4951; stroke-width:0px;"/><path d="m447.5668,258.8279c-.5279-1.5975-1.189-3.1575-1.8835-4.7088-.1895-.4233-.1718-3.5894-3.767-8.4759,6.9246,2.3345,9.7964-12.4609,14.1264-5.1797,1.0103,1.6989,8.2496,35.1424,8.4759,38.6122.8861,13.5893-8.7338,63.8906-10.3594,66.8651-.6,1.0979-2.3533,2.112-2.8253.9418,2.0505-29.6969,5.7178-59.3511-3.767-88.0547Z" style="fill:#08676c; stroke-width:0px;"/><path d="m566.2288,93.0779c.2842.2577.5646.6025.9418.9418,11.1927,27.0445-3.7346,3.0145-17.4226,10.3594,3.838-11.4776-7.0774,12.6312-30.6072,7.0632,18.4731-16.9725,28.6534-35.0823,47.0881-18.3643Z" style="fill:#e5734f; stroke-width:0px;"/><path d="m466.402,192.9046c-4.8826,7.6964-7.4346,16.6156-14.5973,22.6023-28.4739,11.0664-29.9398,16.4344-48.5007,34.8452,4.0981-10.8997,13.9793-25.4111,22.6023-32.9617,7.8205-6.8479,30.022-19.2409,40.4957-24.4858Z" style="fill:#49b8a5; stroke-width:0px;"/><path d="m590.7146,211.7399c-11.2814,18.5089-33.7772,1.8345-28.2528-16.0099q14.1264,8.005,28.2528,16.0099Z" style="fill:#f2c35d; stroke-width:0px;"/><path d="m609.5498,274.8379c-.8436-1.2111-1.7739-2.2257-2.8253-3.767-2.9133-10.2323-11.0494-17.1434-12.2429-18.8352-.8181-1.1596-2.8256-3.0791-2.8253-3.2962.0009-.6746,5.497-10.2177,6.5923-11.772,2.0354,2.522,14.8426,17.1982,15.0682,18.3643.6045,3.1246-4.7826,14.1622-3.767,19.3061Z" style="fill:#dd4951; stroke-width:0px;"/><path d="m454.1591,606.3379c5.2994,23.477-3.2143,39.0847-4.7088,47.0881.1563-8.4367-6.6745-40.1202-3.767-45.2046.2337-.4087,1.5579,1.7405,6.5923-5.6506.3766.7786,1.8372,3.5616,1.8835,3.767Z" style="fill:#c1c2bd; stroke-width:0px;"/><path d="m442.858,854.963c.3208,3.7613-1.9379,11.626-1.8835,12.2429-17.492-.1474-22.0181,1.014-18.8352-17.4226,5.1737-.3935,18.576.0764,20.7188,5.1797Z" style="fill:#dd6249; stroke-width:0px;"/><path d="m627.4433,598.8038c-.1814.1907.7726,2.8217-2.3544,4.7088-3.0013,1.8113-15.7425,3.1414-20.2479,2.8253.5235-2.6555.8027-17.0444,3.2962-17.8935q9.6531,5.1797,19.3061,10.3594Z" style="fill:#4fcdd7; stroke-width:0px;"/><path d="m636.8609,506.5112v.9418c-8.824,12.5043-14.9598,27.1369-16.0099,42.3793-2.3381-11.3128,2.0985-20.7761,4.7088-31.0781,2.7582-5.7344,7.5678-8.0327,11.3011-12.2429Z" style="fill:#f5bda1; stroke-width:0px;"/><path d="m381.6435,327.5765c-8.8714,5.9377-12.5794,15.4446-16.9517,24.4858-1.1653,2.4096-2.8458,5.5265-4.7088,7.5341,1.4089-10.6145,7.0991-20.5977,13.1847-29.1946.8355-1.1802,6.8216-5.5239,7.5341-6.5923,3.641,2.3105,1.0912,3.2414.9418,3.767Z" style="fill:#20150a; stroke-width:0px;"/><path d="m466.402,192.9046c-10.4737,5.2449-32.6752,17.6379-40.4957,24.4858q4.2379-4.2379,8.4759-8.4759c2.2636-.6994,16.4822-9.3857,21.6605-12.2429,3.291-1.8158,8.2586-5.2369,11.3011-6.5923.4316,3.1884-.862,2.6995-.9418,2.8253Z" style="fill:#1c4226; stroke-width:0px;"/><path d="m550.2188,825.7684q1.4126,11.772,2.8253,23.544c-5.8018,2.3481-9.2606,6.4985-16.0099,3.767,2.4729-4.8239-.3406-25.0399-1.8835-28.2528,3.8331-1.0075,14.3172,1.0184,15.0682.9418Z" style="fill:#b13d2f; stroke-width:0px;"/><path d="m556.8112,823.8848c-1.7057,7.3888-.2741,7.3475,1.8835,13.1847.8899,2.4075,5.0628,8.043,4.7088,8.9467-6.0184,4.0044-9.8555,3.0922-10.3594,3.2962q-1.4126-11.772-2.8253-23.544c.5185-.0529,5.0007-1.3767,6.5923-1.8835Z" style="fill:#e5734f; stroke-width:0px;"/><path d="m560.5782,822.9431c-2.9676,4.1664-1.6264,9.2538-1.8835,14.1264-2.1576-5.8372-3.5892-5.7959-1.8835-13.1847.1618-.0515,2.1375-1.4598,2.8253-1.8835-.0984,1.1485.7803.8459.9418.9418Z" style="fill:#f5bda1; stroke-width:0px;"/><path d="m569.9958,89.3109c-.3559.6353-3.2812,2.7709-3.767,3.767-18.4346-16.718-28.615,1.3918-47.0881,18.3643,23.5298,5.568,34.4453-18.5408,30.6072-7.0632,13.688-7.3448,28.6153,16.6851,17.4226-10.3594,4.4492,4.0023,6.4916,10.1019,7.0632,10.3594,3.355,1.511,12.937-4.6358,13.6555-4.7088,5.5297-.562,12.7667,4.8151,4.7088,6.1214,6.7568,3.8165-1.352,4.4943-2.8253,7.5341-1.0743,2.2167-2.176,11.0076-3.767,15.0682-.8934,2.2801-7.9227,12.7792-7.5341,14.1264.4609,1.5978,4.0389.9445,5.6506,3.767.3505.6139,5.4815,13.9516.9418,12.2429,4.0834,5.8137-.4686,9.1666.9418,11.3011,3.4199,5.1757,7.7993-10.1891,7.5341.4709-6.9988,3.8856-3.4678,7.5944-5.6506,13.6555-13.6661-1.6339,1.0755,19.3239-23.0732,7.0632-.9498.2681-2.0141,3.6094-2.3544,4.7088-5.5243,17.8445,16.9715,34.5188,28.2528,16.0099,1.6218,3.5859-6.2659,9.0416-5.6506,11.772.2087.9259,6.0076,4.7625,13.1847,13.6555-1.0953,1.5543-6.5914,11.0974-6.5923,11.772-.0003.2171,2.0072,2.1366,2.8253,3.2962,2.6722,7.1865,8.0314,12.6609,12.2429,18.8352,1.0514,1.5413,1.9816,2.5559,2.8253,3.767.624.8958,1.2008,1.8517,1.8835,2.8253,2.123,3.0274,4.6451,9.5052,5.1797,9.4176q.7063-4.7088,1.4126-9.4176c-.832,32.9551-9.2946,58.8301,14.1264,73.9283-2.5974,3.0197-9.9673-4.4254-14.1264-8.9467-7.4276-19.7651-8.7861-40.7919-10.3594-61.6854-14.5107-15.7043-14.393-33.1945-33.9034-25.4276,15.2083,37.4709,25.3078,76.6195,39.554,114.424,3.1475,8.3523,9.7009,31.3869,15.0682,36.7287,4.4226,4.4016,9.646,4.548,14.1264,6.5923.4797.2189,3.0108.2373,4.7088,2.3544-6.9327,6.1649-.7957,14.9175.9418,22.1314l-.9418.9418c-.1663-1.1003-5.7225-8.9797-5.6506-21.1896-1.074-1.3132-4.503-1.2782-4.7088-1.4126-1.1443-.7473-9.2827-6.2996-10.3594-4.2379,1.5801,5.0479,4.4134,10.013,4.7088,10.8303,6.6569,18.4141,10.7085,21.1274,14.1264,28.2528.309.6442.6322,1.2396.9418,1.8835h-.9418c-.5187-1.1629-9.0125-9.6641-14.1264-21.1896-19.5022-60.5587-13.4287-46.778-11.3011,14.1264.5767,16.5091-7.4943,35.7309,15.5391,41.9084,13.791-17.1343-2.4524,6.9455-10.8303,24.9567-.6709,2.2485,1.466,4.0523.9418,6.1214-2.6103,10.3021-7.0469,19.7653-4.7088,31.0781,2.3874,11.5513,7.7869,8.2827,8.4759,8.4759,4.0909,1.1474,7.8882.5985,8.4759,2.3544-3.8311,18.6078-1.3219,1.5849-1.8835.9418-.4027-.4611-8.4834-4.4551-7.5341,4.7088,1.433,13.8338,17.212,13.4046-.9418,32.4908q-9.6531-5.1797-19.3061-10.3594c-2.4934.8491-2.7727,15.238-3.2962,17.8935-3.2623,16.549-5.7846,33.5017-9.4176,49.9134-.2049-26.05,5.8038-52.5349,8.4759-78.6371,1.0752-10.5031-.1316-25.6149.9418-35.7869.9531-9.0327,6.9668-25.0629,6.5923-26.3693-4.0601-14.1663-2.4352,8.2328-8.9467,12.7138-8.6205,5.9322-17.1685-.2281-24.0149,2.3544q-1.8835,18.8352-3.767,37.6705,10.1239-4.4734,20.2479-8.9467c-5.7138,14.8724-9.9564,31.966-15.5391,47.559-3.0093,8.4052-10.5591,19.5784-13.1847,29.1946-2.0395,7.4695-6.83,48.9684-5.6506,53.6804,2.3649,9.448,15.6812,5.3259,19.777,11.772,5.1404,8.0903-4.0944,10.1849-4.7088,12.7138-.5293,2.1788,1.0974,4.785.9418,8.9467-7.5362-2.0217-19.767,12.6423-32.9617,14.1264-1.0985-8.2016-7.2223-8.0379-11.772-2.8253-4.1107,4.7097,8.1782-4.6471,10.8303,3.767-6.7793,22.239,8.693,20.2362,11.3011,37.1996,4.5544,29.6219-17.6783,32.4654,9.4176,36.2578.9415.1318,1.054.981,1.8835.9418-.1328.8513,6.2709,2.0742-5.6506,9.4176-.6878.4237-2.6635,1.832-2.8253,1.8835-1.5916.5068-6.0739,1.8306-6.5923,1.8835-.751.0767-11.2351-1.9492-15.0682-.9418-1.4371-2.9926-6.1731-4.1941-7.5341-7.0632-3.9891-8.4092-1.1716-8.0208,4.2379,2.3544,3.597-.2814-3.9262-14.6951-3.2962-21.1896-5.9386,1.0197-4.4169-2.0857-4.7088-2.3544.693-1.4723,2.9398-3.4915,2.8253-5.1797-.1302-1.9191-16.3142-33.1993.4709-2.3544,10.2541-8.7427-15.7462-6.915-11.772-44.7337,2.3413-22.2807,18.3902-29.4405,19.777-39.0831,1.4271-9.9226-4.5233-24.6446-5.6506-34.8452-1.0707-9.6883-.6696-17.7121-.4709-27.3111-5.8887,12.1818-11.7805,24.4349-17.4226,36.7287-6.6942,14.5862-13.568,29.4773-19.777,44.2628h-2.8253c-20.3684,0-19.9018-1.2011-8.4759,10.3594-3.479,5.1102-6.2374,11.1884-8.4759,16.9517-.2982-2.922.1026-6.7253,0-7.0632-.1644-.5416-7.4397-7.9763-8.005-8.005-1.3673-.0693-18.5614,11.3236-24.9567,10.8303,6.5577,26.7344,6.4936,51.7797,4.7088,79.108h1.8835c3.6377-16.9697,13.6017-31.0033,21.6605-45.6754,1.7118,8.2528-7.4868,19.229-13.1847,34.8452-4.7381,12.9856-7.1116,26.4419-11.3011,39.554-2.1428-5.1033-15.545-5.5732-20.7188-5.1797-3.1829,18.4365,1.3432,17.2752,18.8352,17.4226.0809.9181,3.1374,7.3173,4.2379,7.5341,4.4282.8723,7.2369-8.5334,18.3643-5.6506.2658.0689,4.0134,2.1736,4.7088,2.8253.4358.4084,3.3438,1.6645,1.4126,2.8253q-7.0632-.9418-14.1264-1.8835c-2.6407,1.525-.4304,2.6879-.4709,2.8253-1.4889,5.0505,1.0423,11.5228-6.5923,12.2429-14.9971,1.4145-5.2704-12.0454-7.0632-13.1847-7.5592-.173-14.0422.9538-21.1896-1.8835-1.0241-.4066-3.6193-.8158-3.767-.9418-.2245-.1914-.1502-2.0381-2.8253-5.1797,7.8822-11.8199,3.3307-25.6602,6.5923-38.1413q-3.767-9.6531-7.5341-19.3061c-1.5118-47.9923-1.4756-51.4634,3.2962-1.4126,6.3426-20.8234-8.3422-62.9801,6.1214-80.5206,1.8903-2.2924,3.3437,7.108,1.8835-7.5341,20.5801-20.1191,20.6169-40.6324,25.4276-66.3942,1.4945-8.0034,10.0082-23.6111,4.7088-47.0881,11.829-7.6685,2.7325-6.1845,0-11.772-4.9671-10.1569,3.7209,5.4873,15.0682,8.005,9.0833,2.0153,19.0084,1.6491,28.2528,1.8835,9.4253.239,23.5709.583,32.4908,0,26.9966-1.7645,35.7623-1.305,39.0831-24.9567q-7.7695,4.4734-15.5391,8.9467-.2354-.7063-.4709-1.4126,8.9467-6.5923,17.8935-13.1847,2.5898-27.0756,5.1797-54.1513c-15.047,19.446-29.4652,38.9677-51.326,51.326,21.4864-19.5591,43.354-39.5132,56.5057-65.9233.7513-48.9586-8.8321-99.6712-31.0781-143.6186-.9414-1.8598-1.7623-3.8676-2.8253-5.6506-.8017-1.3448-3.0092-7.2122-4.2379-7.5341-6.3021,1.6894-12.8491,2.1508-19.3061,2.8253-18.9668,1.9813-37.7685,6.0363-56.9766,5.6506-2.5306,2.0316-2.06,4.6703-2.3544,5.6506-1.8041,6.007-.124,6.3622,0,7.5341-2.917,13.89.6952,28.0288,0,41.9084-.3352,6.692-2.3377,13.4249-2.8253,20.2479-1.6356,22.8871-.4897,19.1287,3.767,40.4957,2.3635,11.8639,9.7092,33.572.9418,25.4276-.4692-.4359-6.2455-8.5695-7.5341-10.3594-4.5218-6.2808-8.8826-16.08-13.1847-21.6605-3.0795-3.9946-5.6316,6.7152-5.6506,9.8885-.0154,2.5774,5.5865-1.4088-1.8835,6.1214-.9868.9947-2.6367,1.9347-3.767,2.8253-.8283.6527-1.9841,1.2415-2.8253,1.8835q-.9418-.4709-1.8835-.9418c2.1129-1.7444,4.3045-5.0868,5.6506-7.5341,1.8804-3.4188,4.5805-6.922,3.2962-11.3011-3.8838,2.6286-8.3371,4.1375-12.7138,5.6506-10.8353,3.7459-17.8466,7.4421-30.1364,6.5923-3.1342-.2167-4.844-1.0052-5.1797,0v-1.8835c1.2593-.9134,8.4353-1.3852,13.6555-2.8253,4.8425-1.3358,9.3949-3.1948,14.1264-4.7088,5.9059-1.8898,13.1762-1.3353,18.3643-5.6506,8.6795-7.2193,1.7323-10.5197,1.4126-11.3011-.7893-1.9292-2.0804-3.7099-2.8253-5.6506-3.3731-8.7887,3.973-14.7888-13.1847-12.7138.2501-1.8118,2.2685-2.9979,3.767-5.1797,2.3229-3.382,6.0142-1.117,0-9.4176-15.2349-21.0264-30.9051-2.2551-49.9134-12.2429.7111-3.7212,6.4084,2.1506,16.9517-.4709-27.4324-5.0096-24.3902-8.0255,1.4126-2.3544-23.4774-12.9884,3.8499-3.6929,12.2429-7.5341v1.8835c-29.6622,1.4828-4.1305,5.29,10.3594,2.8253,2.9368-.4996,7.057-2.5523,9.8885-3.767,2.8744-1.2332,2.3126-.8803,4.7088-2.8253,4.2398-3.4415,8.1372-3.9562,4.7088-11.3011,14.3628-11.1313-.9524-.5449-3.767-6.5923,7.2229-3.309,9.0407,5.2167,12.2429-15.0682.3595-2.2772-.2685-5.1543,0-7.5341.9159-8.1186,3.8384-23.6745,0-31.0781.9358-1.4122,3.3374-1.7986,3.767-3.767.3946-1.8081.7323-8.5638.9418-11.3011.3935-5.1415-.9569-10.1965-.9418-15.0682.0024-.759.9701-.8342.9418-2.8253-.1227-8.6281-1.0426-16.8621-1.8835-25.4276-.212-2.1596.1471-4.4192,0-6.5923,9.4848,28.7036,5.8175,58.3578,3.767,88.0547.472,1.1702,2.2252.1562,2.8253-.9418,1.6256-2.9745,11.2455-53.2757,10.3594-66.8651-.2263-3.4698-7.4656-36.9133-8.4759-38.6122-4.33-7.2812-7.2018,7.5142-14.1264,5.1797-1.0647-1.4471-9.9351-9.3878-10.8303-9.4176-9.4413,5.4368-20.0158,8.7451-26.8402,17.8935-.9511,1.275-.8298,2.6271-.9418,2.8253-.4201.744-4.5676,5.4581-4.7088,6.1214-.8486,3.9872.0621,19.1513.9418,24.0149.3512,2.2347-.9351,1.7784-.9418,1.8835q-.9418-1.1772-1.8835-2.3544c-.7174,2.3058-1.37,6.6639-1.8835,8.005-1.4923,3.8968-2.4735,5.739-3.767,10.3594-1.1428,4.0821-1.7432,8.2517-2.8253,12.2429-1.5283,5.6373-.8771,15.4934-8.4759,16.0099.68-2.4667,1.4192-4.0166,1.8835-5.6506.1494-.5257,2.6993-1.4565-.9418-3.767.8426-1.2636,1.6623-2.3236,2.8253-3.2962-5.3012-41.748,4.7592-44.7654,10.3594-62.6271,3.1833.4305,2.7023-.8578,2.8253-.9418,2.6037-1.7768,4.3381-4.3563,6.5923-6.5923,18.5609-18.4108,20.0268-23.7788,48.5007-34.8452,7.1627-5.9866,9.7147-14.9058,14.5973-22.6023.0798-.1257,1.3734.3631.9418-2.8253,1.8981-.8456,3.5965-1.9724,1.8835.9418-1.2145,1.5296-6.849,12.8933-6.5923,14.5973.7487,4.9705,33.6256,34.2563,8.005,16.4808-.9561-.6633-12.8765-13.9898-11.772-3.2962.3821,3.6997,24.0135,20.2966,30.1364,19.777-20.7683-1.4146-30.6666-16.9145-32.4908-17.4226-11.3525-3.1619,2.1087,14.5859,4.2379,16.4808-21.7985-20.5367-15.1312-4.6712,3.2962,6.1214,13.94,8.1645,49.4505,20.2539,66.3942,23.544,1.7874,4.1413-.2489,4.1262,0,4.7088-19.749-2.6615-39.3889-5.6866-57.4475-14.5973,8.8004,34.7945.8096,55.6688-4.7088,87.1129-.3488,1.9875-1.7474,7.3474-1.4126,7.5341q35.7869-3.2962,71.5739-6.5923c3.2356-1.9056-14.9604-22.9622-18.8352-26.3693-4.357-.6233-8.4335.974-12.7138.9418-3.0747-.0231-20.5577,1.6497-21.6605-1.4126,6.2117-15.2994.1342-33.1832,1.8835-38.6122,2.6985-8.3749,5.9305,25.3289,2.3544,35.3161,29.8838.1928,7.5255-8.546,7.0632-9.8885-2.4785-7.1977,12.5452-8.3045,16.4808-7.0632,2.6564.8378,31.3016,38.6822,34.3743,43.7919,9.0403,15.0333,16.4571,38.1999,27.3111,53.2095,2.2807,5.0307,20.8622,35.882,17.4226,37.6705-26.4176-35.9109-13.8461-22.7199-9.8885,19.3061,1.4836,15.754,2.4538,32.1975.9418,48.0298.7118,1.6142,3.2434.5113,7.5341.4709-.5172,7.335,3.8369,8.1344,2.8253,0,15.8775-1.0115,12.0602-2.0817,22.6023-12.7138.5497-3.155-11.5283-11.5368-9.4176-29.1946.8746-7.3169,10.9456-12.3206,6.5923-61.6854-.4838-5.4856-1.2527-10.9477-.9418-16.4808-1.307-2.5139-4.0125-6.5068-4.7088-8.9467-11.9707-41.9451-23.5542-83.5479-40.4957-123.8416-1.7586-3.3468-7.2715,2.4792-11.3011,5.1797-.2676-.6671-6.9103-11.3791-7.5341-12.2429-3.4404-4.7639-2.8393,4.467-5.6506,0,1.1558-1.7043,2.6205-4.5258,2.8253-4.7088,1.0099-.9025,2.4422-1.1043,3.767-.9418,1.8305,1.9896,5.3414,10.3782,7.0632,10.3594,15.2261-6.7849,6.675-32.2161-9.8885-27.3111-.4205-2.1265-8.5772-14.1594-8.4759-27.782-15.9726-7.7385-35.9898-25.5876-32.9617-45.2046.2023-1.3106,10.6135-16.0317-2.3544-23.0732-6.4786-3.5178-12.9494,2.5417-12.7138,8.9467.0844,2.2938,13.3541,22.8442,16.9517,42.3793-.1962,1.8332-1.9041,2.5533-2.8253,4.2379-1.9552-.4813-2.9068,1.9082-3.2962,1.8835-.6124-.0389.0411-1.0498-1.4126-1.8835-1.8597-1.0666-12.4135-11.0025-14.1264-13.1847-3.9299-5.0065-3.8084-3.4658-5.6506-10.3594-9.2405-34.5787,15.9596-37.7671,23.0732-43.321,14.4928-11.3153,27.6762-24.6623,42.3793-35.7869,2.8382,5.3972,9.8585-1.6034,18.8352,4.7088l.9418-6.5923c7.9341,4.2291,9.436,8.4134,5.1797,16.0099Z" style="fill:#090807; stroke-width:0px;"/><path d="m538.4468,117.5637c5.0994-.1663,8.5348,14.9025,16.0099,14.1264.7961-.0826,9.8343-10.4832,11.772-.4709,1.3449,6.9493-14.04,10.1862-17.8935,15.0682,1.9059,25.4741-2.0266-.7038-20.2479,1.4126-3.2522-1.2409-21.1643-34.06.9418-28.2528,3.6858.9682,5.2626,5.7463,5.6506,5.6506,1.3066-.3225-2.9678-7.3144,3.767-7.5341Z" style="fill:#e5734f; stroke-width:0px;"/><path d="m566.6997,223.041c10.191,10.2405,25.3235,8.6402,25.8984,11.772-15.6271,33.5732-23.8226,14.7528-25.8984-11.772Z" style="fill:#f2c35d; stroke-width:0px;"/><path d="m636.8609,416.1021c.2058.1344,3.6348.0994,4.7088,1.4126-.072,12.21,5.4843,20.0893,5.6506,21.1896.5282,3.4952-1.6919,8.3393-1.8835,12.2429-3.418-7.1255-7.4695-9.8387-14.1264-28.2528,2.1414-3.5242,2.2883-7.5069,5.6506-6.5923Z" style="fill:#f9efe7; stroke-width:0px;"/><path d="m621.3218,486.7342c21.4478-2.3647,1.3484,22.6555-7.5341,20.7188-12.7303-2.7757,2.0787-12.9405,7.5341-20.7188Z" style="fill:#f2c35d; stroke-width:0px;"/><path d="m571.8793,119.4472c.5108.4879,7.3762,9.2308,8.4759,11.3011-.0936.0713-.5917,1.6608-1.4126,1.8835-10.8927,2.9546-21.6215-27.0162-22.1314-15.5391-.0179.4027,4.0973,9.2259,0,4.7088-6.8593-7.5622-4.4011-20.9508,15.0682-2.3544Z" style="fill:#e5734f; stroke-width:0px;"/><path d="m564.8161,147.7001c15.8584-3.9928,8.6369,20.6554-3.767,14.1264-6.4416-3.3906-1.5984-12.7755,3.767-14.1264Z" style="fill:#e5734f; stroke-width:0px;"/><path d="m580.3552,130.7484c-1.0997-2.0704-7.9651-10.8133-8.4759-11.3011,19.9135-29.8184,14.6279,6.6153,8.4759,11.3011Z" style="fill:#dfe2e7; stroke-width:0px;"/><path d="m423.5519,837.0695c.7468-.5286,14.14,1.8868,17.8935,0,9.6678,19.134-26.0653,5.7845-17.8935,0Z" style="fill:#e5734f; stroke-width:0px;"/><path d="m445.2124,228.6916c4.0091.7685,6.5949,23.7706-10.8303,7.0632,1.8379-.5374,10.1953-7.1849,10.8303-7.0632Z" style="fill:#057576; stroke-width:0px;"/><path d="m446.1542,421.7527c2.9924,9.1653-.8789,18.5316-3.767,27.3111-5.5941-5.7269,3.0252-15.4411,3.767-27.3111Z" style="fill:#c1c2bd; stroke-width:0px;"/><path d="m458.868,487.676c-.6347-.0736-1.495.1405-1.8835,0-.099-.0358-1.8115-.865-1.8835-.9418-.4127-.4397-7.0067-8.6919-7.5341-9.4176-2.5895-3.5635-7.2412-7.5429-1.8835-11.3011,4.302,5.5805,8.6629,15.3798,13.1847,21.6605Z" style="fill:#c1c2bd; stroke-width:0px;"/><path d="m395.2991,268.2456c3.3482,8.6383-7.699,12.9968-11.3011,26.3693-.4021-9.5677,6.0204-18.9133,11.3011-26.3693Z" style="fill:#6cdbd7; stroke-width:0px;"/><path d="m545.9809,114.7384c2.678-1.9221,12.5955,8.2339,8.4759,11.3011-4.8832,3.6357-10.4071-9.915-8.4759-11.3011Z" style="fill:#f5bda1; stroke-width:0px;"/><path d="m618.0257,272.0126c-.2588,1.6123.0454,3.8523,0,5.6506q-.7063,4.7088-1.4126,9.4176c-.5346.0876-3.0567-6.3902-5.1797-9.4176q1.8835-4.7088,3.767-9.4176c.092.2167,2.3628,2.4957,2.8253,3.767Z" style="fill:#6ccfea; stroke-width:0px;"/><path d="m639.6862,406.6845c3.9596,1.1541,10.3347,5.1023,2.8253,6.5923-4.4804-2.0443-9.7039-2.1907-14.1264-6.5923,1.5497-.3906,10.7586-.1581,11.3011,0Z" style="fill:#f6d2c3; stroke-width:0px;"/><path d="m613.3168,397.2669c-3.115-3.1051-6.5686-19.3275-5.6506-25.4276.6963,2.4399,3.4018,6.4329,4.7088,8.9467-.3109,5.5332.458,10.9953.9418,16.4808Z" style="fill:#e8f7b6; stroke-width:0px;"/><path d="m445.6833,466.0155c-5.3577,3.7583-.7059,7.7377,1.8835,11.3011q-4.7088,2.3544-9.4176,4.7088c7.4701-7.5302,1.8681-3.5441,1.8835-6.1214.019-3.1733,2.5711-13.8831,5.6506-9.8885Z" style="fill:#2e0b06; stroke-width:0px;"/><path d="m564.8161,218.3322c7.8337,6.8258,13.5094,3.9265,16.0099,4.7088,10.936,3.4215-3.2395,10.2733-16.0099-4.7088Z" style="fill:#f2c35d; stroke-width:0px;"/><path d="m448.0377,395.3834c4.4344,13.6855.5063,31.8382-2.3544,5.1797q1.1772-2.5898,2.3544-5.1797Z" style="fill:#f9efe7; stroke-width:0px;"/><path d="m534.6798,715.5823c4.4461-.1718-13.1935,12.5031-4.2379,13.6555-9.2809,7.6972-7.3703-6.9305,4.2379-13.6555Z" style="fill:#fdfdfb; stroke-width:0px;"/><path d="m636.8609,416.1021c-3.3623-.9146-3.5091,3.0681-5.6506,6.5923-.2955-.8173-3.1287-5.7824-4.7088-10.8303,1.0767-2.0617,9.2151,3.4906,10.3594,4.2379Z" style="fill:#e76f76; stroke-width:0px;"/><path d="m440.5036,402.9175c1.5394,1.0179-.7658,5.8999-1.4126,7.0632-5.3766,9.6699-10.9369,3.0348,1.4126-7.0632Z" style="fill:#fdfdfb; stroke-width:0px;"/><path d="m606.7245,271.0708c-4.2115-6.1744-9.5707-11.6488-12.2429-18.8352,1.1935,1.6918,9.3296,8.6029,12.2429,18.8352Z" style="fill:#f5bda1; stroke-width:0px;"/><path d="m553.515,194.7882c.3194-.1913,5.9865,3.4888,6.1214,4.2379,1.4732,8.1818-9.3371-2.3116-6.1214-4.2379Z" style="fill:#fcf5a0; stroke-width:0px;"/><path d="m592.1272,518.7541c4.4391,0-.2633,15.5406-2.3544,7.0632-.0892-.3614,1.9822-7.0632,2.3544-7.0632Z" style="fill:#dbcfb9; stroke-width:0px;"/><path d="m593.5399,500.8606c1.0117,8.1344-3.3425,7.335-2.8253,0,.923-.0087,2.6843.009,2.8253,0Z" style="fill:#c1c2bd; stroke-width:0px;"/><path d="m575.1755,171.2441c1.9574-.8663,4.4443,2.0106,2.8253,2.8253-.9343.4701-3.8684-2.3636-2.8253-2.8253Z" style="fill:#dfe2e7; stroke-width:0px;"/><path d="m435.3239,478.2584c-1.6729-.4389.0344-4.5135-3.767-5.6506-.4199-.1256-.7251.7232-2.8253.9418-1.3115.1365-2.9089.3078-2.8253-.9418,4.3767-1.5131,8.8299-3.022,12.7138-5.6506,1.2844,4.3792-1.4158,7.8823-3.2962,11.3011Z" style="fill:#f09b93; stroke-width:0px;"/><path d="m432.4986,377.4899c2.8147,6.0474,18.1298-4.5389,3.767,6.5923-.7434-1.5927-2.4771-1.3972-3.767-1.8835-1.798-.6779-2.8917.6155-4.7088-.9418.2784-.1158-.951-1.1741,4.7088-3.767Z" style="fill:#f097a1; stroke-width:0px;"/><path d="m437.6783,396.3251c5.9266-.2436-9.6591,13.0635-8.9467,6.1214.1207-1.1758,7.8361-4.3295,8.9467-6.1214Z" style="fill:#abd9e6; stroke-width:0px;"/><path d="m400.0079,404.801c5.9791-.6898-2.8864,3.6377-3.2962,1.4126-.0325-.1764,3.118-1.3921,3.2962-1.4126Z" style="fill:#855c56; stroke-width:0px;"/><path d="m527.1457,624.2314c9.4683.1326.7082,7.4374-5.1797,21.1896-4.0565,9.4748-26.0813,64.8447-28.2528,67.8068-3.6471,4.9749-3.9268,3.0521-12.7138,3.2962-3.469-1.4817,3.6046-14.3244,4.2379-17.4226,4.8896-23.919,2.3888-48.3653.9418-72.5156,14.4786.8281,36.2029-2.4211,40.9666-2.3544Z" style="fill:#0a585c; stroke-width:0px;"/><path d="m489.0043,724.0581c-1.941,4.1588-5.978,6.6903-8.4759,10.3594-11.426-11.5605-11.8926-10.3594,8.4759-10.3594Z" style="fill:#08676c; stroke-width:0px;"/><path d="m543.6265,737.2428q-.4709.4709-.9418.9418c-2.6521-8.4141-14.941.9426-10.8303-3.767,4.5497-5.2126,10.6735-5.3763,11.772,2.8253Z" style="fill:#fdfdfb; stroke-width:0px;"/><path d="m442.3871,701.4558q-1.8835,9.4176-3.767,18.8352c-3.2139-6.3118,1.2406-12.9639,3.767-18.8352Z" style="fill:#86867f; stroke-width:0px;"/><path d="m556.3403,716.524c1.4999.5781-.309,2.223-.9418,2.8253-7.3709,7.0152-2.0174-3.9659.9418-2.8253Z" style="fill:#a7a6a8; stroke-width:0px;"/><path d="m420.7266,739.1263c.5681.06,1.3988,3.8807-.9418,3.767-.3904-.019.7157-3.791.9418-3.767Z" style="fill:#605b5a; stroke-width:0px;"/><path d="m569.5249,170.3024c.4474-.1581,3.3466,1.2253,3.2962,1.4126-.48,1.7815-4.9622-.8238-3.2962-1.4126Z" style="fill:#605b5a; stroke-width:0px;"/><path d="m450.3921,599.7456c.3867,1.1537,1.342,1.7057,1.8835,2.8253-5.0344,7.391-6.3586,5.2418-6.5923,5.6506l-1.8835-.9418c.0532-.1309.0664-2.7006,0-2.8253,1.0926-.1603,6.4196-4.3424,6.5923-4.7088Z" style="fill:#4fcdd7; stroke-width:0px;"/><path d="m538.9177,50.6986c15.9274,4.7098,25.7143,11.4048,35.7869,24.4858q.4709,1.8835.9418,3.767c.1759.7099-.3506,8.5565.9418,14.5973q-3.2962-2.119-6.5923-4.2379c4.2563-7.5965,2.7544-11.7808-5.1797-16.0099l-.9418,6.5923c-8.9767-6.3122-15.9971.6884-18.8352-4.7088-14.7031,11.1247-27.8864,24.4716-42.3793,35.7869-7.1135,5.5539-32.3136,8.7423-23.0732,43.321-19.4658-26.771-16.3816-67.0113,6.5923-90.88q-.7063-.7063-1.4126-1.4126-2.5898,1.6481-5.1797,3.2962,6.1214-5.6506,12.2429-11.3011c-10.1808,4.6474-33.5142,17.7115-10.3594-1.8835-.5333-1.6936-21.4543,9.776-16.0099-3.2962,1.6033-2.8916,1.0735-2.4267,3.767-4.7088,22.5783.7174,48.0159.1831,69.6904,6.5923Z" style="fill:#dd4951; stroke-width:0px;"/><path d="m479.5867,154.2924c1.8422,6.8935,1.7207,5.3529,5.6506,10.3594-6.5232-2.3271-14.9334-19.0742-16.9517-25.4276-6.309-19.8606-5.293-41.8114,3.767-60.7436-9.6025-7.3016-12.3499-19.2816-6.5923-29.6655-5.4444,13.0722,15.4767,1.6026,16.0099,3.2962-23.1548,19.595.1785,6.531,10.3594,1.8835q-6.1214,5.6506-12.2429,11.3011,2.5898-1.6481,5.1797-3.2962.7063.7063,1.4126,1.4126c-22.9739,23.8687-26.0582,64.1089-6.5923,90.88Z" style="fill:#2e0b06; stroke-width:0px;"/><path d="m575.6464,78.9515q-.4709-1.8835-.9418-3.767c1.3017,1.6196.6948,2.77.9418,3.767Z" style="fill:#470301; stroke-width:0px;"/><path d="m401.4205,886.9829c-.624,2.7454-.575,7.4658-.9418,10.3594-3.1134-2.3255-9.3667,7.5304-10.3594,2.3544-.1658-.8645,8.5569-13.9312,11.3011-12.7138Z" style="fill:#89dfe5; stroke-width:0px;"/><path d="m628.385,552.6575c-.1803-3.3983,15.2618-39.68,17.8935-41.4375-2.7653,11.5906-7.3419,22.618-12.2429,33.4325-.8105,1.7886,2.7615,4.0984-5.6506,8.005Z" style="fill:#2e0b06; stroke-width:0px;"/><path d="m384.4688,907.7016q-.4709-.9418-.9418-1.8835c4.2756.1292,6.2282.9827.9418,1.8835Z" style="fill:#86867f; stroke-width:0px;"/><path d="m572.8211,858.73c.0386.2819-1.1908,1.1635-.9418,5.1797.0482.7772,1.8813.3739,1.8835.4709.0155.6607-.7862,12.1188-.9418,13.1847-.55-.1297-6.5169,1.8185-11.3011,0-4.4595-14.428-4.8085-3.206-8.9467-1.8835-4.0353,1.2896-14.3624-.8529-17.4226-3.767-.3511-.3343-4.5737-8.0103-4.7088-8.4759-1.5985-5.5066-.757-4.2848,2.8253-7.5341,6.8198,14.269,9.5902,3.7355,13.6555,2.8253,7.9585-1.782,13.8831,8.1317,22.1314-11.3011,3.3709,2.3614,3.2352,7.4118,3.767,11.3011Z" style="fill:#f2c35d; stroke-width:0px;"/><path d="m569.0541,847.4289c-8.2483,19.4328-14.1729,9.5191-22.1314,11.3011-4.0654.9103-6.8358,11.4437-13.6555-2.8253.9788-.8878,1.5206-3.347,3.767-2.8253,6.7494,2.7314,10.2081-1.4189,16.0099-3.767.5039-.2039,4.3409.7083,10.3594-3.2962.354-.9038-3.8189-6.5393-4.7088-8.9467.2572-4.8726-1.0841-9.96,1.8835-14.1264,3.9229,2.3278-4.0384,13.0801,8.4759,24.4858Z" style="fill:#090807; stroke-width:0px;"/><path d="m535.1506,918.061c23.511,2.048,46.9587,5.6472,70.6321,5.6506,15.1784.0021,30.5267-.5142,45.2046-4.7088.1248,1.1049.1994,4.0734,0,4.7088-2.2574,7.1924-46.4879,6.8309-55.093,6.5923-8.9144-.2472-74.6089-4.934-78.1662-6.5923-1.7298-.8064-1.32-2.6974-1.4126-2.8253-.2729-7.8114,9.0081-3.6813,18.8352-2.8253Z" style="fill:#090807; stroke-width:0px;"/><path d="m648.162,913.3522c.3138.0041.6282-.0084.9418,0,.096,2.1481,1.6238,3.3521,1.8835,5.6506-14.6778,4.1946-30.0261,4.7109-45.2046,4.7088q.2354-.9418.4709-1.8835c-11.1446-.0897-22.1356-2.3624-32.9617-4.7088-.8043-.1743-.3758-1.8639-.4709-1.8835q-6.1214-.4709-12.2429-.9418c-6.4693-.0725-12.0772,3.4533-19.777-5.6506,12.1351-3.6642,14.7999,2.3561,24.9567,3.767,15.5287,2.1572,38.3725,4.2931,53.6804,3.767,5.8877-.2023,11.4081-3.0489,28.7237-2.8253Z" style="fill:#f2c35d; stroke-width:0px;"/><path d="m560.5782,914.2939c1.7983,2.2174,8.5979.187,12.2429.9418.0951.0197-.3334,1.7092.4709,1.8835,10.8261,2.3464,21.8171,4.6191,32.9617,4.7088q-.2354.9418-.4709,1.8835c-23.6734-.0033-47.1211-3.6026-70.6321-5.6506-3.0047-6.0482-.7017-7.4232-.9418-8.4759,2.5194.467,4.2795-.2434,6.5923-.9418,7.6998,9.1038,13.3077,5.5781,19.777,5.6506Z" style="fill:#b98729; stroke-width:0px;"/><path d="m561.52,877.5653c.0699.2261-2.4666,3.5414.4709,4.7088.4813.1913,9.9365.2992,10.3594,0,.9722-.6878.2911-3.4775.4709-4.7088,6.9303,1.6349,8.9283,12.3832,19.3061,6.5923,3.6418,1.9958-4.0498,4.9541-3.2962,7.0632,1.5677,4.3873,14.1462-4.0731,6.5923,7.5341.3914,3.2513,7.5609-2.5353,8.005-2.3544.7116.2898,2.7714,14.5771,8.9467,4.7088.4869.3406,4.5072,1.2691,9.8885,6.5923,3.2663.6365,18.7579-7.6259,25.8984,5.6506-17.3156-.2237-22.836,2.623-28.7237,2.8253-15.3079.5261-38.1517-1.6099-53.6804-3.767-10.1568-1.4109-12.8216-7.4313-24.9567-3.767-2.3128.6983-4.073,1.4087-6.5923.9418-1.9216-8.4264-7.8032-16.5268.9418-37.6705,3.0602,2.9141,13.3873,5.0566,17.4226,3.767,4.1382-1.3225,4.4873-12.5445,8.9467,1.8835Z" style="fill:#090807; stroke-width:0px;"/><path d="m572.8211,877.5653c-.1797,1.2313.5013,4.021-.4709,4.7088-.4228.2992-9.878.1913-10.3594,0-2.9375-1.1674-.401-4.4827-.4709-4.7088,4.7843,1.8185,10.7512-.1297,11.3011,0Z" style="fill:#525770; stroke-width:0px;"/><path d="m536.5633,884.1576c.9849,2.5521,1.8725,5.2141,1.4126,8.005-1.6963,10.2955-5.2706-2.8251-1.4126-8.005Z" style="fill:#fdfdfb; stroke-width:0px;"/><path d="m572.8211,915.2357c-3.645-.7548-10.4446,1.2756-12.2429-.9418q6.1214.4709,12.2429.9418Z" style="fill:#361c06; stroke-width:0px;"/><path d="m420.2557,872.8564c.5494,3.1807-.2642,7.4514-3.767,8.4759-3.8943,1.139-9.1969-1.3619-13.1847,0,.3429-.5169,4.4352-4.519,4.7088-4.7088.3983-.2764,4.4489.2946,8.4759-4.7088.1477.126,2.7429.5352,3.767.9418Z" style="fill:#dfe2e7; stroke-width:0px;"/><path d="m416.4887,881.3323c4.0551,4.5402,9.4456,7.5227,14.1264,11.3011-12.4457,5.686,6.1456,7.8279,7.0632,8.4759.6557.463,1.5301,4.2082,7.0632,10.3594,2.3363,2.5972,1.7682,2.7006,1.8835,2.8253-6.3007,3.0587-.5975,9.137,7.5341,9.4176,1.699.0586,4.4574-.5217,5.6506-1.8835.1044.1903,3.071,1.4088,2.8253,3.2962-19.0364,15.8648-2.3637,3.2193,5.1797,3.2962,13.9424.1422,29.3914,8.9587,28.7237,24.4858-.3237,7.5276.0903,8.2779-16.4808,7.5341-11.7691-.5283-58.565-8.732-67.8068-17.8935-15.571-1.6113-50.7245-3.6133-62.6271-6.5923-4.6435-1.1622-10.1259-1.1649-6.5923-7.5341,18.29-.3891,35.9901,1.3615,54.1513,2.8253,1.1277-.8001.1453-7.5768.4709-9.4176,1.6191-9.1542,1.7108-15.6925,2.8253-24.4858.3668-2.8936.3178-7.614.9418-10.3594.5405-2.3778.3706-3.3697,1.8835-5.6506,3.9878-1.3619,9.2904,1.139,13.1847,0Z" style="fill:#090807; stroke-width:0px;"/><path d="m404.2458,934.0709c-1.4959-3.9428-.2904-8.3388-.9418-12.2429q14.8327,10.3594,29.6655,20.7188c24.5578,6.9256,65.7391-12.199,59.331,10.3594-24.1115-2.0869-59.6375.8624-77.2244-16.0099-4.8219.6003-7.0558-.1641-10.8303-2.8253Z" style="fill:#f2c35d; stroke-width:0px;"/><path d="m403.304,921.828c.6514,3.9041-.5542,8.3001.9418,12.2429-9.3625-6.601-2.8864-23.8983-.9418-12.2429Z" style="fill:#fdfdfb; stroke-width:0px;"/><path d="m448.5086,887.9246c-.3066,3.1257-3.3592,2.6937-.9418,7.5341-9.1713.344,5.9883,14.974,12.2429,26.3693-1.1932,1.3618-3.9515,1.9422-5.6506,1.8835-.1181-5.3475-7.1036-8.9521-7.5341-9.4176-.1153-.1247.4527-.2281-1.8835-2.8253,3.6761,1.4806-2.1649-8.6903-4.7088-11.772-5.3133-6.4364-8.8025-6.5667-9.4176-7.0632-4.6808-3.7785-10.0713-6.7609-14.1264-11.3011,3.5029-1.0245,4.3164-5.2952,3.767-8.4759,7.1474,2.8373,13.6304,1.7105,21.1896,1.8835,1.7928,1.1393-7.9339,14.5991,7.0632,13.1847Z" style="fill:#f2c35d; stroke-width:0px;"/><path d="m444.7415,911.4687c-5.5331-6.1512-6.4076-9.8964-7.0632-10.3594-.9176-.648-19.509-2.7898-7.0632-8.4759.6151.4965,4.1043.6268,9.4176,7.0632,2.5439,3.0817,8.3849,13.2527,4.7088,11.772Z" style="fill:#dad1cb; stroke-width:0px;"/><path d="m454.1591,923.7116c-8.1316-.2806-13.8348-6.3589-7.5341-9.4176.4305.4655,7.416,4.0701,7.5341,9.4176Z" style="fill:#c1c2bd; stroke-width:0px;"/><path d="m441.4454,888.8664c.2867-.0303,1.4126,3.72,1.4126,5.1797,0,6.4675-3.1702-4.994-1.4126-5.1797Z" style="fill:#a47e11; stroke-width:0px;"/><path d="m576.5881,723.1164c-.4969,13.2832.1404,26.2123-.9418,39.554-.1006,1.2411.1229,2.5312,0,3.767q-.9418-.2354-1.8835-.4709c-.5756,15.6406-11.1001,29.9297-10.3594,45.6754-27.0959-3.7925-4.8632-6.6359-9.4176-36.2578-2.6082-16.9634-18.0804-14.9606-11.3011-37.1996q.4709-.4709.9418-.9418c13.1946-1.4841,25.4254-16.1481,32.9617-14.1264Z" style="fill:#0a585c; stroke-width:0px;"/><path d="m472.0526,751.3692c.9589,9.3973-.8082,19.0962-2.8253,28.2528-.8836,1.5767-1.7952.781-1.8835.9418-8.0589,14.6721-18.0228,28.7057-21.6605,45.6754h-1.8835c1.7847-27.3283,1.8489-52.3735-4.7088-79.108,6.3953.4933,23.5894-10.8996,24.9567-10.8303.5653.0287,7.8406,7.4633,8.005,8.005.1026.3379-.2982,4.1412,0,7.0632Z" style="fill:#0a585c; stroke-width:0px;"/><path d="m575.6464,766.4374c-1.0819,10.8804-2.7007,15.8742-4.7088,25.4276-.2209,1.0508-3.409,6.3449-5.6506,20.7188-.8296.0393-.942-.81-1.8835-.9418-.7407-15.7458,9.7838-30.0348,10.3594-45.6754q.9418.2354,1.8835.4709Z" style="fill:#081311; stroke-width:0px;"/><path d="m595.4234,656.2513c-.4491,2.0287-.5683,4.9814-.9418,6.5923-1.5734,6.7871-8.4155,19.5791-9.4176,25.8984-.8098,5.1068,6.8821,5.4974-4.7088,11.772v.9418c-4.0958-6.4462-17.4121-2.3241-19.777-11.772-1.1794-4.712,3.6111-46.2109,5.6506-53.6804,2.6256-9.6162,10.1754-20.7895,13.1847-29.1946,5.5827-15.5929,9.8253-32.6866,15.5391-47.559q-10.1239,4.4734-20.2479,8.9467,1.8835-18.8352,3.767-37.6705c6.8464-2.5825,15.3944,3.5778,24.0149-2.3544,6.5116-4.481,4.8867-26.88,8.9467-12.7138.3744,1.3064-5.6392,17.3367-6.5923,26.3693-1.0733,10.172.1335,25.2838-.9418,35.7869-2.6721,26.1022-8.6808,52.5871-8.4759,78.6371Z" style="fill:#0a585c; stroke-width:0px;"/><path d="m590.7146,687.3294c-1.8142,9.6147,4.432,9.0281-5.6506,17.8935-.689-1.3654-3.1741-3.9333-4.7088-4.7088,11.5909-6.2746,3.899-6.6652,4.7088-11.772,1.0021-6.3194,7.8443-19.1114,9.4176-25.8984,2.7654,8.347-2.2298,16.3388-3.767,24.4858Z" style="fill:#081311; stroke-width:0px;"/><path d="m587.4184,697.6888c.5595-.0209,1.2474-.1538,1.4126.4709,1.4049,5.3111-10.6445-.1256-1.4126-.4709Z" style="fill:#dfe2e7; stroke-width:0px;"/><path d="m607.6663,371.8393c-.9181,6.1001,2.5355,22.3225,5.6506,25.4276,4.3532,49.3648-5.7177,54.3684-6.5923,61.6854-2.1107,17.6579,9.9674,26.0396,9.4176,29.1946-10.542,10.632-6.7248,11.7023-22.6023,12.7138-.141.009-1.9023-.0087-2.8253,0-4.2907.0405-6.8223,1.1433-7.5341-.4709,1.5121-15.8323.5418-32.2758-.9418-48.0298-3.9577-42.026-16.5291-55.217,9.8885-19.3061,3.4396-1.7885-15.1419-32.6398-17.4226-37.6705-4.1609-9.1781-7.1427-19.0006-12.2429-27.782-2.6432-10.1885-4.6711-20.4675-7.5341-30.6072,1.4797-9.5645-5.1546-18.8471-8.4759-27.3111-5.0325-12.825-10.7275-25.3066-16.0099-37.6705-.2489-.5827,1.7874-.5675,0-4.7088-.059-.1367-.0231-.9022-.9418-2.8253,4.1987-4.6303,8.6943-8.9295,12.2429-14.1264,3.6319.2125,14.519,27.9661,17.8935,18.3643.265-.7542-3.0837-13.8353-3.767-15.5391,4.0297-2.7005,9.5426-8.5265,11.3011-5.1797,16.9415,40.2937,28.525,81.8965,40.4957,123.8416Z" style="fill:#1da0a9; stroke-width:0px;"/><path d="m508.7813,211.7399c.1389.0537-.3963,1.3783,2.8253.9418,1.1251.6774,1.6023.7823,1.8835.9418,11.2994,6.4079,25.1333,10.3237,32.0199,22.6023-.2047.183-1.6695,3.0045-2.8253,4.7088-2.6534,3.9129-8.0177,15.9436-12.7138,14.1264-7.4021-2.8642-35.8224-45.1717-36.2578-49.4425-.0662-.6497,2.1079-.1201,1.8835-1.4126,2.5163,3.9944,8.8131,5.8447,13.1847,7.5341Z" style="fill:#1da0a9; stroke-width:0px;"/><path d="m549.2771,235.2839c-1.5457-1.6799-3.0712-3.1442-4.7088-4.7088,2.2032-2.2354,2.4086-9.5877,1.8835-12.2429,16.5635-4.9051,25.1146,20.5262,9.8885,27.3111-1.7218.0188-5.2327-8.3698-7.0632-10.3594Z" style="fill:#1da0a9; stroke-width:0px;"/><path d="m548.3353,240.9345c.6238.8638,7.2665,11.5758,7.5341,12.2429.6834,1.7037,4.0321,14.7848,3.767,15.5391-3.3745,9.6018-14.2616-18.1518-17.8935-18.3643,2.3863-3.4948,3.2797-8.8802,6.5923-9.4176Z" style="fill:#dd6249; stroke-width:0px;"/><path d="m554.9276,336.9941c-2.5976-9.1998-6.2058-18.0238-8.4759-27.3111,3.3212,8.464,9.9555,17.7466,8.4759,27.3111Z" style="fill:#1c4226; stroke-width:0px;"/><path d="m546.4518,218.3322c.525,2.6552.3197,10.0075-1.8835,12.2429-8.3706-7.9976-19.71-14.3471-31.0781-16.9517-.2812-.1595-.7584-.2644-1.8835-.9418-.1276-.0768.3599-1.3762-2.8253-.9418-4.3716-1.6894-10.6684-3.5397-13.1847-7.5341-6.0472-9.5994,4.1178-18.3989,8.4759-26.3693.9212-1.6847,2.629-2.4047,2.8253-4.2379-3.5976-19.5351-16.8673-40.0855-16.9517-42.3793-.2356-6.405,6.2351-12.4646,12.7138-8.9467,12.9679,7.0414,2.5567,21.7625,2.3544,23.0732-3.0282,19.6169,16.9891,37.466,32.9617,45.2046-.1014,13.6226,8.0554,25.6554,8.4759,27.782Z" style="fill:#e5734f; stroke-width:0px;"/><path d="m544.5683,230.5751c1.6376,1.5646,3.1632,3.0289,4.7088,4.7088-1.3249-.1626-2.7572.0393-3.767.9418-6.8866-12.2786-20.7204-16.1944-32.0199-22.6023,11.3682,2.6046,22.7075,8.9541,31.0781,16.9517Z" style="fill:#36322a; stroke-width:0px;"/><path d="m497.0093,125.0978c.7788,1.0911,2.8991,2.4508,3.2962,3.2962,5.2486,11.1749-.5684,12.3674-3.2962-3.2962Z" style="fill:#2e0b06; stroke-width:0px;"/><path d="m511.6066,212.6816c-3.2216.4365-2.6864-.8881-2.8253-.9418,3.1851-.4345,2.6977.865,2.8253.9418Z" style="fill:#6c6f63; stroke-width:0px;"/><path d="m493.7131,183.487c-2.0278,1.6317-7.9517,6.7933-8.4759,8.9467-3.5593,14.6242,25.2406,63.2637,42.8501,67.3359.6501.7242.1658,2.0987,1.4126,4.7088.9187,1.9231.8827,2.6886.9418,2.8253-16.9437-3.2901-52.4542-15.3796-66.3942-23.544-18.4273-10.7926-25.0947-26.6581-3.2962-6.1214-2.1292-1.895-15.5905-19.6428-4.2379-16.4808,1.8242.5081,11.7225,16.008,32.4908,17.4226-6.1229.5196-29.7543-16.0773-30.1364-19.777-1.1045-10.6937,10.8159,2.6328,11.772,3.2962,25.6206,17.7754-7.2563-11.5103-8.005-16.4808-.2567-1.704,5.3778-13.0677,6.5923-14.5973.1875-.2361,3.9651-3.1829,4.7088-3.767,4.84-1.9355,11.7853-3.4634,11.3011-5.6506,3.2452-.3627,5.7231.0949,8.4759,1.8835Z" style="fill:#f2c35d; stroke-width:0px;"/><path d="m473.9361,187.2541c2.8751-2.2584,2.6479-2.4497,6.5923-3.767,1.5862-.5297,4.0865-1.814,4.7088-1.8835.4842,2.1871-6.4612,3.7151-11.3011,5.6506Z" style="fill:#2e0b06; stroke-width:0px;"/><path d="m504.0725,177.8365c-4.3581,7.9704-14.523,16.7699-8.4759,26.3693.2243,1.2926-1.9498.763-1.8835,1.4126.4354,4.2708,28.8557,46.5782,36.2578,49.4425,4.696,1.8171,10.0604-10.2135,12.7138-14.1264,2.8113,4.467,2.2102-4.7639,5.6506,0-3.3126.5374-4.206,5.9228-6.5923,9.4176-3.5486,5.1969-8.0442,9.4961-12.2429,14.1264-1.2469-2.6101-.7625-3.9846-1.4126-4.7088-17.6095-4.0722-46.4095-52.7117-42.8501-67.3359.5241-2.1534,6.4481-7.315,8.4759-8.9467.3374-.2715,2.3694,3.1599,5.6506-5.6506,1.4537.8337.8002,1.8447,1.4126,1.8835.3894.0247,1.341-2.3648,3.2962-1.8835Z" style="fill:#081311; stroke-width:0px;"/><path d="m488.5334,201.3805c8.2219,10.4211,12.6653,23.5731,20.2479,34.3743,7.1961,10.2506,28.1451,29.8662,9.8885,15.5391-10.433-8.1874-29.9467-36.5189-30.1364-49.9134Z" style="fill:#f0aa48; stroke-width:0px;"/><path d="m404.2458,307.7995c.1432.1393-.2671.2119,2.8253,2.8253,1.6182,1.3675,7.4433,2.5999,11.772,8.4759,3.8237.4808,3.1294-.9813,3.2962-.9418,11.9893,2.8413,20.2772,1.1659,22.6023,5.6506,3.8384,7.4036.9159,22.9595,0,31.0781-2.1269,7.0746-17.5895,15.0234-22.6023,9.4176,5.9219-1.3628,15.2352,2.1898,17.8935-13.6555-1.3585-3.2192-11.8903,4.2092-10.3594-2.8253.1496-.6875,9.5685-5.6359,9.8885-6.1214,5.255-7.9732-9.916-1.5401-16.9517-1.8835-2.4497-.1196-46.6645-13.5464-24.4858,0,5.4701,3.3411,19.8709,6.0659,26.3693,10.3594,17.21,11.3707-14.8583,16.2099-23.544,12.2429-5.9432,7.7936-14.1161-3.4767-15.0682-3.767-9.3304-2.8458-14.1921,2.4741-3.2962,7.5341,3.3633,3.385.4788,4.2106.9418,5.1797.4173.8736,1.7979.3284,1.8835.4709.2883.4798.6388,1.4528.9418,1.8835,2.1992,3.1257,3.932,5.7789,7.5341,7.5341.0197,2.1727,3.3315,5.3157,3.767,7.0632.4859,1.9496-.9188,2.4955-.9418,3.2962-7.595-15.3711-29.0689-20.0161-16.9517-4.7088-.2546-.2473-2.1077.4985-2.8253-.4709-3.2608-6.7069-8.0191-13.6795-7.5341-21.6605-2.1549-4.2437-6.6503,6.2157-6.5923,7.5341.143,3.2538,16.2738,24.3715,17.8935,15.5391,3.0283,2.5794,6.1091,6.0265,10.3594,6.5923q-.9418.7063-1.8835,1.4126c37.2386,2.3256,16.6659-.4284,12.7138-3.2962-1.0155-.7368-5.0375-7.9436-4.2379-10.3594,13.4335,2.4501,18.7904-3.7161,28.2528,0-22.07,7.4199-23.3905,2.1636.9418,16.0099-2.8315,1.2148-6.9517,3.2675-9.8885,3.767-14.4898,2.4647-40.0215-1.3425-10.3594-2.8253v-1.8835c-8.393,3.8412-35.7203-5.4543-12.2429,7.5341-25.8028-5.6711-28.8451-2.6552-1.4126,2.3544-10.5433,2.6215-16.2406-3.2503-16.9517.4709-1.606,8.4035,10.2847,4.7183,14.1264,12.7138-6.9009,5.2565-27.0114-5.646-23.544,5.1797-2.3537-3.3303-3.6458-7.1294-6.1214-10.3594-5.516,1.8513,21.1482,32.9736,1.4126,12.2429-3.2341-3.3972-6.6948-5.1572-8.4759-10.8303-1.1563-12.6289,3.3256-24.7749,3.767-37.1996,1.3991-.2986,4.6634.6464,5.6506-.4709.3027-.3426-.9693-2.1948-1.8835-8.9467-.691-5.1036-1.9086-3.0758-.9418-10.3594,1.863-2.0076,3.5435-5.1244,4.7088-7.5341,2.6657-2.2868,9.9997-4.6221,11.3011-6.1214,1.3495-1.5548,3.0241-10.0185,3.767-12.7138,7.5987-.5165,6.9476-10.3727,8.4759-16.0099,6.483,5.5549,17.0049,15.5938,24.4858,12.7138-10.7573-4.6366-16.9561-14.9372-21.6605-24.9567,1.2935-4.6204,2.2748-6.4625,3.767-10.3594,2.2857,4.2898,5.98,9.8391,9.4176,13.1847Z" style="fill:#dd4951; stroke-width:0px;"/><path d="m425.9063,419.8692c-4.521,5.2549-40.9155-8.2831-20.2479,8.4759,1.9126,1.5509,13.2783,7.0729,14.5973,5.1797-16.3444-12.0379-10.2911-11.8248,5.6506-4.2379-1.4985,2.1818-3.5169,3.3679-3.767,5.1797,17.1577-2.075,9.8115,3.9251,13.1847,12.7138-10.9544,15.4644-3.1173,24.8356,2.8253,5.6506.3197.7814,7.2669,4.0818-1.4126,11.3011-5.1881,4.3153-12.4584,3.7608-18.3643,5.6506-5.7303-5.4882-10.9572-6.6679-18.8352-5.6506q-7.5341-1.4126-15.0682-2.8253c2.7138-1.5768,5.4359-5.294,9.8885-6.5923,8.4274-.9711,26.7036,12.3987,32.4908,6.1214.2774-2.8605-3.7532.6527-10.8303-1.4126-15.2218-4.4423-12.2178-9.9043-29.6655-2.8253-1.6261-1.8981-12.3922-9.2495-13.1847-9.4176,1.8807-4.74,3.5893-2.5659,7.5341-1.8835,2.2701.3927,4.9458,1.8012,7.0632,2.8253,11.3123-6.3868,27.4233,11.0039,34.8452,8.4759,9.433-3.2131-13.5182-21.6023-41.9084-13.1847.8632-4.586-.1449-1.6205-.9418-3.767,4.1445-.0856,10.1462-6.0565,6.1214-9.4176-2.1258-1.7753-12.8161-7.3861-7.0632,8.4759-5.3912-3.1113-8.7737-8.2762-12.2429-13.1847-3.4673-10.8257,16.6432.0768,23.544-5.1797-3.8417-7.9955-15.7324-4.3102-14.1264-12.7138,19.0083,9.9878,34.6785-8.7835,49.9134,12.2429Z" style="fill:#dd4951; stroke-width:0px;"/><path d="m441.9163,245.6433c3.5953,4.8865,3.5776,8.0526,3.767,8.4759-3.9063-.9237-11.1552,23.7457-5.1797,23.544,2.9126-.0983,3.7345-10.9479,7.0632-12.2429.8409,8.5655,1.7608,16.7994,1.8835,25.4276-8.9703-5.591-19.8308-5.8657-29.6655-9.4176-4.5059-3.2335,3.7012-20.8769-15.5391-27.3111,6.8244-9.1484,17.3989-12.4567,26.8402-17.8935.8952.0298,9.7655,7.9705,10.8303,9.4176Z" style="fill:#dd4951; stroke-width:0px;"/><path d="m448.5086,293.6731c-.0151,4.8716,1.3352,9.9267.9418,15.0682-4.2953-8.6353-42.4924-24.7628-40.0249-13.1847,11.777-8.08,17.7445,4.7203,24.9567,11.3011q2.8253,5.886,5.6506,11.772c-.9648,1.7209-7.2684-2.0324-9.4176-2.3544-.0395-1.1727.9683-1.0826,1.8835-.9418,7.3505,1.131,1.7372-.5055-8.005-11.3011-2.0214.9534,1.725,4.8668,2.3544,5.6506-9.1513-1.2133-2.701.6939-4.7088,7.5341v.9418c-.1668-.0395.5275,1.4225-3.2962.9418-4.3287-5.8759-10.1539-7.1083-11.772-8.4759.8405-5.156-6.5018-17.8366-7.5341-23.544-.8797-4.8637-1.7904-20.0277-.9418-24.0149.1412-.6633,4.2887-5.3775,4.7088-6.1214,2.2532,2.0339,12.911,15.9556,9.8885,17.8935-1.948-1.2133-6.5954-3.6087-8.005-.4709-4.4845,9.983,37.0198,18.4784,43.321,19.3061Z" style="fill:#cf3441; stroke-width:0px;"/><path d="m384.4688,461.3067q7.5341,1.4126,15.0682,2.8253c-13.8617,1.79,2.4347,3.8521,4.7088,10.3594-5.2202,1.4401-12.3963,1.9119-13.6555,2.8253v1.8835c.3357-1.0052,2.0454-.2167,5.1797,0-3.041,13.9402,7.7087,1.3815,19.777,15.0682-.1094.0978.0698,1.3691,0,2.3544q-1.1772.2354-2.3544.4709c-9.4694-14.6424-27.4104,1.0439-38.1413-18.3643-.932-1.6856-2.4599-3.532-1.8835-5.6506.2052-.7543,13.1693-11.1955.4709-2.3544-1.1695-8.142,8.2695-7.9297,10.8303-9.4176Z" style="fill:#dd4951; stroke-width:0px;"/><path d="m432.4986,377.4899c-5.6598,2.5929-4.4304,3.6513-4.7088,3.767-.0615.0256.2215,1.0435-.9418.9418h-.9418c-9.4625-3.7161-14.8194,2.4501-28.2528,0-.3284-.0599-3.5925-.8567-3.767-.9418-3.602-1.7552-5.3349-4.4084-7.5341-7.5341,5.5522,2.9392,11.5828,4.9657,17.8935,3.2962q-9.4176-2.5898-18.8352-5.1797c-.0856-.1425-1.4662.4027-1.8835-.4709-.4629-.9691,2.4215-1.7947-.9418-5.1797,13.6541,6.3408,21.8734,1.2086,32.9617-.9418q2.5898,1.4126,5.1797,2.8253-5.1797.9418-10.3594,1.8835c29.3144-1.2776,5.2624,2.3666-8.9467,2.3544,13.9832,5.4023,34.1879,1.8959,43.321-9.8885-3.2022,20.2849-5.02,11.7591-12.2429,15.0682Z" style="fill:#cf3441; stroke-width:0px;"/><path d="m449.4503,290.8478c.0283,1.9911-.9394,2.0663-.9418,2.8253-6.3012-.8277-47.8055-9.3231-43.321-19.3061,1.4096-3.1378,6.057-.7424,8.005.4709,3.0225-1.9379-7.6353-15.8595-9.8885-17.8935.1119-.1982-.0094-1.5503.9418-2.8253,19.2403,6.4341,11.0331,24.0776,15.5391,27.3111,9.8347,3.5519,20.6952,3.8267,29.6655,9.4176Z" style="fill:#f1867f; stroke-width:0px;"/><path d="m425.9063,472.6078c-.0836,1.2495,1.5138,1.0782,2.8253.9418-25.5388,22.2772,7.1844,14.794,2.8253-.9418,3.8014,1.1371,2.0942,5.2117,3.767,5.6506-1.346,2.4473-3.5376,5.7897-5.6506,7.5341-.9527.7866-5.7605.9973-14.1264,8.4759-12.0683-13.6867-22.818-1.128-19.777-15.0682,12.2898.8498,19.3011-2.8465,30.1364-6.5923Z" style="fill:#dd4951; stroke-width:0px;"/><path d="m444.7415,362.4217c-9.1332,11.7843-29.3378,15.2908-43.321,9.8885,14.2091.0122,38.2612-3.632,8.9467-2.3544q5.1797-.9418,10.3594-1.8835-2.5898-1.4126-5.1797-2.8253c1.979-.3838,3.6428-.263,6.5923-.9418,5.0127,5.6058,20.4754-2.3431,22.6023-9.4176-.2685,2.3798.3595,5.2569,0,7.5341Z" style="fill:#470301; stroke-width:0px;"/><path d="m449.4503,308.7413c-.2095,2.7373-.5471,9.4931-.9418,11.3011-5.261-8.8859-12.2045-11.431-14.1264-13.1847-7.2122-6.5808-13.1796-19.3811-24.9567-11.3011-2.4675-11.5781,35.7296,4.5494,40.0249,13.1847Z" style="fill:#f1867f; stroke-width:0px;"/><path d="m425.9063,419.8692c6.0142,8.3006,2.3229,6.0356,0,9.4176-15.9417-7.5868-21.9949-7.8-5.6506,4.2379-1.319,1.8932-12.6847-3.6288-14.5973-5.1797-20.6676-16.759,15.7269-3.2209,20.2479-8.4759Z" style="fill:#f1867f; stroke-width:0px;"/><path d="m429.6734,385.9657c-.0545.4771,1.6781,7.5743,1.8835,9.4176-2.3962,1.945-1.8344,1.5921-4.7088,2.8253-24.3323-13.8463-23.0118-8.59-.9418-16.0099h.9418c1.5708,2.0133-1.1234,5.7766,2.8253,3.767Z" style="fill:#fbb9aa; stroke-width:0px;"/><path d="m388.2358,317.2172c1.082-3.9912,1.6825-8.1608,2.8253-12.2429,4.7044,10.0194,10.9032,20.3201,21.6605,24.9567-7.4809,2.88-18.0028-7.1589-24.4858-12.7138Z" style="fill:#f09b93; stroke-width:0px;"/><path d="m399.537,464.1319c7.8781-1.0173,13.105.1624,18.8352,5.6506-4.7315,1.514-9.2839,3.373-14.1264,4.7088-2.2741-6.5072-18.5705-8.5694-4.7088-10.3594Z" style="fill:#f1867f; stroke-width:0px;"/><path d="m448.5086,320.0424c-.4297,1.9685-2.8313,2.3548-3.767,3.767-2.3251-4.4847-10.613-2.8093-22.6023-5.6506v-.9418c2.1773-1.2331,6.1206-1.2946,8.4759-.9418,2.1492.322,8.4528,4.0753,9.4176,2.3544q-2.8253-5.886-5.6506-11.772c1.9219,1.7536,8.8655,4.2987,14.1264,13.1847Z" style="fill:#2e0b06; stroke-width:0px;"/><path d="m445.6833,254.1191c.6945,1.5514,1.3557,3.1113,1.8835,4.7088.1471,2.1731-.212,4.4327,0,6.5923-3.3287,1.295-4.1506,12.1446-7.0632,12.2429-5.9755.2016,1.2734-24.4677,5.1797-23.544Z" style="fill:#f1867f; stroke-width:0px;"/><path d="m381.6435,327.5765c-.4643,1.6339-1.2036,3.1838-1.8835,5.6506-.7429,2.6952-2.4175,11.159-3.767,12.7138-1.3014,1.4994-8.6354,3.8346-11.3011,6.1214,4.3723-9.0412,8.0803-18.5481,16.9517-24.4858Z" style="fill:#fdfdfb; stroke-width:0px;"/><path d="m438.1492,452.8308c-5.9426,19.1851-13.7797,9.8138-2.8253-5.6506.7449,1.9407,2.036,3.7214,2.8253,5.6506Z" style="fill:#e76f76; stroke-width:0px;"/><path d="m398.5952,288.9643c-.4819,7.5595,10.8878,22.2756,5.6506,18.8352-3.4376-3.3455-7.132-8.8949-9.4176-13.1847.5136-1.3411,1.1662-5.6992,1.8835-8.005q.9418,1.1772,1.8835,2.3544Z" style="fill:#f1867f; stroke-width:0px;"/><path d="m436.2657,384.0822c3.4284,7.345-.469,7.8596-4.7088,11.3011-.2055-1.8433-1.938-8.9405-1.8835-9.4176.1604-1.404,2.5639-2.2793,2.8253-3.767,1.2899.4863,3.0236.2908,3.767,1.8835Z" style="fill:#d53d5b; stroke-width:0px;"/><path d="m407.0711,310.6248c-3.0924-2.6134-2.6821-2.686-2.8253-2.8253,5.2372,3.4404-6.1325-11.2757-5.6506-18.8352.0067-.1051,1.293.3512.9418-1.8835,1.0323,5.7075,8.3746,18.388,7.5341,23.544Z" style="fill:#a71119; stroke-width:0px;"/><path d="m366.5753,425.5197c3.4692,4.9085,6.8517,10.0734,12.2429,13.1847.4822,1.3295.9186.8793.9418.9418.7968,2.1465,1.805-.819.9418,3.767-.1113.5913.052,1.2706,0,1.8835-3.9448-.6824-5.6534-2.8565-7.5341,1.8835-.9541-.2024-2.5575.0044-3.767,0-.1343-.5437-.6402-1.4822-.9418-1.8835,5.2913-2.0546-8.9035-7.4179-6.5923-17.8935,19.7355,20.7307-6.9286-10.3916-1.4126-12.2429,2.4756,3.2299,3.7677,7.0291,6.1214,10.3594Z" style="fill:#090807; stroke-width:0px;"/><path d="m368.4589,445.2967c.3015.4013.8075,1.3398.9418,1.8835-2.5874-.0095-4.8295,1.5201-7.5341.9418-1.455-3.5295-.8792-2.6901-.9418-2.8253,5.0701.1005,4.5701-3.9445,7.5341,0Z" style="fill:#d7586a; stroke-width:0px;"/><path d="m422.1393,364.3052c-2.9495.6788-4.6133.558-6.5923.9418-11.0882,2.1503-19.3075,7.2826-32.9617.9418-10.8959-5.06-6.0343-10.3799,3.2962-7.5341.9521.2904,9.125,11.5607,15.0682,3.767,8.6857,3.967,40.754-.8722,23.544-12.2429-6.4984-4.2935-20.8992-7.0183-26.3693-10.3594-22.1787-13.5464,22.0361-.1196,24.4858,0,7.0357.3434,22.2067-6.0897,16.9517,1.8835-.32.4855-9.7389,5.434-9.8885,6.1214-1.531,7.0345,9.0009-.3939,10.3594,2.8253-2.6583,15.8454-11.9716,12.2927-17.8935,13.6555Z" style="fill:#f1867f; stroke-width:0px;"/><path d="m396.7117,391.6163c-.0147.5109,6.1735,4.3995-5.6506,2.8253-4.2502-.5658-7.3311-4.0129-10.3594-6.5923-.0849-.0723-.5905-.6005-.9418-.9418-12.1172-15.3073,9.3567-10.6623,16.9517,4.7088Z" style="fill:#fbb9aa; stroke-width:0px;"/><path d="m379.76,386.9075c.3513.3413.8569.8695.9418.9418-1.6197,8.8325-17.7504-12.2853-17.8935-15.5391-.058-1.3184,4.4374-11.7778,6.5923-7.5341-.485,7.981,4.2732,14.9536,7.5341,21.6605.7176.9694,2.5707.2236,2.8253.4709Z" style="fill:#470301; stroke-width:0px;"/><path d="m397.6535,382.1987c-.7996,2.4158,3.2225,9.6225,4.2379,10.3594,3.9521,2.8678,24.5248,5.6218-12.7138,3.2962q.9418-.7063,1.8835-1.4126c11.824,1.5742,5.6359-2.3144,5.6506-2.8253.023-.8006,1.4276-1.3465.9418-3.2962-.4355-1.7475-3.7474-4.8905-3.767-7.0632.1745.085,3.4387.8819,3.767.9418Z" style="fill:#2e0b06; stroke-width:0px;"/><path d="m386.3523,373.7228c-.303-.4307-.6535-1.4037-.9418-1.8835q9.4176,2.5898,18.8352,5.1797c-6.3106,1.6695-12.3412-.357-17.8935-3.2962Z" style="fill:#470301; stroke-width:0px;"/><path d="m380.7018,445.2967c.052-.6129-.1113-1.2922,0-1.8835,28.3901-8.4176,51.3414,9.9716,41.9084,13.1847-7.4218,2.528-23.5329-14.8627-34.8452-8.4759-2.1174-1.0241-4.7931-2.4326-7.0632-2.8253Z" style="fill:#f1867f; stroke-width:0px;"/><path d="m369.4006,447.1802c1.2095.0044,2.813-.2024,3.767,0,.7925.1682,11.5586,7.5195,13.1847,9.4176-5.1566,2.0921-10.9532,5.5354-15.0682,9.4176,9.8529-10.543,5.8406-17.1721-5.6506-8.4759-2.1448-4.3664-2.3074-5.8769-3.767-9.4176,2.7046.5783,4.9467-.9512,7.5341-.9418Z" style="fill:#f097a1; stroke-width:0px;"/><path d="m379.76,439.6461c-.0232-.0624-.4596.3878-.9418-.9418-5.7529-15.8619,4.9374-10.2511,7.0632-8.4759,4.0248,3.3611-1.9769,9.332-6.1214,9.4176Z" style="fill:#dd4951; stroke-width:0px;"/><path d="m458.868,487.676c1.2886,1.7899,7.0648,9.9235,7.5341,10.3594-33.2329,47.0736,3.1858,21.9096,7.5341,14.5973,2.9637-4.9839,1.051-8.3263,0-13.6555,3.1093-.2487,5.4337,1.9576,7.5341,3.767,6.5061,5.6048,10.3111,10.9707,14.1264,17.8935-12.9022,5.1927-41.4057,22.2881-54.6222,19.777-.2069-.0393-3.5365-1.7357-3.767-1.8835-.0886-.0568-.8031-1.7547-.9418-1.8835,1.9968-.1649-.5354-1.0875,0-2.8253.4171-1.3538,9.1979-23.6784,10.3594-26.3693,3.0271-7.0133,7.7787-12.6098,10.3594-19.777.3885.1405,1.2489-.0736,1.8835,0Z" style="fill:#dd4951; stroke-width:0px;"/><path d="m473.9361,498.9771c1.051,5.3293,2.9637,8.6716,0,13.6555-4.3483,7.3123-40.767,32.4763-7.5341-14.5973,8.7675,8.1444,1.4218-13.5637-.9418-25.4276,2.3172,1.9325,7.6104,21.9811,8.4759,26.3693Z" style="fill:#f1867f; stroke-width:0px;"/><path d="m446.6251,507.453c-1.1615,2.691-9.9423,25.0155-10.3594,26.3693-9.7471-9.6274-2.5074-24.704,10.3594-26.3693Z" style="fill:#a7152d; stroke-width:0px;"/><path d="m426.8481,309.6831c1.3888,1.7293,4.7642,3.1776,5.6506,5.6506-.9152-.1408-1.923-.2309-1.8835.9418-2.3553-.3529-6.2985-.2913-8.4759.9418,2.0079-6.8402-4.4425-8.7474,4.7088-7.5341Z" style="fill:#dd4951; stroke-width:0px;"/><path d="m432.4986,315.3336c-.8863-2.473-4.2618-3.9212-5.6506-5.6506-.6294-.7838-4.3759-4.6971-2.3544-5.6506,9.7422,10.7956,15.3555,12.4321,8.005,11.3011Z" style="fill:#670303; stroke-width:0px;"/><path d="m371.2841,466.0155c-5.1907.2104-4.7547-6.6521-5.6506-8.4759,11.4911-8.6962,15.5035-2.0671,5.6506,8.4759Z" style="fill:#dd4951; stroke-width:0px;"/><path d="m360.9248,445.2967c.0625.1351-.5132-.7042.9418,2.8253,1.4596,3.5407,1.6222,5.0512,3.767,9.4176.8958,1.8237.4599,8.6862,5.6506,8.4759,4.115-3.8822,9.9116-7.3255,15.0682-9.4176,17.4477-7.079,14.4437-1.617,29.6655,2.8253,7.0771,2.0654,11.1077-1.4479,10.8303,1.4126-5.7871,6.2773-24.0634-7.0926-32.4908-6.1214-4.4526,1.2983-7.1747,5.0156-9.8885,6.5923-2.5608,1.4879-11.9998,1.2756-10.8303,9.4176,12.6984-8.8411-.2656,1.6001-.4709,2.3544-.5764,2.1185.9515,3.9649,1.8835,5.6506,10.7309,19.4083,28.6719,3.7219,38.1413,18.3643q1.1772-.2354,2.3544-.4709c.0698-.9853-.1094-2.2566,0-2.3544,8.366-7.4786,13.1737-7.6893,14.1264-8.4759q.9418.4709,1.8835.9418c-7.1933,5.49-15.9292,5.5387-14.1264,17.8935-2.0635,1.6379-3.9923,2.3374-6.5923,2.8253-7.3961-18.5711-13.4223-18.7589-3.767,0-1.1366.2212-2.5611-.1397-3.767,0-.6217-15.0792-5.7313-10.2202-12.2429-13.1847-12.8185-5.8357-20.006-9.2929-21.6605-25.8984-6.7754-3.3791-12.2332-26.3338-10.8303-26.8402,1.2168.9699,1.7305,2.4188,2.3544,3.767Z" style="fill:#200602; stroke-width:0px;"/><path d="m410.8381,507.453c-1.1864.2227-2.5844-.2301-3.767,0-9.6552-18.7589-3.629-18.5711,3.767,0Z" style="fill:#b73037; stroke-width:0px;"/><path d="m407.542,493.3266c.5998-.2929,5.0571,7.3175,5.1797,8.005,2.0375,11.4236-7.0969-7.0685-5.1797-8.005Z" style="fill:#a7152d; stroke-width:0px;"/><path d="m432.4986,382.1987c-.2614,1.4878-2.6649,2.3631-2.8253,3.767-3.9487,2.0095-1.2545-1.7537-2.8253-3.767,1.1633.1018.8803-.9162.9418-.9418,1.8171,1.5572,2.9108.2638,4.7088.9418Z" style="fill:#2e0b06; stroke-width:0px;"/><path d="m428.7316,473.5496c2.1002-.2186,2.4054-1.0674,2.8253-.9418,4.3591,15.7358-28.364,23.2189-2.8253.9418Z" style="fill:#dd4951; stroke-width:0px;"/><path d="m360.9248,369.9558c.9143,6.752,2.1862,8.6042,1.8835,8.9467-.9871,1.1173-4.2515.1723-5.6506.4709.023-.6469-6.5451-6.7421,3.767-9.4176Z" style="fill:#cdbb45; stroke-width:0px;"/><path d="m618.9674,270.1291c.3525,2.224-.9251,1.7796-.9418,1.8835-.4625-1.2714-2.7333-3.5503-2.8253-3.767-.6596-1.5542-1.7566-2.9575-.4709-4.7088.5273-.304,3.3849,5.3728,4.2379,6.5923Z" style="fill:#090807; stroke-width:0px;"/><path d="m436.2657,536.6476c.1386.1288.8531,1.8267.9418,1.8835-2.0969,2.881-.2365,6.2197,1.8835,8.4759-1.5755,7.799.7,18.3635.9418,26.3693-3.7521-1.5581-15.3742-28.1027-16.9517-28.7237-2.5719-1.0125,17.9747,60.924,17.8935,41.9084v16.0099c-.6334-.7524-6.1759-3.4925-13.1847-14.5973-9.5994-15.2094-21.9498-50.7648-33.9034-67.3359-3.5082-4.9877-.8632-5.3751-.9418-5.6506,17.8404-.611,14.3844,7.5428,17.4226,9.4176,5.5472-1.1569,6.9463,2.7314,7.5341,2.8253,5.5347.8841,4.2982-15.6894,10.3594-8.4759.9953,1.1845-1.2531,9.2912,8.005,17.8935Z" style="fill:#5ec8bd; stroke-width:0px;"/><path d="m440.9745,602.5709c2.3074,2.7412,2.7455,1.7337,2.8253,1.8835.0664.1247.0532,2.6944,0,2.8253-4.0813,10.0429-5.8864-12.927-26.8402-13.1847-8.3829-4.2187-23.8187-61.5424-23.0732-73.4574,11.9536,16.5712,24.304,52.1265,33.9034,67.3359,7.0088,11.1048,12.5513,13.8449,13.1847,14.5973Z" style="fill:#89dfe5; stroke-width:0px;"/><path d="m403.304,507.453c-3.8122.4415-7.6782,1.5832-11.3011,2.8253-.1467-.8152-3.7697-7.4222-.9418-16.0099,6.5116,2.9644,11.6212-1.8945,12.2429,13.1847Z" style="fill:#4fcdd7; stroke-width:0px;"/><path d="m440.9745,540.4146c4.1589,1.256-1.6716,5.5434-1.8835,6.5923-2.12-2.2561-3.9804-5.5949-1.8835-8.4759.2306.1478,3.5602,1.8442,3.767,1.8835Z" style="fill:#b1e9e0; stroke-width:0px;"/><path d="m440.0327,573.3763h.9418c-.0301,4.3945.0218,8.79,0,13.1847.0812,19.0157-20.4653-42.9209-17.8935-41.9084,1.5775.621,13.1996,27.1656,16.9517,28.7237Z" style="fill:#89dfe5; stroke-width:0px;"/><path d="m455.1009,486.7342c-5.3824,7.5223-11.6803,21.3431-21.6605,19.3061,4.0425-.565,4.8374-3.0898,6.5923-6.1214,1.0246-1.7699-.3241-1.134,0-1.8835,1.1884-2.7482,5.8357-10.7322,2.8253-13.1847-1.8193-1.4821-6.7486.8089-8.4759,0,1.1303-.8906,2.7802-1.8306,3.767-2.8253q4.7088-2.3544,9.4176-4.7088c.5274.7257,7.1214,8.9779,7.5341,9.4176Z" style="fill:#b7ba4c; stroke-width:0px;"/><path d="m442.858,484.8507c-13.0765,21.2141-21.9047,6.0272-25.4276,19.777-1.8027-12.3548,6.9332-12.4034,14.1264-17.8935.8412-.642,1.997-1.2309,2.8253-1.8835,1.7272.8089,6.6566-1.4821,8.4759,0Z" style="fill:#a6a039; stroke-width:0px;"/><path d="m440.0327,498.0354c-5.6837,3.7412-22.1726,6.0414-8.9467,5.6506,2.4547-.0725,6.5056-3.185,8.9467-3.767-1.7549,3.0316-2.5498,5.5565-6.5923,6.1214,9.9802,2.037,16.2781-11.7839,21.6605-19.3061.0721.0768,1.7845.906,1.8835.9418-2.5806,7.1672-7.3322,12.7636-10.3594,19.777-12.8667,1.6653-20.1064,16.742-10.3594,26.3693-.5354,1.7378,1.9968,2.6604,0,2.8253-9.2581-8.6023-7.0097-16.709-8.005-17.8935-6.0612-7.2135-4.8247,9.36-10.3594,8.4759-.5878-.0939-1.9869-3.9822-7.5341-2.8253-3.0382-1.8748.4178-10.0286-17.4226-9.4176-.5729-2.0092-.6086-2.8569-.9418-4.7088,3.623-1.2421,7.489-2.3838,11.3011-2.8253,1.206-.1397,2.6304.2212,3.767,0,1.1826-.2301,2.5806.2227,3.767,0,2.6-.4879,4.5289-1.1873,6.5923-2.8253,3.5229-13.7498,12.3511,1.4371,25.4276-19.777,3.0105,2.4525-1.6368,10.4365-2.8253,13.1847Z" style="fill:#090807; stroke-width:0px;"/><path d="m440.0327,499.9189c-2.4412.5821-6.492,3.6945-8.9467,3.767-13.2259.3909,3.263-1.9094,8.9467-5.6506-.3241.7495,1.0246.1136,0,1.8835Z" style="fill:#988b53; stroke-width:0px;"/><path d="m404.7167,509.3365c8.7713.1422,19.6559,13.4102,8.4759,11.3011-1.205-.2273-.3841-3.8287-3.767-5.6506-3.4779-1.873-15.0957-1.786-12.2429-3.767,2.0453.5783,7.1458-1.8898,7.5341-1.8835Z" style="fill:#cdbb45; stroke-width:0px;"/><path d="m422.6101,508.3947c4.2198-.7399,13.4317,9.6377-4.2379,2.3544,4.5083-.2316,3.8999-2.2951,4.2379-2.3544Z" style="fill:#f0d987; stroke-width:0px;"/><path d="m417.9013,521.5794c1.5309.6598-.0828,4.4784-1.4126,2.3544-.4817-.7694,1.2777-2.4126,1.4126-2.3544Z" style="fill:#a78e63; stroke-width:0px;"/><path d="m423.5519,503.6859c.1567-.0561,2.4105,2.1977,2.3544,2.3544-.6794,1.8969-4.2513-1.675-2.3544-2.3544Z" style="fill:#a69785; stroke-width:0px;"/><path d="m497.4802,604.4544v-1.8835c3.4791.623,44.8151-.4022,46.6172-1.8835,3.1755-9.4825,2.8864-18.1365-.4709-27.3111,26.3325-21.8356-7.8526,4.3669-24.4858,7.5341-2.9397.5597-1.6673,1.8783-2.3544,1.8835-17.7168.1327,15.919-20.9405,3.2962-24.4858,14.0468-5.6789,27.3472-14.7169,37.1996-26.3693-13.8484,7.9865-25.676,20.0502-40.9666,25.4276-.8437.106-.8238-.2557-.9418-.9418,10.9-1.4052,33.7949-30.0034,28.2528-39.0831-2.8225-4.6241-14.6567,1.3013-22.1314,2.3544-6.3336.8923-12.2348-1.5328-15.0682-.9418-3.1859.6646-6.5744,9.4446-10.8303,5.1797-.0896-.0897,1.5937-1.0722.9418-2.3544-.6591-1.2962-.9096-.8834-.9418-.9418-3.8153-6.9228-7.6204-12.2887-14.1264-17.8935,14.1133,1.2582,21.8971,1.3318,35.7869-.9418,2.4362-.3988,12.003.239,13.1847-2.3544q-2.8253-12.0075-5.6506-24.0149c9.1947-1.0078,28.3866-4.5366,35.7869-9.4176,4.3798,4.9055,3.6238,28.5056,8.9467,30.1364,6.3041,1.9313,5.3757-9.2915,5.1797-12.7138-.4508-7.871-20.8738-86.2728-26.3693-101.7102v8.9467c-.7371-3.7166-.8918-10.9472-1.8835-14.1264,2.1644,1.3903,2.2321-6.3987,2.8253-14.1264.0552-.7185.1441-1.0392.9418-.9418,22.246,43.9474,31.8294,94.6601,31.0781,143.6186-13.1517,26.4101-35.0193,46.3642-56.5057,65.9233,21.8608-12.3583,36.279-31.88,51.326-51.326q-2.5898,27.0756-5.1797,54.1513-8.9467,6.5923-17.8935,13.1847.2354.7063.4709,1.4126,7.7695-4.4734,15.5391-8.9467c-3.3208,23.6517-12.0866,23.1922-39.0831,24.9567-8.9199.583-23.0655.239-32.4908,0Z" style="fill:#f2c35d; stroke-width:0px;"/><path d="m472.0526,428.345c-1.3432,1.654-2.6249,3.3741-3.767,5.1797,3.2875,11.1504.0512,18.464.9418,21.6605,1.7495,6.2791,33.8567,7.1142,35.7869-1.4126.2095-.9255.9447-1.0776.9418-1.8835,1.5692-.0084,3.1401.0255,4.7088,0q-.4709,8.2404-.9418,16.4808c1.8031,2.5581,5.848.9865,9.4176,1.4126q-.2354.9418-.4709,1.8835-22.6023.4709-45.2046.9418c7.0482,6.3694,25.1454,3.1773,34.3743,2.8253,2.0951,11.3632,11.7075,20.0018,9.4176,26.3693-13.8899,2.2736-21.6736,2.2-35.7869.9418-2.1004-1.8095-4.4248-4.0157-7.5341-3.767-.8654-4.3883-6.1587-24.4368-8.4759-26.3693-4.2568-21.367-5.4027-17.6087-3.767-40.4957,1.9976-1.8471,5.6396-6.2883,6.5923-8.4759q1.8835,2.3544,3.767,4.7088Z" style="fill:#e5734f; stroke-width:0px;"/><path d="m468.2856,344.5282c2.9209,20.4206,13.8319-23.6581,16.4808-24.4858,7.714,2.1159,22.4629,3.4511,22.1314,0,4.2803.0322,8.3568-1.565,12.7138-.9418,3.8749,3.4071,22.0708,24.4637,18.8352,26.3693q-35.7869,3.2962-71.5739,6.5923c-.3347-.1867,1.0638-5.5466,1.4126-7.5341Z" style="fill:#f0aa48; stroke-width:0px;"/><path d="m489.9461,368.0723c-7.0794,1.6238-12.3125-.4788-15.0682,5.6506-.5172,1.1504-.8325,1.2459-.9418,2.8253-.7733.0348-1.0023.6665-1.8835.9418q-2.3544-1.4126-4.7088-2.8253c-.0366-.2721-2.4175-.8567-2.8253-4.7088-.124-1.1719-1.8041-1.5271,0-7.5341,15.1865-.5696,30.1466-2.9737,45.2046-4.7088,4.6517,9.7346-14.2731,3.8135-19.777,10.3594Z" style="fill:#cdbb45; stroke-width:0px;"/><path d="m547.3935,355.8294c1.063,1.783,1.8839,3.7908,2.8253,5.6506-.7977-.0974-.8866.2233-.9418.9418-1.5338-.1362-3.2043.2035-4.7088,0-13.7777-1.8635-40.5629,2.4258-54.6222,5.6506,5.5039-6.5459,24.4287-.6248,19.777-10.3594,12.3941-1.4281,31.4195-5.8434,37.6705-1.8835Z" style="fill:#d0a139; stroke-width:0px;"/><path d="m467.3438,374.6646c.0415.3082-.0436.6339,0,.9418,1.1362,8.0206,4.4698,34.1372,3.767,40.0249-.0965.8083-2.0516,6.2284-2.8253,8.005-.9527,2.1876-4.5947,6.6287-6.5923,8.4759.4876-6.823,2.4901-13.5558,2.8253-20.2479.6952-13.8796-2.917-28.0184,0-41.9084.4078,3.8521,2.7886,4.4367,2.8253,4.7088Z" style="fill:#b73037; stroke-width:0px;"/><path d="m523.8495,351.1206c-.1433,3.4948-9.1157.5684-14.1264,6.5923-15.058,1.7351-30.018,4.1392-45.2046,4.7088.2944-.9802-.1761-3.619,2.3544-5.6506,19.2081.3858,38.0098-3.6693,56.9766-5.6506Z" style="fill:#efdfb2; stroke-width:0px;"/><path d="m478.6449,595.9786c.0888,8.2306-16.7902,1.4262-9.4176,6.5923-11.3473-2.5176-20.0353-18.1619-15.0682-8.005,2.7325,5.5875,11.829,4.1035,0,11.772-.0464-.2054-1.5069-2.9885-1.8835-3.767-.5416-1.1196-1.4968-1.6716-1.8835-2.8253.8008-1.6987,1.5406-9.1938.9418-11.3011q13.6555,3.767,27.3111,7.5341Z" style="fill:#e88f42; stroke-width:0px;"/><path d="m481.4702,594.095c4.5027,1.7419,12.5313,7.8529,16.0099,8.4759v1.8835c-9.2445-.2344-19.1695.1318-28.2528-1.8835-7.3726-5.1662,9.5064,1.6383,9.4176-6.5923-.0014-.1247,1.4475-.4694,0-1.8835.6252.2605,2.1604-.2572,2.8253,0Z" style="fill:#b76a30; stroke-width:0px;"/><path d="m547.3935,355.8294c-6.251-3.9599-25.2764.4554-37.6705,1.8835,5.0107-6.0239,13.9831-3.0976,14.1264-6.5923,6.457-.6745,13.004-1.1359,19.3061-2.8253,1.2287.3219,3.4362,6.1893,4.2379,7.5341Z" style="fill:#f0d987; stroke-width:0px;"/><path d="m519.1407,580.9104c6.6461,1.8987,17.4175-5.2813,24.4858-7.5341,3.3573,9.1746,3.6463,17.8286.4709,27.3111-1.8021,1.4813-43.1381,2.5066-46.6172,1.8835-3.4787-.623-11.5072-6.7339-16.0099-8.4759-3.2449-3.0016-4.026-6.5508-5.6506-10.3594-.199-.4665-.1113-3.2359-3.767-9.4176,2.9379-1.5396-1.1804-3.5968-.9418-5.1797.2147-1.4239,4.6244.0005,4.7088-2.3544.3308.2626,1.3626.7651,1.8835.9418,13.9686,4.7377,28.864-6.7234,42.3793-9.4176,12.6228,3.5453-21.0129,24.6185-3.2962,24.4858.6871-.0052-.5853-1.3238,2.3544-1.8835Z" style="fill:#f0aa48; stroke-width:0px;"/><path d="m495.5967,520.6376c.0321.0583.2827-.3544.9418.9418-13.4468,12.3176,32.9483-.4954,40.0249,1.8835l-.4709,1.8835c-13.6107-.9558-26.4414,4.2801-29.6655,4.7088-16.6492,2.214-20.9098-5.0531,1.4126,7.0632.5188,1.038-1.2297,1.6857-.9418,2.3544-9.7763.3864-13.8169.6716-22.1314-4.7088-4.3259,2.3792-9.0483,5.8738-13.6555,7.5341-6.0798,2.191-12.5072,4.3509-18.8352,5.6506-2.569.5277-10.9699-1.2907-12.2429,1.4126,1.4178,7.9477.9967,16.008.9418,24.0149h-.9418c-.2418-8.0058-2.5172-18.5704-.9418-26.3693.2119-1.0489,6.0424-5.3363,1.8835-6.5923,13.2165,2.5111,41.7199-14.5843,54.6222-19.777Z" style="fill:#090807; stroke-width:0px;"/><path d="m515.3736,556.4246c-.8874-5.1587-2.7195-6.2812-4.7088-10.3594q12.7138-10.3594,25.4276-20.7188l.4709-1.8835c-7.0765-2.3789-53.4716,10.4341-40.0249-1.8835.6519,1.2822-1.0313,2.2647-.9418,2.3544,4.2558,4.2649,7.6444-4.515,10.8303-5.1797,2.8334-.5911,8.7346,1.8341,15.0682.9418,7.4747-1.0531,19.3089-6.9785,22.1314-2.3544,5.542,9.0797-17.3528,37.6779-28.2528,39.0831Z" style="fill:#e88f42; stroke-width:0px;"/><path d="m560.5782,466.0155c2.6813-12.1073-.1143-27.3959-6.5923-38.1413-.3266-12.6125-3.2121-24.904-5.6506-37.1996v-8.9467c5.4955,15.4375,25.9185,93.8393,26.3693,101.7102.196,3.4223,1.1244,14.6451-5.1797,12.7138-5.3229-1.6307-4.5669-25.2309-8.9467-30.1364Z" style="fill:#e88f42; stroke-width:0px;"/><path d="m544.5683,362.4217c1.5045.2035,3.175-.1362,4.7088,0-.5932,7.7277-.6609,15.5167-2.8253,14.1264-.351-1.1252-.946-4.4603-1.4126-4.7088-22.9397,2.8781-46.0936,4.1867-69.2195,1.8835,1.7298-2.8837,6.1626-3.3188,8.9467-3.767,19.7448-3.1789,39.9804-4.766,59.8019-7.5341Z" style="fill:#d0a139; stroke-width:0px;"/><path d="m524.7913,475.4331q2.8253,12.0075,5.6506,24.0149c-1.1816,2.5934-10.7485,1.9556-13.1847,2.3544,2.2899-6.3676-7.3226-15.0061-9.4176-26.3693,5.147-.1964,15.4784.1615,16.9517,0Z" style="fill:#e88f42; stroke-width:0px;"/><path d="m520.0825,558.3081c-13.5152,2.6942-28.4106,14.1553-42.3793,9.4176,9.6778-2.2066,19.8558-2.7087,27.782-9.4176,4.4648,4.0272,6.9524.422,10.8303-.9418,15.2906-5.3774,27.1182-17.4411,40.9666-25.4276-9.8524,11.6525-23.1528,20.6904-37.1996,26.3693Z" style="fill:#200602; stroke-width:0px;"/><path d="m543.6265,573.3763c-7.0683,2.2528-17.8397,9.4328-24.4858,7.5341,16.6331-3.1672,50.8183-29.3697,24.4858-7.5341Z" style="fill:#3a1300; stroke-width:0px;"/><path d="m472.0526,377.4899c.8812-.2753,1.1102-.907,1.8835-.9418-.6175,8.9303,6.1741,33.0279,6.5923,44.7337-.3841,1.4663-7.0177,5.2677-8.4759,7.0632q-1.8835-2.3544-3.767-4.7088c.7737-1.7766,2.7288-7.1967,2.8253-8.005.7027-5.8877-2.6309-32.0043-3.767-40.0249,1.7882,1.5823,2.0514,2.7138,4.7088,1.8835Z" style="fill:#f0aa48; stroke-width:0px;"/><path d="m544.5683,362.4217c-19.8215,2.7681-40.0571,4.3552-59.8019,7.5341-2.7841.4482-7.217.8834-8.9467,3.767h-.9418c2.7557-6.1293,7.9888-4.0268,15.0682-5.6506,14.0592-3.2248,40.8445-7.5141,54.6222-5.6506Z" style="fill:#361c06; stroke-width:0px;"/><path d="m472.0526,377.4899c-2.6574.8302-2.9206-.3012-4.7088-1.8835-.0436-.3078.0415-.6336,0-.9418q2.3544,1.4126,4.7088,2.8253Z" style="fill:#593d03; stroke-width:0px;"/><path d="m452.2756,547.9487v.9418c-13.8947,1.7994-1.3597,26.7545,7.5341,29.1946-7.1123-1.2666-7.5186-3.8264-8.005-3.767-6.089.7435,11.0923,13.0993,12.7138,14.1264-8.8377-1.9105-17.3605-10.7377-20.2479-19.777-3.144,9.8953,5.8646,15.5594,7.0632,19.777.5989,2.1073-.1409,9.6025-.9418,11.3011-.1727.3664-5.4997,4.5485-6.5923,4.7088-.0798-.1499-.5178.8577-2.8253-1.8835v-16.0099c.0218-4.3946-.0301-8.7902,0-13.1847.0549-8.0069.4761-16.0672-.9418-24.0149,1.273-2.7034,9.6739-.885,12.2429-1.4126Z" style="fill:#f2c35d; stroke-width:0px;"/><path d="m464.5185,588.4445c8.273,5.2404,7.7619,2.9988,14.1264,5.6506,1.4475,1.4141-.0014,1.7588,0,1.8835q-13.6555-3.767-27.3111-7.5341c-1.1986-4.2176-10.2073-9.8817-7.0632-19.777,2.8874,9.0393,11.4101,17.8665,20.2479,19.777Z" style="fill:#090807; stroke-width:0px;"/><path d="m475.8197,566.784c-.0844,2.3549-4.4941.9305-4.7088,2.3544-.2387,1.5829,3.8797,3.6401.9418,5.1797-9.3522-15.8138-1.593,4.6253,3.767,9.4176,1.6246,3.8085,2.4057,7.3577,5.6506,10.3594-.6649-.2572-2.2.2605-2.8253,0-6.3645-2.6518-5.8534-.4102-14.1264-5.6506-1.6215-1.0271-18.8028-13.3829-12.7138-14.1264.4863-.0594.8927,2.5004,8.005,3.767,1.7499.3117,3.736.7664,5.1797,1.8835q.2354-.7063.4709-1.4126c-13.4306-6.7971-10.8215-11.6676-12.2429-14.5973,1.279-5.0432,17.6267-12.6039,21.6605-13.1847,12.2153-1.7585-11.3466,6.2575.9418,16.0099Z" style="fill:#e88f42; stroke-width:0px;"/><path d="m472.0526,574.318c3.6558,6.1817,3.568,8.9511,3.767,9.4176-5.36-4.7923-13.1192-25.2314-3.767-9.4176Z" style="fill:#2e0b06; stroke-width:0px;"/><path d="m536.0924,525.3464q-12.7138,10.3594-25.4276,20.7188c-.1664-.3412-1.3204-.9111-3.767-6.5923-.288-.6687,1.4606-1.3164.9418-2.3544-22.3225-12.1163-18.0618-4.8492-1.4126-7.0632,3.2241-.4287,16.0548-5.6646,29.6655-4.7088Z" style="fill:#f2c35d; stroke-width:0px;"/><path d="m474.8779,550.774c-4.0338.5807-20.3815,8.1415-21.6605,13.1847-2.0428-4.2103-9.517-5.3739-.9418-15.0682v-.9418c6.328-1.2997,12.7554-3.4595,18.8352-5.6506q1.8835,4.2379,3.767,8.4759Z" style="fill:#b76a30; stroke-width:0px;"/><path d="m506.8978,539.4729c2.4467,5.6813,3.6006,6.2511,3.767,6.5923,1.9893,4.0782,3.8214,5.2007,4.7088,10.3594.118.686.098,1.0478.9418.9418-3.8779,1.3638-6.3655,4.969-10.8303.9418-7.9261,6.709-18.1041,7.2111-27.782,9.4176-.5209-.1767-1.5527-.6792-1.8835-.9418-12.2883-9.7524,11.2735-17.7684-.9418-16.0099q-1.8835-4.2379-3.767-8.4759c4.6072-1.6603,9.3297-5.1549,13.6555-7.5341,8.3145,5.3804,12.3551,5.0952,22.1314,4.7088Z" style="fill:#cd723b; stroke-width:0px;"/><path d="m483.8246,538.5311c1.9606,9.2157,18.6568,5.7391,20.2479,13.6555,2.4151,12.0161-6.2654-.9611-7.0632-1.4126-1.1407-.6455-20.7087-3.247-13.1847-12.2429Z" style="fill:#090807; stroke-width:0px;"/><path d="m480.0576,559.2499q7.2987,1.1772,14.5973,2.3544c.7071,2.9957-13.6895,1.0417-14.5973-2.3544Z" style="fill:#200602; stroke-width:0px;"/><path d="m452.2756,548.8905c-8.5752,9.6943-1.101,10.8579.9418,15.0682,1.4214,2.9297-1.1877,7.8002,12.2429,14.5973q-.2354.7063-.4709,1.4126c-1.4437-1.1171-3.4298-1.5719-5.1797-1.8835-8.8938-2.4401-21.4288-27.3952-7.5341-29.1946Z" style="fill:#130201; stroke-width:0px;"/><path d="m515.3736,451.889q1.8835,8.9467,3.767,17.8935c-3.5697-.4262-7.6146,1.1454-9.4176-1.4126q.4709-8.2404.9418-16.4808c1.5685-.0255,3.1411.0411,4.7088,0Z" style="fill:#e88f42; stroke-width:0px;"/><path d="m519.1407,469.7825q-1.8835-8.9467-3.767-17.8935c11.5763-.3036,22.8051-4.3557,34.3743-1.8835,9.0996-7.9274.5394-1.9374,0-1.8835-2.516.2512-34.9085.2441-36.7287,0-10.0367-1.3458-14.9881-3.1961-6.1214-5.6506,8.0426-2.2264,18.6957-3.2984,21.6605-5.6506,6.7275.103,15.0242,5.353,24.9567-1.8835,17.9503,29.1716-10.0314,37.7514-34.3743,34.8452Z" style="fill:#f2c35d; stroke-width:0px;"/><path d="m546.4518,376.5481c.9917,3.1792,1.1464,10.4098,1.8835,14.1264,2.4385,12.2956,5.324,24.5871,5.6506,37.1996,6.478,10.7455,9.2736,26.034,6.5923,38.1413-7.4003,4.881-26.5922,8.4098-35.7869,9.4176-1.4733.1615-11.8047-.1964-16.9517,0-9.2289.352-27.3261,3.5441-34.3743-2.8253q22.6023-.4709,45.2046-.9418.2354-.9418.4709-1.8835c24.3428,2.9062,52.3246-5.6735,34.3743-34.8452-9.9325,7.2365-18.2292,1.9866-24.9567,1.8835-17.1231-.2622-34.2387.6363-51.326-.9418,9.4309,5.159,19.3438,5.4,29.6655,6.5923-8.8666,2.4545-3.9152,4.3048,6.1214,5.6506,1.8202.2441,34.2127.2512,36.7287,0,.5394-.0539,9.0996-6.0439,0,1.8835-11.5692-2.4722-22.798,1.5799-34.3743,1.8835-1.5677.0411-3.1403-.0255-4.7088,0-1.5687.0255-3.1396-.0084-4.7088,0-6.2701.0338-17.3027.3272-21.1896-2.8253-10.2213,5.9911-8.5946-3.0195-7.5341-3.767,2.3739-1.6735,34.0803,4.2232,2.8253-2.8253-4.5134-2.1714-9.8639-12.5493-3.2962.4709-10.9855,8.886-3.8749,19.015,8.005,8.9467q10.1239.9418,20.2479,1.8835c-1.9302,8.5269-34.0375,7.6917-35.7869,1.4126-.8906-3.1966,2.3458-10.5101-.9418-21.6605,1.1421-1.8056,2.4239-3.5257,3.767-5.1797,1.4582-1.7955,8.0918-5.5969,8.4759-7.0632-.4182-11.7058-7.2099-35.8033-6.5923-44.7337.1092-1.5793.4246-1.6749.9418-2.8253h.9418c23.1259,2.3032,46.2798.9946,69.2195-1.8835.4667.2485,1.0617,3.5836,1.4126,4.7088Z" style="fill:#090807; stroke-width:0px;"/><path d="m525.733,382.1987c3.6918,2.9741,2.7649,1.0392,5.6506,6.5923,7.424,41.5238,10.3758,26.7272-21.1896,26.3693l-.4709-6.1214c-1.6774-2.4719-2.1288-.1813-2.8253-.4709-1.4362-.5972-3.2074-1.5475-4.7088-1.8835,2.2935-3.1345,24.0088-4.6959,18.3643-7.5341-3.6765-.5764-5.5657,1.8128-8.005-.9418,4.5191-4.2682,5.2133-16.5786,13.1847-16.0099Z" style="fill:#1da0a9; stroke-width:0px;"/><path d="m531.3836,388.791c-2.8856-5.5531-1.9588-3.6182-5.6506-6.5923-.1322-.1065-1.5609-2.1637-1.8835-2.8253,3.2968-.2586,5.9252-1.2466,7.0632-.9418,6.4048,3.4731,13.1922,45.6141,9.4176,46.1463-4.9917-7.6021-.1633-18.8841-8.9467-35.7869Z" style="fill:#f0aa48; stroke-width:0px;"/><path d="m536.5633,376.5481c1.2733-.491,5.1443-.2566,6.1214,1.4126,1.3204,2.2557,8.6415,58.7005,2.8253,48.9716-1.1297-1.8896,1.7985-16.8359-6.5923-43.321-.9399-2.9669-5.2772-5.9361-2.3544-7.0632Z" style="fill:#d3ae80; stroke-width:0px;"/><path d="m502.189,406.6845c-.1642.2244.1505,1.3352,0,1.8835-.9632,3.5084.0599,5.0665,1.8835,8.4759-.2796.2053.8723,3.2228-1.4126,2.8253-8.2107-11.3598-11.6204,6.4446-14.5973-13.6555-.836-2.1768,9.3409-.6001,14.1264.4709Z" style="fill:#187cab; stroke-width:0px;"/><path d="m480.5285,383.1405c2.1633,6.689,3.5141,12.2378,4.7088,18.8352,3.8123,21.0524.2373,26.7233.9418,29.6655.1676.7002,1.2487.4796,1.8835.4709v.9418c-.9746-.3239-3.1194.5664-3.767-.4709,3.6149-16.4266-5.3613-40.1058-5.6506-49.4425.6266-.0156,1.2589.0339,1.8835,0Z" style="fill:#d3ae80; stroke-width:0px;"/><path d="m523.8495,379.3734c.3226.6616,1.7513,2.7188,1.8835,2.8253-7.9713-.5686-8.6656,11.7417-13.1847,16.0099-2.6478-2.9901-7.9-17.3293,11.3011-18.8352Z" style="fill:#fdfdfb; stroke-width:0px;"/><path d="m495.5967,389.7328c.2411,5.2585.9365,8.0495.9418,8.4759-4.2146,6.9379-11.6467-9.2201-14.1264-13.1847h.9418q6.1214,2.3544,12.2429,4.7088Z" style="fill:#088b9e; stroke-width:0px;"/><path d="m482.412,385.024c2.4798,3.9646,9.9119,20.1225,14.1264,13.1847.1207,9.844-3.4605,6.1565-11.3011,3.767-1.1947-6.5974-2.5456-12.1462-4.7088-18.8352,2.9682-.1609,1.2247.8301,1.8835,1.8835Z" style="fill:#041910; stroke-width:0px;"/><path d="m495.5967,385.024h-13.1847c-.6589-1.0534,1.0847-2.0444-1.8835-1.8835-.6247.0339-1.257-.0156-1.8835,0-.0452-1.4603-.2896-3.0844.4709-3.767q8.9467.4709,17.8935.9418c.769.4267-1.396,3.9641-1.4126,4.7088Z" style="fill:#b76a30; stroke-width:0px;"/><path d="m506.8978,408.568c1.6388,1.2452.7077,6.0345.9418,8.005-.6244,1.0574-3.2894.1201-3.767.4709-1.8237-3.4093-2.8467-4.9674-1.8835-8.4759,1.5741.1584,4.3872-.2443,4.7088,0Z" style="fill:#7c3c14; stroke-width:0px;"/><path d="m502.6599,386.9075c1.9233,11.0249-1.171,19.4268-.4709.4709l.4709-.4709Z" style="fill:#775344; stroke-width:0px;"/><path d="m506.4269,386.9075c2.4481-.108,1.1191,1.5955.9418,2.8253-1.0263,7.1177-4.1369-2.6843-.9418-2.8253Z" style="fill:#8d4f41; stroke-width:0px;"/><path d="m505.956,451.889c.0029.806-.7323.9581-.9418,1.8835q-10.1239-.9418-20.2479-1.8835c-11.8799,10.0682-18.9905-.0608-8.005-8.9467-6.5677-13.0202-1.2172-2.6423,3.2962-.4709,31.255,7.0485-.4514,1.1518-2.8253,2.8253-1.0605.7476-2.6872,9.7581,7.5341,3.767,3.887,3.1524,14.9196,2.8591,21.1896,2.8253Z" style="fill:#e08d5b; stroke-width:0px;"/><path d="m528.5583,436.8209c-2.9648,2.3522-13.6179,3.4242-21.6605,5.6506-10.3217-1.1923-20.2346-1.4333-29.6655-6.5923,17.0873,1.578,34.2029.6795,51.326.9418Z" style="fill:#cf8d2f; stroke-width:0px;"/><path d="m532.3254,433.9956h-.9418c-12.6737-2.7273-35.3843,1.6959-43.321-.9418v-.9418c4.1423-11.5869.3987-.1659,6.1214.9418,1.9067.369,22.8285-5.7417,38.1413.9418Z" style="fill:#d9e9cc; stroke-width:0px;"/><path d="m509.2522,419.8692c4.729-2.0813,11.7964,3.6385,13.6555,8.005-1.9405,2.3904-22.5127-4.107-13.6555-8.005Z" style="fill:#94ac2d; stroke-width:0px;"/><path d="m495.5967,385.024c-.0348,1.5563-.0712,3.1556,0,4.7088q-6.1214-2.3544-12.2429-4.7088h12.2429Z" style="fill:#6ccfea; stroke-width:0px;"/><path d="m539.3886,433.9956c10.7305-2.0344,12.8228,2.6059-2.8253,1.8835-.7304-.6391,2.6585-1.8519,2.8253-1.8835Z" style="fill:#e6c089; stroke-width:0px;"/><path d="m492.3005,417.9856c3.0924-.5236-1.5585,4.864-1.8835,4.7088-1.7492-.835.939-4.5489,1.8835-4.7088Z" style="fill:#8b773c; stroke-width:0px;"/><path d="m480.9994,429.2868c1.7558.2247,1.3855,3.1656-.9418,2.8253-2.7462-.4016.2357-2.9156.9418-2.8253Z" style="fill:#a7a486; stroke-width:0px;"/><path d="m506.8978,408.568c-.3216-.2443-3.1347.1584-4.7088,0,.1505-.5483-.1642-1.6591,0-1.8835,1.5014.336,3.2727,1.2864,4.7088,1.8835Z" style="fill:#dad1cb; stroke-width:0px;"/></g><g id="Layer_3"><path d="m426.7769,193.1728c1.0767,0,2.1082-.9468,2.0584-2.0584-.05-1.1152-.9044-2.0584-2.0584-2.0584-1.0767,0-2.1082.9468-2.0584,2.0584.05,1.1152.9044,2.0584,2.0584,2.0584h0Z" style="fill:#fff; stroke-width:0px;"/><path d="m346.3564,246.266c2.8663-2.0076,5.41-4.4656,8.0467-6.7629,2.5899-2.2565,5.2196-4.4695,7.8663-6.659s5.2296-4.4439,7.8594-6.6511c1.3379-1.1229,2.688-2.2312,4.0527-3.3213.5917-.4726,1.1875-.94,1.7794-1.4124.3543-.2827.7096-.5641,1.066-.8442.1484-.1166.297-.2329.4457-.349.1489-.1162.8394-.6683.1453-.1148,2.7734-2.2116,5.4194-4.5763,8.1519-6.8391.1698-.1406.3385-.283.5106-.4206.5236-.4185-.2104.0898.1602-.1118.3605-.1962.6932-.4689,1.0419-.6875.5971-.3743,1.2113-.7066,1.8435-1.0172.3485-.1712.0351-.1364-.0334.0097.0244-.0521.3345-.1257.3924-.1454.1991-.0678.4007-.1321.6013-.1955.212-.067.4319-.1075.6431-.173.2905-.0902-.1887.0434-.2279.0237.0684.0344.3081-.0262.3914-.0281.1549-.0034.3076.0146.4618.0173.3541.0061-.4842-.0791-.1317-.0148l.4843.0651c-.332-.052-.4057-.0499-.2213.0062.0288-.0024.3852.1354.0411.0093-.3085-.113-.0175-.0073.0403.0207.1859.0901.3707.1809.5531.2777.7191.3817,1.4173.798,2.1603,1.1336,2.3423,1.0579,4.9457,1.5108,7.4975,1.1101,1.2879-.2022,2.4984-.7013,3.6788-1.2379.5749-.2613,1.1408-.5415,1.7104-.8141.2603-.1246.5213-.248.7842-.367.1303-.059.2613-.1166.3924-.1737-.2769.1207-.0312.0137.1068-.0406.2809-.1104.565-.2127.8533-.3021.1096-.034.2195-.0686.3308-.0969-.6193.1574.2359.0013.1914.0594l-.2725-.0301c.2702.0847.5404.0968.8107.0363.1355-.0153.2703-.0349.4045-.0587-.3152.0389-.3598.0457-.1339.0204.2761-.0164.5491-.0352.8259-.0239.0929.0038.3419-.0178.4204.0325-.2991-.0426-.3354-.0449-.1087-.007.0965.0186.1926.0392.2882.0616.3028.0684.5937.1637.8908.251.4967.146-.3356-.1836.1502.0563.1589.0784.3183.1543.4741.2391.3981.2166.7746.4663,1.1419.7312.7304.5267,1.8606.1975,2.3603-.4713.5172-.6922.5481-1.7853-.143-2.4024-1.1284-1.0075-2.4548-1.9497-3.9502-2.3123-1.3697-.3321-3.0073-.394-4.2505.327-.077.0446-.4615.24-.0437.0665-.1264.0525-.2633.0876-.392.1347-.317.1161-.6283.2487-.9384.3817-.522.2239-1.0314.4732-1.5348.7361-.987.5156-1.9603,1.0489-2.9663,1.5273-.4293.2042.3033-.1109-.1405.0618-.1347.0524-.2687.1057-.4046.1549-.2255.0816-.4536.1563-.6842.2218-.2777.0789-.5579.1342-.8398.1943-.443.0944.1928-.0061-.0812.0142-.171.0127-.3405.02-.5122.0178-1.102-.0141-2.2468-.2713-3.3969-.7006-.062-.0231-.4939-.2006-.1017-.0324-.1188-.0509-.2366-.1041-.3535-.1591-.1852-.0871-.3681-.1792-.5488-.2753-.3943-.2096-.7764-.4405-1.1561-.6753-.7356-.455-1.464-.9052-2.2811-1.2041.5398.1975.226.0887.1051.0335-.1884-.0861-.4085-.181-.6124-.254-.1465-.0525-.2943-.0997-.4457-.1362-.5318-.1283-1.1012-.1952-1.6499-.1821-1.4221.0339-2.7735.6241-4.0325,1.2361-1.5215.7395-2.9944,1.5999-4.492,2.3894-1.5255.8042-3.0086,1.6621-4.4729,2.5727-3.1212,1.9412-5.9797,4.2651-8.8024,6.6142-2.6762,2.2273-5.4156,4.4613-7.9033,6.8998-2.772,2.7171-5.4853,5.4947-8.1815,8.2868-2.7208,2.8175-5.6772,5.5093-8.0862,8.5998-.6068.7785-.799,1.7331-.153,2.5693.5539.7169,1.722,1.0659,2.5242.504h0Z" style="fill:#fff; stroke-width:0px;"/></g></svg>