<?xml version="1.0" encoding="UTF-8"?><svg id="ILLUSTRATIONS" xmlns="http://www.w3.org/2000/svg" viewBox="0 0 1000 1000"><path d="M975,533.7605h0c0-32.345-26.2207-58.5657-58.5656-58.5657h-56.4781c-30.6301,0-55.4607-24.8306-55.4607-55.4607h0c0-30.6302,24.8306-55.4608,55.4607-55.4608h16.9153c32.3449,0,58.5656-26.2207,58.5656-58.5656h0c0-32.345-26.2207-58.5657-58.5656-58.5657H277.3297c-31.8435,0-57.6577,25.8142-57.6577,57.6577h0c0,31.8436-25.8142,57.6578-57.6577,57.6578h-39.8226c-32.3449,0-58.5656,26.2207-58.5656,58.5656h0c0,32.345,26.2207,58.5657,58.5656,58.5657h.0001c27.8466,0,50.4207,22.5741,50.4207,50.4207v11.5889c0,27.8466-22.5741,50.4207-50.4207,50.4207h-38.6262c-32.3449,0-58.5656,26.2207-58.5656,58.5656h0c0,32.345,26.2207,58.5657,58.5656,58.5657h19.5007c32.3449,0,58.5656,26.2207,58.5656,58.5656h0c0,32.345,26.2207,58.5657,58.5656,58.5657h667.234c32.3449,0,58.5656-26.2207,58.5656-58.5656h0c0-32.345-26.2207-58.5657-58.5656-58.5657h-5.2107c-32.2601,0-58.4121-26.152-58.4121-58.4121h0c0-32.2602,26.152-58.4122,58.4121-58.4122h34.2137c32.3449,0,58.5656-26.2207,58.5656-58.5656Z" style="fill:#f0f2fd; stroke-width:0px;"/><circle cx="132.1747" cy="290.1656" r="40.4377" style="fill:#f0f2fd; stroke-width:0px;"/><circle cx="889.2539" cy="653.1883" r="25.5656" style="fill:#f0f2fd; stroke-width:0px;"/><rect x="713.5924" y="265.1127" width="12.5492" height="561.169" style="fill:#c9cffd; stroke-width:0px;"/><polygon points="578.4348 298.5237 726.1416 298.5237 726.1416 222.8435 578.4348 222.8435 550.48 260.6836 578.4348 298.5237" style="fill:#d5d9fd; stroke-width:0px;"/><polygon points="713.5924 394.5427 861.2991 394.5427 889.2539 356.7027 861.2991 318.8626 713.5924 318.8626 713.5924 394.5427" style="fill:#d5d9fd; stroke-width:0px;"/><polygon points="218.733 826.2816 374.8291 824.2919 374.8291 264.5684 218.733 360.3423 218.733 826.2816" style="fill:#e6e9fd; stroke-width:0px;"/><rect x="243.9461" y="412.1901" width="40.9589" height="40.9589" style="fill:#d5d9fd; stroke-width:0px;"/><rect x="311.9599" y="729.1349" width="40.9589" height="40.9589" style="fill:#d5d9fd; stroke-width:0px;"/><rect x="311.9599" y="358.1489" width="40.9589" height="40.9589" style="fill:#d5d9fd; stroke-width:0px;"/><polygon points="119.4416 795.3372 256.6334 795.3372 260.6857 826.2817 115.3892 826.2817 119.4416 795.3372" style="fill:#d5d9fd; stroke-width:0px;"/><path d="M188.0375,599.4817h-.0001c-28.5893,0-51.7655,23.1762-51.7655,51.7655v144.09s103.5311,0,103.5311,0v-144.09c0-28.5893-23.1762-51.7655-51.7655-51.7655Z" style="fill:#c9cffd; stroke-width:0px;"/><rect x="124.0699" y="646.3151" width="127.9351" height="18.3009" style="fill:#d5d9fd; stroke-width:0px;"/><rect x="109.4169" y="685.8683" width="157.2411" height="40.2162" style="fill:#c9cffd; stroke-width:0px;"/><rect x="175.4883" y="581.1808" width="25.0984" height="30.8201" style="fill:#c9cffd; stroke-width:0px;"/><circle cx="188.0375" cy="726.0845" r="34.5104" style="fill:#d5d9fd; stroke-width:0px;"/><circle cx="188.0375" cy="726.0845" r="23.5298" style="fill:#c9cffd; stroke-width:0px;"/><path d="M757.4684,826.2817s-.8179-60.3082-13.4254-69.8142c-16.579-12.5005-57.2787,12.8836-57.2787,12.8836,0,0,28.7498-46.3972,58.6665-43.0987,29.9166,3.2985,33.587,100.0293,33.587,100.0293h-21.5493Z" style="fill:#d5d9fd; stroke-width:0px;"/><path d="M779.0177,826.2817s11.347-70.5907,43.1857-67.4845c31.8387,3.1062,39.9101,13.2063,39.9101,13.2063,0,0-20.9154-50.1969-69.8036-34.1209-41.92,13.7846-45.4321,69.4491-45.4321,69.4491l10.5906,18.95h21.5493Z" style="fill:#c9cffd; stroke-width:0px;"/><path d="M699.4964,792.6574c39.2159-7.3772,57.9722,33.6243,57.9722,33.6243h21.5489c-18.6051-72.3177-79.5211-33.6243-79.5211-33.6243Z" style="fill:#d5d9fd; stroke-width:0px;"/><rect x="296.0551" y="430.8215" width="479.9146" height="66.8209" style="fill:#99531d; stroke-width:0px;"/><rect x="296.0551" y="514.3026" width="479.9146" height="55.3446" style="fill:#99531d; stroke-width:0px;"/><rect x="755.185" y="430.8215" width="20.7846" height="66.8209" style="fill:#843e1d; stroke-width:0px;"/><rect x="755.185" y="514.3026" width="20.7846" height="55.3446" style="fill:#843e1d; stroke-width:0px;"/><rect x="296.0551" y="430.8215" width="20.7846" height="66.8209" style="fill:#843e1d; stroke-width:0px;"/><rect x="296.0551" y="514.3026" width="20.7846" height="55.3446" style="fill:#843e1d; stroke-width:0px;"/><path d="M793.4803,625.8874H278.5444c-3.9741,0-7.1957-3.2216-7.1957-7.1957v-21.8746c0-8.6357,7.0006-15.6364,15.6364-15.6364h498.0544c8.6357,0,15.6364,7.0006,15.6364,15.6364v21.8746c0,3.9741-3.2216,7.1957-7.1957,7.1957Z" style="fill:#60351d; stroke-width:0px;"/><path d="M800.676,612.0009H271.3488v-16.3614c0-7.9853,6.4734-14.4587,14.4587-14.4587h500.4099c7.9853,0,14.4587,6.4734,14.4587,14.4587v16.3614Z" style="fill:#843e1d; stroke-width:0px;"/><rect x="659.9691" y="587.4475" width="129.4596" height="9.1433" rx="4.5717" ry="4.5717" style="fill:#a34c22; stroke-width:0px;"/><path d="M264.4492,826.2817h0c-5.0143,0-8.8321-4.4966-8.0187-9.4445l31.3892-190.9498h16.4709l-31.8225,193.5861c-.6455,3.9266-4.0394,6.8082-8.0187,6.8082Z" style="fill:#99531d; stroke-width:0px;"/><path d="M807.5755,826.2817h0c5.0143,0,8.8321-4.4966,8.0187-9.4445l-31.3892-190.9498h-16.4709s31.8225,193.5861,31.8225,193.5861c.6455,3.9266,4.0394,6.8082,8.0187,6.8082Z" style="fill:#99531d; stroke-width:0px;"/><path d="M775.9697,421.2656h0c-4.5483,0-8.2354,3.6871-8.2354,8.2354v151.6798s16.4709,0,16.4709,0v-151.6798c0-4.5483-3.6871-8.2354-8.2354-8.2354Z" style="fill:#c97d1d; stroke-width:0px;"/><polygon points="301.1577 644.9426 304.29 625.8874 287.8193 625.8874 284.6871 644.9426 301.1577 644.9426" style="fill:#7b461d; stroke-width:0px;"/><polygon points="787.3372 644.9426 784.2049 625.8874 767.7343 625.8874 770.8665 644.9426 787.3372 644.9426" style="fill:#7b461d; stroke-width:0px;"/><path d="M296.0551,421.2656h0c-4.5483,0-8.2354,3.6871-8.2354,8.2354v151.6798h16.4709v-151.6798c0-4.5483-3.6871-8.2354-8.2354-8.2354Z" style="fill:#c97d1d; stroke-width:0px;"/><path d="M618.5086,288.5016c3.8911-6.5931,6.133-14.2763,6.133-22.4864,0-24.4742-19.8403-44.3144-44.3148-44.3144-5.7798,0-11.2944,1.1182-16.3569,3.1307-10.6167-14.3543-27.1397-16.3666-27.1397-16.3666,0-20.7922-20.1856-33.5952-42.8773-27.5821-31.1773,8.262-31.292,38.0099-29.2817,42.6168-21.3442,3.1869-37.7158,21.5914-37.7158,43.823,0,3.0922.3186,6.1096.9211,9.0231-19.8483,9.1523-33.6308,29.2119-33.6308,52.5027,0,31.9221,25.8773,57.8002,57.7996,57.8002h110.2755l.1909-2.3752c9.3919,7.1575,21.1136,11.4152,33.8337,11.4152,30.8626,0,55.8822-25.0193,55.8822-55.8822,0-22.987-13.8835-42.724-33.7189-51.3048Z" style="fill:#34374e; stroke-width:0px;"/><path d="M555.1071,328.1802h-49.6924s-100.1074-2.2624-57.1126,186.172h163.9187c42.9937-188.4344-57.1137-186.172-57.1137-186.172Z" style="fill:#4f7eeb; stroke-width:0px;"/><path d="M518.4379,475.4934c-2.7682-10.2828-13.2721-17.3603-23.8502-16.1336,1.117-3.4194-1.1862-7.3381-4.5075-8.721-3.3202-1.3829-7.2499-.5858-10.3021,1.3181-3.0531,1.9037-5.0516,5.7756-7.0847,8.7432l-38.1502-1.065,26.1237-49.4675-53.8085-27.0814-54.2805,94.0153s-24.2004,41.3031,108.089,37.2507l45.0241-.0496c8.3629-8.1026,13.3463-19.593,13.5441-31.2362.0435-2.5463-.1346-5.1139-.7974-7.5729Z" style="fill:#e9a586; stroke-width:0px;"/><path d="M447.988,439.4309l-55.2454-31.8959,28.7586-49.8114c8.8078-15.2556,28.315-20.4825,43.5706-11.6747h0c15.2556,8.8078,20.4825,28.3151,11.6747,43.5707l-28.7587,49.8114Z" style="fill:#5f95eb; stroke-width:0px;"/><path d="M542.0844,475.4934c2.7682-10.2828,13.2721-17.3603,23.8502-16.1336-1.117-3.4194,1.1862-7.3381,4.5075-8.721,3.3202-1.3829,7.2499-.5858,10.3021,1.3181,3.0531,1.9037,5.0516,5.7756,7.0847,8.7432l38.1502-1.065-26.1237-49.4675,53.8085-27.0814,54.2805,94.0153s24.2004,41.3031-108.089,37.2507l-45.0241-.0496c-8.3629-8.1026-13.3463-19.593-13.5441-31.2362-.0435-2.5463.1346-5.1139.7974-7.5729Z" style="fill:#e9a586; stroke-width:0px;"/><path d="M612.5343,439.4309l55.2454-31.8959-28.7586-49.8114c-8.8078-15.2556-28.315-20.4825-43.5706-11.6747h0c-15.2556,8.8078-20.4825,28.3151-11.6747,43.5707l28.7587,49.8114Z" style="fill:#5f95eb; stroke-width:0px;"/><path d="M553.5393,328.1802l3.5854-33.0472h-53.7264l3.5844,33.0472c-6.0835,3.0217-9.8598,7.2155-9.8598,11.8555,0,9.2049,14.8372,16.667,33.1381,16.667s33.1381-7.4621,33.1381-16.667c0-4.6399-3.7763-8.8337-9.8598-11.8555Z" style="fill:#e9a586; stroke-width:0px;"/><path d="M481.9811,290.1656h8.5735v-37.5418h-23.5298v22.5855c0,8.2601,6.6961,14.9563,14.9563,14.9563Z" style="fill:#e1e1eb; stroke-width:0px;"/><path d="M570.3301,290.1656h8.5735c8.2601,0,14.9563-6.6961,14.9563-14.9563v-22.5855h-23.5298v37.5418Z" style="fill:#e1e1eb; stroke-width:0px;"/><path d="M530.261,324.3492c9.0644,0,17.4926-2.7752,24.5081-7.5048l2.3556-21.7114h-53.7264l2.3546,21.7114c7.0155,4.7296,15.4437,7.5048,24.5081,7.5048h0Z" style="fill:#e98e72; stroke-width:0px;"/><path d="M530.2612,318.2707h0c-23.4641,0-42.7834-18.4449-43.8695-41.8838l-2.1116-45.5686h91.9623l-2.1116,45.5686c-1.0861,23.4389-20.4055,41.8838-43.8695,41.8838Z" style="fill:#e9a586; stroke-width:0px;"/><path d="M485.402,255.0266c3.1125,1.6003,6.6336,2.5202,10.3743,2.5202,9.1307,0,16.9831-5.3929,20.6021-13.1563,6.8374,11.4117,19.2883,19.0752,33.5596,19.0752,9.6145,0,18.4058-3.4801,25.2194-9.2313l1.0853-23.4161h-91.9627l1.1219,24.2083Z" style="fill:#e98e72; stroke-width:0px;"/><path d="M551.893,173.7183c-21.5598,0-39.3779,15.8143-42.6151,36.4653-4.4897-4.2133-10.5118-6.8125-17.1543-6.8125-13.8617,0-25.0987,11.237-25.0987,25.0985s11.237,25.0983,25.0987,25.0983c10.0755,0,18.7412-5.9513,22.7352-14.5185,7.5457,12.5933,21.2858,21.0503,37.0342,21.0503,23.8541,0,43.1909-19.3371,43.1909-43.1908s-19.3368-43.1906-43.1909-43.1906Z" style="fill:#34374e; stroke-width:0px;"/><path d="M573.0314,217.7642c10.8007,12.1206,10.861,29.7671,10.6276,34.8596h10.026c.3522-3.8937,1.5018-25.1362-13.0059-41.505-10.9976-12.4084-27.9609-18.6996-50.4171-18.6996s-39.4195,6.2913-50.4191,18.6996c-15.691,17.7034-13.0653,41.1241-12.9446,42.1135l.1266.0356v-.6441h9.7757c-.0989-7.12.8281-23.734,10.6246-34.7844,8.9912-10.1457,23.404-15.2894,42.8367-15.2894,19.3833,0,33.7723,5.1189,42.7694,15.2142Z" style="fill:#fff; stroke-width:0px;"/><path d="M518.851,297.0141c-.6636,0-1.091.6768-.8428,1.2922,1.9566,4.8519,6.7009,8.2791,12.2537,8.2791s10.2961-3.4272,12.2527-8.2791c.2482-.6155-.1791-1.2922-.8428-1.2922h-22.8208Z" style="fill:#c2635e; stroke-width:0px;"/><path d="M523.6413,304.7746c1.949,1.1366,4.1998,1.8109,6.6207,1.8109s4.6717-.6744,6.6207-1.8112c-1.302-2.3294-3.7625-3.9231-6.6207-3.9231s-5.3187,1.5938-6.6207,3.9235Z" style="fill:#e98e72; stroke-width:0px;"/><path d="M536.4493,297.0141h-12.3747c1.4553,1.826,3.6715,3.0191,6.1874,3.0191s4.732-1.1932,6.1874-3.0191Z" style="fill:#fff; stroke-width:0px;"/><ellipse cx="518.998" cy="273.0412" rx="2.353" ry="3.268" style="fill:#34374e; stroke-width:0px;"/><ellipse cx="541.5244" cy="273.0412" rx="2.353" ry="3.268" style="fill:#34374e; stroke-width:0px;"/><path d="M504.8714,206.4122c7.1688-2.568,15.6475-3.8622,25.3906-3.8622s18.2208,1.2954,25.3886,3.8636l2.2438-9.936c-8.0038-2.6881-17.2196-4.0585-27.6324-4.0585s-19.6296,1.3706-27.6334,4.0589l2.2428,9.9341Z" style="fill:#e1e1eb; stroke-width:0px;"/><path d="M542.6531,250.8031c-1.6325-.7086-3.2409-1.6658-4.202-3.1637-.961-1.4978-1.0922-3.6425.0958-4.9675.6892-.7686,1.6988-1.1595,2.6868-1.4586,5.9508-1.8018,12.6079-1.1379,18.0856,1.8036,1.8639,1.0009,4.2525,2.8022,4.0699,5.2199-.1523,2.0173-2.2632,2.775-3.9358,3.2579-5.5206,1.594-11.4773,1.6189-16.8004-.6916Z" style="fill:#494d6e; stroke-width:0px;"/><rect x="413.837" y="513.8331" width="237.2403" height="67.3476" rx="33.6738" ry="33.6738" style="fill:#34374e; stroke-width:0px;"/><path d="M518.0885,784.9738h-73.2952l5.6312-231.5281c.5431-22.3314,19.0243-40.0292,41.3583-39.6051h0c23.0539.4377,41.1158,19.9641,39.7585,42.9821l-13.4529,228.1511Z" style="fill:#e9a586; stroke-width:0px;"/><polygon points="446.4848 715.4302 444.793 784.9738 518.0887 784.9738 522.1895 715.4302 446.4848 715.4302" style="fill:#e1e1eb; stroke-width:0px;"/><path d="M479.0341,759.8754h0c-26.9037,0-48.7134,21.8097-48.7134,48.7134v1.4835h97.4269v-1.4835c0-26.9037-21.8097-48.7134-48.7134-48.7134Z" style="fill:#34374e; stroke-width:0px;"/><path d="M522.4293,826.2817h-86.7905c-2.9372,0-5.3182-2.381-5.3182-5.3182v-10.8912h97.4269v10.8912c0,2.9372-2.381,5.3182-5.3182,5.3182Z" style="fill:#1a1b2e; stroke-width:0px;"/><path d="M546.8259,784.9738h73.2952s-5.6312-231.5281-5.6312-231.5281c-.5431-22.3314-19.0243-40.0292-41.3583-39.6051h0c-23.0539.4377-41.1158,19.9641-39.7585,42.9821l13.4529,228.1511Z" style="fill:#e9a586; stroke-width:0px;"/><path d="M614.4899,553.4457c-.5432-22.3314-19.0241-40.0292-41.3586-39.6051-1.204.0229-2.3873.1276-3.5626.2525,19.9937,2.1069,35.7926,18.7378,36.2932,39.3526l5.6314,231.5281h8.6281l-5.6314-231.5281Z" style="fill:#e98e72; stroke-width:0px;"/><polygon points="618.4296 715.4302 620.1214 784.9738 546.8257 784.9738 542.7249 715.4302 618.4296 715.4302" style="fill:#e1e1eb; stroke-width:0px;"/><polygon points="611.4932 784.9737 620.1213 784.9737 619.4139 755.887 618.4295 715.4301 609.8014 715.4301 611.4932 784.9737" style="fill:#bcbcc4; stroke-width:0px;"/><path d="M585.8803,759.8754h0c26.9037,0,48.7134,21.8097,48.7134,48.7134v1.4835h-97.4269v-1.4835c0-26.9037,21.8097-48.7134,48.7134-48.7134Z" style="fill:#34374e; stroke-width:0px;"/><path d="M542.4851,826.2817h86.7905c2.9372,0,5.3182-2.381,5.3182-5.3182v-10.8912s-97.4269,0-97.4269,0v10.8912c0,2.9372,2.381,5.3182,5.3182,5.3182Z" style="fill:#1a1b2e; stroke-width:0px;"/><rect x="401.0878" y="608.9578" width="133.1642" height="15.6694" rx="7.8347" ry="7.8347" transform="translate(-163.3785 1065.0402) rotate(-88.2166)" style="fill:#f0bda6; stroke-width:0px;"/><ellipse cx="465.2335" cy="780.8019" rx="13.9872" ry="7.7125" transform="translate(-273.4618 251.252) rotate(-23.5761)" style="fill:#494d6e; stroke-width:0px;"/><path d="M624.3815,514.3522h-182.1262c-5.2251,0-9.6289-3.8985-10.2626-9.085l-12.0581-98.6886c-.5396-4.416,2.9065-8.3087,7.3553-8.3087h210.3347c4.3978,0,7.8278,3.808,7.3697,8.1818l-10.3302,98.6385c-.5513,5.2643-4.9895,9.262-10.2826,9.262Z" style="fill:#e1e1eb; stroke-width:0px;"/><circle cx="532.4572" cy="460.6259" r="17.4826" style="fill:#bcbcc4; stroke-width:0px;"/><path d="M531.6587,439.8365c.4671-3.2103,3.4235-9.8555,12.3269-9.3393.5868.034,1.0171.5699.9856,1.1569-.1389,2.5903-1.9018,4.9813-3.9499,6.673-2.4307,2.0077-5.3411,2.9033-8.4244,2.6732-.5787-.0432-1.0217-.5897-.9382-1.1639Z" style="fill:#bcbcc4; stroke-width:0px;"/><rect x="435.0415" y="408.8604" width="62.0813" height="12.4052" rx="6.2026" ry="6.2026" style="fill:#f4f4ff; stroke-width:0px;"/><circle cx="512.0988" cy="415.063" r="5.9602" style="fill:#f4f4ff; stroke-width:0px;"/></svg>